<svg width="39" height="32" viewBox="0 0 39 32" fill="none" xmlns="http://www.w3.org/2000/svg">
<path d="M6.67974 17.9768C6.88288 18.1938 6.99434 18.3178 7.11101 18.4365C10.3838 21.7667 13.6578 25.0956 16.9297 28.4266C17.7185 29.2295 17.8998 30.0611 17.4807 30.8999C16.9124 32.0375 15.5195 32.3527 14.5337 31.5623C14.3789 31.4382 14.2366 31.2967 14.0968 31.1546C9.68127 26.6649 5.26661 22.1742 0.852262 17.6832C-0.286585 16.5247 -0.284094 15.4791 0.859811 14.3153C5.29541 9.8023 9.73373 5.29164 14.1651 0.774482C14.7689 0.159147 15.4463 -0.173937 16.3022 0.0928001C17.6277 0.505926 18.113 2.09969 17.2582 3.20621C17.1271 3.37596 16.9759 3.53074 16.8254 3.68379C13.5854 6.98151 10.3442 10.2781 7.10362 13.5755C6.98812 13.6932 6.87782 13.8161 6.67982 14.0279C6.95885 14.0279 7.13226 14.0279 7.30583 14.0279C17.1421 14.0279 26.9783 14.031 36.8146 14.0218C37.5513 14.0211 38.1653 14.2263 38.6069 14.8392C39.0484 15.452 39.1215 16.128 38.8085 16.8135C38.4902 17.5103 37.9414 17.9153 37.1714 17.9697C36.9895 17.9826 36.8062 17.9768 36.6235 17.9768C26.8627 17.9771 17.102 17.9769 7.34108 17.9769C7.16238 17.9768 6.98352 17.9768 6.67974 17.9768Z" fill="#2B3438"/>
</svg>
