<svg width="33" height="33" viewBox="0 0 33 33" fill="none" xmlns="http://www.w3.org/2000/svg">
<path d="M16.4999 32.9993C18.5471 32.9993 20.2068 31.3396 20.2068 29.2924C20.2068 27.2451 18.5471 25.5854 16.4999 25.5854C14.4526 25.5854 12.793 27.2451 12.793 29.2924C12.793 31.3396 14.4526 32.9993 16.4999 32.9993Z" fill="url(#paint0_linear)"/>
<path d="M16.4998 25.5869C14.569 25.5869 12.9837 27.0633 12.8096 28.9487L16.8449 32.9841C18.7302 32.8099 20.2067 31.2246 20.2067 29.2938C20.2067 27.2465 18.5471 25.5869 16.4998 25.5869Z" fill="url(#paint1_linear)"/>
<path d="M28.647 22.8296H4.35287C2.69365 22.8296 1.34863 24.1746 1.34863 25.8339C1.34863 27.4931 2.69365 28.8382 4.35287 28.8382H28.647C30.3063 28.8382 31.6513 27.4931 31.6513 25.8339C31.6513 24.1746 30.3063 22.8296 28.647 22.8296Z" fill="url(#paint2_linear)"/>
<path d="M26.9084 20.5622V14.5399C26.9084 9.66942 23.5632 5.58198 19.0454 4.44638C19.3031 4.0079 19.4523 3.49705 19.4523 2.9519C19.4522 1.32181 18.1304 0 16.5003 0C14.8702 0 13.5484 1.32181 13.5484 2.9519C13.5484 3.49711 13.6976 4.0079 13.9553 4.44638C9.43739 5.58198 6.09303 9.66949 6.09303 14.5399V20.5622C6.09303 21.8659 5.03612 22.9229 3.73242 22.9229H29.2682C27.9644 22.9229 26.9084 21.8659 26.9084 20.5622ZM16.5003 4.13185C15.8484 4.13185 15.3195 3.60385 15.3195 2.95196C15.3195 2.29918 15.8484 1.77118 16.5003 1.77118C17.1522 1.77118 17.6811 2.29918 17.6811 2.95196C17.6811 3.60385 17.1522 4.13185 16.5003 4.13185Z" fill="url(#paint3_linear)"/>
<path d="M1.38574 26.4307C1.61255 27.8652 2.85438 28.9622 4.35266 28.8265H28.6468C30.1452 28.9622 31.3869 27.8652 31.6137 26.4307H1.38574Z" fill="url(#paint4_linear)"/>
<defs>
<linearGradient id="paint0_linear" x1="15.9125" y1="28.3125" x2="22.2914" y2="38.9436" gradientUnits="userSpaceOnUse">
<stop stop-color="#FFC200"/>
<stop offset="0.268" stop-color="#FFBB00"/>
<stop offset="0.659" stop-color="#FFA801"/>
<stop offset="1" stop-color="#FF9102"/>
</linearGradient>
<linearGradient id="paint1_linear" x1="22.2413" y1="34.086" x2="13.7614" y2="25.6061" gradientUnits="userSpaceOnUse">
<stop stop-color="#FFC200" stop-opacity="0"/>
<stop offset="0.203" stop-color="#FFBB00" stop-opacity="0.203"/>
<stop offset="0.499" stop-color="#FFA700" stop-opacity="0.499"/>
<stop offset="0.852" stop-color="#FF8800" stop-opacity="0.852"/>
<stop offset="1" stop-color="#FF7800"/>
</linearGradient>
<linearGradient id="paint2_linear" x1="12.783" y1="19.638" x2="28.7047" y2="46.1737" gradientUnits="userSpaceOnUse">
<stop stop-color="#FFC200"/>
<stop offset="0.268" stop-color="#FFBB00"/>
<stop offset="0.659" stop-color="#FFA801"/>
<stop offset="1" stop-color="#FF9102"/>
</linearGradient>
<linearGradient id="paint3_linear" x1="12.7337" y1="13.3741" x2="27.2597" y2="27.0566" gradientUnits="userSpaceOnUse">
<stop stop-color="#FFC200"/>
<stop offset="0.268" stop-color="#FFBB00"/>
<stop offset="0.659" stop-color="#FFA801"/>
<stop offset="1" stop-color="#FF9102"/>
</linearGradient>
<linearGradient id="paint4_linear" x1="30.0353" y1="26.1043" x2="0.00832787" y2="29.2029" gradientUnits="userSpaceOnUse">
<stop stop-color="#FFC200" stop-opacity="0"/>
<stop offset="0.203" stop-color="#FFBB00" stop-opacity="0.203"/>
<stop offset="0.499" stop-color="#FFA700" stop-opacity="0.499"/>
<stop offset="0.852" stop-color="#FF8800" stop-opacity="0.852"/>
<stop offset="1" stop-color="#FF7800"/>
</linearGradient>
</defs>
</svg>
