<svg width="97" height="97" viewBox="0 0 97 97" fill="none" xmlns="http://www.w3.org/2000/svg">
<g clip-path="url(#clip0)">
<path d="M26.7648 63.7002L20.9113 69.5547L27.4491 76.0935L33.3036 70.2382" fill="#FFCB7C"/>
<path d="M57.0224 78.0475C78.0487 78.0475 95.0939 61.0001 95.0939 39.971C95.0939 18.942 78.0487 1.89453 57.0224 1.89453C35.996 1.89453 18.9508 18.942 18.9508 39.971C18.9508 61.0001 35.996 78.0475 57.0224 78.0475Z" fill="#8481E2"/>
<path d="M78.8003 58.9872C89.3222 46.9462 88.1003 28.6637 76.0711 18.1522C64.0419 7.6406 45.7607 8.88046 35.2388 20.9215C24.7169 32.9625 25.9388 51.2449 37.968 61.7565C49.9972 72.2681 68.2784 71.0282 78.8003 58.9872Z" fill="#E5ECEC"/>
<path d="M85.9545 42.5491C85.1495 42.5491 84.4228 42.0211 84.1619 41.2629C83.9156 40.5471 84.1376 39.7293 84.7052 39.2306C85.324 38.6871 86.2542 38.6098 86.9541 39.045C87.6077 39.4513 87.9549 40.2372 87.8166 40.9935C87.6545 41.8814 86.8589 42.5491 85.9545 42.5491Z" fill="black"/>
<path d="M68.5214 31.9589C68.5341 25.6227 63.4085 20.4759 57.0732 20.4633C50.7378 20.4506 45.5917 25.5768 45.579 31.913C45.5663 38.2492 50.6919 43.396 57.0273 43.4087C63.3626 43.4214 68.5087 38.2951 68.5214 31.9589Z" fill="#FFCBBE"/>
<path d="M57.0254 45.2897C49.6555 45.2897 43.6597 39.2933 43.6597 31.9224C43.6597 24.5517 49.6555 18.5552 57.0254 18.5552C64.3953 18.5552 70.3911 24.5517 70.3911 31.9224C70.3913 39.2933 64.3953 45.2897 57.0254 45.2897ZM57.0254 22.3442C51.7448 22.3442 47.4487 26.641 47.4487 31.9224C47.4487 37.2038 51.7448 41.5006 57.0254 41.5006C62.306 41.5006 66.6021 37.2038 66.6021 31.9224C66.6022 26.641 62.306 22.3442 57.0254 22.3442Z" fill="black"/>
<path d="M71.0152 53.3501V65.304C62.3356 70.1106 51.7156 70.1205 43.036 65.332V53.3503C43.036 51.2384 44.7488 49.5254 46.8603 49.5254H67.1909C69.3021 49.5252 71.0152 51.2382 71.0152 53.3501Z" fill="#F5737F"/>
<path d="M13.1583 72.8203L4.18502 81.7947C1.14032 84.8398 1.14032 89.7768 4.18502 92.8216C7.22972 95.8667 12.1659 95.8667 15.2106 92.8216L24.1839 83.8472L13.1583 72.8203Z" fill="#FFD89E"/>
<path d="M13.1511 72.8105L18.6598 67.3019L29.6844 78.3265L24.1758 83.8352L13.1511 72.8105Z" fill="#9BC6FF"/>
<path d="M84.9705 47.7191C83.9825 47.3739 82.9022 47.8956 82.5576 48.8834C81.2115 52.7407 79.0516 56.1747 76.1384 59.0897C75.1301 60.0979 74.0506 61.0213 72.9097 61.8526V53.3494C72.9097 50.1958 70.3441 47.63 67.1909 47.63H46.8601C43.7066 47.63 41.1413 50.1958 41.1413 53.3494V61.8854C39.9922 61.0503 38.9059 60.1226 37.8929 59.1094C27.3538 48.569 27.3627 31.4098 37.9128 20.8586C43.0235 15.7471 49.8165 12.9302 57.0405 12.9268H57.0536C64.2718 12.9268 71.0561 15.7363 76.1579 20.8387C79.0891 23.7703 81.2549 27.2299 82.5953 31.1213C82.9361 32.1106 84.0143 32.6363 85.0034 32.2957C85.9928 31.9549 86.5185 30.8767 86.1779 29.8875C84.6486 25.4475 82.1789 21.5016 78.8373 18.1596C73.0196 12.3412 65.2848 9.1377 57.0536 9.1377H57.0387C48.8031 9.14167 41.059 12.3527 35.2332 18.1793C23.2061 30.2079 23.1972 49.7708 35.2133 61.7884C37.2711 63.8466 39.5951 65.5966 42.1204 66.99C42.1209 66.9904 42.1215 66.9906 42.1221 66.9908C46.6521 69.4895 51.7946 70.8098 56.997 70.8098H57.0271C62.2391 70.8047 67.3925 69.4742 71.93 66.962C71.9306 66.9616 71.9312 66.9614 71.9318 66.9611C74.446 65.5707 76.7626 63.8237 78.8178 61.7682C82.1374 58.4465 84.5993 54.5314 86.1347 50.1316C86.4797 49.1441 85.9583 48.0639 84.9705 47.7191ZM44.9303 64.1863V53.3496C44.9303 52.2853 45.7959 51.4193 46.8601 51.4193H67.1907C68.2548 51.4193 69.1205 52.2853 69.1205 53.3496V64.1606C61.5647 67.9405 52.4872 67.9502 44.9303 64.1863Z" fill="black"/>
<path d="M57.0224 0C34.985 0 17.0565 17.931 17.0565 39.971C17.0565 48.6449 19.8338 56.6821 24.5452 63.2406L20.9113 66.8749L20.0072 65.9706C19.6518 65.6154 19.17 65.4157 18.6674 65.4157C18.165 65.4157 17.683 65.6154 17.3276 65.9706L11.8185 71.4807C11.8179 71.4812 11.8173 71.482 11.8168 71.4826L2.8454 80.4551C-0.932868 84.2339 -0.932868 90.3824 2.8454 94.1612C4.6757 95.9919 7.10942 97 9.69792 97C12.2864 97 14.7201 95.9917 16.5502 94.1612L25.5235 85.1868H25.5237L31.0328 79.677C31.7724 78.9372 31.7724 77.7377 31.0328 76.9979L30.1284 76.0935L33.7634 72.4581C40.3198 77.1667 48.353 79.9422 57.0226 79.9422C79.0599 79.9422 96.9886 62.0112 96.9886 39.9712C96.9886 17.9312 79.0597 0 57.0224 0V0ZM13.8708 91.4822C12.7563 92.5969 11.2742 93.2109 9.69792 93.2109C8.12148 93.2109 6.63938 92.5969 5.52483 91.4822C3.22354 89.1805 3.22354 85.4358 5.52483 83.1341L13.1583 75.4995L17.3272 79.6688L21.5048 83.847L13.8708 91.4822ZM24.1839 81.1678L20.015 76.9985L15.8373 72.8203L18.6674 69.9899L27.0139 78.3373L24.1839 81.1678ZM27.4491 73.4138L25.5205 71.485L23.5901 69.5545L26.9147 66.2296C28.1124 67.6014 29.402 68.891 30.774 70.0886L27.4491 73.4138ZM57.0224 76.153C37.0743 76.153 20.8453 59.9217 20.8453 39.971C20.8455 20.0203 37.0745 3.78906 57.0224 3.78906C76.9703 3.78906 93.1994 20.0203 93.1994 39.971C93.1994 59.9217 76.9705 76.153 57.0224 76.153Z" fill="black"/>
</g>
<defs>
<clipPath id="clip0">
<rect width="97" height="97" fill="white"/>
</clipPath>
</defs>
</svg>
