<svg width="292" height="128" viewBox="0 0 292 128" fill="none" xmlns="http://www.w3.org/2000/svg">
<path d="M268.972 93.2606L273.848 85.4736C274.595 84.2821 276.458 84.7277 276.562 86.1228L277.248 95.2405C277.295 95.8644 277.746 96.3873 278.365 96.5353L287.444 98.7073C288.828 99.0382 288.97 100.915 287.651 101.443L279.002 104.909C278.41 105.145 278.043 105.73 278.093 106.355L278.815 115.487C278.924 116.883 277.149 117.599 276.23 116.53L270.212 109.532C269.801 109.053 269.122 108.891 268.531 109.13L259.913 112.626C258.596 113.16 257.354 111.723 258.105 110.533L263.02 102.75C263.357 102.217 263.304 101.531 262.89 101.054L256.831 94.0701C255.908 93.0058 256.912 91.4034 258.295 91.7343L267.375 93.9063C267.993 94.0542 268.639 93.7935 268.972 93.2606Z" fill="#FBE6B5"/>
<path d="M147.722 15.7183L148.045 4.06983C148.088 2.5173 150.131 1.93037 151.019 3.2147L157.685 12.8539C158.083 13.4294 158.813 13.686 159.492 13.4893L170.87 10.1913C172.385 9.75165 173.586 11.479 172.616 12.7061L165.344 21.9119C164.91 22.461 164.887 23.2231 165.287 23.7968L171.996 33.4068C172.89 34.6874 171.589 36.3428 170.101 35.8165L158.941 31.8672C158.275 31.6315 157.531 31.8457 157.099 32.3971L149.868 41.6338C148.904 42.8646 146.9 42.1602 146.95 40.6085L147.325 28.9611C147.347 28.2665 146.91 27.6368 146.243 27.4037L135.065 23.5026C133.575 22.9819 133.638 20.8924 135.156 20.4593L146.548 17.2102C147.228 17.0168 147.702 16.4136 147.722 15.7183Z" fill="#C2C1FC"/>
<path d="M17.8061 95.7938L18.1314 84.0894C18.1742 82.5297 20.2274 81.9392 21.1197 83.2302L27.8171 92.9152C28.2168 93.4933 28.9509 93.7519 29.6332 93.5543L41.0648 90.2404C42.5883 89.7986 43.7938 91.5343 42.8205 92.767L35.5132 102.017C35.0767 102.569 35.0543 103.335 35.4562 103.911L42.1967 113.567C43.0949 114.854 41.7876 116.517 40.2929 115.988L29.0803 112.02C28.4102 111.783 27.6623 111.999 27.2288 112.552L19.9631 121.834C18.9948 123.07 16.9806 122.362 17.0309 120.803L17.4076 109.1C17.4301 108.402 16.9904 107.769 16.3203 107.535L5.08905 103.615C3.59283 103.093 3.65568 100.993 5.18104 100.557L16.6271 97.2929C17.3105 97.098 17.787 96.492 17.8061 95.7938Z" fill="#F98BAF"/>
<path d="M224.981 11.1768C223.629 10.8533 222.8 9.51463 223.13 8.18636L223.953 4.86475C224.282 3.53648 225.645 2.72211 226.997 3.04557C228.349 3.36903 229.178 4.7077 228.849 6.03596L228.026 9.35757C227.696 10.6858 226.334 11.5002 224.981 11.1768Z" fill="#E488D6"/>
<path d="M221.036 27.0937C219.684 26.7703 218.855 25.4316 219.184 24.1033L220.007 20.7817C220.337 19.4535 221.699 18.6391 223.051 18.9626C224.404 19.286 225.233 20.6247 224.903 21.953L224.08 25.2746C223.751 26.6028 222.388 27.4172 221.036 27.0937Z" fill="#E488D6"/>
<path d="M233.212 19.8169L229.831 19.008C228.48 18.6848 227.65 17.3459 227.979 16.0176C228.308 14.6893 229.672 13.8752 231.023 14.1984L234.405 15.0073C235.757 15.3307 236.586 16.6694 236.256 17.9977C235.927 19.3259 234.564 20.1403 233.212 19.8169Z" fill="#E488D6"/>
<path d="M217.01 15.9409L213.628 15.132C212.276 14.8085 211.447 13.4699 211.777 12.1416C212.106 10.8133 213.468 9.99897 214.821 10.3224L218.202 11.1313C219.554 11.4547 220.383 12.7934 220.054 14.1217C219.725 15.4499 218.362 16.2643 217.01 15.9409Z" fill="#E488D6"/>
<path d="M63.3881 40.2617C62.0359 39.9383 61.2069 38.5996 61.5362 37.2713L62.3596 33.9497C62.6889 32.6214 64.0516 31.8071 65.4037 32.1305C66.7558 32.454 67.5848 33.7927 67.2556 35.1209L66.4322 38.4425C66.1029 39.7708 64.7402 40.5852 63.3881 40.2617Z" fill="#1E7F9D"/>
<path d="M59.4424 56.1787C58.0903 55.8552 57.2613 54.5166 57.5905 53.1883L58.4139 49.8667C58.7432 48.5384 60.1059 47.7241 61.4581 48.0475C62.8102 48.371 63.6392 49.7096 63.3099 51.0379L62.4865 54.3595C62.1573 55.6878 60.7945 56.5022 59.4424 56.1787Z" fill="#1E7F9D"/>
<path d="M71.6189 48.9018L68.2376 48.0929C66.8864 47.7697 66.0565 46.4308 66.3858 45.1025C66.715 43.7743 68.0787 42.9601 69.4299 43.2834L72.8112 44.0922C74.1633 44.4157 74.9923 45.7544 74.663 47.0826C74.3338 48.4109 72.971 49.2253 71.6189 48.9018Z" fill="#1E7F9D"/>
<path d="M55.4163 45.0258L52.035 44.217C50.6828 43.8935 49.8538 42.5548 50.1831 41.2266C50.5124 39.8983 51.8751 39.0839 53.2272 39.4074L56.6085 40.2163C57.9607 40.5397 58.7897 41.8784 58.4604 43.2067C58.1311 44.5349 56.7684 45.3493 55.4163 45.0258Z" fill="#1E7F9D"/>
<path d="M127.028 90.2164C126.37 92.872 123.644 94.5017 120.94 93.8548C118.236 93.2079 116.578 90.5296 117.236 87.874C117.895 85.2175 120.62 83.5888 123.325 84.2357C126.029 84.8826 127.687 87.5599 127.028 90.2164Z" fill="#0B06A3"/>
<path d="M120.344 96.2597C116.294 95.291 113.802 91.2668 114.788 87.2886C115.775 83.3103 119.871 80.8623 123.921 81.831C127.97 82.7998 130.462 86.824 129.476 90.8022C128.49 94.7804 124.394 97.2285 120.344 96.2597ZM122.728 86.6406C121.378 86.3176 120.013 87.1334 119.684 88.4598C119.356 89.7852 120.186 91.1272 121.536 91.4502C122.886 91.7732 124.252 90.9564 124.58 89.631C124.909 88.3046 124.079 86.9636 122.728 86.6406Z" fill="#B889E7"/>
<path d="M220.915 60.796C220.257 63.4516 217.531 65.0813 214.827 64.4344C212.122 63.7875 210.465 61.1092 211.123 58.4536C211.781 55.7971 214.507 54.1683 217.211 54.8153C219.915 55.4622 221.573 58.1395 220.915 60.796Z" fill="#0B06A3"/>
<path d="M214.23 66.8398C210.181 65.871 207.689 61.8459 208.675 57.8686C209.661 53.8904 213.757 51.4423 217.807 52.4111C221.857 53.3799 224.349 57.4041 223.363 61.3823C222.377 65.3596 218.28 67.8086 214.23 66.8398ZM216.615 57.2207C215.265 56.8977 213.9 57.7135 213.571 59.0399C213.242 60.3653 214.072 61.7072 215.423 62.0302C216.773 62.3532 218.138 61.5365 218.467 60.2111C218.796 58.8847 217.965 57.5437 216.615 57.2207Z" fill="#B889E7"/>
</svg>
