<svg width="28" height="28" viewBox="0 0 28 28" fill="none" xmlns="http://www.w3.org/2000/svg">
<g clip-path="url(#clip0)">
<path d="M26.0307 9.04297H1.96933C1.365 9.04297 0.875 9.54813 0.875 10.17V23.6555C0.875 25.521 2.34733 27.0376 4.15567 27.0376H23.8432C25.6527 27.0376 27.1238 25.5198 27.1238 23.6555V10.17C27.125 9.54813 26.635 9.04297 26.0307 9.04297Z" fill="#FF7E47"/>
<path d="M23.8203 2.91797H4.17601C2.36768 2.91797 0.902344 4.32964 0.902344 6.0703V9.26464H27.0952V6.0703C27.094 4.32964 25.6287 2.91797 23.8203 2.91797Z" fill="#FF8A58"/>
<path d="M13.9974 21.3477L10.9326 23.0417L11.5182 19.4542L9.03906 16.9132L12.4656 16.3893L13.9974 13.125L15.5292 16.3893L18.9557 16.9132L16.4766 19.4542L17.0622 23.0417L13.9974 21.3477Z" fill="#5A78C0"/>
<path d="M17.0636 23.9163C16.9178 23.9163 16.7719 23.8801 16.6401 23.8066L13.9988 22.3471L11.3574 23.8066C11.0646 23.9688 10.7029 23.9489 10.4299 23.7564C10.1558 23.5628 10.0169 23.2303 10.0694 22.9001L10.5839 19.7478L8.41276 17.5229C8.1841 17.2884 8.10476 16.9443 8.20976 16.6339C8.3136 16.3224 8.58193 16.0973 8.90743 16.0471L11.8719 15.5933L13.2066 12.7513C13.4936 12.1376 14.5028 12.1376 14.7898 12.7513L16.1244 15.5933L19.0889 16.0471C19.4133 16.0961 19.6828 16.3224 19.7866 16.6339C19.8916 16.9454 19.8123 17.2884 19.5836 17.5229L17.4124 19.7478L17.9269 22.9001C17.9806 23.2303 17.8418 23.5628 17.5664 23.7564C17.4171 23.8626 17.2398 23.9163 17.0636 23.9163ZM13.9988 20.4723C14.1446 20.4723 14.2904 20.5084 14.4223 20.5819L15.9086 21.4044L15.6134 19.5949C15.5691 19.3208 15.6566 19.0419 15.8503 18.8424L17.1406 17.5206L15.3988 17.2534C15.1106 17.2091 14.8633 17.0248 14.7396 16.7611L13.9988 15.1838L13.2579 16.7611C13.1343 17.0248 12.8869 17.2103 12.5988 17.2534L10.8558 17.5206L12.1461 18.8424C12.3398 19.0408 12.4273 19.3208 12.3829 19.5949L12.0878 21.4044L13.5741 20.5819C13.7071 20.5084 13.8529 20.4723 13.9988 20.4723Z" fill="#FFC107"/>
<path d="M17.0636 23.9163C16.9178 23.9163 16.7719 23.8801 16.6401 23.8066L13.9988 22.3471L11.3574 23.8066C11.0646 23.9688 10.7029 23.9489 10.4299 23.7564C10.1558 23.5628 10.0169 23.2303 10.0694 22.9001L10.5839 19.7478L8.41276 17.5229C8.1841 17.2884 8.10476 16.9443 8.20976 16.6339C8.3136 16.3224 8.58193 16.0973 8.90743 16.0471L11.8719 15.5933L13.2066 12.7513C13.4936 12.1376 14.5028 12.1376 14.7898 12.7513L16.1244 15.5933L19.0889 16.0471C19.4133 16.0961 19.6828 16.3224 19.7866 16.6339C19.8916 16.9454 19.8123 17.2884 19.5836 17.5229L17.4124 19.7478L17.9269 22.9001C17.9806 23.2303 17.8418 23.5628 17.5664 23.7564C17.4171 23.8626 17.2398 23.9163 17.0636 23.9163ZM13.9988 20.4723C14.1446 20.4723 14.2904 20.5084 14.4223 20.5819L15.9086 21.4044L15.6134 19.5949C15.5691 19.3208 15.6566 19.0419 15.8503 18.8424L17.1406 17.5206L15.3988 17.2534C15.1106 17.2091 14.8633 17.0248 14.7396 16.7611L13.9988 15.1838L13.2579 16.7611C13.1343 17.0248 12.8869 17.2103 12.5988 17.2534L10.8558 17.5206L12.1461 18.8424C12.3398 19.0408 12.4273 19.3208 12.3829 19.5949L12.0878 21.4044L13.5741 20.5819C13.7071 20.5084 13.8529 20.4723 13.9988 20.4723Z" fill="#5A78C0"/>
<path d="M24.7917 27.9987H3.20833C1.4385 27.9987 0 26.5602 0 24.7904V5.54036C0 3.77053 1.4385 2.33203 3.20833 2.33203H24.7917C26.5615 2.33203 28 3.77053 28 5.54036V24.7904C28 26.5602 26.5615 27.9987 24.7917 27.9987ZM3.20833 4.08203C2.4045 4.08203 1.75 4.73653 1.75 5.54036V24.7904C1.75 25.5942 2.4045 26.2487 3.20833 26.2487H24.7917C25.5955 26.2487 26.25 25.5942 26.25 24.7904V5.54036C26.25 4.73653 25.5955 4.08203 24.7917 4.08203H3.20833Z" fill="#FF8A58"/>
<path d="M27.125 9.91797H0.875C0.392 9.91797 0 9.52597 0 9.04297C0 8.55997 0.392 8.16797 0.875 8.16797H27.125C27.608 8.16797 28 8.55997 28 9.04297C28 9.52597 27.608 9.91797 27.125 9.91797Z" fill="#FF8A58"/>
<path d="M6.71094 5.83333C6.22794 5.83333 5.83594 5.44133 5.83594 4.95833V0.875C5.83594 0.392 6.22794 0 6.71094 0C7.19394 0 7.58594 0.392 7.58594 0.875V4.95833C7.58594 5.44133 7.19394 5.83333 6.71094 5.83333Z" fill="#5A78C0"/>
<path d="M21.2891 5.83333C20.8061 5.83333 20.4141 5.44133 20.4141 4.95833V0.875C20.4141 0.392 20.8061 0 21.2891 0C21.7721 0 22.1641 0.392 22.1641 0.875V4.95833C22.1641 5.44133 21.7721 5.83333 21.2891 5.83333Z" fill="#5A78C0"/>
</g>
<defs>
<clipPath id="clip0">
<rect width="28" height="28" fill="white"/>
</clipPath>
</defs>
</svg>
