<svg width="13" height="13" viewBox="0 0 13 13" fill="none"
    xmlns="http://www.w3.org/2000/svg">
    <path d="M8.95786 7.40078H2.25568L8.05946 3.71066C8.07635 3.69993 8.09096 3.68597 8.10245 3.66959C8.11395 3.65321 8.1221 3.63472 8.12645 3.61519C8.1308 3.59566 8.13125 3.57546 8.12779 3.55575C8.12433 3.53604 8.11702 3.51721 8.10628 3.50032L7.53126 2.59596C7.40013 2.3902 7.19273 2.24487 6.95457 2.19184C6.71641 2.13881 6.46694 2.18243 6.26089 2.31311L5.4442 2.83237L5.5089 2.52284C5.5344 2.41092 5.53754 2.29508 5.51813 2.18195C5.49872 2.06882 5.45716 1.96064 5.39581 1.86363C5.33447 1.76662 5.25456 1.68268 5.16068 1.61665C5.0668 1.55061 4.9608 1.50377 4.84876 1.47883C4.73673 1.45389 4.62086 1.45133 4.50784 1.4713C4.39481 1.49127 4.28684 1.53337 4.19013 1.5952C4.09342 1.65702 4.00989 1.73735 3.94432 1.83156C3.87875 1.92576 3.83244 2.032 3.80806 2.14416L3.38378 4.04983L1.96315 3.73361C1.75129 3.6864 1.52944 3.71996 1.34102 3.82773C1.15261 3.9355 1.01121 4.10971 0.944502 4.31627C0.877797 4.52282 0.890591 4.74683 0.980381 4.94445C1.07017 5.14206 1.23049 5.29905 1.42995 5.38466L0.555037 5.94097C0.349288 6.07211 0.203958 6.2795 0.150931 6.51766C0.0979046 6.75581 0.141512 7.00527 0.272186 7.21132L0.847207 8.1157C0.857939 8.13259 0.871892 8.1472 0.88827 8.15869C0.904648 8.17018 0.923129 8.17834 0.942659 8.18269C0.962189 8.18704 0.982384 8.1875 1.00209 8.18404C1.0218 8.18059 1.04063 8.17329 1.05752 8.16255L1.59275 7.82232V11.6788C1.59303 11.9228 1.69008 12.1568 1.86261 12.3293C2.03514 12.5018 2.26907 12.5988 2.51306 12.5991H8.19C8.43398 12.5988 8.66789 12.5018 8.84041 12.3293C9.01294 12.1567 9.10998 11.9228 9.11026 11.6788V7.55312C9.11026 7.53311 9.10631 7.5133 9.09865 7.49481C9.09099 7.47633 9.07977 7.45953 9.06562 7.44538C9.05147 7.43124 9.03467 7.42002 9.01618 7.41236C8.99769 7.40471 8.97787 7.40077 8.95786 7.40078ZM6.42438 2.57026C6.52265 2.50743 6.63683 2.474 6.75347 2.47393C6.79887 2.47396 6.84414 2.47895 6.88845 2.48884C6.96743 2.50621 7.04219 2.53907 7.10839 2.58552C7.17459 2.63197 7.23093 2.69109 7.27413 2.75945L7.76742 3.53526L5.36801 5.06088L4.54444 3.7656L6.42438 2.57026ZM4.10546 2.2104C4.13837 2.06379 4.22818 1.93625 4.35512 1.85585C4.48207 1.77545 4.63576 1.74877 4.78237 1.78168C4.92899 1.8146 5.05653 1.9044 5.13693 2.03135C5.21733 2.15829 5.24401 2.31198 5.21109 2.4586L5.08602 3.0569L3.72338 3.92651L4.10546 2.2104ZM4.28726 3.92909L5.11083 5.22437L3.72044 6.10837L2.89689 4.81309L4.28726 3.92909ZM1.29571 4.88805C1.23558 4.79349 1.20484 4.68322 1.20738 4.57119C1.20992 4.45916 1.24563 4.3504 1.30998 4.25866C1.37434 4.16692 1.46445 4.09633 1.56893 4.05581C1.6734 4.01529 1.78755 4.00666 1.89693 4.03101L3.128 4.30508L1.76142 5.16173L1.65067 5.13705C1.57798 5.12108 1.50918 5.09084 1.44825 5.0481C1.38732 5.00536 1.33547 4.95096 1.29571 4.88805ZM1.02263 7.82369L0.529367 7.04785C0.441958 6.91003 0.412784 6.74317 0.448246 6.58386C0.483707 6.42456 0.580909 6.28583 0.718527 6.1981L2.63976 4.97658L3.4633 6.27186L1.02263 7.82369ZM3.97691 12.2944H2.51306C2.34986 12.2942 2.1934 12.2293 2.07799 12.1139C1.96259 11.9985 1.89768 11.842 1.89749 11.6788V7.70547H3.97698L3.97691 12.2944ZM5.9133 12.2944H4.28159V7.70547H5.9133V12.2944ZM8.80552 11.6788C8.80533 11.842 8.74042 11.9985 8.62503 12.1139C8.50964 12.2293 8.35319 12.2942 8.19 12.2944H6.21798V7.70547H8.80552V11.6788Z" fill="#284486"/>
    <path d="M10.6603 6.01707L10.7331 5.59216C10.7379 5.56415 10.7348 5.53536 10.7241 5.50904C10.7134 5.48272 10.6955 5.45992 10.6725 5.44321C10.6496 5.42651 10.6224 5.41657 10.594 5.41451C10.5657 5.41245 10.5373 5.41836 10.5122 5.43157L10.1306 5.63215L9.749 5.43157C9.72384 5.41834 9.69548 5.41241 9.66712 5.41446C9.63877 5.41651 9.61155 5.42645 9.58856 5.44316C9.56556 5.45986 9.54769 5.48267 9.53698 5.50901C9.52627 5.53534 9.52314 5.56414 9.52795 5.59216L9.60082 6.01707L9.29212 6.31795C9.27176 6.33779 9.25735 6.36294 9.25054 6.39054C9.24372 6.41814 9.24476 6.44709 9.25355 6.47413C9.26233 6.50117 9.27851 6.52521 9.30024 6.54354C9.32198 6.56186 9.34841 6.57374 9.37654 6.57783L9.80311 6.63983L9.99389 7.0264C10.0065 7.0519 10.0259 7.07337 10.0501 7.08838C10.0742 7.1034 10.1021 7.11135 10.1305 7.11135C10.159 7.11135 10.1868 7.1034 10.211 7.08838C10.2351 7.07337 10.2546 7.0519 10.2671 7.0264L10.4579 6.63983L10.8845 6.57783C10.9126 6.57374 10.939 6.56186 10.9608 6.54354C10.9825 6.52521 10.9987 6.50117 11.0075 6.47413C11.0162 6.44709 11.0173 6.41814 11.0105 6.39054C11.0037 6.36294 10.9893 6.33779 10.9689 6.31795L10.6603 6.01707ZM10.3348 6.34969C10.3104 6.35324 10.2872 6.36268 10.2672 6.3772C10.2472 6.39172 10.2311 6.41087 10.2201 6.43302L10.1305 6.61462L10.0409 6.43302C10.03 6.41088 10.0138 6.39172 9.99383 6.3772C9.97385 6.36269 9.95064 6.35324 9.9262 6.34969L9.72577 6.32057L9.8708 6.17922C9.88849 6.16198 9.90172 6.1407 9.90935 6.1172C9.91699 6.09371 9.9188 6.06872 9.91462 6.04437L9.88037 5.84475L10.0596 5.93897C10.0815 5.95048 10.1058 5.95649 10.1305 5.95649C10.1552 5.95649 10.1796 5.95048 10.2014 5.93897L10.3806 5.84475L10.3464 6.04437C10.3422 6.06871 10.344 6.09371 10.3517 6.1172C10.3593 6.14069 10.3725 6.16198 10.3902 6.17922L10.5352 6.32057L10.3348 6.34969Z" fill="#284486"/>
    <path d="M12.4137 3.91811L11.9947 3.81629L11.8411 3.41352C11.831 3.38695 11.8136 3.36375 11.791 3.34653C11.7684 3.32932 11.7414 3.31878 11.7131 3.3161C11.6848 3.31343 11.6563 3.31873 11.6308 3.33141C11.6054 3.34408 11.584 3.36362 11.5691 3.38782L11.3428 3.7548L10.9123 3.77645C10.8839 3.77788 10.8565 3.78722 10.8331 3.80342C10.8097 3.81962 10.7914 3.84203 10.7801 3.86812C10.7688 3.89421 10.7651 3.92294 10.7692 3.95105C10.7734 3.97916 10.7854 4.00554 10.8038 4.02721L11.0829 4.35579L10.9705 4.77194C10.963 4.79939 10.9635 4.82836 10.9716 4.85558C10.9798 4.8828 10.9955 4.90719 11.0168 4.92598C11.0381 4.94478 11.0643 4.95723 11.0923 4.96193C11.1204 4.96664 11.1491 4.9634 11.1754 4.9526L11.5741 4.78873L11.9353 5.02428C11.9591 5.03981 11.9868 5.04837 12.0152 5.04899C12.0436 5.04961 12.0716 5.04227 12.0961 5.0278C12.1206 5.01332 12.1405 4.9923 12.1536 4.96709C12.1668 4.94188 12.1726 4.9135 12.1704 4.88516L12.1378 4.4553L12.4733 4.18471C12.4954 4.16687 12.5121 4.14319 12.5215 4.11636C12.5309 4.08953 12.5325 4.06062 12.5263 4.03288C12.5201 4.00515 12.5063 3.9797 12.4864 3.95942C12.4665 3.93914 12.4413 3.92483 12.4137 3.91811ZM11.8841 4.2685C11.8649 4.284 11.8498 4.30395 11.8399 4.32662C11.8301 4.34929 11.826 4.374 11.8279 4.39863L11.8431 4.60056L11.6735 4.48988C11.6528 4.47639 11.6291 4.46813 11.6045 4.46581C11.58 4.46349 11.5552 4.46719 11.5323 4.47658L11.345 4.55356L11.3979 4.35805C11.4043 4.33421 11.4049 4.30916 11.3995 4.28505C11.3941 4.26095 11.3829 4.23852 11.3669 4.2197L11.2358 4.06535L11.4381 4.05519C11.4627 4.05396 11.4867 4.04675 11.508 4.03418C11.5293 4.02161 11.5472 4.00405 11.5601 3.98303L11.6664 3.81065L11.7386 3.99987C11.7474 4.02294 11.7616 4.04352 11.7802 4.05985C11.7987 4.07617 11.8209 4.08775 11.8449 4.09358L12.0417 4.14142L11.8841 4.2685Z" fill="#284486"/>
    <path d="M10.1728 1.44072L10.0604 1.85687C10.053 1.88432 10.0534 1.91329 10.0615 1.94052C10.0697 1.96774 10.0854 1.99213 10.1067 2.01093C10.128 2.02973 10.1542 2.04219 10.1822 2.04689C10.2103 2.0516 10.2391 2.04836 10.2654 2.03755L10.664 1.87366L11.0251 2.10926C11.0489 2.12479 11.0766 2.13335 11.105 2.13397C11.1334 2.13459 11.1614 2.12725 11.1859 2.11277C11.2104 2.0983 11.2303 2.07726 11.2434 2.05205C11.2565 2.02684 11.2624 1.99846 11.2602 1.97012L11.2276 1.54025L11.5631 1.26964C11.5853 1.2518 11.602 1.22812 11.6113 1.20129C11.6207 1.17446 11.6224 1.14555 11.6162 1.11781C11.61 1.09008 11.5961 1.06463 11.5762 1.04435C11.5563 1.02407 11.5311 1.00976 11.5035 1.00304L11.0846 0.901246L10.931 0.498449C10.9208 0.471886 10.9035 0.448687 10.8809 0.431477C10.8582 0.414266 10.8312 0.403731 10.8029 0.401063C10.7746 0.398395 10.7461 0.4037 10.7207 0.416378C10.6952 0.429057 10.6739 0.448602 10.6589 0.472805L10.4327 0.83975L10.0021 0.861383C9.97374 0.862807 9.94632 0.872146 9.92296 0.888344C9.8996 0.904542 9.88124 0.926952 9.86995 0.953041C9.85866 0.97913 9.8549 1.00786 9.85908 1.03597C9.86327 1.06409 9.87524 1.09047 9.89364 1.11214L10.1728 1.44072ZM10.5281 1.13999C10.5527 1.13876 10.5767 1.13154 10.598 1.11896C10.6193 1.10639 10.6371 1.08883 10.6501 1.06781L10.7564 0.895432L10.8285 1.08464C10.8373 1.10772 10.8516 1.12831 10.8702 1.14464C10.8887 1.16097 10.9109 1.17255 10.9349 1.17838L11.1317 1.2262L10.9741 1.3533C10.9548 1.3688 10.9397 1.38875 10.9299 1.41142C10.92 1.43409 10.9159 1.4588 10.9178 1.48343L10.933 1.68538L10.7634 1.57471C10.7427 1.56121 10.719 1.55295 10.6944 1.55064C10.6698 1.54832 10.6451 1.55201 10.6222 1.5614L10.4349 1.63839L10.4878 1.44288C10.4942 1.41903 10.4948 1.39398 10.4894 1.36987C10.484 1.34576 10.4728 1.32333 10.4568 1.3045L10.3257 1.15013L10.5281 1.13999Z" fill="#284486"/>
    <path d="M7.40789 6.0388C7.06394 6.25526 6.89591 6.51754 6.88893 6.52861C6.86729 6.56273 6.86009 6.60405 6.86891 6.64348C6.87774 6.68291 6.90187 6.71722 6.93599 6.73886C6.97011 6.7605 7.01143 6.7677 7.05086 6.75887C7.09029 6.75005 7.1246 6.72592 7.14624 6.6918C7.16909 6.65625 7.72029 5.82306 8.92002 6.11982C8.95909 6.12911 9.00025 6.12259 9.03454 6.10169C9.06883 6.08079 9.09349 6.04719 9.10313 6.00821C9.11278 5.96923 9.10665 5.92801 9.08607 5.89353C9.06548 5.85904 9.03212 5.83408 8.99323 5.82407C8.25507 5.64144 7.72367 5.84002 7.40789 6.0388Z" fill="#284486"/>
    <path d="M10.2993 4.42622C10.3367 4.44171 10.3786 4.44174 10.4159 4.4263C10.4533 4.41087 10.483 4.38123 10.4985 4.34391C10.5139 4.30659 10.514 4.26464 10.4985 4.2273C10.4831 4.18996 10.4535 4.16028 10.4161 4.14479C9.3316 3.69469 8.54335 4.03175 8.07309 4.39382C7.76111 4.63645 7.50287 4.94118 7.31472 5.28874C7.30583 5.30666 7.30055 5.32616 7.29918 5.34612C7.29782 5.36608 7.3004 5.38611 7.30678 5.40507C7.31316 5.42403 7.32321 5.44155 7.33636 5.45663C7.34951 5.47171 7.3655 5.48405 7.38342 5.49295C7.40134 5.50185 7.42083 5.50713 7.44079 5.50849C7.46075 5.50985 7.48079 5.50727 7.49975 5.50089C7.51871 5.49451 7.53623 5.48446 7.55131 5.47131C7.56639 5.45816 7.57872 5.44217 7.58762 5.42425C7.7555 5.11839 7.98392 4.84993 8.25895 4.63524C8.85025 4.18011 9.53674 4.10973 10.2993 4.42622Z" fill="#284486"/>
    <path d="M8.58747 3.29659C8.57504 3.33504 8.57838 3.37684 8.59677 3.41282C8.61516 3.44879 8.64709 3.47599 8.68553 3.48842C8.89526 3.55022 9.11277 3.58165 9.33142 3.58176C9.58618 3.58176 9.88044 3.53577 10.1443 3.37937C10.4896 3.17477 10.711 2.82618 10.8028 2.34343C10.8066 2.32374 10.8065 2.3035 10.8025 2.28386C10.7984 2.26421 10.7906 2.24556 10.7793 2.22896C10.7681 2.21236 10.7536 2.19815 10.7369 2.18714C10.7201 2.17613 10.7014 2.16853 10.6817 2.16479C10.662 2.16104 10.6417 2.16123 10.6221 2.16533C10.6024 2.16942 10.5838 2.17736 10.5673 2.18867C10.5507 2.19998 10.5365 2.21445 10.5256 2.23125C10.5146 2.24805 10.5071 2.26684 10.5034 2.28656C10.4288 2.67912 10.2562 2.95839 9.99028 3.11658C9.48447 3.41753 8.79014 3.20207 8.77914 3.19856C8.74073 3.18618 8.69896 3.18954 8.66302 3.20792C8.62709 3.2263 8.59991 3.25819 8.58747 3.29659Z" fill="#284486"/>
    <path d="M6.57318 7.23331C6.62744 7.23332 6.68049 7.21723 6.72562 7.18709C6.77074 7.15694 6.80591 7.11409 6.82668 7.06396C6.84745 7.01382 6.85289 6.95866 6.8423 6.90543C6.83172 6.85221 6.80559 6.80332 6.76722 6.76494C6.72885 6.72657 6.67996 6.70043 6.62674 6.68984C6.57351 6.67926 6.51835 6.68469 6.46821 6.70545C6.41807 6.72622 6.37522 6.76139 6.34507 6.80651C6.31492 6.85163 6.29883 6.90468 6.29883 6.95894C6.29892 7.03168 6.32785 7.10141 6.37928 7.15285C6.43071 7.20428 6.50044 7.23322 6.57318 7.23331ZM6.57318 6.92863C6.57918 6.92862 6.58505 6.9304 6.59004 6.93373C6.59504 6.93706 6.59893 6.9418 6.60123 6.94734C6.60353 6.95289 6.60413 6.95899 6.60296 6.96488C6.60179 6.97077 6.5989 6.97618 6.59466 6.98042C6.59041 6.98467 6.585 6.98756 6.57911 6.98873C6.57323 6.9899 6.56712 6.98929 6.56158 6.987C6.55603 6.9847 6.55129 6.9808 6.54796 6.97581C6.54463 6.97082 6.54285 6.96495 6.54286 6.95894C6.5429 6.95091 6.54611 6.94323 6.55178 6.93755C6.55746 6.93187 6.56515 6.92867 6.57318 6.92863Z" fill="#284486"/>
    <path d="M8.72945 2.25675C8.78371 2.25675 8.83676 2.24066 8.88188 2.21051C8.927 2.18036 8.96217 2.13751 8.98293 2.08738C9.0037 2.03724 9.00913 1.98207 8.99855 1.92885C8.98796 1.87563 8.96183 1.82674 8.92346 1.78837C8.88509 1.75 8.8362 1.72387 8.78298 1.71328C8.72975 1.70269 8.67459 1.70813 8.62445 1.72889C8.57432 1.74966 8.53147 1.78483 8.50132 1.82995C8.47117 1.87507 8.45508 1.92811 8.45508 1.98238C8.45516 2.05512 8.48409 2.12486 8.53553 2.1763C8.58697 2.22774 8.65671 2.25667 8.72945 2.25675ZM8.72945 1.95206C8.73545 1.95206 8.74132 1.95384 8.74631 1.95718C8.7513 1.96051 8.75519 1.96525 8.75748 1.9708C8.75978 1.97634 8.76038 1.98245 8.75921 1.98833C8.75803 1.99422 8.75514 1.99963 8.75089 2.00387C8.74665 2.00811 8.74124 2.011 8.73535 2.01217C8.72946 2.01333 8.72336 2.01273 8.71782 2.01043C8.71228 2.00813 8.70754 2.00424 8.70421 1.99924C8.70088 1.99425 8.6991 1.98838 8.69911 1.98238C8.69915 1.97435 8.70236 1.96665 8.70804 1.96098C8.71372 1.9553 8.72142 1.9521 8.72945 1.95206Z" fill="#284486"/>
    <path d="M12.6005 2.04785C12.5463 2.04785 12.4932 2.06394 12.4481 2.09409C12.403 2.12424 12.3678 2.16709 12.3471 2.21723C12.3263 2.26737 12.3209 2.32254 12.3314 2.37576C12.342 2.42898 12.3682 2.47787 12.4065 2.51624C12.4449 2.55461 12.4938 2.58074 12.547 2.59132C12.6003 2.60191 12.6554 2.59647 12.7056 2.5757C12.7557 2.55493 12.7985 2.51976 12.8287 2.47464C12.8588 2.42951 12.8749 2.37646 12.8749 2.3222C12.8748 2.24946 12.8459 2.17972 12.7945 2.12829C12.743 2.07685 12.6733 2.04793 12.6005 2.04785ZM12.6005 2.35254C12.5945 2.35254 12.5887 2.35076 12.5837 2.34743C12.5787 2.34409 12.5748 2.33935 12.5725 2.33381C12.5702 2.32826 12.5696 2.32216 12.5708 2.31628C12.572 2.31039 12.5748 2.30499 12.5791 2.30074C12.5833 2.2965 12.5887 2.29361 12.5946 2.29244C12.6005 2.29127 12.6066 2.29187 12.6122 2.29416C12.6177 2.29646 12.6224 2.30035 12.6258 2.30534C12.6291 2.31033 12.6309 2.3162 12.6309 2.3222C12.6309 2.33023 12.6276 2.33793 12.622 2.34362C12.6163 2.3493 12.6086 2.35251 12.6005 2.35254Z" fill="#284486"/>
    <path d="M6.4589 5.68843C6.4589 5.63416 6.4428 5.58111 6.41265 5.53599C6.38249 5.49086 6.33963 5.4557 6.28949 5.43493C6.23935 5.41417 6.18417 5.40875 6.13094 5.41935C6.07772 5.42994 6.02883 5.45609 5.99046 5.49448C5.9521 5.53286 5.92598 5.58177 5.91541 5.635C5.90484 5.68823 5.9103 5.7434 5.93109 5.79354C5.95188 5.84367 5.98707 5.88651 6.03221 5.91664C6.07735 5.94677 6.13041 5.96283 6.18468 5.9628C6.2574 5.96269 6.3271 5.93374 6.37851 5.88231C6.42992 5.83087 6.45883 5.76115 6.4589 5.68843ZM6.18468 5.7189C6.17868 5.71891 6.17282 5.71713 6.16783 5.71381C6.16284 5.71048 6.15895 5.70575 6.15664 5.70022C6.15434 5.69468 6.15373 5.68859 6.15488 5.6827C6.15604 5.67682 6.15892 5.67141 6.16315 5.66716C6.16738 5.66291 6.17277 5.66001 6.17865 5.65882C6.18453 5.65763 6.19062 5.65821 6.19617 5.66049C6.20172 5.66277 6.20647 5.66663 6.20982 5.67161C6.21317 5.67658 6.21497 5.68244 6.215 5.68843C6.21496 5.69649 6.21174 5.7042 6.20604 5.70989C6.20033 5.71557 6.19261 5.71877 6.18455 5.71877L6.18468 5.7189Z" fill="#284486"/>
    <path d="M12.1474 5.86035C12.0932 5.86035 12.0401 5.87644 11.995 5.90659C11.9499 5.93674 11.9147 5.97959 11.8939 6.02973C11.8732 6.07986 11.8677 6.13503 11.8783 6.18825C11.8889 6.24147 11.915 6.29036 11.9534 6.32873C11.9918 6.3671 12.0407 6.39323 12.0939 6.40382C12.1471 6.41441 12.2023 6.40897 12.2524 6.38821C12.3025 6.36744 12.3454 6.33227 12.3755 6.28715C12.4057 6.24203 12.4218 6.18899 12.4218 6.13472C12.4217 6.06198 12.3928 5.99224 12.3413 5.9408C12.2899 5.88937 12.2202 5.86043 12.1474 5.86035ZM12.1474 6.16504C12.1414 6.16503 12.1356 6.16325 12.1306 6.15992C12.1256 6.15658 12.1217 6.15185 12.1194 6.14631C12.1171 6.14077 12.1165 6.13467 12.1177 6.12879C12.1189 6.12291 12.1218 6.11751 12.126 6.11328C12.1303 6.10904 12.1357 6.10615 12.1415 6.10499C12.1474 6.10382 12.1535 6.10442 12.159 6.10672C12.1646 6.10901 12.1693 6.1129 12.1727 6.11788C12.176 6.12287 12.1778 6.12873 12.1778 6.13472C12.1777 6.14275 12.1745 6.15045 12.1688 6.15612C12.1631 6.1618 12.1554 6.165 12.1474 6.16504Z" fill="#284486"/>
</svg>
