<svg width="25" height="25" viewBox="0 0 25 25" fill="none" xmlns="http://www.w3.org/2000/svg">
<g clip-path="url(#clip0)">
<path d="M15.9483 9.05859C15.6249 9.05859 15.3628 9.32069 15.3628 9.64407V20.7096C15.3628 21.0328 15.6249 21.2951 15.9483 21.2951C16.2717 21.2951 16.5338 21.0328 16.5338 20.7096V9.64407C16.5338 9.32069 16.2717 9.05859 15.9483 9.05859Z" fill="#575B67"/>
<path d="M9.04007 9.05859C8.71668 9.05859 8.45459 9.32069 8.45459 9.64407V20.7096C8.45459 21.0328 8.71668 21.2951 9.04007 21.2951C9.36346 21.2951 9.62555 21.0328 9.62555 20.7096V9.64407C9.62555 9.32069 9.36346 9.05859 9.04007 9.05859Z" fill="#575B67"/>
<path d="M4.00416 7.44274V21.8677C4.00416 22.7203 4.3168 23.521 4.86294 24.0955C5.40657 24.6716 6.16311 24.9986 6.95488 25H18.0323C18.8243 24.9986 19.5809 24.6716 20.1243 24.0955C20.6704 23.521 20.983 22.7203 20.983 21.8677V7.44274C22.0687 7.15458 22.7722 6.10575 22.6269 4.99174C22.4815 3.87796 21.5326 3.04479 20.4092 3.04456H17.4116V2.31272C17.415 1.69728 17.1717 1.10631 16.736 0.671547C16.3003 0.237013 15.7085 -0.00495453 15.093 7.6927e-05H9.89417C9.27873 -0.00495453 8.68685 0.237013 8.25117 0.671547C7.81549 1.10631 7.57215 1.69728 7.57558 2.31272V3.04456H4.57798C3.45459 3.04479 2.5057 3.87796 2.36025 4.99174C2.21502 6.10575 2.91851 7.15458 4.00416 7.44274ZM18.0323 23.829H6.95488C5.95385 23.829 5.17512 22.9691 5.17512 21.8677V7.4942H19.8121V21.8677C19.8121 22.9691 19.0333 23.829 18.0323 23.829ZM8.74654 2.31272C8.74265 2.00786 8.86249 1.71443 9.07884 1.49922C9.29497 1.28401 9.58908 1.16577 9.89417 1.17103H15.093C15.3981 1.16577 15.6922 1.28401 15.9084 1.49922C16.1247 1.7142 16.2445 2.00786 16.2407 2.31272V3.04456H8.74654V2.31272ZM4.57798 4.21552H20.4092C20.9913 4.21552 21.4631 4.68733 21.4631 5.26938C21.4631 5.85143 20.9913 6.32324 20.4092 6.32324H4.57798C3.99593 6.32324 3.52412 5.85143 3.52412 5.26938C3.52412 4.68733 3.99593 4.21552 4.57798 4.21552Z" fill="#575B67"/>
<path d="M12.4942 9.05859C12.1708 9.05859 11.9087 9.32069 11.9087 9.64407V20.7096C11.9087 21.0328 12.1708 21.2951 12.4942 21.2951C12.8175 21.2951 13.0796 21.0328 13.0796 20.7096V9.64407C13.0796 9.32069 12.8175 9.05859 12.4942 9.05859Z" fill="#575B67"/>
</g>
<defs>
<clipPath id="clip0">
<rect width="25" height="25" fill="white"/>
</clipPath>
</defs>
</svg>
