<svg width="25" height="25" viewBox="0 0 25 25" fill="none" xmlns="http://www.w3.org/2000/svg">
<g clip-path="url(#clip0)">
<path d="M12.3893 24.9998C12.2528 24.9998 12.1195 24.9456 12.0205 24.8477C11.8976 24.7248 11.8435 24.5477 11.8778 24.3779L12.6143 20.6956C12.6351 20.5935 12.683 20.5008 12.757 20.4289L20.8591 12.3269C21.4674 11.7185 22.4601 11.7185 23.0685 12.3269L24.5414 13.7998C25.1507 14.4091 25.1507 15.3998 24.5414 16.0092L16.4393 24.1112C16.3674 24.1842 16.2747 24.2331 16.1726 24.2539L12.4903 24.9904C12.457 24.9967 12.4226 24.9998 12.3893 24.9998ZM13.606 21.0529L13.0539 23.8144L15.8153 23.2623L23.806 15.2716C24.0091 15.0685 24.0091 14.7383 23.806 14.5352L22.333 13.0623C22.1299 12.8591 21.7997 12.8591 21.5966 13.0623L13.606 21.0529ZM16.0716 23.7425H16.082H16.0716Z" fill="#575B67"/>
<path d="M9.89583 21.875H2.60417C1.16771 21.875 0 20.7073 0 19.2708V5.72917C0 4.29271 1.16771 3.125 2.60417 3.125H4.6875C4.975 3.125 5.20833 3.35833 5.20833 3.64583C5.20833 3.93333 4.975 4.16667 4.6875 4.16667H2.60417C1.74271 4.16667 1.04167 4.86771 1.04167 5.72917V19.2708C1.04167 20.1323 1.74271 20.8333 2.60417 20.8333H9.89583C10.1833 20.8333 10.4167 21.0667 10.4167 21.3542C10.4167 21.6417 10.1833 21.875 9.89583 21.875Z" fill="#575B67"/>
<path d="M17.1875 12.5C16.9 12.5 16.6667 12.2667 16.6667 11.9792V5.72917C16.6667 4.86771 15.9656 4.16667 15.1042 4.16667H13.0208C12.7333 4.16667 12.5 3.93333 12.5 3.64583C12.5 3.35833 12.7333 3.125 13.0208 3.125H15.1042C16.5406 3.125 17.7083 4.29271 17.7083 5.72917V11.9792C17.7083 12.2667 17.475 12.5 17.1875 12.5Z" fill="#575B67"/>
<path d="M11.9795 6.25H5.72949C4.86803 6.25 4.16699 5.54896 4.16699 4.6875V2.60417C4.16699 2.31667 4.40033 2.08333 4.68783 2.08333H6.30241C6.54408 0.895833 7.5972 0 8.85449 0C10.1118 0 11.1649 0.895833 11.4066 2.08333H13.0212C13.3087 2.08333 13.542 2.31667 13.542 2.60417V4.6875C13.542 5.54896 12.8409 6.25 11.9795 6.25ZM5.20866 3.125V4.6875C5.20866 4.97396 5.44303 5.20833 5.72949 5.20833H11.9795C12.2659 5.20833 12.5003 4.97396 12.5003 4.6875V3.125H10.9378C10.6503 3.125 10.417 2.89167 10.417 2.60417C10.417 1.74271 9.71595 1.04167 8.85449 1.04167C7.99303 1.04167 7.29199 1.74271 7.29199 2.60417C7.29199 2.89167 7.05866 3.125 6.77116 3.125H5.20866Z" fill="#575B67"/>
<path d="M14.0625 9.37614H3.64583C3.35833 9.37614 3.125 9.1428 3.125 8.8553C3.125 8.56781 3.35833 8.33447 3.64583 8.33447H14.0625C14.35 8.33447 14.5833 8.56781 14.5833 8.8553C14.5833 9.1428 14.35 9.37614 14.0625 9.37614Z" fill="#575B67"/>
<path d="M14.0625 12.5011H3.64583C3.35833 12.5011 3.125 12.2678 3.125 11.9803C3.125 11.6928 3.35833 11.4595 3.64583 11.4595H14.0625C14.35 11.4595 14.5833 11.6928 14.5833 11.9803C14.5833 12.2678 14.35 12.5011 14.0625 12.5011Z" fill="#575B67"/>
<path d="M14.0625 15.6261H3.64583C3.35833 15.6261 3.125 15.3928 3.125 15.1053C3.125 14.8178 3.35833 14.5845 3.64583 14.5845H14.0625C14.35 14.5845 14.5833 14.8178 14.5833 15.1053C14.5833 15.3928 14.35 15.6261 14.0625 15.6261Z" fill="#575B67"/>
</g>
<defs>
<clipPath id="clip0">
<rect width="25" height="25" fill="white"/>
</clipPath>
</defs>
</svg>
