<svg width="38" height="30" viewBox="0 0 38 30" fill="none" xmlns="http://www.w3.org/2000/svg">
<path d="M-2.24827e-06 13.8301L9.21673 13.8301C9.05916 20.5473 7.15398 21.3098 4.76113 21.5274L3.83838 21.6418L3.83838 29.028L4.902 28.971C8.02663 28.7952 11.4812 28.232 13.7859 25.3868C15.8063 22.8926 16.697 18.8177 16.697 12.5625L16.697 0.971561L0 0.971558L-2.24827e-06 13.8301Z" fill="#C2CECE"/>
<path d="M21.303 0.971558L21.303 13.8301L30.3967 13.8301C30.2392 20.5473 28.3956 21.3098 26.0027 21.5274L25.1414 21.6418L25.1414 29.028L26.1436 28.971C29.2682 28.7952 32.7537 28.232 35.0585 25.3868C37.0786 22.8926 38 18.8177 38 12.5625L38 0.971561L21.303 0.971558Z" fill="#C2CECE"/>
</svg>
