<svg width="38" height="30" viewBox="0 0 38 30" fill="none" xmlns="http://www.w3.org/2000/svg">
<path d="M38 16.1699H28.7833C28.9408 9.45268 30.846 8.69019 33.2389 8.47255L34.1616 8.35817V0.971966L33.098 1.02896C29.9734 1.20476 26.5188 1.76805 24.2141 4.61325C22.1937 7.10743 21.303 11.1823 21.303 17.4375V29.0284H38V16.1699Z" fill="#C2CECE"/>
<path d="M16.697 29.0284V16.1699H7.60325C7.76082 9.45268 9.60439 8.69019 11.9972 8.47255L12.8586 8.35817V0.971966L11.8564 1.02896C8.73174 1.20476 5.24629 1.76805 2.94153 4.61325C0.921391 7.10743 -1.14441e-05 11.1823 -1.14441e-05 17.4375V29.0284H16.697Z" fill="#C2CECE"/>
</svg>
