<svg width="97" height="97" viewBox="0 0 97 97" fill="none" xmlns="http://www.w3.org/2000/svg">
<g clip-path="url(#clip0)">
<path fill-rule="evenodd" clip-rule="evenodd" d="M21.6649 7.85938H39.9661C51.8829 7.85938 61.631 17.6075 61.631 29.5243V30.4647C61.631 42.376 51.8829 52.1241 39.9661 52.1241H21.6649H17.3386C16.8738 52.1241 16.9237 52.1075 16.5142 52.3178L7.85056 56.7714C7.38583 56.9429 7.15905 56.8158 7.18671 56.3399L7.6846 47.0896C7.69559 47.0121 7.71226 47.0011 7.66243 46.9623C2.98199 42.9792 0 37.0539 0 30.4647V29.5243C0 17.6075 9.74812 7.85938 21.6649 7.85938Z" fill="#E96854"/>
<path fill-rule="evenodd" clip-rule="evenodd" d="M75.335 40.1523H57.0282C45.1114 40.1523 35.3633 49.9005 35.3633 61.8173V62.7577C35.3633 74.669 45.1114 84.4226 57.0282 84.4226H75.335H79.6614C80.1206 84.4226 80.0708 84.4004 80.4802 84.6162L89.1439 89.0642C89.6141 89.2357 89.8354 89.1085 89.8132 88.6381L89.3099 79.3824C89.2989 79.3104 89.2822 79.2994 89.332 79.2551C94.0125 75.2722 96.9999 69.3471 96.9999 62.7579V61.8174C96.9999 49.9005 87.2518 40.1523 75.335 40.1523Z" fill="#6EBBD2"/>
<path d="M76.4248 54.9548H56.4085C55.5999 54.9548 54.9448 54.2995 54.9448 53.4911C54.9448 52.6827 55.6001 52.0273 56.4085 52.0273H76.4248C77.2334 52.0273 77.8885 52.6827 77.8885 53.4911C77.8887 54.2995 77.2334 54.9548 76.4248 54.9548Z" fill="#F8F6F6"/>
<path d="M76.4248 64.2478H56.4085C55.5999 64.2478 54.9448 63.5924 54.9448 62.784C54.9448 61.9756 55.6001 61.3203 56.4085 61.3203H76.4248C77.2334 61.3203 77.8885 61.9756 77.8885 62.784C77.8887 63.5924 77.2334 64.2478 76.4248 64.2478Z" fill="#F8F6F6"/>
<path d="M76.4248 73.5407H56.4085C55.5999 73.5407 54.9448 72.8854 54.9448 72.077C54.9448 71.2686 55.6001 70.6133 56.4085 70.6133H76.4248C77.2334 70.6133 77.8885 71.2686 77.8885 72.077C77.8887 72.8852 77.2334 73.5407 76.4248 73.5407Z" fill="#F8F6F6"/>
<path d="M40.4312 21.8727H20.4149C19.6065 21.8727 18.9512 21.2174 18.9512 20.409C18.9512 19.6006 19.6065 18.9453 20.4149 18.9453H40.4312C41.2396 18.9453 41.8949 19.6006 41.8949 20.409C41.8949 21.2174 41.2396 21.8727 40.4312 21.8727Z" fill="#F8F6F6"/>
<path d="M40.4312 31.1657H20.4149C19.6065 31.1657 18.9512 30.5104 18.9512 29.702C18.9512 28.8936 19.6065 28.2383 20.4149 28.2383H40.4312C41.2396 28.2383 41.8949 28.8936 41.8949 29.702C41.8949 30.5104 41.2396 31.1657 40.4312 31.1657Z" fill="#F8F6F6"/>
<path d="M30.4229 40.4665H20.4149C19.6065 40.4665 18.9512 39.8112 18.9512 39.0028C18.9512 38.1944 19.6065 37.5391 20.4149 37.5391H30.4229C31.2313 37.5391 31.8867 38.1944 31.8867 39.0028C31.8867 39.811 31.2313 40.4665 30.4229 40.4665Z" fill="#F8F6F6"/>
<path fill-rule="evenodd" clip-rule="evenodd" d="M36.4087 7.85938C43.8443 12.8109 48.6907 20.9326 48.6907 30.1108C48.6907 35.2393 47.1749 40.0361 44.5413 44.1355C48.0765 41.6292 52.3919 40.1522 57.028 40.1522H59.3295C60.8012 37.231 61.631 33.9393 61.631 30.4649V29.5245C61.631 17.6077 51.8828 7.85956 39.9661 7.85956H36.4087V7.85938Z" fill="#EF806F"/>
<path fill-rule="evenodd" clip-rule="evenodd" d="M76.0596 40.1641C81.5036 45.1266 84.8783 52.0532 84.8783 59.7101C84.8783 70.6257 78.0292 80.0419 68.1206 84.4235H75.3348H79.6611C80.1204 84.4235 80.0706 84.4014 80.48 84.6172L89.1437 89.0651C89.6139 89.2366 89.8352 89.1095 89.813 88.639L89.3096 79.3833C89.2986 79.3113 89.282 79.3003 89.3318 79.256C94.0124 75.2728 96.9999 69.3476 96.9999 62.7584V61.818C96.9999 50.1445 87.6445 40.5513 76.0596 40.1641Z" fill="#1EA6C6"/>
</g>
<defs>
<clipPath id="clip0">
<rect width="97" height="97" fill="white"/>
</clipPath>
</defs>
</svg>
