<svg width="30" height="30" viewBox="0 0 30 30" fill="none" xmlns="http://www.w3.org/2000/svg">
<path d="M14.224 0.379775L0.0205078 11.8567V13.9955H14.9999H29.9794V11.8567L15.7759 0.379775C15.3233 0.0140332 14.6766 0.0140332 14.224 0.379775Z" fill="#FF9102"/>
<path d="M27.5105 25.8557H2.48994C1.80814 25.8557 1.25537 25.3029 1.25537 24.6211V1.23457C1.25537 0.552773 1.80809 0 2.48994 0H27.5105C28.1923 0 28.7451 0.552773 28.7451 1.23457V24.6212C28.7451 25.303 28.1924 25.8557 27.5105 25.8557Z" fill="url(#paint0_linear)"/>
<path d="M28.7446 23.9336V24.4142C28.7446 25.2101 28.0986 25.8559 27.3028 25.8559H2.69664C1.90076 25.8559 1.25488 25.21 1.25488 24.4142V23.9336H28.7446Z" fill="url(#paint1_linear)"/>
<path d="M22.9426 3.91016H7.05762V4.81555H22.9426V3.91016Z" fill="#C2CECE"/>
<path d="M22.9426 7.53125H7.05762V8.43664H22.9426V7.53125Z" fill="#C2CECE"/>
<path d="M22.9426 11.2344H7.05762V12.1398H22.9426V11.2344Z" fill="#C2CECE"/>
<path d="M22.9426 14.9375H7.05762V15.8429H22.9426V14.9375Z" fill="#C2CECE"/>
<path d="M24.9177 12.2238C23.6861 12.2238 22.5577 11.7836 21.6801 11.0525L21.3374 11.1127L28.7448 18.5201V10.4727C27.8167 11.5446 26.4469 12.2238 24.9177 12.2238Z" fill="url(#paint2_linear)"/>
<path d="M29.9794 11.8828V28.766C29.9794 29.4475 29.4263 30.0005 28.7448 30.0005H1.25508C0.573574 30.0005 0.0205078 29.4475 0.0205078 28.766V11.8828L15.1646 23.8277L29.9794 11.8828Z" fill="url(#paint3_linear)"/>
<path d="M29.8128 29.3812L15.9394 18.1953C15.4872 17.8307 14.8419 17.8307 14.3896 18.1953L0.304688 29.5517C0.531211 29.8246 0.872754 29.9985 1.25508 29.9985H28.7447C29.2015 29.9985 29.5993 29.7499 29.8128 29.3812Z" fill="url(#paint4_linear)"/>
<path d="M24.9177 12.6352C27.7132 12.6352 29.9794 10.369 29.9794 7.57346C29.9794 4.77794 27.7132 2.51172 24.9177 2.51172C22.1222 2.51172 19.856 4.77794 19.856 7.57346C19.856 10.369 22.1222 12.6352 24.9177 12.6352Z" fill="url(#paint5_linear)"/>
<path d="M23.7764 5.54553C23.7764 5.38135 23.8427 5.25186 23.9753 5.15711L24.9606 4.20971C25.03 4.14027 25.1153 4.10547 25.2164 4.10547C25.3301 4.10547 25.4327 4.13553 25.5243 4.19547C25.6158 4.25553 25.6617 4.33609 25.6617 4.43705V10.7088C25.6617 10.8099 25.6111 10.8904 25.5101 10.9504C25.409 11.0105 25.2922 11.0404 25.1596 11.0404C25.0206 11.0404 24.9021 11.0105 24.8043 10.9504C24.7063 10.8905 24.6574 10.8099 24.6574 10.7088V5.44123L24.3259 5.85813C24.2627 5.92129 24.1933 5.95287 24.1174 5.95287C24.0227 5.95287 23.9422 5.91027 23.8758 5.82502C23.8095 5.73971 23.7764 5.6466 23.7764 5.54553Z" fill="white"/>
<path d="M1.64027 25.0061V1.61941C1.64027 0.937617 2.19305 0.384844 2.87484 0.384844H27.8954C28.1377 0.384844 28.363 0.455684 28.5537 0.57627C28.3349 0.230391 27.95 0 27.5105 0H2.48994C1.80814 0 1.25537 0.552773 1.25537 1.23457V24.6212C1.25537 25.0607 1.48576 25.4456 1.8317 25.6644C1.71111 25.4736 1.64027 25.2483 1.64027 25.0061Z" fill="url(#paint6_linear)"/>
<defs>
<linearGradient id="paint0_linear" x1="4.03218" y1="1.95853" x2="32.8212" y2="30.7481" gradientUnits="userSpaceOnUse">
<stop stop-color="white"/>
<stop offset="1" stop-color="#E8EFEE"/>
</linearGradient>
<linearGradient id="paint1_linear" x1="28.9847" y1="23.713" x2="-0.059344" y2="26.0512" gradientUnits="userSpaceOnUse">
<stop stop-color="#C2CECE" stop-opacity="0"/>
<stop offset="0.179" stop-color="#AFBCBC" stop-opacity="0.179"/>
<stop offset="1" stop-color="#5B6A6A"/>
</linearGradient>
<linearGradient id="paint2_linear" x1="29.044" y1="14.7941" x2="22.2932" y2="8.04326" gradientUnits="userSpaceOnUse">
<stop stop-color="#C2CECE" stop-opacity="0"/>
<stop offset="0.179" stop-color="#AFBCBC" stop-opacity="0.179"/>
<stop offset="1" stop-color="#5B6A6A"/>
</linearGradient>
<linearGradient id="paint3_linear" x1="15.0004" y1="17.6444" x2="15.0004" y2="28.7642" gradientUnits="userSpaceOnUse">
<stop stop-color="#FFC200"/>
<stop offset="0.268" stop-color="#FFBB00"/>
<stop offset="0.659" stop-color="#FFA801"/>
<stop offset="1" stop-color="#FF9102"/>
</linearGradient>
<linearGradient id="paint4_linear" x1="15.0593" y1="26.1302" x2="15.0593" y2="29.9878" gradientUnits="userSpaceOnUse">
<stop stop-color="#FFC200"/>
<stop offset="0.268" stop-color="#FFBB00"/>
<stop offset="0.659" stop-color="#FFA801"/>
<stop offset="1" stop-color="#FF9102"/>
</linearGradient>
<linearGradient id="paint5_linear" x1="22.8088" y1="2.54627" x2="27.0058" y2="12.546" gradientUnits="userSpaceOnUse">
<stop stop-color="#D63305"/>
<stop offset="0.366" stop-color="#CF3004"/>
<stop offset="0.899" stop-color="#BC2602"/>
<stop offset="1" stop-color="#B72401"/>
</linearGradient>
<linearGradient id="paint6_linear" x1="8.02206" y1="5.94883" x2="-13.0473" y2="-15.1199" gradientUnits="userSpaceOnUse">
<stop stop-color="#C2CECE" stop-opacity="0"/>
<stop offset="0.179" stop-color="#AFBCBC" stop-opacity="0.179"/>
<stop offset="1" stop-color="#5B6A6A"/>
</linearGradient>
</defs>
</svg>
