<svg width="30" height="30" viewBox="0 0 30 30" fill="none" xmlns="http://www.w3.org/2000/svg">
<path d="M14.224 0.378799L0.0205078 11.8557V13.9945H14.9999H29.9794V11.8557L15.7759 0.378799C15.3233 0.0130566 14.6766 0.0130566 14.224 0.378799Z" fill="#FF9102"/>
<path d="M27.51 25.8557H2.48945C1.80766 25.8557 1.25488 25.3029 1.25488 24.6211V1.23457C1.25488 0.552773 1.8076 0 2.48945 0H27.51C28.1918 0 28.7446 0.552773 28.7446 1.23457V24.6212C28.7446 25.303 28.1919 25.8557 27.51 25.8557Z" fill="url(#paint0_linear)"/>
<path d="M28.7446 23.9336V24.4142C28.7446 25.2101 28.0986 25.8559 27.3028 25.8559H2.69664C1.90076 25.8559 1.25488 25.21 1.25488 24.4142V23.9336H28.7446Z" fill="url(#paint1_linear)"/>
<path d="M22.9426 3.90918H7.05762V4.81457H22.9426V3.90918Z" fill="#C2CECE"/>
<path d="M22.9426 7.53027H7.05762V8.43566H22.9426V7.53027Z" fill="#C2CECE"/>
<path d="M22.9426 11.2334H7.05762V12.1388H22.9426V11.2334Z" fill="#C2CECE"/>
<path d="M22.9426 14.9375H7.05762V15.8429H22.9426V14.9375Z" fill="#C2CECE"/>
<path d="M24.9181 12.2218C23.6866 12.2218 22.5582 11.7816 21.6806 11.0505L21.3379 11.1107L28.7453 18.5181V10.4707C27.8172 11.5427 26.4474 12.2218 24.9181 12.2218Z" fill="url(#paint2_linear)"/>
<path d="M29.9794 11.8818V28.765C29.9794 29.4465 29.4263 29.9995 28.7448 29.9995H1.25508C0.573574 29.9995 0.0205078 29.4465 0.0205078 28.765V11.8818L15.1646 23.8268L29.9794 11.8818Z" fill="url(#paint3_linear)"/>
<path d="M29.8128 29.3822L15.9394 18.1963C15.4872 17.8317 14.8419 17.8317 14.3896 18.1963L0.304688 29.5527C0.531211 29.8256 0.872754 29.9995 1.25508 29.9995H28.7447C29.2015 29.9995 29.5993 29.7509 29.8128 29.3822Z" fill="url(#paint4_linear)"/>
<path d="M24.9172 12.6342C27.7127 12.6342 29.9789 10.368 29.9789 7.57248C29.9789 4.77696 27.7127 2.51074 24.9172 2.51074C22.1217 2.51074 19.8555 4.77696 19.8555 7.57248C19.8555 10.368 22.1217 12.6342 24.9172 12.6342Z" fill="url(#paint5_linear)"/>
<path d="M23.7764 5.54455C23.7764 5.38037 23.8427 5.25088 23.9753 5.15613L24.9606 4.20873C25.03 4.1393 25.1153 4.10449 25.2164 4.10449C25.3301 4.10449 25.4327 4.13455 25.5243 4.19449C25.6158 4.25455 25.6617 4.33512 25.6617 4.43607V10.7078C25.6617 10.8089 25.6111 10.8894 25.5101 10.9494C25.409 11.0095 25.2922 11.0394 25.1596 11.0394C25.0206 11.0394 24.9021 11.0095 24.8043 10.9494C24.7063 10.8895 24.6574 10.8089 24.6574 10.7078V5.44025L24.3259 5.85715C24.2627 5.92031 24.1933 5.9519 24.1174 5.9519C24.0227 5.9519 23.9422 5.9093 23.8758 5.82404C23.8095 5.73873 23.7764 5.64563 23.7764 5.54455Z" fill="white"/>
<path d="M1.63979 25.0061V1.61941C1.63979 0.937617 2.19256 0.384844 2.87436 0.384844H27.8949C28.1372 0.384844 28.3625 0.455684 28.5532 0.57627C28.3345 0.230391 27.9496 0 27.51 0H2.48945C1.80766 0 1.25488 0.552773 1.25488 1.23457V24.6212C1.25488 25.0607 1.48527 25.4456 1.83121 25.6644C1.71063 25.4736 1.63979 25.2483 1.63979 25.0061Z" fill="url(#paint6_linear)"/>
<defs>
<linearGradient id="paint0_linear" x1="4.03169" y1="1.95853" x2="32.8207" y2="30.7481" gradientUnits="userSpaceOnUse">
<stop stop-color="white"/>
<stop offset="1" stop-color="#E8EFEE"/>
</linearGradient>
<linearGradient id="paint1_linear" x1="28.9847" y1="23.713" x2="-0.059344" y2="26.0512" gradientUnits="userSpaceOnUse">
<stop stop-color="#C2CECE" stop-opacity="0"/>
<stop offset="0.179" stop-color="#AFBCBC" stop-opacity="0.179"/>
<stop offset="1" stop-color="#5B6A6A"/>
</linearGradient>
<linearGradient id="paint2_linear" x1="29.0445" y1="14.7921" x2="22.2937" y2="8.0413" gradientUnits="userSpaceOnUse">
<stop stop-color="#C2CECE" stop-opacity="0"/>
<stop offset="0.179" stop-color="#AFBCBC" stop-opacity="0.179"/>
<stop offset="1" stop-color="#5B6A6A"/>
</linearGradient>
<linearGradient id="paint3_linear" x1="15.0004" y1="17.6435" x2="15.0004" y2="28.7632" gradientUnits="userSpaceOnUse">
<stop stop-color="#FFC200"/>
<stop offset="0.268" stop-color="#FFBB00"/>
<stop offset="0.659" stop-color="#FFA801"/>
<stop offset="1" stop-color="#FF9102"/>
</linearGradient>
<linearGradient id="paint4_linear" x1="15.0593" y1="26.1312" x2="15.0593" y2="29.9888" gradientUnits="userSpaceOnUse">
<stop stop-color="#FFC200"/>
<stop offset="0.268" stop-color="#FFBB00"/>
<stop offset="0.659" stop-color="#FFA801"/>
<stop offset="1" stop-color="#FF9102"/>
</linearGradient>
<linearGradient id="paint5_linear" x1="22.8083" y1="2.54529" x2="27.0053" y2="12.545" gradientUnits="userSpaceOnUse">
<stop stop-color="#D63305"/>
<stop offset="0.366" stop-color="#CF3004"/>
<stop offset="0.899" stop-color="#BC2602"/>
<stop offset="1" stop-color="#B72401"/>
</linearGradient>
<linearGradient id="paint6_linear" x1="8.02157" y1="5.94883" x2="-13.0478" y2="-15.1199" gradientUnits="userSpaceOnUse">
<stop stop-color="#C2CECE" stop-opacity="0"/>
<stop offset="0.179" stop-color="#AFBCBC" stop-opacity="0.179"/>
<stop offset="1" stop-color="#5B6A6A"/>
</linearGradient>
</defs>
</svg>
