<svg width="13" height="13" viewBox="0 0 13 13" fill="none"
    xmlns="http://www.w3.org/2000/svg">
    <g clip-path="url(#clip0)">
        <path d="M4.00237 2.60547C3.88996 2.60547 3.79881 2.6966 3.79881 2.80903C3.79881 3.05595 3.59792 3.25684 3.351 3.25684C3.10407 3.25684 2.90318 3.05595 2.90318 2.80903C2.90318 2.56211 3.10407 2.36122 3.351 2.36122C3.4634 2.36122 3.55455 2.27009 3.55455 2.15766C3.55455 2.04523 3.46343 1.9541 3.351 1.9541C2.87959 1.9541 2.49609 2.33763 2.49609 2.809C2.49609 3.28038 2.87962 3.66391 3.351 3.66391C3.82237 3.66391 4.2059 3.28038 4.2059 2.809C4.20592 2.6966 4.11477 2.60547 4.00237 2.60547Z" fill="#284486"/>
        <path d="M4.00237 4.99317C3.88996 4.99317 3.79881 5.0843 3.79881 5.19673C3.79881 5.44365 3.59792 5.64454 3.351 5.64454C3.10407 5.64454 2.90318 5.44365 2.90318 5.19673C2.90318 4.9498 3.10407 4.74891 3.351 4.74891C3.4634 4.74891 3.55455 4.65778 3.55455 4.54535C3.55455 4.43292 3.46343 4.3418 3.351 4.3418C2.87959 4.3418 2.49609 4.72532 2.49609 5.1967C2.49609 5.66808 2.87962 6.0516 3.351 6.0516C3.82237 6.0516 4.2059 5.66808 4.2059 5.1967C4.20592 5.08432 4.11477 4.99317 4.00237 4.99317Z" fill="#284486"/>
        <path d="M6.39136 5.42773H4.87153C4.75912 5.42773 4.66797 5.51886 4.66797 5.63129C4.66797 5.74372 4.7591 5.83485 4.87153 5.83485H6.39136C6.50376 5.83485 6.59492 5.74372 6.59492 5.63129C6.59492 5.51886 6.50379 5.42773 6.39136 5.42773Z" fill="#284486"/>
        <path d="M6.39136 4.55957H4.87153C4.75912 4.55957 4.66797 4.6507 4.66797 4.76313C4.66797 4.87556 4.7591 4.96669 4.87153 4.96669H6.39136C6.50376 4.96669 6.59492 4.87556 6.59492 4.76313C6.59492 4.6507 6.50379 4.55957 6.39136 4.55957Z" fill="#284486"/>
        <path d="M5.95713 7.81641H4.87153C4.75912 7.81641 4.66797 7.90753 4.66797 8.01996C4.66797 8.13239 4.7591 8.22351 4.87153 8.22351H5.95713C6.06953 8.22351 6.16069 8.13239 6.16069 8.01996C6.16069 7.90753 6.06953 7.81641 5.95713 7.81641Z" fill="#284486"/>
        <path d="M6.39136 6.94727H4.87153C4.75912 6.94727 4.66797 7.03839 4.66797 7.15082C4.66797 7.26325 4.7591 7.35438 4.87153 7.35438H6.39136C6.50376 7.35438 6.59492 7.26325 6.59492 7.15082C6.59492 7.03839 6.50379 6.94727 6.39136 6.94727Z" fill="#284486"/>
        <path d="M8.34545 3.04004H4.87153C4.75912 3.04004 4.66797 3.13117 4.66797 3.2436C4.66797 3.35603 4.7591 3.44715 4.87153 3.44715H8.34542C8.45783 3.44715 8.54898 3.35603 8.54898 3.2436C8.54898 3.13117 8.45785 3.04004 8.34545 3.04004Z" fill="#284486"/>
        <path d="M7.47696 2.1709H4.87153C4.75912 2.1709 4.66797 2.26203 4.66797 2.37445C4.66797 2.48688 4.7591 2.57801 4.87153 2.57801H7.47696C7.58936 2.57801 7.68052 2.48688 7.68052 2.37445C7.68052 2.26203 7.58939 2.1709 7.47696 2.1709Z" fill="#284486"/>
        <path d="M4.00237 7.38184C3.88996 7.38184 3.79881 7.47297 3.79881 7.5854C3.79881 7.83232 3.59792 8.03321 3.351 8.03321C3.10407 8.03321 2.90318 7.83232 2.90318 7.5854C2.90318 7.33847 3.10407 7.13758 3.351 7.13758C3.4634 7.13758 3.55455 7.04645 3.55455 6.93403C3.55455 6.8216 3.46343 6.73047 3.351 6.73047C2.87959 6.73047 2.49609 7.11399 2.49609 7.58537C2.49609 8.05675 2.87962 8.44027 3.351 8.44027C3.82237 8.44027 4.2059 8.05675 4.2059 7.58537C4.20592 7.47297 4.11477 7.38184 4.00237 7.38184Z" fill="#284486"/>
        <path d="M9.21319 0H1.83115C1.47949 0 1.19336 0.286102 1.19336 0.637787V9.75678C1.19336 10.1085 1.47946 10.3946 1.83115 10.3946H5.52218C5.63459 10.3946 5.72574 10.3034 5.72574 10.191C5.72574 10.0786 5.63461 9.98745 5.52218 9.98745H1.83115C1.70394 9.98745 1.60045 9.88396 1.60045 9.75675V0.637787C1.60045 0.51058 1.70394 0.407088 1.83115 0.407088H9.21319C9.3404 0.407088 9.44389 0.51058 9.44389 0.637787V7.36851C9.44389 7.48092 9.53502 7.57207 9.64745 7.57207C9.75985 7.57207 9.851 7.48094 9.851 7.36851V0.637787C9.85098 0.286102 9.56488 0 9.21319 0Z" fill="#284486"/>
        <path d="M11.136 8.25431C10.9468 8.23544 10.7578 8.28907 10.6081 8.40269C10.4889 8.20267 10.2856 8.06076 10.0504 8.03719C9.86118 8.01835 9.67212 8.07198 9.5225 8.18558C9.40329 7.98555 9.20001 7.84364 8.96482 7.82008C8.82035 7.80566 8.67608 7.83349 8.5493 7.898V5.30582C8.5493 5.09536 8.45977 4.89361 8.3036 4.75231C8.14757 4.61114 7.93731 4.54223 7.7267 4.5633C7.35094 4.60093 7.05661 4.94068 7.05661 5.3368V7.93553L6.45826 8.53389C6.14029 8.85185 6.01194 9.30299 6.11495 9.74073L6.56921 11.6714C6.75327 12.4537 7.44311 13 8.24677 13H10.0827C11.033 13 11.8061 12.2269 11.8061 11.2766V9.02786C11.8061 8.63169 11.5118 8.29194 11.136 8.25431ZM11.399 11.2766C11.399 12.0024 10.8085 12.5929 10.0827 12.5929H8.2468C7.63298 12.5929 7.10607 12.1756 6.96549 11.578L6.51122 9.64742C6.44074 9.34793 6.52856 9.03924 6.74611 8.82169L7.05661 8.51119V9.21395C7.05661 9.32635 7.14774 9.41751 7.26017 9.41751C7.3726 9.41751 7.46373 9.32638 7.46373 9.21395V5.33678C7.46373 5.14723 7.59705 4.98539 7.7673 4.96838C7.86508 4.95856 7.95859 4.98908 8.03049 5.05418C8.10151 5.11844 8.14224 5.21018 8.14224 5.30585V8.88831C8.14224 9.00072 8.23337 9.09187 8.3458 9.09187C8.45823 9.09187 8.54935 9.00074 8.54935 8.88831V8.56263C8.54935 8.46696 8.59005 8.37522 8.6611 8.31096C8.73305 8.24586 8.82652 8.21531 8.92429 8.22516C9.09451 8.2422 9.22786 8.40404 9.22786 8.59358V9.10538C9.22786 9.21778 9.31899 9.30893 9.43142 9.30893C9.54383 9.30893 9.63498 9.21781 9.63498 9.10538V8.77969C9.63498 8.68402 9.67568 8.59228 9.74672 8.52802C9.81868 8.46292 9.91217 8.4324 10.0099 8.44223C10.1801 8.45926 10.3135 8.6211 10.3135 8.81064V9.32247C10.3135 9.43487 10.4046 9.52602 10.517 9.52602C10.6295 9.52602 10.7206 9.4349 10.7206 9.32247V8.99678C10.7206 8.90111 10.7613 8.80937 10.8323 8.74511C10.9043 8.68003 10.9977 8.64946 11.0955 8.65934C11.2658 8.67635 11.3991 8.83819 11.3991 9.02773V11.2766H11.399Z" fill="#284486"/>
    </g>
    <defs>
        <clipPath id="clip0">
            <rect width="13" height="13" fill="white"/>
        </clipPath>
    </defs>
</svg>
