<svg width="25" height="25" viewBox="0 0 25 25" fill="none"
    xmlns="http://www.w3.org/2000/svg">
    <g clip-path="url(#clip0)">
        <path d="M24.9074 12.2041C24.7105 11.9176 19.9792 5.20815 12.4999 5.20815C6.08211 5.20815 0.363275 11.8791 0.122646 12.1635C-0.040882 12.3572 -0.040882 12.6416 0.122646 12.8364C0.363275 13.1208 6.08211 19.7917 12.4999 19.7917C18.9178 19.7917 24.6366 13.1208 24.8772 12.8364C25.0283 12.6572 25.0418 12.3979 24.9074 12.2041ZM12.4999 18.7501C7.35508 18.7501 2.46331 13.8437 1.22061 12.5C2.46126 11.1552 7.34781 6.24987 12.4999 6.24987C18.5198 6.24987 22.7689 11.1489 23.8064 12.4718C22.6084 13.7729 17.6885 18.7501 12.4999 18.7501Z" fill="#575B67"/>
        <path d="M12.5007 8.33312C10.2028 8.33312 8.33398 10.2019 8.33398 12.4998C8.33398 14.7978 10.2028 16.6666 12.5007 16.6666C14.7986 16.6666 16.6674 14.7978 16.6674 12.4998C16.6674 10.2019 14.7986 8.33312 12.5007 8.33312ZM12.5007 15.6249C10.7778 15.6249 9.37565 14.2228 9.37565 12.4999C9.37565 10.777 10.7778 9.37483 12.5007 9.37483C14.2236 9.37483 15.6258 10.777 15.6258 12.4999C15.6258 14.2228 14.2236 15.6249 12.5007 15.6249Z" fill="#575B67"/>
    </g>
    <defs>
        <clipPath id="clip0">
            <rect width="25" height="25" fill="white"/>
        </clipPath>
    </defs>
</svg>