<svg width="17" height="16" viewBox="0 0 17 16" fill="none" xmlns="http://www.w3.org/2000/svg">
<path d="M14.025 9.85001C12.9133 9.85001 11.9534 10.4704 11.4428 11.3763L5.87093 9.2333C5.9193 9.02082 5.94998 8.80192 5.94998 8.57501C5.94998 8.28064 5.8938 8.00185 5.8138 7.73311L11.5345 5.09247C12.0658 5.90759 12.9816 6.45002 14.0249 6.45002C15.6652 6.45002 17 5.11526 17 3.47501C17 1.83476 15.6652 0.5 14.0249 0.5C12.3847 0.5 11.05 1.83476 11.05 3.47501C11.05 3.76938 11.1062 4.04816 11.1862 4.31691L5.46544 6.95755C4.93421 6.14243 4.01832 5.6 2.97501 5.6C1.33476 5.6 0 6.93476 0 8.57501C0 10.2153 1.33476 11.55 2.97501 11.55C4.08673 11.55 5.04665 10.9297 5.55716 10.0237L11.1291 12.1667C11.0807 12.3792 11.05 12.5981 11.05 12.825C11.05 14.4653 12.3848 15.8 14.025 15.8C15.6653 15.8 17 14.4653 17 12.825C17 11.1848 15.6652 9.85001 14.025 9.85001ZM14.025 1.35003C15.1966 1.35003 16.15 2.30337 16.15 3.47501C16.15 4.64666 15.1966 5.6 14.025 5.6C12.8533 5.6 11.9 4.64666 11.9 3.47501C11.9 2.30337 12.8533 1.35003 14.025 1.35003ZM2.97501 10.7C1.80337 10.7 0.850026 9.74665 0.850026 8.57501C0.850026 7.40336 1.80337 6.45002 2.97501 6.45002C4.14666 6.45002 5.1 7.40336 5.1 8.57501C5.1 9.74665 4.14666 10.7 2.97501 10.7ZM14.025 14.95C12.8533 14.95 11.9 13.9967 11.9 12.825C11.9 11.6534 12.8533 10.7 14.025 10.7C15.1966 10.7 16.15 11.6534 16.15 12.825C16.15 13.9967 15.1966 14.95 14.025 14.95Z" fill="white"/>
</svg>
