<svg width="101" height="101" viewBox="0 0 101 101" fill="none" xmlns="http://www.w3.org/2000/svg">
<path d="M50.4993 101C37.0114 101 24.3291 95.7477 14.791 86.2082C5.25302 76.6717 0 63.9901 0 50.5C0 37.0107 5.25302 24.3298 14.791 14.791C24.3291 5.25302 37.0114 0 50.4993 0C63.5072 0 75.8625 4.93402 85.2873 13.8921C95.4192 23.5235 100.999 36.5241 100.999 50.4993C100.999 63.9886 95.7463 76.6695 86.2082 86.2075C76.6695 95.7477 63.9872 101 50.4993 101ZM50.4993 9.61888C39.5809 9.61888 29.3145 13.8716 21.5919 21.5927C13.8701 29.3138 9.6189 39.5795 9.6189 50.5C9.6189 61.4205 13.8701 71.6855 21.5919 79.4073C29.3145 87.1292 39.5809 91.3804 50.4993 91.3804C61.4176 91.3804 71.684 87.1292 79.4066 79.4073C87.1284 71.6855 91.3804 61.4198 91.3804 50.5C91.3804 39.1862 86.8631 28.6626 78.6598 20.8643C71.0299 13.6136 61.0296 9.61888 50.4993 9.61888Z" fill="#DCDCDC"/>
<path d="M50.4993 101C37.0114 101 24.329 95.7477 14.791 86.2082L21.5919 79.4073C29.3145 87.1292 39.5809 91.3804 50.4993 91.3804C61.4176 91.3804 71.684 87.1292 79.4066 79.4073C87.1284 71.6855 91.3804 61.4198 91.3804 50.5C91.3804 39.1862 86.8631 28.6626 78.6598 20.8643C71.0298 13.6128 61.0295 9.61888 50.4993 9.61888V0C63.5072 0 75.8624 4.93402 85.2873 13.8921C95.4192 23.5235 100.999 36.5241 100.999 50.4993C100.999 63.9886 95.7462 76.6695 86.2082 86.2075C76.6695 95.7477 63.9871 101 50.4993 101Z" fill="#FABE2C"/>
<path d="M40.1646 43.8628V45.7793H39.7495C37.9917 45.8118 36.592 46.3327 35.5503 47.3418C34.5086 48.3509 33.9064 49.771 33.7437 51.6021C34.6795 50.5278 35.9572 49.9907 37.5767 49.9907C39.1229 49.9907 40.3558 50.536 41.2754 51.6265C42.2031 52.717 42.667 54.1248 42.667 55.8501C42.667 57.6812 42.1665 59.146 41.1655 60.2446C40.1727 61.3433 38.8381 61.8926 37.1616 61.8926C35.4608 61.8926 34.0814 61.2415 33.0234 59.9395C31.9655 58.6292 31.4365 56.9447 31.4365 54.8857V54.019C31.4365 50.7476 32.1323 48.2492 33.5239 46.5239C34.9237 44.7905 37.0029 43.9035 39.7617 43.8628H40.1646ZM37.1982 51.8706C36.4251 51.8706 35.7131 52.1025 35.062 52.5664C34.411 53.0303 33.9593 53.6121 33.707 54.312V55.1421C33.707 56.6069 34.0366 57.7869 34.6958 58.6821C35.355 59.5773 36.1769 60.0249 37.1616 60.0249C38.1789 60.0249 38.9764 59.6506 39.5542 58.9019C40.1401 58.1532 40.4331 57.1725 40.4331 55.96C40.4331 54.7393 40.1361 53.7546 39.542 53.0059C38.9561 52.249 38.1748 51.8706 37.1982 51.8706ZM46.3779 52.7373L47.2812 43.875H56.3877V45.9624H49.1978L48.6606 50.8086C49.5314 50.2959 50.5202 50.0396 51.627 50.0396C53.2464 50.0396 54.5322 50.5767 55.4844 51.6509C56.4365 52.717 56.9126 54.1615 56.9126 55.9844C56.9126 57.8154 56.4162 59.2599 55.4233 60.3179C54.4386 61.3677 53.0592 61.8926 51.2852 61.8926C49.7145 61.8926 48.4328 61.4572 47.4399 60.5864C46.4471 59.7157 45.8815 58.5112 45.7432 56.9731H47.8794C48.0177 57.9904 48.3799 58.7594 48.9658 59.2803C49.5518 59.793 50.3249 60.0493 51.2852 60.0493C52.335 60.0493 53.1569 59.6912 53.751 58.9751C54.3532 58.259 54.6543 57.2702 54.6543 56.0088C54.6543 54.8206 54.3288 53.8685 53.6777 53.1523C53.0348 52.4281 52.1763 52.0659 51.1021 52.0659C50.1174 52.0659 49.3442 52.2816 48.7827 52.7129L48.1846 53.2012L46.3779 52.7373ZM59.1831 47.293C59.1831 46.2269 59.5208 45.348 60.1963 44.6562C60.8799 43.9645 61.7547 43.6187 62.8208 43.6187C63.9032 43.6187 64.778 43.9686 65.4453 44.6685C66.1208 45.3602 66.4585 46.2594 66.4585 47.3662V48.2329C66.4585 49.3071 66.1167 50.186 65.4331 50.8696C64.7576 51.5451 63.895 51.8828 62.8452 51.8828C61.7873 51.8828 60.9124 51.5451 60.2207 50.8696C59.529 50.186 59.1831 49.2786 59.1831 48.1475V47.293ZM60.8677 48.2329C60.8677 48.8677 61.0467 49.3926 61.4048 49.8076C61.7629 50.2145 62.243 50.418 62.8452 50.418C63.423 50.418 63.8869 50.2186 64.2368 49.8198C64.5949 49.4211 64.7739 48.8758 64.7739 48.1841V47.293C64.7739 46.6582 64.599 46.1333 64.249 45.7183C63.8991 45.3032 63.423 45.0957 62.8208 45.0957C62.2186 45.0957 61.7425 45.3032 61.3926 45.7183C61.0426 46.1333 60.8677 46.6745 60.8677 47.3418V48.2329ZM67.8379 57.2905C67.8379 56.2244 68.1756 55.3496 68.8511 54.666C69.5347 53.9743 70.4095 53.6284 71.4756 53.6284C72.5417 53.6284 73.4165 53.9702 74.1001 54.6538C74.7837 55.3374 75.1255 56.2448 75.1255 57.376V58.2427C75.1255 59.3088 74.7837 60.1877 74.1001 60.8794C73.4246 61.563 72.5579 61.9048 71.5 61.9048C70.4421 61.9048 69.5672 61.5671 68.8755 60.8916C68.1838 60.208 67.8379 59.3006 67.8379 58.1694V57.2905ZM69.5225 58.2427C69.5225 58.8856 69.7015 59.4146 70.0596 59.8296C70.4176 60.2365 70.8978 60.4399 71.5 60.4399C72.0859 60.4399 72.5539 60.2406 72.9038 59.8418C73.2537 59.4349 73.4287 58.8856 73.4287 58.1938V57.2905C73.4287 56.6476 73.2497 56.1227 72.8916 55.7158C72.5417 55.3089 72.0697 55.1055 71.4756 55.1055C70.8978 55.1055 70.4258 55.3089 70.0596 55.7158C69.7015 56.1146 69.5225 56.6558 69.5225 57.3394V58.2427ZM63.3579 60.3057L62.0762 59.5L70.7554 45.6084L72.0371 46.4141L63.3579 60.3057Z" fill="#9C9C9C"/>
</svg>
