<svg width="35" height="35" viewBox="0 0 35 35" fill="none" xmlns="http://www.w3.org/2000/svg">
<g clip-path="url(#clip0)">
<path d="M17.0303 34.0125C26.0559 34.0125 33.3725 26.9048 33.3725 18.1371C33.3725 9.36936 26.0559 2.26172 17.0303 2.26172C8.00468 2.26172 0.687988 9.36936 0.687988 18.1371C0.687988 26.9048 8.00468 34.0125 17.0303 34.0125Z" fill="#FFD93B"/>
<path d="M33.3727 18.1391C33.3727 26.9102 26.0542 34.0144 17.0304 34.0144C11.8932 34.0144 7.30639 31.7128 4.30908 28.1054C7.11301 30.308 10.683 31.623 14.5686 31.623C23.5924 31.623 30.9108 24.5187 30.9108 15.7476C30.9108 11.972 29.5572 8.50507 27.2899 5.78125C30.998 8.69395 33.3727 13.1487 33.3727 18.1391Z" fill="#F4C534"/>
<path d="M12.1629 2.2653C12.9354 4.18095 10.346 8.54691 10.346 8.54691C10.346 8.54691 5.39268 7.04927 4.62024 5.13465C4.20374 4.10045 4.7318 2.9269 5.79643 2.5223C6.65705 2.19511 7.61117 2.46657 8.16367 3.1292C8.10524 2.27769 8.61311 1.45094 9.47373 1.12375C10.5415 0.717089 11.7464 1.23109 12.1629 2.2653Z" fill="#E24B4B"/>
<path d="M33.1194 7.2548C31.9826 9.56989 25.682 11.0015 25.682 11.0015C25.682 11.0015 22.8632 5.34327 24.0011 3.02818C24.6152 1.77826 26.1643 1.24567 27.4521 1.84225C28.4933 2.32529 29.0522 3.39975 28.9013 4.4546C29.6504 3.6774 30.8574 3.42143 31.8986 3.90344C33.1896 4.50105 33.7336 6.00488 33.1194 7.2548Z" fill="#E24B4B"/>
<path d="M17.8644 15.8667C17.8644 19.476 14.8585 22.396 11.143 22.396C7.43806 22.396 4.42163 19.476 4.42163 15.8667C4.42163 12.2676 7.43806 9.34766 11.143 9.34766C14.8585 9.34869 17.8644 12.2676 17.8644 15.8667Z" fill="#F4C534"/>
<path d="M16.6603 15.8696C16.2789 18.8669 13.5047 21.2914 10.4543 21.2914C7.41341 21.2914 5.24485 18.8669 5.62629 15.8696C6.00666 12.8805 8.7904 10.457 11.8313 10.457C14.8817 10.457 17.0407 12.8815 16.6603 15.8696Z" fill="white"/>
<path d="M11.5598 15.8756C12.8314 15.8756 13.8622 14.8743 13.8622 13.639C13.8622 12.4037 12.8314 11.4023 11.5598 11.4023C10.2882 11.4023 9.25732 12.4037 9.25732 13.639C9.25732 14.8743 10.2882 15.8756 11.5598 15.8756Z" fill="black"/>
<path d="M12.7191 12.5074C12.4406 12.2369 12.0558 12.1722 11.8596 12.3629C11.6633 12.5535 11.7299 12.9273 12.0083 13.1978C12.2868 13.4682 12.6716 13.5329 12.8678 13.3423C13.0641 13.1516 12.9975 12.7778 12.7191 12.5074Z" fill="white"/>
<path d="M29.639 16.7622C29.639 19.6893 27.2016 22.057 24.1884 22.057C21.1847 22.057 18.7378 19.6893 18.7378 16.7622C18.7378 13.8433 21.1837 11.4766 24.1884 11.4766C27.2016 11.4755 29.639 13.8433 29.639 16.7622Z" fill="#F4C534"/>
<path d="M28.6615 16.763C28.9154 19.137 27.1198 21.0557 24.6463 21.0557C22.1802 21.0557 19.9671 19.1359 19.7131 16.763C19.4602 14.3963 21.2633 12.4766 23.7294 12.4766C26.2039 12.4766 28.4086 14.3963 28.6615 16.763Z" fill="white"/>
<path d="M23.3925 17.7038C24.6641 17.7038 25.695 16.7024 25.695 15.4671C25.695 14.2319 24.6641 13.2305 23.3925 13.2305C22.1209 13.2305 21.0901 14.2319 21.0901 15.4671C21.0901 16.7024 22.1209 17.7038 23.3925 17.7038Z" fill="black"/>
<path d="M24.5518 14.3316C24.2734 14.0611 23.8886 13.9964 23.6923 14.1871C23.4961 14.3777 23.5627 14.7515 23.8411 15.022C24.1195 15.2925 24.5043 15.3572 24.7006 15.1665C24.8968 14.9759 24.8302 14.6021 24.5518 14.3316Z" fill="white"/>
<path d="M6.54541 23.5469C7.3561 24.7421 8.16997 25.5596 9.18466 26.4152C11.2895 28.1378 14.0753 29.1431 17.0121 29.1772C20.0976 29.1359 22.7868 28.1224 24.8756 26.4142C25.8786 25.5688 26.7191 24.7184 27.5149 23.5469C26.9252 24.8071 26.2431 25.8816 25.2656 26.825C22.944 29.0358 20.3451 30.0968 17.0482 30.1691C13.6546 30.0938 11.0727 28.9914 8.79578 26.8239C7.81191 25.8744 7.12872 24.7906 6.54541 23.5469Z" fill="black"/>
</g>
<defs>
<clipPath id="clip0">
<rect width="34" height="33.0286" fill="white" transform="translate(0.0302734 0.984375)"/>
</clipPath>
</defs>
</svg>
