<svg width="34" height="34" viewBox="0 0 34 34" fill="none" xmlns="http://www.w3.org/2000/svg">
<path d="M17 34C26.3888 34 34 26.3888 34 17C34 7.61116 26.3888 0 17 0C7.61116 0 0 7.61116 0 17C0 26.3888 7.61116 34 17 34Z" fill="#FFD93B"/>
<path d="M34 16.9991C34 26.3916 26.3872 33.9991 17 33.9991C11.6557 33.9991 6.88504 31.5341 3.7666 27.6719C6.68316 30.0306 10.3966 31.4384 14.4394 31.4384C23.8266 31.4384 31.4394 23.8309 31.4394 14.4384C31.4394 10.3956 30.0316 6.68219 27.6729 3.76562C31.5297 6.88406 34 11.6547 34 16.9991Z" fill="#F4C534"/>
<path d="M28.6419 15.5892C29.4026 17.2265 20.5775 18.9212 19.77 17.0332C19.5522 16.4275 20.2736 15.4298 22.8406 14.3312C24.6564 13.511 26.0621 12.9192 26.3872 13.3537C26.6518 13.7075 25.9813 14.752 24.5491 15.6381C26.6837 15.3363 28.4198 15.0909 28.6419 15.5892Z" fill="#3E4347"/>
<path d="M15.9524 15.8551C15.9524 18.8003 13.5766 21.175 10.6324 21.175C7.69994 21.175 5.3125 18.8003 5.3125 15.8551C5.3125 12.9226 7.69994 10.5352 10.6324 10.5352C13.5766 10.5352 15.9524 12.9226 15.9524 15.8551Z" fill="#F4C534"/>
<path d="M15.2203 15.8529C15.0726 18.2127 12.9019 20.1199 10.3647 20.1199C7.82743 20.1199 5.89687 18.2127 6.04456 15.8529C6.19225 13.4931 8.36293 11.5859 10.9002 11.5859C13.4374 11.5859 15.368 13.4931 15.2203 15.8529Z" fill="white"/>
<path d="M13.7235 15.7097C13.7235 17.1271 12.5728 18.2905 11.1427 18.3033C9.72423 18.3033 8.56079 17.1398 8.56079 15.7225C8.56079 14.2796 9.72423 13.1289 11.1544 13.1289C12.5728 13.1289 13.7235 14.2923 13.7235 15.7097Z" fill="#3E4347"/>
<path d="M12.6332 15.2087C12.4154 15.4276 12.0148 15.3904 11.7365 15.112C11.4698 14.8337 11.4209 14.4331 11.6398 14.2153C11.8703 13.9975 12.2698 14.0336 12.5493 14.312C12.8149 14.5914 12.8627 14.9909 12.6332 15.2087Z" fill="#5A5F63"/>
<path d="M24.9984 20.8322C24.4396 20.3966 22.305 25.2554 18.0051 26.4784C15.8323 27.2455 13.7275 26.8545 12.1507 26.387C10.9841 25.9375 10.7652 26.9597 11.9563 27.9744C13.6595 29.0857 16.0384 30.4765 18.7509 29.5979C24.1484 27.9053 25.6753 21.0522 24.9984 20.8322Z" fill="#3E4347"/>
<path d="M18.8114 9.76757C20.2086 8.976 23.123 7.67232 26.1873 8.39588C26.5113 8.47238 26.7578 8.03888 26.4848 7.84869C23.2452 5.59725 20.5071 5.91175 18.3715 9.33725C18.2058 9.60394 18.5383 9.92163 18.8114 9.76757Z" fill="#3E4347"/>
<path d="M15.1885 9.76757C13.7913 8.976 10.8769 7.67232 7.81262 8.39588C7.48855 8.47238 7.24205 8.03888 7.51512 7.84869C10.7547 5.59725 13.4927 5.91175 15.6284 9.33725C15.7941 9.60394 15.4616 9.92163 15.1885 9.76757Z" fill="#3E4347"/>
</svg>
