<svg width="52" height="52" viewBox="0 0 52 52" fill="none" xmlns="http://www.w3.org/2000/svg">
<circle cx="26" cy="26" r="26" fill="#284486"/>
<path fill-rule="evenodd" clip-rule="evenodd" d="M26.2071 14.7695C26.2058 14.4534 26.134 14.1047 25.9875 13.8281C25.4636 12.8393 24.1535 12.717 23.3542 13.5638C21.2211 15.8234 19.0915 18.0863 16.967 20.354C16.808 20.5237 16.6503 20.5942 16.4171 20.5921C15.1763 20.581 13.9353 20.5854 12.6944 20.5875C11.7382 20.5891 11.0193 21.2498 11.0129 22.2009C10.9958 24.7356 10.9956 27.2706 11.013 29.8053C11.0196 30.7563 11.7399 31.4153 12.6966 31.4163C13.9587 31.4177 15.2208 31.4116 16.4829 31.4241C16.6227 31.4254 16.7992 31.4909 16.8947 31.5889C17.5264 32.2375 18.1433 32.9005 18.7633 33.5605C18.7756 33.5766 18.7887 33.5923 18.8032 33.6072L18.9732 33.7839C19.0426 33.8578 19.112 33.9316 19.1814 34.0054L19.184 34.0029L19.3991 34.2265C19.6063 34.4418 19.9489 34.4483 20.1642 34.2411C20.3795 34.0339 20.3861 33.6913 20.1788 33.476L19.583 32.8568C19.5684 32.8416 19.553 32.8278 19.5371 32.8147C18.9174 32.1624 18.2962 31.5115 17.6803 30.8556C17.6112 30.7819 17.5642 30.6554 17.564 30.5534C17.5579 27.5192 17.5575 24.4849 17.5649 21.4507C17.5651 21.3405 17.6247 21.2058 17.7013 21.1245C18.2809 20.509 18.875 19.9069 19.4583 19.2946C20.1712 18.546 20.8789 17.7923 21.5874 17.0394C22.2379 16.3485 22.8874 15.6565 23.5355 14.9633C23.7437 14.7406 23.9556 14.5203 24.1482 14.2846C24.3435 14.0456 24.5794 14.0558 24.8285 14.1436C25.0894 14.2356 25.1367 14.4515 25.1366 14.7027C25.1335 18.469 25.1345 22.2353 25.1345 26.0016C25.1345 29.7573 25.1346 33.513 25.1344 37.2687C25.1344 37.7539 24.9288 37.9515 24.4602 37.9012C24.3766 37.8923 24.2806 37.8427 24.2218 37.7815C23.7979 37.3405 23.3755 36.8982 22.9534 36.4555C22.951 36.453 22.949 36.4503 22.9467 36.4478L22.8341 36.3309C22.7945 36.2893 22.7547 36.248 22.7151 36.2064L22.7147 36.2068L22.3508 35.8286C22.1435 35.6133 21.801 35.6067 21.5857 35.8139C21.3703 36.0212 21.3638 36.3638 21.571 36.5791L22.1669 37.1983C22.1923 37.2248 22.22 37.248 22.2491 37.2682C22.6172 37.6597 22.9855 38.051 23.3533 38.4427C23.8055 38.9244 24.3535 39.1094 24.9932 38.9456C25.7708 38.7466 26.2158 38.1227 26.2161 37.265C26.2175 33.5105 26.2167 29.7559 26.2167 26.0014C26.2166 22.2573 26.2218 18.5134 26.2071 14.7695ZM16.3905 30.3303C15.1024 30.3303 13.8323 30.3338 12.5623 30.3275C12.3007 30.3261 12.0853 30.0261 12.0848 29.693C12.0835 28.6438 12.0843 27.5945 12.0843 26.5454C12.0843 25.1464 12.0838 23.7475 12.0846 22.3486C12.0848 21.8911 12.2997 21.6731 12.7467 21.673C13.9538 21.6728 15.1609 21.673 16.3904 21.673C16.3905 24.5554 16.3905 27.421 16.3905 30.3303Z" fill="white"/>
<path d="M20.9051 35.6833C21.2567 35.6833 21.5417 35.3983 21.5417 35.0467C21.5417 34.6952 21.2567 34.4102 20.9051 34.4102C20.5536 34.4102 20.2686 34.6952 20.2686 35.0467C20.2686 35.3983 20.5536 35.6833 20.9051 35.6833Z" fill="white"/>
<path fill-rule="evenodd" clip-rule="evenodd" d="M41.1529 23.4483C40.3834 19.8511 38.46 17.0191 35.3655 15.0202C34.6509 14.5586 33.8545 14.2188 33.0775 13.8628C32.9254 13.7931 32.6466 13.8496 32.5049 13.9543C32.3873 14.0412 32.3041 14.3139 32.3533 14.4515C32.4137 14.6204 32.6041 14.7918 32.7788 14.8633C34.5966 15.6081 36.1617 16.7024 37.4278 18.2056C39.7898 21.0097 40.7921 24.2441 40.1889 27.8629C39.9679 29.1887 39.8306 30.0159 39.2762 31.1102L38.8742 31.8647C38.7529 32.0922 38.8622 32.3873 39.1185 32.5239C39.3747 32.6604 39.6807 32.5866 39.8019 32.3591L40.0957 31.8078C40.1458 31.7165 40.1946 31.6245 40.2426 31.5321L40.3408 31.3479C40.3499 31.3307 40.3574 31.313 40.3639 31.2952C41.2268 29.5492 41.4595 27.9913 41.4799 25.9953C41.3745 25.1456 41.3314 24.2825 41.1529 23.4483Z" fill="white"/>
<path fill-rule="evenodd" clip-rule="evenodd" d="M37.3799 33.9476L36.8959 34.4134L36.8918 34.4102C35.9862 35.3056 34.9113 36.0765 33.6731 36.7222C33.3367 36.8977 32.9788 37.032 32.6325 37.1889C32.3715 37.3071 32.2828 37.5252 32.3343 37.7902C32.3821 38.0358 32.5637 38.1828 32.8035 38.1949C32.9528 38.2025 33.1126 38.1379 33.2574 38.0799C34.758 37.4781 36.1083 36.5996 37.2608 35.5188C37.2683 35.5125 37.276 35.5065 37.2832 35.4995L38.1088 34.705C38.2947 34.5263 38.2821 34.2118 38.0808 34.0025C37.8795 33.7935 37.5657 33.7689 37.3799 33.9476Z" fill="white"/>
<path fill-rule="evenodd" clip-rule="evenodd" d="M30.9515 18.8347C31.0562 18.8845 31.1654 18.9249 31.273 18.9685C31.502 19.061 31.9553 19.2887 31.9645 19.2943C32.2098 19.4423 32.9458 19.886 32.9458 19.886C33.1664 20.0192 33.4682 19.9236 33.6198 19.6725C33.7711 19.4215 33.7149 19.1099 33.4942 18.9768C33.4942 18.9768 32.0761 18.1222 31.3559 17.8559C31.0472 17.7418 30.7598 17.8591 30.6418 18.1336C30.524 18.4078 30.6468 18.6895 30.9515 18.8347Z" fill="white"/>
<path fill-rule="evenodd" clip-rule="evenodd" d="M35.7136 21.4905L35.3813 20.9672C35.2431 20.7495 34.9304 20.7005 34.6829 20.8576C34.4352 21.0149 34.3467 21.3187 34.4849 21.5363L35.0313 22.3967C36.2646 24.4484 36.3955 26.735 35.3443 29.0744C34.4733 31.0128 33.0287 32.3558 31.05 33.1287C30.663 33.2798 30.515 33.555 30.6358 33.8598C30.757 34.1657 31.0636 34.2678 31.432 34.1249C34.8552 32.7975 37.0315 29.6631 37.0657 26.0108C37.0813 24.3395 36.681 22.9193 35.7136 21.4905Z" fill="white"/>
<path fill-rule="evenodd" clip-rule="evenodd" d="M32.7177 25.8958C32.7198 23.9508 31.4503 22.3667 29.6178 21.8525C29.5115 21.8226 29.3849 21.8068 29.2819 21.8352C29.0338 21.9037 28.8875 22.0755 28.8907 22.3454C28.8946 22.6653 29.1007 22.7965 29.3761 22.8872C30.8728 23.38 31.7831 24.6646 31.6528 26.1374C31.6489 26.1493 31.5806 26.5909 31.5806 26.5909C31.5237 26.8424 31.7117 27.0992 32.0007 27.1647C32.2896 27.23 32.5707 27.0792 32.6267 26.8276C32.6949 26.5214 32.6967 26.3371 32.6976 26.301C32.7009 26.1667 32.7176 26.0321 32.7177 25.8958Z" fill="white"/>
<path fill-rule="evenodd" clip-rule="evenodd" d="M30.789 28.3379C30.789 28.3379 30.3812 28.6192 30.24 28.7046C30.0146 28.841 29.7182 29.0391 29.3254 29.1267C28.9632 29.2075 28.8068 29.5315 28.9103 29.8306C29.0105 30.1204 29.2929 30.243 29.6342 30.1449C29.8701 30.077 30.0962 29.9879 30.3121 29.8821C30.3461 29.8703 30.3793 29.8547 30.4104 29.834L30.415 29.8309C30.6704 29.6969 30.9257 29.5543 31.1465 29.3733L31.3631 29.1975C31.5775 29.0543 31.6228 28.7458 31.4642 28.5084C31.3057 28.271 31.0034 28.1946 30.789 28.3379Z" fill="white"/>
<path d="M31.8 28.307C32.052 28.307 32.2562 28.1027 32.2562 27.8508C32.2562 27.5988 32.052 27.3945 31.8 27.3945C31.548 27.3945 31.3438 27.5988 31.3438 27.8508C31.3438 28.1027 31.548 28.307 31.8 28.307Z" fill="white"/>
<path d="M38.6017 33.7015C38.8537 33.7015 39.058 33.4973 39.058 33.2453C39.058 32.9933 38.8537 32.7891 38.6017 32.7891C38.3498 32.7891 38.1455 32.9933 38.1455 33.2453C38.1455 33.4973 38.3498 33.7015 38.6017 33.7015Z" fill="white"/>
<path d="M34.1623 20.7719C34.4143 20.7719 34.6185 20.5676 34.6185 20.3156C34.6185 20.0636 34.4143 19.8594 34.1623 19.8594C33.9103 19.8594 33.7061 20.0636 33.7061 20.3156C33.7061 20.5676 33.9103 20.7719 34.1623 20.7719Z" fill="white"/>
</svg>
