<svg width="33" height="32" viewBox="0 0 33 32" fill="none" xmlns="http://www.w3.org/2000/svg">
<path d="M8.02434 31.0878C7.67669 31.0878 7.33147 30.9793 7.03685 30.7663C6.48803 30.3685 6.23165 29.6849 6.38102 29.0252L8.42234 20.0332L1.4995 13.962C0.99062 13.5178 0.796221 12.8143 1.00515 12.1705C1.21407 11.528 1.7825 11.0731 2.45551 11.0109L11.6153 10.1793L15.2367 1.70446C15.5037 1.0818 16.1119 0.679688 16.7876 0.679688C17.4632 0.679688 18.0714 1.0818 18.3384 1.70301L21.9598 10.1793L31.1181 11.0109C31.7926 11.0717 32.361 11.528 32.57 12.1705C32.7789 12.8131 32.5857 13.5178 32.0768 13.962L25.154 20.032L27.1953 29.0237C27.3449 29.6849 27.0883 30.3685 26.5397 30.7651C25.9923 31.1616 25.2624 31.1921 24.686 30.8457L16.7876 26.1257L8.88909 30.8484C8.62206 31.0069 8.32453 31.0878 8.02434 31.0878ZM16.7876 24.0923C17.0877 24.0923 17.385 24.1729 17.6523 24.3315L25.1065 28.7899L23.18 20.3029C23.0425 19.6989 23.2475 19.0682 23.7143 18.6596L30.251 12.9268L21.6027 12.1415C20.9801 12.0846 20.4446 11.6931 20.2013 11.1194L16.7876 3.12166L13.3697 11.1206C13.1291 11.6905 12.5936 12.0819 11.9724 12.1388L3.32293 12.9242L9.85939 18.6569C10.3276 19.0668 10.5324 19.6962 10.3937 20.3017L8.46858 28.7884L15.9228 24.3315C16.1898 24.1729 16.4874 24.0923 16.7876 24.0923ZM11.5453 10.3432C11.5453 10.3432 11.5453 10.3447 11.5439 10.3459L11.5453 10.3432ZM22.0271 10.3394L22.0286 10.342C22.0286 10.3406 22.0286 10.3406 22.0271 10.3394Z" fill="#FABE2C"/>
</svg>
