<svg width="28" height="28" viewBox="0 0 28 28" fill="none" xmlns="http://www.w3.org/2000/svg">
<g clip-path="url(#clip0)">
<path d="M21.7227 17.3789H27.033C27.5662 17.3789 27.9985 16.9466 27.9985 16.4134V2.89618C27.9985 2.36298 27.5662 1.93066 27.033 1.93066H21.7227" fill="#FFC24F"/>
<path d="M21.7227 15.5701V17.3795H27.033C27.5662 17.3795 27.9985 16.9472 27.9985 16.414V8.04395C26.3914 10.9202 24.2633 13.4724 21.7227 15.5701Z" fill="#FAB839"/>
<path d="M8.68817 0H19.3089C19.8421 0 20.2744 0.432314 20.2744 0.965517V18.3448C20.2744 18.878 19.8421 19.3103 19.3089 19.3103H8.68817C8.15497 19.3103 7.72266 18.878 7.72266 18.3448V0.965517C7.72266 0.432314 8.15497 0 8.68817 0Z" fill="#4398D1"/>
<path d="M8.73828 19.3101H19.3106C19.8438 19.3101 20.2762 18.8778 20.2762 18.3446V4.38281C18.0102 12.5056 12.276 17.1686 8.73828 19.3101Z" fill="#3E8CC7"/>
<path d="M0.965517 1.93066C0.432314 1.93066 0 2.36298 0 2.89618V16.4134C0 16.9466 0.432314 17.3789 0.965517 17.3789H6.27586V1.93066H0.965517Z" fill="#88B337"/>
<path d="M6.27448 17.3795V14.7109C5.11544 15.6852 3.88945 16.5769 2.60547 17.3795H6.27448Z" fill="#80AB30"/>
<path d="M12.071 14H15.9331C16.4663 14 16.8986 14.4323 16.8986 14.9655C16.8986 15.4987 16.4663 15.931 15.9331 15.931H12.071C11.5378 15.931 11.1055 15.4987 11.1055 14.9655C11.1055 14.4323 11.5378 14 12.071 14Z" fill="#87CED9"/>
<path d="M3.37958 13.0342C2.84638 13.0342 2.41406 13.4665 2.41406 13.9997C2.41406 14.5329 2.84638 14.9652 3.37958 14.9652H6.27613V13.0342H3.37958Z" fill="#A7D64F"/>
<path d="M24.6192 13.0342H21.7227V14.9652H24.6192C25.1524 14.9652 25.5847 14.5329 25.5847 13.9997C25.5847 13.4665 25.1524 13.0342 24.6192 13.0342Z" fill="#FFE7BA"/>
<path d="M19.9563 21.7371C19.6758 21.6893 19.3885 21.7678 19.1712 21.9514C18.9538 22.135 18.8284 22.4052 18.8287 22.6897C18.8287 22.1565 18.3963 21.7242 17.8631 21.7242C17.3299 21.7242 16.8976 22.1565 16.8976 22.6897C16.8976 22.1565 16.4653 21.7242 15.9321 21.7242C15.3989 21.7242 14.9666 22.1565 14.9666 22.6897V18.8792C14.9774 18.3941 14.6389 17.9712 14.1633 17.8751C13.8827 17.8272 13.5954 17.9057 13.3781 18.0893C13.1607 18.273 13.0353 18.5431 13.0356 18.8276V25.5862L11.023 24.3793C10.7729 24.2287 10.4631 24.2167 10.2022 24.3475L10.1265 24.3857C9.83823 24.5302 9.65625 24.8249 9.65625 25.1473C9.65601 25.4227 9.78896 25.6812 10.0129 25.8411L13.0356 28H20.7597V22.7413C20.7705 22.2562 20.432 21.8333 19.9563 21.7371Z" fill="#FEC9A3"/>
<path d="M11.1055 1.93066H12.071V2.89618H11.1055V1.93066Z" fill="#126099"/>
<path d="M13.0352 1.93066H16.8972V2.89618H13.0352V1.93066Z" fill="#126099"/>
<path d="M9.65625 4.34375H10.6218V6.27479H9.65625V4.34375Z" fill="#126099"/>
<path d="M11.5859 4.34375H12.5515V6.27479H11.5859V4.34375Z" fill="#126099"/>
<path d="M13.5195 4.34375H14.4851V6.27479H13.5195V4.34375Z" fill="#126099"/>
<path d="M15.4492 4.34375H16.4147V6.27479H15.4492V4.34375Z" fill="#126099"/>
<path d="M17.3789 4.34375H18.3444V6.27479H17.3789V4.34375Z" fill="#126099"/>
<path d="M13.5195 7.72363H16.8988V8.68915H13.5195V7.72363Z" fill="#126099"/>
<path d="M11.1055 7.72363H12.5537V8.68915H11.1055V7.72363Z" fill="#126099"/>
<path d="M11.1055 9.65527H16.8986V10.6208H11.1055V9.65527Z" fill="#126099"/>
<path d="M12.0703 11.5859H15.9324V12.5515H12.0703V11.5859Z" fill="#126099"/>
<path d="M4.82812 3.37891H6.2764V4.34442H4.82812V3.37891Z" fill="#70942D"/>
<path d="M1.44922 5.79297H2.41474V7.24125H1.44922V5.79297Z" fill="#70942D"/>
<path d="M3.37891 5.79297H4.34442V7.24125H3.37891V5.79297Z" fill="#70942D"/>
<path d="M5.3125 5.79297H6.27802V7.24125H5.3125V5.79297Z" fill="#70942D"/>
<path d="M2.89453 3.37891H3.86005V4.34442H2.89453V3.37891Z" fill="#70942D"/>
<path d="M3.37891 8.69043H6.27546V9.65595H3.37891V8.69043Z" fill="#70942D"/>
<path d="M4.34375 10.6211H6.27479V11.5866H4.34375V10.6211Z" fill="#70942D"/>
<path d="M21.7227 3.37891H25.102V4.34442H21.7227V3.37891Z" fill="#ED9624"/>
<path d="M25.5859 5.79297H26.5515V7.24125H25.5859V5.79297Z" fill="#ED9624"/>
<path d="M23.6562 5.79297H24.6218V7.24125H23.6562V5.79297Z" fill="#ED9624"/>
<path d="M21.7227 5.79297H22.6882V7.24125H21.7227V5.79297Z" fill="#ED9624"/>
<path d="M21.7227 8.69043H24.1364V9.65595H21.7227V8.69043Z" fill="#ED9624"/>
<path d="M21.7227 10.6211H23.1709V11.5866H21.7227V10.6211Z" fill="#ED9624"/>
<path d="M13.0328 28.0007H20.757V24.1709C18.3736 26.1448 15.1491 27.2848 12.8789 27.8882L13.0328 28.0007Z" fill="#F7BB8F"/>
</g>
<defs>
<clipPath id="clip0">
<rect width="28" height="28" fill="white"/>
</clipPath>
</defs>
</svg>
