<svg width="11" height="12" viewBox="0 0 11 12" fill="none" xmlns="http://www.w3.org/2000/svg">
<g clip-path="url(#clip0)">
<path d="M10.8607 6.26333L9.68376 7.0931C9.47072 7.24328 9.17578 7.09061 9.17578 6.8297V5.17021C9.17578 4.90823 9.47134 4.75713 9.68374 4.90681L10.8607 5.73656C11.0429 5.86499 11.0424 6.13522 10.8607 6.26333Z" fill="#284486"/>
<path d="M9.24815 3.93064C9.09412 4.01971 8.89696 3.96712 8.80783 3.81303C8.0508 2.50431 6.63576 1.62578 5.0187 1.62578C2.60678 1.62576 0.64453 3.58801 0.64453 5.99988C0.64453 8.41175 2.60678 10.374 5.01868 10.374C6.63681 10.374 8.05125 9.49463 8.80778 8.18679C8.8969 8.03271 9.0941 7.98013 9.2481 8.06919C9.40217 8.1583 9.4548 8.35544 9.36571 8.50951C8.49508 10.0146 6.86899 11.0186 5.01868 11.0186C2.24483 11.0186 0 8.77396 0 5.99988C0 3.22604 2.2446 0.981226 5.01868 0.981226C6.86979 0.981226 8.49546 1.98588 9.36575 3.49032C9.45485 3.64438 9.40221 3.8415 9.24815 3.93064Z" fill="#284486"/>
<path d="M3.52539 6.32324C3.34741 6.32324 3.20312 6.17897 3.20312 6.00098C3.20312 5.823 3.34741 5.67871 3.52539 5.67871H8.5319V6.32324H3.52539Z" fill="#284486"/>
</g>
<defs>
<clipPath id="clip0">
<rect width="11" height="11" fill="white" transform="matrix(1 0 0 -1 0 11.5)"/>
</clipPath>
</defs>
</svg>
