<svg width="18" height="18" viewBox="0 0 18 18" fill="none" xmlns="http://www.w3.org/2000/svg">
<path d="M9 0C4.02943 0 0 4.02943 0 9C0 13.9706 4.02943 18 9 18C13.9706 18 18 13.9706 18 9C18 4.02943 13.9706 0 9 0ZM9 16.875C4.65075 16.875 1.125 13.3492 1.125 9C1.125 4.65075 4.65075 1.125 9 1.125C13.3492 1.125 16.875 4.65075 16.875 9C16.875 13.3492 13.3492 16.875 9 16.875Z" fill="#C4C4C4"/>
<path d="M10.125 7.3125C10.125 6.69118 9.62132 6.1875 9 6.1875H7.3125V7.3125H9V13.5H7.875V14.625H11.25V13.5H10.125V7.3125Z" fill="#C4C4C4"/>
<path d="M9 5.0625C9.62132 5.0625 10.125 4.55882 10.125 3.9375C10.125 3.31618 9.62132 2.8125 9 2.8125C8.37868 2.8125 7.875 3.31618 7.875 3.9375C7.875 4.55882 8.37868 5.0625 9 5.0625Z" fill="#C4C4C4"/>
</svg>
