<svg width="31" height="31" viewBox="0 0 31 31" fill="none" xmlns="http://www.w3.org/2000/svg">
<g clip-path="url(#clip0)">
<path d="M31 15.5C31 24.0604 24.0604 31 15.5 31C6.93964 31 0 24.0604 0 15.5C0 15.5036 15.5 0.00175586 15.5 0C24.0604 0 31 6.93964 31 15.5Z" fill="#0052B4"/>
<path d="M15.459 15.4995H15.5005C15.5005 15.4854 15.5005 15.472 15.5005 15.458C15.4867 15.4719 15.4728 15.4857 15.459 15.4995Z" fill="#F0F0F0"/>
<path d="M15.5 8.08596C15.5 5.35863 15.5 3.57147 15.5 -0.000976562H15.4974C6.93819 0.000416015 0 6.93939 0 15.499H8.08694V10.9451L12.6408 15.499H15.4586C15.4725 15.4852 15.4863 15.4713 15.5001 15.4575C15.5001 14.4132 15.5001 13.4815 15.5001 12.6399L10.9461 8.08596H15.5Z" fill="#F0F0F0"/>
<path d="M7.84149 2.02246C5.41726 3.40287 3.40189 5.41823 2.02148 7.84247V15.5007H6.06499V6.06602V6.06596H15.4998C15.4998 4.79066 15.4998 3.57573 15.4998 2.02246H7.84149Z" fill="#D80027"/>
<path d="M15.4989 13.5948L9.99201 8.08792H8.08594C8.08594 8.08786 8.08594 8.08792 8.08594 8.08792L15.4989 15.5009H15.4989C15.4989 15.5009 15.4989 14.1867 15.4989 13.5948Z" fill="#D80027"/>
<path d="M9.34878 18.1943L10.1995 19.9731L12.1204 19.5291L11.2602 21.3032L12.805 22.5283L10.8816 22.9618L10.887 24.9334L9.34878 23.6999L7.81064 24.9334L7.81603 22.9618L5.89258 22.5283L7.43743 21.3032L6.57706 19.5291L8.49815 19.9731L9.34878 18.1943Z" fill="#F0F0F0"/>
<path d="M23.2066 21.5645L23.6319 22.4538L24.5924 22.2318L24.1623 23.1189L24.9347 23.7314L23.973 23.9482L23.9756 24.934L23.2066 24.3172L22.4375 24.934L22.4402 23.9482L21.4785 23.7314L22.2509 23.1189L21.8208 22.2318L22.7812 22.4538L23.2066 21.5645Z" fill="#F0F0F0"/>
<path d="M19.2516 12.1299L19.6768 13.0193L20.6374 12.7972L20.2072 13.6843L20.9796 14.2969L20.018 14.5136L20.0206 15.4994L19.2516 14.8826L18.4825 15.4994L18.4851 14.5136L17.5234 14.2969L18.2958 13.6843L17.8657 12.7972L18.8262 13.0193L19.2516 12.1299Z" fill="#F0F0F0"/>
<path d="M23.2066 6.73828L23.6319 7.62772L24.5924 7.40569L24.1623 8.29276L24.9347 8.90525L23.973 9.12207L23.9756 10.1079L23.2066 9.49111L22.4375 10.1079L22.4402 9.12207L21.4785 8.90525L22.2509 8.29276L21.8208 7.40569L22.7812 7.62772L23.2066 6.73828Z" fill="#F0F0F0"/>
<path d="M26.6637 10.7822L27.089 11.6717L28.0495 11.4496L27.6193 12.3366L28.3917 12.9492L27.43 13.166L27.4327 14.1518L26.6637 13.5351L25.8946 14.1518L25.8972 13.166L24.9355 12.9492L25.7079 12.3366L25.2778 11.4496L26.2383 11.6717L26.6637 10.7822Z" fill="#F0F0F0"/>
<path d="M24.1926 15.5L24.5271 16.5297H25.6098L24.7339 17.1661L25.0685 18.1957L24.1926 17.5593L23.3167 18.1957L23.6513 17.1661L22.7754 16.5297H23.858L24.1926 15.5Z" fill="#F0F0F0"/>
</g>
<defs>
<clipPath id="clip0">
<rect width="31" height="31" fill="white"/>
</clipPath>
</defs>
</svg>
