<svg width="33" height="33" viewBox="0 0 33 33" fill="none" xmlns="http://www.w3.org/2000/svg">
<path d="M16.4999 32.9998C18.5471 32.9998 20.2068 31.3401 20.2068 29.2928C20.2068 27.2456 18.5471 25.5859 16.4999 25.5859C14.4526 25.5859 12.793 27.2456 12.793 29.2928C12.793 31.3401 14.4526 32.9998 16.4999 32.9998Z" fill="url(#paint0_linear)"/>
<path d="M16.4998 25.5859C14.569 25.5859 12.9837 27.0624 12.8096 28.9477L16.8449 32.9831C18.7302 32.809 20.2067 31.2237 20.2067 29.2928C20.2067 27.2455 18.5471 25.5859 16.4998 25.5859Z" fill="url(#paint1_linear)"/>
<path d="M28.647 22.8281H4.35287C2.69365 22.8281 1.34863 24.1731 1.34863 25.8324C1.34863 27.4916 2.69365 28.8367 4.35287 28.8367H28.647C30.3063 28.8367 31.6513 27.4916 31.6513 25.8324C31.6513 24.1731 30.3063 22.8281 28.647 22.8281Z" fill="url(#paint2_linear)"/>
<path d="M26.908 20.5622V14.5399C26.908 9.66942 23.5627 5.58198 19.0449 4.44638C19.3026 4.0079 19.4518 3.49705 19.4518 2.9519C19.4517 1.32181 18.1299 0 16.4998 0C14.8697 0 13.5479 1.32181 13.5479 2.9519C13.5479 3.49711 13.6971 4.0079 13.9548 4.44638C9.4369 5.58198 6.09254 9.66949 6.09254 14.5399V20.5622C6.09254 21.8659 5.03563 22.9229 3.73193 22.9229H29.2677C27.964 22.9229 26.908 21.8659 26.908 20.5622ZM16.4998 4.13185C15.8479 4.13185 15.319 3.60385 15.319 2.95196C15.319 2.29918 15.8479 1.77118 16.4998 1.77118C17.1517 1.77118 17.6806 2.29918 17.6806 2.95196C17.6806 3.60385 17.1517 4.13185 16.4998 4.13185Z" fill="url(#paint3_linear)"/>
<path d="M1.38574 26.4297C1.61255 27.8642 2.85438 28.9612 4.35266 28.8256H28.6468C30.1452 28.9612 31.3869 27.8642 31.6137 26.4297H1.38574Z" fill="url(#paint4_linear)"/>
<path d="M26.908 16.251V19.7219L22.2861 15.1001L22.303 15.0991C22.5405 15.086 22.7728 15.1606 22.9653 15.3004C23.8431 15.9377 24.9229 16.3134 26.0906 16.3134C26.3691 16.3134 26.6412 16.2917 26.908 16.251Z" fill="url(#paint5_linear)"/>
<path d="M26.0913 16.5468C29.1623 16.5468 31.6518 14.0573 31.6518 10.9863C31.6518 7.91531 29.1623 5.42578 26.0913 5.42578C23.0203 5.42578 20.5308 7.91531 20.5308 10.9863C20.5308 14.0573 23.0203 16.5468 26.0913 16.5468Z" fill="url(#paint6_linear)"/>
<path d="M24.8369 8.75759C24.8369 8.57725 24.9097 8.43494 25.0555 8.33091L26.1378 7.29025C26.2141 7.214 26.3078 7.17578 26.4188 7.17578C26.5437 7.17578 26.6563 7.20878 26.757 7.27465C26.8575 7.34065 26.9079 7.42915 26.9079 7.54001V14.4295C26.9079 14.5405 26.8523 14.629 26.7414 14.6948C26.6304 14.7608 26.5021 14.7937 26.3564 14.7937C26.2037 14.7937 26.0736 14.7608 25.9661 14.6948C25.8585 14.629 25.8049 14.5405 25.8049 14.4295V8.64319L25.4406 9.10113C25.3712 9.17055 25.295 9.20516 25.2117 9.20516C25.1076 9.20516 25.0191 9.15837 24.9464 9.06471C24.8733 8.97094 24.8369 8.86865 24.8369 8.75759Z" fill="white"/>
<defs>
<linearGradient id="paint0_linear" x1="15.9125" y1="28.3129" x2="22.2914" y2="38.9441" gradientUnits="userSpaceOnUse">
<stop stop-color="#FFC200"/>
<stop offset="0.268" stop-color="#FFBB00"/>
<stop offset="0.659" stop-color="#FFA801"/>
<stop offset="1" stop-color="#FF9102"/>
</linearGradient>
<linearGradient id="paint1_linear" x1="22.2413" y1="34.085" x2="13.7614" y2="25.6051" gradientUnits="userSpaceOnUse">
<stop stop-color="#FFC200" stop-opacity="0"/>
<stop offset="0.203" stop-color="#FFBB00" stop-opacity="0.203"/>
<stop offset="0.499" stop-color="#FFA700" stop-opacity="0.499"/>
<stop offset="0.852" stop-color="#FF8800" stop-opacity="0.852"/>
<stop offset="1" stop-color="#FF7800"/>
</linearGradient>
<linearGradient id="paint2_linear" x1="12.783" y1="19.6365" x2="28.7047" y2="46.1722" gradientUnits="userSpaceOnUse">
<stop stop-color="#FFC200"/>
<stop offset="0.268" stop-color="#FFBB00"/>
<stop offset="0.659" stop-color="#FFA801"/>
<stop offset="1" stop-color="#FF9102"/>
</linearGradient>
<linearGradient id="paint3_linear" x1="12.7332" y1="13.3741" x2="27.2592" y2="27.0566" gradientUnits="userSpaceOnUse">
<stop stop-color="#FFC200"/>
<stop offset="0.268" stop-color="#FFBB00"/>
<stop offset="0.659" stop-color="#FFA801"/>
<stop offset="1" stop-color="#FF9102"/>
</linearGradient>
<linearGradient id="paint4_linear" x1="30.0353" y1="26.1033" x2="0.00832787" y2="29.2019" gradientUnits="userSpaceOnUse">
<stop stop-color="#FFC200" stop-opacity="0"/>
<stop offset="0.203" stop-color="#FFBB00" stop-opacity="0.203"/>
<stop offset="0.499" stop-color="#FFA700" stop-opacity="0.499"/>
<stop offset="0.852" stop-color="#FF8800" stop-opacity="0.852"/>
<stop offset="1" stop-color="#FF7800"/>
</linearGradient>
<linearGradient id="paint5_linear" x1="30.0267" y1="21.1038" x2="24.6908" y2="15.7679" gradientUnits="userSpaceOnUse">
<stop stop-color="#FFC200" stop-opacity="0"/>
<stop offset="0.203" stop-color="#FFBB00" stop-opacity="0.203"/>
<stop offset="0.499" stop-color="#FFA700" stop-opacity="0.499"/>
<stop offset="0.852" stop-color="#FF8800" stop-opacity="0.852"/>
<stop offset="1" stop-color="#FF7800"/>
</linearGradient>
<linearGradient id="paint6_linear" x1="23.7742" y1="5.46386" x2="28.3854" y2="16.4484" gradientUnits="userSpaceOnUse">
<stop stop-color="#D63305"/>
<stop offset="0.366" stop-color="#CF3004"/>
<stop offset="0.899" stop-color="#BC2602"/>
<stop offset="1" stop-color="#B72401"/>
</linearGradient>
</defs>
</svg>
