<svg width="22" height="22" viewBox="0 0 22 22" fill="none" xmlns="http://www.w3.org/2000/svg">
<path d="M21.7383 20.4774L12.2608 10.9999L21.7382 1.52253C22.0865 1.17427 22.0865 0.609532 21.7382 0.261228C21.3899 -0.087076 20.8252 -0.087076 20.4769 0.261228L10.9995 9.73861L1.52204 0.261228C1.17378 -0.087076 0.609044 -0.087076 0.26074 0.261228C-0.0875643 0.609489 -0.0875643 1.17423 0.26074 1.52253L9.73817 10.9999L0.26074 20.4774C-0.0875643 20.8257 -0.0875643 21.3904 0.26074 21.7387C0.609001 22.0869 1.17374 22.087 1.52204 21.7387L10.9995 12.2612L20.477 21.7387C20.8252 22.0869 21.39 22.087 21.7383 21.7387C22.0866 21.3904 22.0866 20.8257 21.7383 20.4774Z" fill="#8AD1E7"/>
</svg>
