<svg width="28" height="28" viewBox="0 0 28 28" fill="none" xmlns="http://www.w3.org/2000/svg">
<path d="M28 6.23438V10.7188C28 11.1716 27.6325 11.5391 27.1797 11.5391H0.820312C0.3675 11.5391 0 11.1716 0 10.7188V6.23438C0 4.87758 1.10414 3.77344 2.46094 3.77344H25.5391C26.8959 3.77344 28 4.87758 28 6.23438Z" fill="#B09CCC"/>
<path d="M28 6.23438V10.7188C28 11.1716 27.6325 11.5391 27.1797 11.5391H14V3.77344H25.5391C26.8959 3.77344 28 4.87758 28 6.23438Z" fill="#B09CCC"/>
<path d="M28 10.7188V24.3906C28 25.7474 26.8959 26.8516 25.5391 26.8516H2.46094C1.10414 26.8516 0 25.7474 0 24.3906V10.7188H28Z" fill="#FF7C7C"/>
<path d="M28 10.7188V24.3906C28 25.7474 26.8959 26.8516 25.5391 26.8516H14V10.7188H28Z" fill="#FF7C7C"/>
<path d="M7 1.14844C6.54697 1.14844 6.17969 1.51572 6.17969 1.96875V7.21875C6.17969 7.67178 6.54697 8.03906 7 8.03906C7.45303 8.03906 7.82031 7.67178 7.82031 7.21875V1.96875C7.82031 1.51572 7.45303 1.14844 7 1.14844Z" fill="#FF9A27"/>
<path d="M21 1.14844C20.547 1.14844 20.1797 1.51572 20.1797 1.96875V7.21875C20.1797 7.67178 20.547 8.03906 21 8.03906C21.453 8.03906 21.8203 7.67178 21.8203 7.21875V1.96875C21.8203 1.51572 21.453 1.14844 21 1.14844Z" fill="#FFB820"/>
<path d="M14.8203 1.96875V7.21875C14.8203 7.67156 14.4528 8.03906 14 8.03906C13.5472 8.03906 13.1797 7.67156 13.1797 7.21875V1.96875C13.1797 1.51594 13.5472 1.14844 14 1.14844C14.4528 1.14844 14.8203 1.51594 14.8203 1.96875Z" fill="#FF9A27"/>
<path d="M14 8.03906V1.14844C14.4528 1.14844 14.8203 1.51594 14.8203 1.96875V7.21875C14.8203 7.67156 14.4528 8.03906 14 8.03906Z" fill="#FFB820"/>
<path d="M5.6875 13.8359H4.8125C4.35947 13.8359 3.99219 14.2032 3.99219 14.6562C3.99219 15.1093 4.35947 15.4766 4.8125 15.4766H5.6875C6.14053 15.4766 6.50781 15.1093 6.50781 14.6562C6.50781 14.2032 6.14053 13.8359 5.6875 13.8359Z" fill="#B09CCC"/>
<path d="M5.74219 17.3906H4.86719C4.41416 17.3906 4.04688 17.7579 4.04688 18.2109C4.04688 18.664 4.41416 19.0312 4.86719 19.0312H5.74219C6.19522 19.0312 6.5625 18.664 6.5625 18.2109C6.5625 17.7579 6.19522 17.3906 5.74219 17.3906Z" fill="#B09CCC"/>
<path d="M5.6875 20.8359H4.8125C4.35947 20.8359 3.99219 21.2032 3.99219 21.6562C3.99219 22.1093 4.35947 22.4766 4.8125 22.4766H5.6875C6.14053 22.4766 6.50781 22.1093 6.50781 21.6562C6.50781 21.2032 6.14053 20.8359 5.6875 20.8359Z" fill="#B09CCC"/>
</svg>
