<svg width="28" height="28" viewBox="0 0 28 28" fill="none" xmlns="http://www.w3.org/2000/svg">
<path d="M28 6.01562V24.1719C28 25.5287 26.8959 26.6328 25.5391 26.6328H2.46094C1.10414 26.6328 0 25.5287 0 24.1719V6.01562C0 4.65883 1.10414 3.55469 2.46094 3.55469H25.5391C26.8959 3.55469 28 4.65883 28 6.01562Z" fill="#DDD2ED"/>
<path d="M28 6.01562V24.1719C28 25.5287 26.8959 26.6328 25.5391 26.6328H14V3.55469H25.5391C26.8959 3.55469 28 4.65883 28 6.01562Z" fill="#DDD2ED"/>
<path d="M28 6.01562V10.0625C28 10.5153 27.6325 10.8828 27.1797 10.8828H0.820312C0.3675 10.8828 0 10.5153 0 10.0625V6.01562C0 4.65883 1.10414 3.55469 2.46094 3.55469H25.5391C26.8959 3.55469 28 4.65883 28 6.01562Z" fill="#FF6D9B"/>
<path d="M28 6.01562V10.0625C28 10.5153 27.6325 10.8828 27.1797 10.8828H14V3.55469H25.5391C26.8959 3.55469 28 4.65883 28 6.01562Z" fill="#FF6D9B"/>
<path d="M5.25 7.38281C4.79697 7.38281 4.42969 7.01553 4.42969 6.5625V2.1875C4.42969 1.73447 4.79697 1.36719 5.25 1.36719C5.70303 1.36719 6.07031 1.73447 6.07031 2.1875V6.5625C6.07031 7.01553 5.70303 7.38281 5.25 7.38281Z" fill="#FFE278"/>
<path d="M14.8203 2.1875V6.5625C14.8203 7.01531 14.4528 7.38281 14 7.38281C13.5472 7.38281 13.1797 7.01531 13.1797 6.5625V2.1875C13.1797 1.73469 13.5472 1.36719 14 1.36719C14.4528 1.36719 14.8203 1.73469 14.8203 2.1875Z" fill="#FFE278"/>
<path d="M14.8203 2.1875V6.5625C14.8203 7.01531 14.4528 7.38281 14 7.38281V1.36719C14.4528 1.36719 14.8203 1.73469 14.8203 2.1875Z" fill="#FFB454"/>
<path d="M22.75 7.38281C22.297 7.38281 21.9297 7.01553 21.9297 6.5625V2.1875C21.9297 1.73447 22.297 1.36719 22.75 1.36719C23.203 1.36719 23.5703 1.73447 23.5703 2.1875V6.5625C23.5703 7.01553 23.203 7.38281 22.75 7.38281Z" fill="#FFB454"/>
<path d="M7.875 15.2578H6.125C5.67197 15.2578 5.30469 14.8905 5.30469 14.4375C5.30469 13.9845 5.67197 13.6172 6.125 13.6172H7.875C8.32803 13.6172 8.69531 13.9845 8.69531 14.4375C8.69531 14.8905 8.32803 15.2578 7.875 15.2578Z" fill="#425796"/>
<path d="M7.875 18.7578H6.125C5.67197 18.7578 5.30469 18.3905 5.30469 17.9375C5.30469 17.4845 5.67197 17.1172 6.125 17.1172H7.875C8.32803 17.1172 8.69531 17.4845 8.69531 17.9375C8.69531 18.3905 8.32803 18.7578 7.875 18.7578Z" fill="#425796"/>
<path d="M7.875 22.2578H6.125C5.67197 22.2578 5.30469 21.8905 5.30469 21.4375C5.30469 20.9845 5.67197 20.6172 6.125 20.6172H7.875C8.32803 20.6172 8.69531 20.9845 8.69531 21.4375C8.69531 21.8905 8.32803 22.2578 7.875 22.2578Z" fill="#425796"/>
<path d="M15.6953 14.4375C15.6953 14.8903 15.3278 15.2578 14.875 15.2578H13.125C12.6722 15.2578 12.3047 14.8903 12.3047 14.4375C12.3047 13.9847 12.6722 13.6172 13.125 13.6172H14.875C15.3278 13.6172 15.6953 13.9847 15.6953 14.4375Z" fill="#425796"/>
<path d="M15.6953 14.4375C15.6953 14.8903 15.3278 15.2578 14.875 15.2578H14V13.6172H14.875C15.3278 13.6172 15.6953 13.9847 15.6953 14.4375Z" fill="#283758"/>
<path d="M15.6953 17.9375C15.6953 18.3903 15.3278 18.7578 14.875 18.7578H13.125C12.6722 18.7578 12.3047 18.3903 12.3047 17.9375C12.3047 17.4847 12.6722 17.1172 13.125 17.1172H14.875C15.3278 17.1172 15.6953 17.4847 15.6953 17.9375Z" fill="#425796"/>
<path d="M14.875 18.7578H14V17.1172H14.875C15.3278 17.1172 15.6953 17.4847 15.6953 17.9375C15.6953 18.3903 15.3278 18.7578 14.875 18.7578Z" fill="#283758"/>
<path d="M15.6953 21.4375C15.6953 21.8903 15.3278 22.2578 14.875 22.2578H13.125C12.6722 22.2578 12.3047 21.8903 12.3047 21.4375C12.3047 20.9847 12.6722 20.6172 13.125 20.6172H14.875C15.3278 20.6172 15.6953 20.9847 15.6953 21.4375Z" fill="#425796"/>
<path d="M15.6953 21.4375C15.6953 21.8903 15.3278 22.2578 14.875 22.2578H14V20.6172H14.875C15.3278 20.6172 15.6953 20.9847 15.6953 21.4375Z" fill="#283758"/>
<path d="M21.875 15.2578H20.125C19.672 15.2578 19.3047 14.8905 19.3047 14.4375C19.3047 13.9845 19.672 13.6172 20.125 13.6172H21.875C22.328 13.6172 22.6953 13.9845 22.6953 14.4375C22.6953 14.8905 22.328 15.2578 21.875 15.2578Z" fill="#283758"/>
<path d="M21.875 18.7578H20.125C19.672 18.7578 19.3047 18.3905 19.3047 17.9375C19.3047 17.4845 19.672 17.1172 20.125 17.1172H21.875C22.328 17.1172 22.6953 17.4845 22.6953 17.9375C22.6953 18.3905 22.328 18.7578 21.875 18.7578Z" fill="#283758"/>
<path d="M21.875 22.2578H20.125C19.672 22.2578 19.3047 21.8905 19.3047 21.4375C19.3047 20.9845 19.672 20.6172 20.125 20.6172H21.875C22.328 20.6172 22.6953 20.9845 22.6953 21.4375C22.6953 21.8905 22.328 22.2578 21.875 22.2578Z" fill="#283758"/>
</svg>
