<svg width="33" height="33" viewBox="0 0 33 33" fill="none" xmlns="http://www.w3.org/2000/svg">
<circle cx="16.5" cy="16.5" r="15.5" stroke="white" stroke-width="2"/>
<g clip-path="url(#clip0)">
<path d="M20.9365 26C20.3555 26 19.7794 25.8973 19.216 25.6926C16.7342 24.791 14.4305 23.3226 12.5539 21.4461C10.6773 19.5696 9.20892 17.2658 8.30738 14.784C8.01767 13.9864 7.93217 13.163 8.05335 12.3368C8.16686 11.5628 8.46666 10.8114 8.92037 10.1639C9.37608 9.51348 9.98363 8.97252 10.6773 8.59949C11.417 8.20172 12.2244 8 13.0771 8C13.3424 8 13.5716 8.1853 13.6271 8.4446L14.51 12.5647C14.55 12.7513 14.4927 12.9454 14.3578 13.0803L12.8492 14.5889C14.2723 17.4184 16.5816 19.7276 19.411 21.1507L20.9196 19.6421C21.0545 19.5073 21.2487 19.45 21.4352 19.4899L25.5553 20.3728C25.8146 20.4283 25.9999 20.6576 25.9999 20.9228C25.9999 21.7755 25.7982 22.5829 25.4004 23.3226C25.0274 24.0163 24.4864 24.6239 23.836 25.0796C23.1885 25.5333 22.4371 25.8331 21.6631 25.9466C21.4206 25.9822 21.1781 26 20.9365 26ZM12.6277 9.14956C11.503 9.27373 10.5046 9.86328 9.84167 10.8095C9.09618 11.8734 8.92234 13.1821 9.36473 14.3999C11.098 19.1713 14.8287 22.902 19.6001 24.6353C20.8179 25.0776 22.1265 24.9038 23.1905 24.1583C24.1367 23.4954 24.7263 22.497 24.8504 21.3723L21.4987 20.654L19.9232 22.2295C19.7556 22.3972 19.5008 22.4417 19.2863 22.3409C15.9399 20.7688 13.2312 18.06 11.6591 14.7137C11.5583 14.4991 11.6028 14.2444 11.7704 14.0768L13.3459 12.5013L12.6277 9.14956Z" fill="white"/>
</g>
<defs>
<clipPath id="clip0">
<rect width="18" height="18" fill="white" transform="translate(8 8)"/>
</clipPath>
</defs>
</svg>
