<svg width="25" height="21" viewBox="0 0 25 21" fill="none" xmlns="http://www.w3.org/2000/svg">
<path d="M24.1683 3.72575C23.6692 3.20293 22.98 2.894 22.1958 2.894H18.251V2.84647C18.251 2.25236 18.0133 1.68202 17.6093 1.30179C17.2053 0.897799 16.6587 0.660156 16.0646 0.660156H8.93536C8.31749 0.660156 7.77091 0.897799 7.36692 1.30179C6.96293 1.70578 6.72529 2.25236 6.72529 2.84647V2.894H2.80418C2.01996 2.894 1.3308 3.20293 0.831749 3.72575C0.3327 4.2248 0 4.93772 0 5.69818V17.5328C0 18.317 0.308935 19.0062 0.831749 19.5052C1.3308 20.0043 2.04373 20.337 2.80418 20.337H22.1958C22.98 20.337 23.6692 20.028 24.1683 19.5052C24.6673 19.0062 25 18.2932 25 17.5328V5.69818C25 4.91396 24.6911 4.2248 24.1683 3.72575ZM23.7643 17.5328H23.7405C23.7405 17.9605 23.5741 18.3408 23.289 18.6259C23.0038 18.9111 22.6236 19.0775 22.1958 19.0775H2.80418C2.37643 19.0775 1.9962 18.9111 1.71103 18.6259C1.42586 18.3408 1.25951 17.9605 1.25951 17.5328V5.69818C1.25951 5.27042 1.42586 4.89019 1.71103 4.60502C1.9962 4.31985 2.37643 4.1535 2.80418 4.1535H7.39068C7.74715 4.1535 8.03232 3.86833 8.03232 3.51187V2.8227C8.03232 2.5613 8.12738 2.32365 8.29373 2.1573C8.46008 1.99095 8.69772 1.8959 8.95913 1.8959H16.0646C16.326 1.8959 16.5637 1.99095 16.73 2.1573C16.8964 2.32365 16.9914 2.5613 16.9914 2.8227V3.51187C16.9914 3.86833 17.2766 4.1535 17.6331 4.1535H22.2196C22.6473 4.1535 23.0276 4.31985 23.3127 4.60502C23.5979 4.89019 23.7643 5.27042 23.7643 5.69818V17.5328Z" fill="#FF5A45"/>
<path d="M12.5003 5.76953C10.8843 5.76953 9.41095 6.43493 8.36532 7.48056C7.29593 8.54995 6.6543 9.99957 6.6543 11.6155C6.6543 13.2315 7.3197 14.7049 8.36532 15.7505C9.43472 16.8199 10.8843 17.4616 12.5003 17.4616C14.1163 17.4616 15.5897 16.7962 16.6353 15.7505C17.7047 14.6811 18.3463 13.2315 18.3463 11.6155C18.3463 9.99957 17.6809 8.52619 16.6353 7.48056C15.5897 6.43493 14.1163 5.76953 12.5003 5.76953ZM15.7322 14.8713C14.9005 15.6792 13.7598 16.2021 12.5003 16.2021C11.2408 16.2021 10.1001 15.6792 9.26837 14.8713C8.43662 14.0395 7.93757 12.8988 7.93757 11.6393C7.93757 10.3798 8.46038 9.23912 9.26837 8.40737C10.1001 7.57562 11.2408 7.07657 12.5003 7.07657C13.7598 7.07657 14.9005 7.59938 15.7322 8.40737C16.564 9.23912 17.063 10.3798 17.063 11.6393C17.0868 12.8988 16.564 14.0395 15.7322 14.8713Z" fill="#FF5A45"/>
<path d="M20.9613 8.07499C21.6044 8.07499 22.1258 7.55365 22.1258 6.91054C22.1258 6.26744 21.6044 5.74609 20.9613 5.74609C20.3182 5.74609 19.7969 6.26744 19.7969 6.91054C19.7969 7.55365 20.3182 8.07499 20.9613 8.07499Z" fill="#FF5A45"/>
</svg>
