<svg width="13" height="13" viewBox="0 0 13 13" fill="none" xmlns="http://www.w3.org/2000/svg">
<path d="M7.26218 6.50338L12.8347 0.930816C13.0498 0.723098 13.0558 0.38037 12.8481 0.165292C12.6404 -0.049785 12.2976 -0.0557488 12.0825 0.151969C12.078 0.156315 12.0736 0.160756 12.0692 0.165292L6.49662 5.73786L0.924048 0.165261C0.708971 -0.0424572 0.366243 -0.0364934 0.158525 0.178584C-0.0441179 0.388396 -0.0441179 0.721004 0.158525 0.930816L5.7311 6.50338L0.158525 12.0759C-0.0528415 12.2873 -0.0528415 12.6301 0.158525 12.8415C0.369922 13.0528 0.712651 13.0528 0.924048 12.8415L6.49662 7.26891L12.0692 12.8415C12.2843 13.0492 12.627 13.0432 12.8347 12.8281C13.0373 12.6183 13.0373 12.2857 12.8347 12.0759L7.26218 6.50338Z" fill="#DEDEDE"/>
</svg>
