<svg width="52" height="52" viewBox="0 0 52 52" fill="none" xmlns="http://www.w3.org/2000/svg">
<circle cx="26" cy="26" r="26" fill="#284486"/>
<path d="M42.1982 23.07C41.834 23.07 41.5391 23.3654 41.5391 23.7292V26.0784C41.5391 27.4264 40.4421 28.5233 39.0941 28.5233H35.3368C35.1619 28.5233 34.9944 28.5925 34.8706 28.7161L30.3155 33.2715V29.1825C30.3155 28.8183 30.0203 28.5233 29.6563 28.5233H20.2185C18.8705 28.5233 17.7736 27.4266 17.7736 26.0784V16.1068C17.7736 14.7588 18.8705 13.6621 20.2185 13.6621H39.0941C40.4421 13.6621 41.5391 14.7588 41.5391 16.1068V18.4558C41.5391 18.82 41.834 19.115 42.1982 19.115C42.562 19.115 42.8574 18.82 42.8574 18.4558V16.1068C42.8574 14.0319 41.1693 12.3438 39.0941 12.3438H20.2185C18.1433 12.3438 16.4552 14.0319 16.4552 16.1068V24.5754H11.6574C10.2515 24.5754 9.10742 25.7191 9.10742 27.1254V33.1998C9.10742 34.6061 10.2515 35.7498 11.6574 35.7498H13.6735L16.9405 39.017C17.0668 39.1433 17.2355 39.2103 17.4069 39.2103C17.4918 39.2103 17.5777 39.1938 17.659 39.16C17.9054 39.058 18.0661 38.8178 18.0661 38.5511V35.7498H23.1562C24.5623 35.7498 25.7062 34.6061 25.7062 33.1998V29.8417H28.9971V34.8628C28.9971 35.1295 29.1578 35.3697 29.4042 35.4717C29.4855 35.5055 29.5712 35.5219 29.6563 35.5219C29.8279 35.5219 29.9964 35.455 30.1225 35.3287L35.6097 29.8417H39.0941C41.1693 29.8417 42.8574 28.1536 42.8574 26.0784V23.7292C42.8574 23.3654 42.562 23.07 42.1982 23.07ZM24.388 33.1998C24.388 33.8792 23.8356 34.4314 23.1562 34.4314H17.4069C17.0427 34.4314 16.7477 34.7268 16.7477 35.0906V36.9598L14.4126 34.6246C14.289 34.501 14.1213 34.4314 13.9464 34.4314H11.6574C10.9783 34.4314 10.4258 33.8792 10.4258 33.1998V27.1254C10.4258 26.4463 10.9783 25.8938 11.6574 25.8938H16.4552V26.0784C16.4552 28.1536 18.1433 29.8417 20.2185 29.8417H24.388V33.1998Z" fill="white"/>
<path d="M36.0835 16.6602H23.2295C22.8655 16.6602 22.5703 16.9553 22.5703 17.3193C22.5703 17.6835 22.8655 17.9785 23.2295 17.9785H36.0835C36.4475 17.9785 36.7427 17.6835 36.7427 17.3193C36.7427 16.9553 36.4475 16.6602 36.0835 16.6602Z" fill="white"/>
<path d="M36.7427 20.8818C36.7427 20.5178 36.4475 20.2227 36.0835 20.2227H23.2295C22.8655 20.2227 22.5703 20.5178 22.5703 20.8818C22.5703 21.246 22.8655 21.541 23.2295 21.541H36.0835C36.4475 21.541 36.7427 21.246 36.7427 20.8818Z" fill="white"/>
<path d="M23.2295 23.7812C22.8655 23.7812 22.5703 24.0764 22.5703 24.4404C22.5703 24.8046 22.8655 25.0996 23.2295 25.0996H30.6453C31.0093 25.0996 31.3044 24.8046 31.3044 24.4404C31.3044 24.0764 31.0093 23.7812 30.6453 23.7812H23.2295Z" fill="white"/>
<path d="M42.1982 20.4297C41.8353 20.4297 41.5391 20.7259 41.5391 21.0889C41.5391 21.452 41.8353 21.748 42.1982 21.748C42.5612 21.748 42.8574 21.452 42.8574 21.0889C42.8574 20.7259 42.5612 20.4297 42.1982 20.4297Z" fill="white"/>
</svg>
