<svg width="26" height="26" viewBox="0 0 26 26" fill="none" xmlns="http://www.w3.org/2000/svg">
<path d="M21.4416 0.527344H4.55841C2.04487 0.527344 0 2.57228 0 5.08583V15.4994C0 18.013 2.04487 20.0578 4.55841 20.0578L15.3121 20.0579L20.4599 25.2056C20.6343 25.3802 20.8674 25.4727 21.1048 25.4727C21.2222 25.4727 21.3406 25.45 21.4534 25.4032C21.7941 25.2621 22.0162 24.9299 22.0162 24.561V20.0218C24.2596 19.7384 26 17.8184 26 15.4994V5.08583C26 2.57228 23.9551 0.527344 21.4416 0.527344ZM24.1766 15.4995C24.1766 17.0076 22.9497 18.2345 21.4416 18.2345H21.1046C20.6011 18.2345 20.1929 18.6428 20.1929 19.1462V22.36L16.3344 18.5016C16.1635 18.3305 15.9317 18.2345 15.6898 18.2345H4.55841C3.05027 18.2345 1.82336 17.0076 1.82336 15.4995V5.0859C1.82336 3.57776 3.05027 2.35085 4.55841 2.35085H21.4416C22.9497 2.35085 24.1766 3.57776 24.1766 5.0859V15.4995Z" fill="white"/>
<path d="M19.7105 6.98242H6.29059C5.78712 6.98242 5.37891 7.39056 5.37891 7.8941C5.37891 8.39757 5.78712 8.80579 6.29059 8.80579H19.7105C20.214 8.80579 20.6222 8.39757 20.6222 7.8941C20.6222 7.39056 20.2141 6.98242 19.7105 6.98242Z" fill="white"/>
<path d="M19.7105 12.0889H6.29059C5.78712 12.0889 5.37891 12.497 5.37891 13.0005C5.37891 13.5041 5.78712 13.9122 6.29059 13.9122H19.7105C20.214 13.9122 20.6222 13.504 20.6222 13.0005C20.6222 12.4971 20.2141 12.0889 19.7105 12.0889Z" fill="white"/>
</svg>
