<svg width="16" height="16" viewBox="0 0 16 16" fill="none" xmlns="http://www.w3.org/2000/svg">
<g clip-path="url(#clip0)">
<path d="M7.76953 0.5C3.63387 0.5 0.269531 3.86433 0.269531 8C0.269531 12.1357 3.63387 15.5 7.76953 15.5C11.9052 15.5 15.2695 12.1357 15.2695 8C15.2695 3.86433 11.9052 0.5 7.76953 0.5Z" fill="#72AF0E"/>
<path d="M11.571 6.4108L7.50842 10.4732C7.38654 10.5951 7.22655 10.6564 7.06656 10.6564C6.90657 10.6564 6.74658 10.5951 6.6247 10.4732L4.59349 8.44201C4.34904 8.19768 4.34904 7.80263 4.59349 7.5583C4.83782 7.31385 5.23276 7.31385 5.4772 7.5583L7.06656 9.14765L10.6872 5.52708C10.9316 5.28264 11.3265 5.28264 11.571 5.52708C11.8153 5.77142 11.8153 6.16635 11.571 6.4108Z" fill="#FAFAFA"/>
</g>
<defs>
<clipPath id="clip0">
<rect width="15" height="15" fill="white" transform="translate(0.269531 0.5)"/>
</clipPath>
</defs>
</svg>
