<svg width="32" height="32" viewBox="0 0 32 32" fill="none" xmlns="http://www.w3.org/2000/svg">
<path d="M16 0C7.17725 0 0 7.17725 0 16C0 24.8228 7.17725 32 16 32C24.8228 32 32 24.8228 32 16C32 7.17725 24.8228 0 16 0Z" fill="#72AF0E"/>
<path d="M24.1118 12.6084L15.4451 21.2749C15.1851 21.5349 14.8438 21.6658 14.5024 21.6658C14.1611 21.6658 13.8198 21.5349 13.5598 21.2749L9.22656 16.9417C8.70508 16.4204 8.70508 15.5776 9.22656 15.0564C9.7478 14.5349 10.5903 14.5349 11.1118 15.0564L14.5024 18.447L22.2266 10.7231C22.7478 10.2017 23.5903 10.2017 24.1118 10.7231C24.6331 11.2444 24.6331 12.0869 24.1118 12.6084Z" fill="#FAFAFA"/>
</svg>
