<svg width="22" height="22" viewBox="0 0 22 22" fill="none" xmlns="http://www.w3.org/2000/svg">
<path d="M21.7388 20.4774L12.2613 10.9999L21.7387 1.52253C22.087 1.17427 22.087 0.609532 21.7387 0.261228C21.3904 -0.087076 20.8257 -0.087076 20.4774 0.261228L11 9.73861L1.52253 0.261228C1.17427 -0.087076 0.609532 -0.087076 0.261228 0.261228C-0.087076 0.609489 -0.087076 1.17423 0.261228 1.52253L9.73865 10.9999L0.261228 20.4774C-0.087076 20.8257 -0.087076 21.3904 0.261228 21.7387C0.609489 22.0869 1.17423 22.087 1.52253 21.7387L11 12.2612L20.4775 21.7387C20.8257 22.0869 21.3905 22.087 21.7388 21.7387C22.0871 21.3904 22.0871 20.8257 21.7388 20.4774Z" fill="white"/>
</svg>
