<svg width="33" height="33" viewBox="0 0 33 33" fill="none" xmlns="http://www.w3.org/2000/svg">
<path d="M16.5 33C7.40154 33 0 25.5985 0 16.5C0 7.40154 7.40154 0 16.5 0C25.5985 0 33 7.40154 33 16.5C33 25.5985 25.5985 33 16.5 33ZM16.5 2.0625C8.53878 2.0625 2.0625 8.53878 2.0625 16.5C2.0625 24.4612 8.53878 30.9375 16.5 30.9375C24.4612 30.9375 30.9375 24.4612 30.9375 16.5C30.9375 8.53878 24.4612 2.0625 16.5 2.0625Z" fill="white"/>
<path d="M23.3387 10.6613C21.6406 8.96332 19.3942 8 17 8C12.055 8 8 12.047 8 17C8 21.9556 12.0456 26 17 26C21.9326 26 26 21.9715 26 17C26 14.6058 25.0367 12.3593 23.3387 10.6613ZM17 23.8555C13.2106 23.8555 10.1445 20.7974 10.1445 17C10.1445 15.5234 10.6086 14.1207 11.4629 12.9605L21.0395 22.5265C19.8793 23.3914 18.4766 23.8555 17 23.8555ZM22.5266 21.0394L12.9605 11.4629C14.1207 10.6086 15.5234 10.1445 17 10.1445C20.7895 10.1445 23.8555 13.2026 23.8555 17C23.8555 18.4765 23.3914 19.8793 22.5266 21.0394Z" fill="white"/>
</svg>
