<svg width="87" height="97" viewBox="0 0 87 97" fill="none" xmlns="http://www.w3.org/2000/svg">
<path d="M41.3617 76.0701C41.3617 81.1141 42.9128 85.8023 45.5685 89.6835C42.4803 90.2463 39.2967 90.5393 36.0456 90.5393C22.3741 90.5393 9.91189 85.3535 0.523926 76.8399V76.8096C0.523926 62.6498 8.80961 50.4271 20.7951 44.7227C25.2996 49.2155 30.5738 51.6363 36.0456 51.6363C41.5198 51.6363 46.7917 49.2155 51.2985 44.7227C55.196 46.5784 58.7028 49.1225 61.6562 52.1991C50.1636 54.0641 41.3617 64.059 41.3617 76.0701Z" fill="#1EA6C6"/>
<path d="M36.0459 0C46.8966 0 55.6939 8.79497 55.6939 19.6457C55.6939 30.4987 46.8966 45.3399 36.0459 45.3399C25.1952 45.3399 16.3979 30.4987 16.3979 19.6457C16.3979 8.79497 25.1952 0 36.0459 0Z" fill="#FCD09F"/>
<path d="M65.5475 96.9993C77.1064 96.9993 86.4768 87.6289 86.4768 76.07C86.4768 64.511 77.1064 55.1406 65.5475 55.1406C53.9885 55.1406 44.6182 64.511 44.6182 76.07C44.6182 87.6289 53.9885 96.9993 65.5475 96.9993Z" fill="#EF806F"/>
<path d="M80.0175 74.3281H51.0767V77.8163H80.0175V74.3281Z" fill="white"/>
</svg>
