<svg width="52" height="52" viewBox="0 0 52 52" fill="none" xmlns="http://www.w3.org/2000/svg">
<circle cx="26" cy="26" r="26" fill="#D62929"/>
<path d="M11.6011 31.3525L17.5568 31.3609C18.4457 31.3622 19.2818 31.0173 19.9113 30.3896C20.5407 29.7619 20.888 28.9268 20.8893 28.038L20.8923 25.9611C20.8923 25.961 20.8923 25.9609 20.8923 25.9609C20.8923 25.9608 20.8923 25.9607 20.8923 25.9606L20.8935 25.131L30.9441 25.1453L30.94 28.0522C30.9374 29.8871 32.4281 31.3821 34.263 31.3847L40.2135 31.3931C42.0483 31.3957 43.5432 29.905 43.546 28.0701L43.5482 26.5006C43.5557 21.2252 39.2699 16.9272 33.9945 16.9196L28.2071 16.9114C27.8855 16.911 27.6243 17.1714 27.6237 17.4931C27.6233 17.8148 27.8837 18.076 28.2055 18.0765L33.9928 18.0847C38.2565 18.0907 41.7839 21.2881 42.3141 25.4089L36.058 25.3999C35.8972 25.3997 35.7514 25.4647 35.6459 25.5699C35.5403 25.6752 35.4749 25.8208 35.4747 25.9816C35.4742 26.3033 35.7346 26.5645 36.0564 26.565L42.3831 26.574L42.3809 28.0685C42.3792 29.2609 41.4077 30.2298 40.2152 30.2281L34.2647 30.2196C33.0721 30.2179 32.1034 29.2464 32.1051 28.0539L32.1101 24.5644C32.1103 24.4099 32.0491 24.2617 31.9401 24.1523C31.831 24.0429 31.6829 23.9814 31.5284 23.9811L20.3126 23.9651C19.9909 23.9647 19.7297 24.2252 19.7293 24.5468L19.7281 25.3767L9.51703 25.3622C9.75537 23.5312 10.5858 21.8394 11.9148 20.5142C13.504 18.9295 15.6153 18.0585 17.8597 18.0617L23.7294 18.0701C24.051 18.0705 24.3123 17.8101 24.3128 17.4884C24.3132 17.1667 24.0528 16.9055 23.7311 16.905L17.8613 16.8967C15.3058 16.893 12.9018 17.8848 11.0922 19.6893C9.28256 21.4937 8.28395 23.8949 8.28031 26.4504L8.27812 28.02C8.27681 28.9088 8.62179 29.745 9.24945 30.3744C9.87708 31.0038 10.7122 31.3512 11.6011 31.3525ZM9.44318 28.0217L9.44531 26.5271L19.7264 26.5418L19.7243 28.0363C19.7235 28.614 19.4978 29.1568 19.0887 29.5647C18.6796 29.9726 18.1362 30.1967 17.5585 30.1959L11.6028 30.1874C11.0251 30.1866 10.4823 29.9608 10.0744 29.5518C9.66653 29.1427 9.44228 28.5993 9.44318 28.0217Z" fill="white"/>
</svg>
