<svg width="150" height="150" viewBox="0 0 150 150" fill="none" xmlns="http://www.w3.org/2000/svg">
<path d="M103.125 105.47C102.668 105.47 102.221 105.337 101.839 105.086C101.457 104.836 101.156 104.479 100.974 104.06C100.792 103.641 100.737 103.177 100.814 102.727C100.892 102.277 101.1 101.859 101.412 101.525L134.225 66.369C134.649 65.9146 135.237 65.6474 135.858 65.6264C136.48 65.6053 137.084 65.8319 137.539 66.2565C137.993 66.681 138.26 67.2687 138.281 67.8902C138.302 68.5117 138.076 69.1161 137.651 69.5705L104.839 104.727C104.619 104.961 104.354 105.148 104.059 105.276C103.764 105.404 103.447 105.47 103.125 105.47Z" fill="#FFC569"/>
<path d="M46.875 105.47C46.5538 105.47 46.2359 105.404 45.9412 105.276C45.6465 105.148 45.3811 104.961 45.1617 104.727L12.3492 69.5705C11.9247 69.1161 11.698 68.5117 11.7191 67.8902C11.7402 67.2687 12.0073 66.681 12.4617 66.2565C12.9161 65.8319 13.5206 65.6053 14.1421 65.6264C14.7636 65.6474 15.3512 65.9146 15.7758 66.369L48.5883 101.525C48.9004 101.859 49.1081 102.277 49.1859 102.727C49.2637 103.177 49.2082 103.641 49.0261 104.06C48.8441 104.479 48.5434 104.836 48.1613 105.086C47.7791 105.337 47.332 105.47 46.875 105.47Z" fill="#FFC569"/>
<path d="M119.532 107.813C119.068 107.813 118.615 107.675 118.23 107.418C117.845 107.16 117.544 106.794 117.367 106.366C117.19 105.938 117.143 105.467 117.233 105.012C117.324 104.558 117.547 104.14 117.875 103.812L129.593 92.0935C130.035 91.6665 130.628 91.4303 131.242 91.4356C131.857 91.441 132.444 91.6875 132.879 92.122C133.313 92.5566 133.56 93.1444 133.565 93.7589C133.571 94.3735 133.334 94.9655 132.907 95.4075L121.189 107.126C120.749 107.566 120.153 107.813 119.532 107.813Z" fill="#FFC569"/>
<path d="M30.4692 107.812C29.8477 107.812 29.2516 107.565 28.8122 107.125L17.0934 95.4065C16.8696 95.1903 16.691 94.9317 16.5682 94.6458C16.4454 94.3598 16.3807 94.0523 16.378 93.7411C16.3753 93.4299 16.4346 93.1212 16.5525 92.8332C16.6703 92.5452 16.8443 92.2835 17.0644 92.0634C17.2845 91.8434 17.5461 91.6693 17.8342 91.5515C18.1222 91.4336 18.4308 91.3743 18.742 91.377C19.0532 91.3797 19.3608 91.4444 19.6467 91.5672C19.9327 91.6901 20.1913 91.8686 20.4075 92.0925L32.1263 103.811C32.4539 104.139 32.6771 104.557 32.7675 105.011C32.8579 105.466 32.8115 105.937 32.6341 106.365C32.4567 106.793 32.1564 107.159 31.7711 107.417C31.3857 107.674 30.9327 107.812 30.4692 107.812Z" fill="#FFC569"/>
<path d="M121.875 37.5V56.25C121.875 56.8716 121.628 57.4677 121.189 57.9073C120.749 58.3468 120.153 58.5938 119.531 58.5938C118.91 58.5938 118.314 58.3468 117.874 57.9073C117.434 57.4677 117.188 56.8716 117.188 56.25V37.5H121.875Z" fill="#34B2E4"/>
<path d="M75 100.781C74.3784 100.781 73.7823 100.534 73.3427 100.095C72.9032 99.6552 72.6562 99.0591 72.6562 98.4375V93.75C72.6562 93.1284 72.9032 92.5323 73.3427 92.0927C73.7823 91.6532 74.3784 91.4062 75 91.4062C75.6216 91.4062 76.2177 91.6532 76.6573 92.0927C77.0968 92.5323 77.3438 93.1284 77.3438 93.75V98.4375C77.3438 99.0591 77.0968 99.6552 76.6573 100.095C76.2177 100.534 75.6216 100.781 75 100.781Z" fill="#FFC569"/>
<path d="M86.7182 100.782C86.2548 100.782 85.8017 100.644 85.4164 100.387C85.0311 100.129 84.7307 99.7631 84.5534 99.3349C84.376 98.9066 84.3296 98.4355 84.42 97.9809C84.5104 97.5263 84.7335 97.1087 85.0612 96.781L89.7487 92.0935C90.1908 91.6665 90.7828 91.4303 91.3973 91.4356C92.0118 91.441 92.5997 91.6875 93.0342 92.122C93.4688 92.5566 93.7153 93.1444 93.7206 93.7589C93.7259 94.3735 93.4897 94.9655 93.0628 95.4075L88.3753 100.095C87.9358 100.535 87.3398 100.782 86.7182 100.782Z" fill="#FFC569"/>
<path d="M63.2808 100.782C62.6592 100.782 62.0632 100.535 61.6237 100.095L56.9362 95.4075C56.5093 94.9655 56.2731 94.3735 56.2784 93.7589C56.2837 93.1444 56.5302 92.5566 56.9648 92.122C57.3993 91.6875 57.9872 91.441 58.6017 91.4356C59.2162 91.4303 59.8083 91.6665 60.2503 92.0935L64.9378 96.781C65.2655 97.1087 65.4886 97.5263 65.579 97.9809C65.6694 98.4355 65.623 98.9066 65.4456 99.3349C65.2683 99.7631 64.968 100.129 64.5826 100.387C64.1973 100.644 63.7443 100.782 63.2808 100.782Z" fill="#FFC569"/>
<path d="M103.125 79.6875C84.8686 85.772 65.1314 85.772 46.875 79.6875V37.5H103.125V79.6875Z" fill="#34B2E4"/>
<path d="M103.125 53.5711V37.5H46.875V79.6875C65.1314 85.772 84.8686 85.772 103.125 79.6875V72.6562C93.9272 75.7223 84.2898 77.2629 74.5945 77.2172C69.1452 77.1387 63.9404 74.9418 60.083 71.0918C56.2256 67.2419 54.0187 62.0414 53.9297 56.5922L69.4594 63.2484C71.2101 63.999 73.0951 64.3859 75 64.3859C76.9049 64.3859 78.7899 63.999 80.5406 63.2484L103.125 53.5711Z" fill="#2070A1"/>
<path d="M75 58.5938L124.219 37.5L75 16.4062L25.7812 37.5L75 58.5938Z" fill="#92E5EB"/>
<path d="M119.531 64.4531C122.767 64.4531 125.391 61.8298 125.391 58.5938C125.391 55.3577 122.767 52.7344 119.531 52.7344C116.295 52.7344 113.672 55.3577 113.672 58.5938C113.672 61.8298 116.295 64.4531 119.531 64.4531Z" fill="#68CBF2"/>
<path d="M7.03125 133.593V142.968L65.625 136.907V138.28C65.625 139.523 66.1189 140.716 66.9979 141.595C67.877 142.474 69.0693 142.968 70.3125 142.968H75V122.408C74.9997 122.061 74.9222 121.718 74.7731 121.404C74.624 121.09 74.407 120.814 74.1378 120.594C73.8687 120.375 73.554 120.217 73.2167 120.134C72.8794 120.051 72.5279 120.044 72.1875 120.114L7.03125 133.593Z" fill="#80E1B8"/>
<path d="M75 122.408V142.968H79.6875C80.9307 142.968 82.123 142.474 83.0021 141.595C83.8811 140.716 84.375 139.523 84.375 138.28V136.907L142.969 142.968V133.593L77.8125 120.114C77.4721 120.044 77.1206 120.051 76.7833 120.134C76.4459 120.217 76.1313 120.375 75.8622 120.594C75.593 120.814 75.376 121.09 75.2269 121.404C75.0778 121.718 75.0003 122.061 75 122.408Z" fill="#80E1B8"/>
<path d="M7.03125 138.28V142.968L65.625 136.907V138.28C65.625 139.523 66.1189 140.716 66.9979 141.595C67.877 142.474 69.0693 142.968 70.3125 142.968H75V135.73C74.9982 134.339 74.6868 132.966 74.0884 131.71C73.4901 130.454 72.6196 129.347 71.5403 128.469C70.461 127.591 69.1999 126.965 67.8484 126.635C66.4969 126.305 65.0889 126.28 63.7266 126.561L7.03125 138.28Z" fill="#3ABA80"/>
<path d="M75 135.73V142.968H79.6875C80.9307 142.968 82.123 142.474 83.0021 141.595C83.8811 140.716 84.375 139.523 84.375 138.28V136.907L142.969 142.968V138.28L86.2734 126.561C84.9111 126.28 83.5031 126.305 82.1516 126.635C80.8001 126.965 79.539 127.591 78.4597 128.469C77.3804 129.347 76.51 130.454 75.9116 131.71C75.3132 132.966 75.0018 134.339 75 135.73Z" fill="#3ABA80"/>
<path d="M135.938 133.593L75 121.874V117.7C75.0002 116.261 75.3315 114.842 75.9684 113.551C76.6053 112.261 77.5307 111.135 78.6728 110.26C79.8149 109.385 81.1432 108.784 82.5547 108.505C83.9662 108.225 85.4231 108.274 86.8125 108.649L130.734 120.468C132.229 120.871 133.549 121.755 134.489 122.984C135.43 124.212 135.939 125.717 135.938 127.265V133.593Z" fill="#92E5EB"/>
<path d="M14.0625 133.593L75 121.874V117.7C74.9999 116.261 74.6685 114.842 74.0316 113.551C73.3947 112.261 72.4693 111.135 71.3272 110.26C70.1851 109.385 68.8568 108.784 67.4453 108.505C66.0338 108.225 64.5769 108.274 63.1875 108.649L19.2656 120.468C17.7712 120.871 16.4513 121.755 15.5106 122.984C14.5699 124.212 14.0609 125.717 14.0625 127.265V133.593Z" fill="#92E5EB"/>
<path d="M86.8119 115.681C84.4714 115.054 81.9789 115.357 79.8571 116.527C77.7352 117.697 76.1489 119.643 75.4307 121.958L135.878 133.594C135.735 132.179 135.165 130.84 134.244 129.755C133.324 128.669 132.096 127.889 130.722 127.517L86.8119 115.681Z" fill="#34B2E4"/>
<path d="M63.1875 115.68L19.2656 127.5C17.8919 127.875 16.6645 128.659 15.7459 129.747C14.8272 130.835 14.2606 132.176 14.1211 133.593L74.5688 121.968C73.853 119.652 72.2676 117.703 70.1455 116.531C68.0234 115.358 65.5295 115.053 63.1875 115.68Z" fill="#34B2E4"/>
<path d="M104.189 35.0355C97.1875 38.0371 89.6491 39.5848 82.0312 39.5848C74.4134 39.5848 66.875 38.0371 59.8734 35.0355L45.7031 28.9629L25.7812 37.5012L75 58.5949L124.219 37.5012L111.328 31.977L104.189 35.0355Z" fill="#68CBF2"/>
<path d="M122.462 61.5234C120.908 61.5234 119.417 60.9061 118.318 59.8073C117.219 58.7084 116.602 57.2181 116.602 55.6641C116.604 54.8348 116.784 54.0156 117.13 53.2617C116.261 53.648 115.499 54.2399 114.91 54.9864C114.321 55.7329 113.922 56.6115 113.749 57.5465C113.575 58.4814 113.632 59.4445 113.914 60.3526C114.196 61.2608 114.694 62.0867 115.367 62.759C116.039 63.4314 116.865 63.9301 117.773 64.2119C118.681 64.4938 119.644 64.5504 120.579 64.3768C121.514 64.2033 122.393 63.8048 123.139 63.2158C123.886 62.6268 124.478 61.865 124.864 60.9961C124.11 61.3416 123.291 61.5215 122.462 61.5234Z" fill="#34B2E4"/>
</svg>
