<svg width="144" height="144" viewBox="0 0 144 144" fill="none" xmlns="http://www.w3.org/2000/svg">
<path d="M71.9994 144.001C52.7691 144.001 34.6872 136.512 21.0884 122.912C7.4895 109.315 0 91.234 0 72.0004C0 52.768 7.4895 34.6882 21.0884 21.0884C34.6872 7.4895 52.7691 0 71.9994 0C90.5455 0 108.161 7.03468 121.598 19.8067C136.044 33.5387 144 52.0743 144 71.9994C144 91.2318 136.51 109.312 122.912 122.91C109.312 136.512 91.2298 144.001 71.9994 144.001ZM71.9994 13.7141C56.4326 13.7141 41.7952 19.7774 30.7847 30.7858C19.7753 41.7942 13.7142 56.4305 13.7142 72.0004C13.7142 87.5704 19.7753 102.206 30.7847 113.215C41.7952 124.225 56.4326 130.286 71.9994 130.286C87.5663 130.286 102.204 124.225 113.214 113.215C124.223 102.206 130.286 87.5694 130.286 72.0004C130.286 55.8698 123.845 40.8657 112.149 29.7473C101.271 19.4096 87.013 13.7141 71.9994 13.7141Z" fill="#DCDCDC"/>
<path d="M71.999 144.001C52.7686 144.001 34.6867 136.512 21.0879 122.912L30.7843 113.215C41.7948 124.225 56.4321 130.286 71.999 130.286C87.5658 130.286 102.203 124.225 113.214 113.215C124.223 102.206 130.285 87.5694 130.285 72.0004C130.285 55.8698 123.845 40.8657 112.149 29.7473C101.27 19.4085 87.0125 13.7141 71.999 13.7141V0C90.545 0 108.161 7.03468 121.598 19.8067C136.044 33.5387 143.999 52.0743 143.999 71.9994C143.999 91.2318 136.51 109.312 122.911 122.91C109.311 136.512 91.2293 144.001 71.999 144.001Z" fill="#8AD1E7"/>
<path d="M53.328 60.864L40.944 90H33.936L46.464 61.632H30.768V55.824H53.328V60.864ZM56.631 72.768C56.631 84.256 60.951 90 69.591 90C74.167 90 77.463 88.464 79.479 85.392C81.495 82.32 82.503 78.112 82.503 72.768C82.503 67.456 81.495 63.264 79.479 60.192C77.463 57.12 74.167 55.584 69.591 55.584C60.951 55.584 56.631 61.312 56.631 72.768ZM75.831 72.768C75.831 76.256 75.399 78.944 74.535 80.832C73.703 82.688 72.055 83.616 69.591 83.616C67.095 83.616 65.415 82.688 64.551 80.832C63.719 78.944 63.303 76.256 63.303 72.768C63.303 69.312 63.719 66.656 64.551 64.8C65.415 62.912 67.095 61.968 69.591 61.968C72.055 61.968 73.703 62.912 74.535 64.8C75.399 66.656 75.831 69.312 75.831 72.768ZM93.6791 55.584C95.9191 55.584 97.7431 56.272 99.1511 57.648C100.591 58.992 101.311 60.864 101.311 63.264C101.311 65.664 100.591 67.552 99.1511 68.928C97.7431 70.272 95.9191 70.944 93.6791 70.944C91.4391 70.944 89.5991 70.272 88.1591 68.928C86.7511 67.552 86.0471 65.664 86.0471 63.264C86.0471 60.864 86.7511 58.992 88.1591 57.648C89.5991 56.272 91.4391 55.584 93.6791 55.584ZM115.375 56.016L96.5111 90H89.9831L108.847 56.016H115.375ZM90.6071 63.264C90.6071 64.352 90.8791 65.232 91.4231 65.904C91.9671 66.544 92.7031 66.864 93.6311 66.864C94.5591 66.864 95.3111 66.544 95.8871 65.904C96.4631 65.232 96.7511 64.352 96.7511 63.264C96.7511 62.176 96.4631 61.312 95.8871 60.672C95.3111 60 94.5591 59.664 93.6311 59.664C92.7031 59.664 91.9671 60 91.4231 60.672C90.8791 61.312 90.6071 62.176 90.6071 63.264ZM111.727 75.072C113.967 75.072 115.791 75.76 117.199 77.136C118.607 78.48 119.311 80.352 119.311 82.752C119.311 85.152 118.607 87.04 117.199 88.416C115.791 89.76 113.967 90.432 111.727 90.432C109.487 90.432 107.647 89.76 106.207 88.416C104.799 87.04 104.095 85.152 104.095 82.752C104.095 80.352 104.799 78.48 106.207 77.136C107.647 75.76 109.487 75.072 111.727 75.072ZM108.655 82.752C108.655 83.872 108.927 84.768 109.471 85.44C110.015 86.08 110.751 86.4 111.679 86.4C112.607 86.4 113.359 86.08 113.935 85.44C114.511 84.768 114.799 83.872 114.799 82.752C114.799 81.664 114.511 80.784 113.935 80.112C113.359 79.44 112.607 79.104 111.679 79.104C110.751 79.104 110.015 79.44 109.471 80.112C108.927 80.752 108.655 81.632 108.655 82.752Z" fill="#595454"/>
</svg>
