<svg width="22" height="22" viewBox="0 0 22 22" fill="none" xmlns="http://www.w3.org/2000/svg">
<path d="M22 11C22 17.0751 17.0751 22 11 22C4.92494 22 0 17.0751 0 11C0 4.92494 4.92494 0 11 0C17.0751 0 22 4.92494 22 11Z" fill="#FFCC4D"/>
<path d="M11.0013 17.7231C12.0138 17.7231 12.8346 16.7655 12.8346 15.5842C12.8346 14.4029 12.0138 13.4453 11.0013 13.4453C9.98878 13.4453 9.16797 14.4029 9.16797 15.5842C9.16797 16.7655 9.98878 17.7231 11.0013 17.7231Z" fill="#664500"/>
<path d="M18.9459 6.72135C18.7595 6.72135 18.5768 6.63702 18.4564 6.47691C16.8431 4.32519 14.7524 4.27813 14.6638 4.27691C14.3277 4.27324 14.0564 3.99824 14.0582 3.66274C14.0601 3.32602 14.3314 3.05469 14.6675 3.05469C14.7799 3.05469 17.4401 3.08524 19.4342 5.74358C19.6371 6.01369 19.5821 6.39685 19.3119 6.59913C19.2019 6.68163 19.0736 6.72135 18.9459 6.72135ZM3.05578 6.72135C2.92867 6.72135 2.79973 6.68163 2.68973 6.59913C2.41962 6.39685 2.36523 6.01369 2.5675 5.74358C4.56095 3.08524 7.22173 3.05469 7.33417 3.05469C7.6715 3.05469 7.94528 3.32847 7.94528 3.6658C7.94528 4.00252 7.67334 4.27569 7.33661 4.27691C7.24189 4.27813 5.15617 4.32947 3.54528 6.47691C3.4255 6.63702 3.24156 6.72135 3.05578 6.72135Z" fill="#664500"/>
<path d="M7.33247 11.0004C8.17623 11.0004 8.86024 10.0428 8.86024 8.86155C8.86024 7.68027 8.17623 6.72266 7.33247 6.72266C6.4887 6.72266 5.80469 7.68027 5.80469 8.86155C5.80469 10.0428 6.4887 11.0004 7.33247 11.0004Z" fill="#664500"/>
<path d="M14.6684 11.0004C15.5122 11.0004 16.1962 10.0428 16.1962 8.86155C16.1962 7.68027 15.5122 6.72266 14.6684 6.72266C13.8246 6.72266 13.1406 7.68027 13.1406 8.86155C13.1406 10.0428 13.8246 11.0004 14.6684 11.0004Z" fill="#664500"/>
</svg>
