<svg width="22" height="22" viewBox="0 0 22 22" fill="none" xmlns="http://www.w3.org/2000/svg">
<path d="M22 11C22 17.0751 17.0751 22 11 22C4.92556 22 0 17.0751 0 11C0 4.92556 4.92556 0 11 0C17.0751 0 22 4.92556 22 11Z" fill="#FFCC4D"/>
<path d="M7.02778 12.5278C7.87155 12.5278 8.55556 11.5702 8.55556 10.3889C8.55556 9.20761 7.87155 8.25 7.02778 8.25C6.18401 8.25 5.5 9.20761 5.5 10.3889C5.5 11.5702 6.18401 12.5278 7.02778 12.5278Z" fill="#664500"/>
<path d="M14.9731 12.5278C15.8169 12.5278 16.5009 11.5702 16.5009 10.3889C16.5009 9.20761 15.8169 8.25 14.9731 8.25C14.1293 8.25 13.4453 9.20761 13.4453 10.3889C13.4453 11.5702 14.1293 12.5278 14.9731 12.5278Z" fill="#664500"/>
<path d="M3.66516 8.25065C3.53805 8.25065 3.4091 8.21093 3.2991 8.12843C3.02899 7.92615 2.9746 7.54298 3.17688 7.27287C5.17032 4.61454 7.8311 4.58398 7.94355 4.58398C8.28088 4.58398 8.55466 4.85776 8.55466 5.1951C8.55466 5.53182 8.28271 5.80498 7.94599 5.80621C7.85127 5.80743 5.76555 5.85876 4.15466 8.00621C4.03488 8.16632 3.85094 8.25065 3.66516 8.25065ZM18.333 8.25065C18.1467 8.25065 17.9639 8.16632 17.8435 8.00621C16.2296 5.85448 14.1396 5.80682 14.051 5.80621C13.7149 5.80254 13.4435 5.52754 13.4454 5.19204C13.4472 4.85532 13.7185 4.58398 14.0547 4.58398C14.1671 4.58398 16.8273 4.61454 18.8213 7.27287C19.0242 7.54298 18.9692 7.92615 18.6991 8.12843C18.5891 8.21093 18.4608 8.25065 18.333 8.25065ZM14.351 17.3434C14.3443 17.3165 13.6513 14.6673 10.9991 14.6673C8.34688 14.6673 7.65388 17.3165 7.64716 17.3434C7.61477 17.4735 7.67405 17.6068 7.78894 17.6758C7.90382 17.7443 8.05355 17.7284 8.15316 17.6392C8.15866 17.6343 8.77221 17.1118 10.9991 17.1118C13.193 17.1118 13.8206 17.619 13.8444 17.6392C13.9025 17.6942 13.9783 17.7229 14.0547 17.7229C14.106 17.7229 14.1579 17.71 14.205 17.6838C14.3248 17.6153 14.3847 17.4766 14.351 17.3434Z" fill="#664500"/>
<path d="M9.77908 18.9451C9.77908 20.633 8.41141 22.0007 6.72352 22.0007C5.03564 22.0007 3.66797 20.633 3.66797 18.9451C3.66797 17.2572 6.11241 12.834 6.72352 12.834C7.33464 12.834 9.77908 17.2572 9.77908 18.9451Z" fill="#5DADEC"/>
</svg>
