<svg width="22" height="22" viewBox="0 0 22 22" fill="none" xmlns="http://www.w3.org/2000/svg">
<path d="M22 11C22 17.0751 17.0751 22 11 22C4.92556 22 0 17.0751 0 11C0 4.92556 4.92556 0 11 0C17.0751 0 22 4.92556 22 11Z" fill="#FFCC4D"/>
<path d="M7.02778 12.2231C7.87155 12.2231 8.55556 11.2655 8.55556 10.0842C8.55556 8.90293 7.87155 7.94531 7.02778 7.94531C6.18401 7.94531 5.5 8.90293 5.5 10.0842C5.5 11.2655 6.18401 12.2231 7.02778 12.2231Z" fill="#664500"/>
<path d="M14.9731 12.2231C15.8169 12.2231 16.5009 11.2655 16.5009 10.0842C16.5009 8.90293 15.8169 7.94531 14.9731 7.94531C14.1293 7.94531 13.4453 8.90293 13.4453 10.0842C13.4453 11.2655 14.1293 12.2231 14.9731 12.2231Z" fill="#664500"/>
<path d="M15.276 15.8882H6.72049C6.38315 15.8882 6.10938 15.6151 6.10938 15.2771C6.10938 14.9392 6.38315 14.666 6.72049 14.666H15.276C15.614 14.666 15.8872 14.9392 15.8872 15.2771C15.8872 15.6151 15.614 15.8882 15.276 15.8882Z" fill="#664500"/>
</svg>
