<svg width="22" height="22" viewBox="0 0 22 22" fill="none" xmlns="http://www.w3.org/2000/svg">
<g clip-path="url(#clip0)">
<path d="M13.876 2.69202L21.5561 15.9944C21.8377 16.4822 21.9997 17.0478 21.9997 17.6515C21.9997 19.485 20.5133 20.9715 18.6798 20.9715H10.9997L8.34375 11.0004L10.9997 1.0293C12.2295 1.0293 13.3023 1.69845 13.876 2.69202Z" fill="#3B4145"/>
<path d="M8.12372 2.69202L0.443566 15.9944C0.161949 16.4822 0 17.0478 0 17.6515C0 19.485 1.48637 20.9715 3.31994 20.9715H11V1.0293C9.77023 1.0293 8.69743 1.69845 8.12372 2.69202Z" fill="#525A61"/>
<path d="M20.4069 16.6584L12.7269 3.35613C12.3807 2.75633 11.7451 2.37786 11.0576 2.3584L17.6262 19.6437H18.6806C19.7789 19.6437 20.6726 18.75 20.6726 17.6517C20.6726 17.3029 20.5805 16.9594 20.4069 16.6584Z" fill="#D2A842"/>
<path d="M19.1149 16.6578C19.265 16.9588 19.3442 17.3023 19.3442 17.6511C19.3442 18.7493 18.5735 19.643 17.6258 19.643H3.32007C2.22183 19.643 1.32812 18.7493 1.32812 17.6511C1.32812 17.3023 1.42021 16.9588 1.59371 16.6578L9.27378 3.35551C9.62969 2.73934 10.291 2.35645 11.0001 2.35645C11.0192 2.35645 11.0382 2.35687 11.0572 2.35778C11.6473 2.38081 12.1922 2.75837 12.4892 3.35551L19.1149 16.6578Z" fill="#FABE2C"/>
<path d="M11 15.2168V17.4301C11.6113 17.4301 12.1067 16.9347 12.1067 16.3234C12.1067 15.7121 11.6113 15.2168 11 15.2168Z" fill="#3B4145"/>
<path d="M11.0002 15.2168C11.1224 15.2168 11.2215 15.7121 11.2215 16.3235C11.2215 16.9348 11.1224 17.4301 11.0002 17.4301C10.3889 17.4301 9.89355 16.9348 9.89355 16.3235C9.89355 15.7121 10.3889 15.2168 11.0002 15.2168Z" fill="#525A61"/>
<path d="M11 5.69922V13.8884C11.6113 13.8884 12.1067 13.3926 12.1067 12.7817V6.80588C12.1067 6.19456 11.6113 5.69922 11 5.69922Z" fill="#3B4145"/>
<path d="M11.0002 5.69922C11.1224 5.69922 11.2215 6.19456 11.2215 6.80588V12.7817C11.2215 13.3926 11.1224 13.8884 11.0002 13.8884C10.3889 13.8884 9.89355 13.3926 9.89355 12.7817V6.80588C9.89355 6.19456 10.3889 5.69922 11.0002 5.69922Z" fill="#525A61"/>
</g>
<defs>
<clipPath id="clip0">
<rect width="22" height="22" fill="white"/>
</clipPath>
</defs>
</svg>
