<svg width="38" height="38" viewBox="0 0 38 38" fill="none" xmlns="http://www.w3.org/2000/svg">
<path d="M24.9384 11.5781C24.4426 11.5783 23.9471 11.6046 23.4541 11.6569V2.96875C23.4533 2.26037 23.1715 1.58122 22.6706 1.08032C22.1697 0.579413 21.4906 0.297661 20.7822 0.296875H2.96968C2.26129 0.297661 1.58215 0.579413 1.08124 1.08032C0.580338 1.58122 0.298586 2.26037 0.2978 2.96875V21.9688C0.274124 22.7048 1.21863 23.143 1.76562 22.647L5.00438 19.8906H12.6906C12.3474 20.9452 12.1727 22.0473 12.1728 23.1562C12.1728 29.2029 17.3148 34.2278 23.9269 34.6978L27.9902 37.5421C28.6242 38.0071 29.5454 37.4048 29.3743 36.6378L28.8808 34.1707C31.2461 33.4726 33.3703 32.1408 34.9302 30.3643C36.7448 28.2976 37.7041 25.8051 37.7041 23.1562C37.7041 16.772 31.9774 11.5781 24.9384 11.5781ZM4.67671 18.1094C4.4652 18.1094 4.26059 18.1846 4.09951 18.3217L2.07905 20.0413V2.96875C2.07931 2.73262 2.17322 2.50623 2.34019 2.33927C2.50716 2.1723 2.73355 2.07838 2.96968 2.07812H20.7822C21.0183 2.07838 21.2447 2.1723 21.4117 2.33927C21.5786 2.50623 21.6725 2.73262 21.6728 2.96875V11.9627C19.8164 12.4031 18.0772 13.2401 16.5749 14.4163L12.6998 5.00464C12.6326 4.84148 12.5184 4.70195 12.3718 4.60376C12.2252 4.50557 12.0527 4.45315 11.8762 4.45315C11.6998 4.45315 11.5273 4.50557 11.3807 4.60376C11.234 4.70195 11.1199 4.84148 11.0527 5.00464L6.89644 15.0984C6.85128 15.2067 6.82795 15.3228 6.82779 15.4401C6.82764 15.5574 6.85065 15.6736 6.89552 15.7819C6.94039 15.8903 7.00622 15.9888 7.08924 16.0716C7.17227 16.1545 7.27084 16.2201 7.37931 16.2648C7.48778 16.3095 7.604 16.3323 7.7213 16.3319C7.8386 16.3315 7.95467 16.308 8.06284 16.2626C8.17102 16.2172 8.26917 16.151 8.35165 16.0676C8.43414 15.9841 8.49934 15.8853 8.5435 15.7766L9.53855 13.3594H14.2133L15.1781 15.7028C14.5017 16.4276 13.9212 17.2365 13.451 18.1094H4.67671ZM13.4799 11.5781H10.272L11.8759 7.6829L13.4799 11.5781ZM27.6461 32.6525C27.4195 32.7038 27.2219 32.8416 27.0955 33.0366C26.969 33.2315 26.9238 33.4681 26.9693 33.6959L27.192 34.8092L24.7428 33.0947C24.6062 32.9991 24.4455 32.9438 24.279 32.9349C18.4894 32.6293 13.9541 28.334 13.9541 23.1562C13.9541 17.7542 18.8817 13.3594 24.9384 13.3594C30.9952 13.3594 35.9228 17.7542 35.9228 23.1562C35.9228 27.6449 32.5194 31.5499 27.6461 32.6525Z" fill="#847E7E"/>
<path d="M30.2441 27.8045L29.0226 26.8273C29.6462 25.7682 29.9844 24.4922 29.9844 23.1562C29.9844 21.5318 29.4854 19.9957 28.5794 18.8309C27.622 17.5999 26.3286 16.9219 24.9375 16.9219C23.5464 16.9219 22.253 17.5999 21.2956 18.8309C20.3896 19.9957 19.8906 21.5318 19.8906 23.1562C19.8906 24.7807 20.3896 26.3168 21.2956 27.4816C22.253 28.7126 23.5464 29.3906 24.9375 29.3906C26.0225 29.3906 27.0472 28.9765 27.9004 28.2105L29.1309 29.1955C29.3153 29.3431 29.5509 29.4114 29.7857 29.3854C30.0205 29.3594 30.2354 29.2411 30.383 29.0566C30.5306 28.8722 30.5989 28.6366 30.5729 28.4018C30.5469 28.167 30.4286 27.9521 30.2441 27.8045ZM24.9375 27.6094C23.1368 27.6094 21.6719 25.6117 21.6719 23.1562C21.6719 20.7008 23.1368 18.7031 24.9375 18.7031C26.7382 18.7031 28.2031 20.7008 28.2031 23.1562C28.2104 24.0391 28.0088 24.9112 27.6149 25.7014L27.2751 25.4295C27.0906 25.2819 26.8551 25.2136 26.6203 25.2397C26.3855 25.2658 26.1707 25.384 26.0231 25.5685C25.8755 25.753 25.8072 25.9885 25.8333 26.2233C25.8594 26.4581 25.9777 26.6729 26.1621 26.8205L26.4834 27.0775C26.0389 27.4169 25.4967 27.6034 24.9375 27.6094Z" fill="#847E7E"/>
<path d="M30.2136 6.30371H30.2149C30.4094 6.30363 30.6021 6.3419 30.7818 6.41633C30.9615 6.49076 31.1248 6.59989 31.2623 6.73748C31.3998 6.87506 31.5089 7.03841 31.5832 7.21817C31.6576 7.39794 31.6957 7.59059 31.6956 7.78512C31.6955 7.90208 31.7185 8.0179 31.7632 8.12599C31.8079 8.23407 31.8734 8.33229 31.9561 8.41504C32.0387 8.49779 32.1369 8.56345 32.2449 8.60827C32.3529 8.65309 32.4687 8.67619 32.5857 8.67626H32.5862C32.8223 8.67626 33.0487 8.58251 33.2157 8.41561C33.3828 8.24872 33.4767 8.02234 33.4768 7.78623C33.4771 7.3577 33.393 6.93331 33.2292 6.53731C33.0654 6.14132 32.8251 5.78148 32.5222 5.47838C32.2193 5.17527 31.8596 4.93484 31.4637 4.77082C31.0678 4.6068 30.6434 4.5224 30.2149 4.52246H30.2131C29.9769 4.52253 29.7504 4.61643 29.5834 4.7835C29.4165 4.95058 29.3227 5.17714 29.3228 5.41335C29.3228 5.64955 29.4167 5.87606 29.5838 6.04304C29.7509 6.21001 29.9774 6.30378 30.2136 6.30371Z" fill="#847E7E"/>
<path d="M30.2165 2.74316C30.2175 2.74316 30.2185 2.74316 30.2196 2.74316C30.8814 2.74299 31.5368 2.87326 32.1482 3.12652C32.7597 3.37979 33.3152 3.75109 33.7831 4.21919C34.2509 4.68729 34.622 5.24301 34.8749 5.85459C35.1279 6.46617 35.2578 7.12161 35.2573 7.78343C35.2573 7.90039 35.2802 8.01622 35.3249 8.1243C35.3696 8.23237 35.4352 8.33059 35.5179 8.41333C35.6005 8.49607 35.6987 8.56173 35.8067 8.60654C35.9147 8.65135 36.0305 8.67445 36.1475 8.6745H36.1479C36.3841 8.6745 36.6105 8.58074 36.7775 8.41383C36.9445 8.24692 37.0384 8.02052 37.0386 7.7844C37.0392 6.88857 36.8633 6.0014 36.5209 5.1736C36.1784 4.3458 35.6762 3.5936 35.043 2.95999C34.4097 2.32639 33.6577 1.8238 32.8301 1.48096C32.0025 1.13811 31.1154 0.961738 30.2196 0.961914H30.2161C29.9799 0.961973 29.7534 1.05586 29.5864 1.22293C29.4194 1.39 29.3256 1.61655 29.3257 1.85276C29.3257 2.08897 29.4196 2.31548 29.5867 2.48246C29.7538 2.64945 29.9803 2.74322 30.2165 2.74316Z" fill="#847E7E"/>
<path d="M30.3181 8.9414C30.4424 8.81682 30.5271 8.65816 30.5613 8.48549C30.5955 8.31282 30.5777 8.13389 30.5102 7.97131C30.4427 7.80873 30.3286 7.6698 30.1822 7.57209C30.0357 7.47439 29.8636 7.42228 29.6876 7.42236C29.5116 7.42245 29.3395 7.47471 29.1932 7.57256C29.0469 7.67041 28.9329 7.80944 28.8655 7.97208C28.7982 8.13472 28.7806 8.31368 28.815 8.48631C28.8493 8.65895 28.9341 8.81753 29.0586 8.942C29.2257 9.10893 29.4523 9.20265 29.6885 9.20254C29.9247 9.20243 30.1511 9.1085 30.3181 8.9414Z" fill="#847E7E"/>
</svg>
