<svg width="95" height="85" viewBox="0 0 95 85" fill="none" xmlns="http://www.w3.org/2000/svg">
<path d="M84.5402 68.533C84.5402 49.8206 94.2333 36.9705 94.2333 27.9537C94.2333 18.937 89.0499 0 47.5698 0C6.0896 0 0 25.4757 0 35.3933C0 81.8349 84.5402 101.673 84.5402 68.533Z" fill="#FFF3D7"/>
<g clip-path="url(#clip0)">
<path d="M60.031 49.8264H34.8103C29.0141 49.8264 24.3016 45.1119 24.3016 39.3178V37.216H26.4034C28.7637 37.216 32.7866 35.882 35.1633 33.7248L37.3225 31.7688L38.4965 34.4349C40.4298 38.8087 43.763 41.4195 47.4206 41.4195C51.0782 41.4195 54.4114 38.8087 56.3447 34.4349L57.5187 31.7688L59.6779 33.7248C62.0546 35.882 66.0775 37.216 68.4379 37.216H70.5396V39.3178C70.5396 45.1119 65.8271 49.8264 60.031 49.8264Z" fill="#FABE2C"/>
<path d="M60.0309 49.8264C65.8271 49.8264 70.5396 45.1119 70.5396 39.3178V37.216H68.4378C66.0775 37.216 62.0546 35.882 59.6779 33.7248L57.5187 31.7688L56.3447 34.4349C54.4114 38.8087 51.0782 41.4195 47.4206 41.4195V49.8264H60.0309Z" fill="#FF9100"/>
<path d="M70.5396 58.2334H24.3016V56.1317C24.3016 50.3375 29.0141 45.623 34.8103 45.623H60.031C65.8271 45.623 70.5396 50.3375 70.5396 56.1317V58.2334Z" fill="#FF6699"/>
<path d="M60.0309 45.623H47.4206V58.2334H70.5396V56.1317C70.5396 50.3375 65.8271 45.623 60.0309 45.623Z" fill="#E62E6B"/>
<path d="M47.4206 17.3916L33.1287 30.9109C33.423 32.7184 33.9274 34.4416 34.6421 36.1231C37.2484 41.9659 42.1242 45.6229 47.4206 45.6229C52.7169 45.6229 57.5928 41.9659 60.1989 36.1231C60.9137 34.4416 61.4181 32.7184 61.7123 30.9109L47.4206 17.3916Z" fill="#FFE6CC"/>
<path d="M60.1989 36.1231C60.9137 34.4416 61.4181 32.7184 61.7123 30.9109L47.4206 17.3916V45.6229C52.7169 45.6229 57.5928 41.9659 60.1989 36.1231Z" fill="#FFCC99"/>
<path d="M47.4206 11.9954C38.0891 11.9954 32.7085 17.3756 32.7085 26.7074C32.7085 28.0944 32.8347 29.5236 33.1287 30.9109H39.0137C43.6373 30.9109 47.4206 27.1276 47.4206 22.504C47.4206 27.1276 51.2038 30.9109 55.8275 30.9109H61.7124C62.0064 29.5236 62.1326 28.0944 62.1326 26.7074C62.1326 17.3756 56.7521 11.9954 47.4206 11.9954Z" fill="#FABE2C"/>
<path d="M55.8275 30.9109H61.7125C62.0064 29.5236 62.1327 28.0944 62.1327 26.7074C62.1327 17.3756 56.7521 11.9954 47.4206 11.9954V22.504C47.4206 27.1276 51.2038 30.9109 55.8275 30.9109Z" fill="#FF9100"/>
<path d="M69.9526 83.7343H24.8886L15.0819 54.0299H79.7593L69.9526 83.7343Z" fill="#F0F7FF"/>
<path d="M47.4206 83.7343H69.9526L79.7593 54.0299H47.4206V83.7343Z" fill="#DFE7F4"/>
<path d="M45.3189 66.7803H49.5223V70.9837H45.3189V66.7803Z" fill="#575F64"/>
<path d="M47.4206 66.7803H49.5223V70.9837H47.4206V66.7803Z" fill="#474F54"/>
</g>
<defs>
<clipPath id="clip0">
<rect width="71.7389" height="71.7389" fill="white" transform="translate(11.5511 11.9954)"/>
</clipPath>
</defs>
</svg>
