<svg width="33" height="33" viewBox="0 0 33 33" fill="none" xmlns="http://www.w3.org/2000/svg">
<path d="M16.5 33C7.40154 33 0 25.5985 0 16.5C0 7.40154 7.40154 0 16.5 0C25.5985 0 33 7.40154 33 16.5C33 25.5985 25.5985 33 16.5 33ZM16.5 2.0625C8.53878 2.0625 2.0625 8.53878 2.0625 16.5C2.0625 24.4612 8.53878 30.9375 16.5 30.9375C24.4612 30.9375 30.9375 24.4612 30.9375 16.5C30.9375 8.53878 24.4612 2.0625 16.5 2.0625Z" fill="white"/>
<g clip-path="url(#clip0)">
<path d="M9.37445 13.7876C9.69189 13.7876 9.9491 13.5303 9.9491 13.213V10.7629L13.6502 14.4632C13.7624 14.5754 13.9095 14.6314 14.0565 14.6314C14.2036 14.6314 14.3507 14.5754 14.4629 14.4631C14.6873 14.2387 14.6873 13.8748 14.4628 13.6505L10.7616 9.95007H13.2122C13.5296 9.95007 13.7869 9.69279 13.7869 9.37543C13.7869 9.05807 13.5297 8.80078 13.2122 8.80078H9.37445C9.05702 8.80078 8.7998 9.05807 8.7998 9.37543V13.2131C8.7998 13.5303 9.05702 13.7876 9.37445 13.7876Z" fill="white"/>
<path d="M24.7252 20.314C24.4078 20.314 24.1505 20.5712 24.1505 20.8886V23.3388L20.3355 19.5238C20.111 19.2994 19.7472 19.2994 19.5228 19.5238C19.2984 19.7482 19.2984 20.1121 19.5228 20.3364L23.3378 24.1514H20.8877C20.5703 24.1514 20.3131 24.4087 20.3131 24.726C20.3131 25.0434 20.5703 25.3007 20.8877 25.3007H24.7253C25.0427 25.3007 25.2999 25.0434 25.2999 24.726V20.8886C25.2998 20.5712 25.0426 20.314 24.7252 20.314Z" fill="white"/>
<path d="M13.7638 19.5228L9.9491 23.3378V20.8876C9.9491 20.5703 9.69189 20.313 9.37445 20.313C9.05702 20.313 8.7998 20.5703 8.7998 20.8876V24.7252C8.7998 25.0426 9.05702 25.2998 9.37445 25.2998H13.2119C13.5292 25.2998 13.7865 25.0426 13.7865 24.7252C13.7865 24.4078 13.5293 24.1505 13.2119 24.1505H10.7617L14.5765 20.3354C14.8009 20.111 14.8009 19.7472 14.5764 19.5227C14.3521 19.2984 13.9882 19.2984 13.7638 19.5228Z" fill="white"/>
<path d="M24.725 8.80078H20.8874C20.57 8.80078 20.3128 9.05807 20.3128 9.37543C20.3128 9.69279 20.57 9.95007 20.8874 9.95007H23.3376L19.6371 13.6509C19.4126 13.8753 19.4126 14.2392 19.6371 14.4636C19.7493 14.5757 19.8964 14.6318 20.0434 14.6318C20.1905 14.6318 20.3376 14.5757 20.4498 14.4635L24.1504 10.7627V13.213C24.1504 13.5303 24.4076 13.7876 24.725 13.7876C25.0425 13.7876 25.2997 13.5303 25.2997 13.213V9.37543C25.2996 9.05799 25.0423 8.80078 24.725 8.80078Z" fill="white"/>
</g>
<defs>
<clipPath id="clip0">
<rect width="16.5" height="16.5" fill="white" transform="translate(8.7998 8.7998)"/>
</clipPath>
</defs>
</svg>
