<svg width="478" height="478" viewBox="0 0 478 478" fill="none" xmlns="http://www.w3.org/2000/svg">
<path d="M404.138 347.901C404.138 353.159 399.836 357.461 394.578 357.461H268.782C263.524 357.461 259.222 353.159 259.222 347.901V74.2945C259.222 69.0365 263.524 64.7345 268.782 64.7345H394.578C399.836 64.7345 404.138 69.0365 404.138 74.2945V347.901Z" fill="white"/>
<path d="M404.138 347.901C404.138 353.159 399.836 357.461 394.578 357.461H268.782C263.524 357.461 259.222 353.159 259.222 347.901V74.2945C259.222 69.0365 263.524 64.7345 268.782 64.7345H394.578C399.836 64.7345 404.138 69.0365 404.138 74.2945V347.901V347.901Z" stroke="#153556" stroke-miterlimit="10"/>
<path d="M398.794 76.9896H264.566V328.087H398.794V76.9896Z" fill="#D6E7F2"/>
<path d="M331.68 350.941C335.926 350.941 339.368 347.499 339.368 343.253C339.368 339.007 335.926 335.564 331.68 335.564C327.434 335.564 323.992 339.007 323.992 343.253C323.992 347.499 327.434 350.941 331.68 350.941Z" stroke="#153556" stroke-miterlimit="10"/>
<path d="M329.402 64.7748C342.552 54.9356 354.049 64.8541 356.526 66.9325C366.328 75.1598 370.33 91.3956 360.492 106.091C356.478 112.087 347.106 119.742 355.477 126.102C364.929 133.285 369.365 144.636 361.718 162.962C354.243 180.88 329.401 147.723 329.401 147.723C329.401 147.723 329.402 64.9841 329.402 64.7748Z" fill="#666666"/>
<path d="M317.475 143.744L343.122 142.274L373.337 155.187C373.337 155.187 374.108 223.002 374.108 223.005C371.936 253.872 362.959 270.841 370.481 302.888C371.927 309.042 374.474 312.662 372.077 322.577C370.44 329.348 294.446 335.687 295.545 328.087C292.472 326.879 288.632 315.964 294.648 306.739C295.721 293.291 296.74 274.218 297.755 260.741C301.032 217.334 304.839 231.01 302.677 180.196C302.622 178.888 302.677 148.886 302.677 148.886C302.677 148.886 308.954 145.933 317.475 143.744Z" fill="#C7DAEA"/>
<path d="M337.152 63.4239C332.714 57.8304 312.794 50.5227 298.437 65.16C282.356 81.5564 282.304 126.902 320.628 132.682L337.152 63.4239Z" fill="#666666"/>
<path d="M349.293 108.213C347.257 121.098 341.685 133.148 345.571 142.535L351.583 145.494C351.798 148.38 350.226 152.958 347.084 155.846C343.354 159.273 339.124 161.314 334.973 162.071C333.107 162.411 331.806 176.634 330.023 176.466C328.49 176.321 326.458 161.849 325.059 161.34C318.86 159.089 314.289 153.332 314.233 144.594L317.475 143.744C317.475 143.744 317.926 141.875 317.027 133.703C316.054 124.88 323.605 104.162 323.605 104.162L349.293 108.213Z" fill="#FFDACF"/>
<path d="M317.027 133.702C321.78 133.737 337.601 122.404 338.53 119.373C339.461 116.342 341.748 110.243 341.748 110.243C341.748 110.243 342.47 124.58 336.634 131.795C330.36 139.562 317.583 142.147 317.583 142.147C317.583 142.147 317.191 135.378 317.027 133.702Z" fill="#F29A86"/>
<path d="M353.979 92.426C353.096 107.223 340.384 118.5 325.592 117.615C310.794 116.731 299.234 102.565 300.111 87.7664C300.302 84.5762 300.359 79.3832 301.555 76.6061C308.79 59.7566 335.45 56.6304 349.197 72.3108C353.996 77.7867 354.373 85.7636 353.979 92.426Z" fill="#FFDACF"/>
<path d="M300.521 93.8488C300.513 108.024 306.87 131.999 319.372 134.87C325.237 136.215 340.097 126.841 341.427 117.015C342.767 107.193 344.151 96.4605 344.151 96.4605" fill="#FFDACF"/>
<path d="M322.588 102.765C322.682 104.728 323.956 106.266 325.419 106.192C326.885 106.115 327.987 104.458 327.891 102.492C327.786 100.521 326.52 98.9862 325.055 99.0618C323.596 99.1354 322.486 100.79 322.588 102.765Z" fill="#773774"/>
<path d="M302.785 103.885C302.884 105.85 304.153 107.389 305.616 107.316C307.083 107.239 308.181 105.58 308.08 103.613C307.982 101.639 306.717 100.106 305.254 100.182C303.799 100.258 302.684 101.91 302.785 103.885Z" fill="#773774"/>
<path d="M309.951 116.878C310.442 117.111 313.08 118.037 313.933 117.881C314.781 117.732 318.359 116.302 318.549 115.872C318.739 115.444 309.021 116.438 309.951 116.878Z" fill="#F29A86"/>
<path d="M320.457 92.2025C320.445 92.213 320.642 92.0533 320.981 91.8631C321.317 91.6623 321.812 91.4272 322.43 91.2006C323.051 90.9912 323.794 90.778 324.619 90.6834C325.03 90.6203 325.463 90.6165 325.899 90.5945C326.34 90.6107 326.787 90.6193 327.234 90.6719C327.683 90.7312 328.131 90.7685 328.566 90.8975C329 91.0027 329.428 91.1031 329.826 91.2752C330.228 91.4214 330.607 91.5839 330.952 91.7799C331.296 91.9711 331.62 92.1442 331.891 92.3583C332.159 92.5667 332.406 92.757 332.625 92.9262C332.816 93.125 332.983 93.298 333.121 93.4405C333.38 93.7321 333.528 93.8984 333.528 93.8984C333.812 94.2177 333.784 94.7062 333.464 94.9902C333.228 95.1995 332.899 95.2387 332.63 95.1154L332.515 95.0628C332.515 95.0628 332.341 94.9835 332.037 94.8439C331.893 94.7703 331.718 94.6823 331.517 94.58C331.308 94.4997 331.074 94.408 330.819 94.3085C330.579 94.189 330.29 94.1164 329.995 94.0323C329.71 93.9242 329.396 93.8487 329.065 93.7894C328.743 93.7091 328.402 93.6499 328.052 93.6068C327.709 93.5447 327.344 93.539 326.989 93.495C326.632 93.4606 326.265 93.4787 325.909 93.4615C325.549 93.4797 325.195 93.4577 324.849 93.4816C324.158 93.5007 323.5 93.5284 322.93 93.5609C322.353 93.5906 321.872 93.6154 321.534 93.6326C321.194 93.6489 321.014 93.6403 321.002 93.6489C320.602 93.799 320.158 93.5963 320.008 93.1977C319.857 92.7981 320.058 92.3535 320.457 92.2025Z" fill="#773774"/>
<path d="M307.206 94.5934C307.206 94.5934 307.175 94.5982 307.117 94.6068C307.062 94.6154 306.96 94.6269 306.892 94.6498C306.756 94.691 306.469 94.7426 306.157 94.8124C305.525 94.9472 304.696 95.146 303.959 95.3917C303.787 95.4653 303.598 95.5275 303.439 95.6001C303.267 95.6623 303.116 95.7435 302.973 95.8133C302.811 95.8697 302.703 95.9634 302.565 96.0217C302.427 96.081 302.344 96.1718 302.219 96.2253C302.107 96.2875 302.036 96.3678 301.936 96.4213C301.837 96.4758 301.781 96.5456 301.715 96.5934C301.591 96.6957 301.498 96.755 301.498 96.755L301.221 96.9328C300.789 97.2091 300.214 97.0829 299.937 96.6508C299.818 96.4643 299.773 96.2502 299.797 96.0456C299.797 96.0456 299.814 95.8907 299.883 95.6202C299.935 95.341 300.103 94.973 300.363 94.559C300.638 94.1632 301.031 93.7416 301.513 93.4223C301.749 93.2474 302.011 93.1174 302.276 92.9921C302.538 92.8459 302.818 92.7847 303.092 92.6824C303.367 92.6145 303.642 92.5218 303.913 92.4912C304.186 92.4463 304.452 92.409 304.707 92.3937C305.221 92.3612 305.694 92.3813 306.101 92.4329C306.511 92.4845 306.825 92.5591 307.108 92.6356C307.25 92.6709 307.31 92.7092 307.367 92.7312C307.422 92.7541 307.451 92.7665 307.451 92.7665C307.936 92.974 308.161 93.5371 307.953 94.0218C307.818 94.3382 307.533 94.5437 307.215 94.5915L307.206 94.5934Z" fill="#773774"/>
<path d="M309.668 122.068C310.056 121.295 322.955 120.762 323.861 121.135C324.768 121.508 320.041 125.995 317.138 126.214C314.882 126.385 309.207 122.986 309.668 122.068Z" fill="white"/>
<path d="M309.207 146.26C308.991 149.479 309.187 200.928 324.701 223.518C324.613 223.726 328.664 305.132 328.664 305.132L324.157 306.264L320.629 223.326C320.629 223.326 312.338 207.085 309.988 183.962C307.638 160.839 309.207 146.26 309.207 146.26Z" fill="#C1C1C1"/>
<path d="M357.442 148.393C355.927 177.532 344.414 207.137 335.768 223.919L338.369 273.409H342.933L340.138 224.691C340.138 224.691 347.938 207.543 353.059 190.956C359.736 169.328 357.442 148.393 357.442 148.393Z" fill="#C1C1C1"/>
<path d="M355.863 295.927H308.796V340.176H355.863V295.927Z" fill="#95B3C6"/>
<path d="M266.356 220.062C273.635 214.504 296.192 197.685 296.192 197.685C298.744 190.01 301.026 149.348 295.872 152.102C285.646 157.561 239.441 213.358 239.441 213.358C233.434 221.863 234.206 228.914 241.664 236.065C249.124 243.217 306.054 275.145 306.054 275.145L316.91 258.293L266.356 220.062Z" fill="#773774"/>
<path d="M309.207 146.26C309.207 146.26 305.061 192.85 320.628 223.326L325.666 342.363C325.666 342.363 301.361 343.289 291.477 331.714C287.536 327.1 290.61 307.298 291.048 286.164C291.962 242.239 291.82 183.411 291.82 183.411L295.872 152.103C295.871 152.102 304.179 147.924 309.207 146.26Z" fill="#773774"/>
<path d="M357.442 148.393C359.736 193.055 340.823 218.522 340.245 225.467C339.667 232.411 341.659 343.325 341.659 343.325C341.659 343.325 363.269 347.531 373.097 331.714C381.585 318.056 373.155 289.229 374.364 245.508C375.053 220.588 373.339 155.187 373.339 155.187L357.442 148.393Z" fill="#773774"/>
<path d="M334.35 233.216C335.38 233.005 336.399 233.674 336.613 234.704L350.011 298.952C350.226 299.981 349.558 300.997 348.528 301.208L304.71 310.203C303.68 310.415 302.661 309.745 302.447 308.715L289.052 244.469C288.837 243.44 289.505 242.424 290.535 242.213L334.35 233.216Z" fill="#EDEDED"/>
<path d="M333.428 233.462C334.457 233.25 335.477 233.92 335.691 234.949L349.089 299.196C349.304 300.226 348.636 301.241 347.606 301.452L303.785 310.443C302.756 310.655 301.736 309.985 301.522 308.955L288.125 244.708C287.91 243.678 288.578 242.663 289.608 242.452L333.428 233.462Z" fill="white"/>
<path d="M293.583 243.405L305.653 240.925" stroke="#EDEDED" stroke-miterlimit="10" stroke-linecap="round"/>
<path d="M317.994 238.544L330.067 236.065" stroke="#EDEDED" stroke-miterlimit="10" stroke-linecap="round"/>
<path d="M293.217 256.891L303.44 307.815L345.847 299.436L340.463 272.894C340.464 272.894 318.93 280.271 293.217 256.891Z" fill="#D6E7F2"/>
<path d="M345.173 275.441C345.173 275.441 343.405 276.491 340.248 277.295C336.226 278.321 328.825 276.879 324.136 277.361C319.145 277.875 323.971 292.86 330.299 295.474C341.86 297.637 352.759 291.383 357.652 290.414C360.899 289.766 369.277 287.498 369.277 287.498L376.497 266.718C376.497 266.718 361.379 272.84 359.954 271.917C353.711 267.598 347.534 268.967 343.826 268.967" fill="#FFDACF"/>
<path d="M373.338 155.187C381.303 160.654 444.943 225.694 441.056 236.719C438.045 245.26 426.319 255.691 397.53 275.617C385.119 284.207 369.159 291.312 367.372 291.457C362.127 291.891 361.183 271.484 365.222 268.368C369.703 264.909 403.363 238.739 410.391 233.076C405.153 229.88 366.17 194.34 366.17 194.34" fill="#773774"/>
<path d="M362.298 271.713C362.298 271.713 358.474 274.164 360.169 289.796L364.379 288.755C364.379 288.755 361.649 278.647 362.897 271.56L362.298 271.713Z" fill="#F29A86"/>
<path d="M322.286 282.979C327.694 284.884 339.106 284.341 342.932 282.935L322.286 282.979Z" fill="#F29A86"/>
<path d="M324.156 288.536C324.156 288.536 332.46 290.399 341.658 288.01L324.156 288.536Z" fill="#F29A86"/>
<path d="M326.991 292.919C331.587 294.079 340.65 293.156 343 292.108L326.991 292.919Z" fill="#F29A86"/>
<path d="M316.834 154.587C318.777 157.825 321.672 160.109 325.059 161.339C326.458 161.847 328.487 176.297 330.019 176.463L330.87 175.496V175.495L326.927 160.839C326.928 160.839 320.788 159.012 316.834 154.587Z" fill="#F29A86"/>
<path d="M305.912 115.755C309.81 115.51 312.702 111.064 312.372 105.825C312.042 100.586 308.614 96.5386 304.716 96.7843C300.818 97.03 297.925 101.476 298.255 106.715C298.586 111.953 302.013 116.001 305.912 115.755Z" stroke="#773774" stroke-miterlimit="10"/>
<path d="M326.261 114.1C331.417 113.991 335.506 109.647 335.394 104.399C335.282 99.1507 331.012 94.9852 325.856 95.0951C320.7 95.2049 316.611 99.5484 316.723 104.797C316.835 110.045 321.105 114.21 326.261 114.1Z" stroke="#773774" stroke-miterlimit="10"/>
<path d="M310.976 100.853C310.976 100.853 313.308 99.0925 317.464 100.853" stroke="#773774" stroke-miterlimit="10"/>
<path d="M299.941 90.1413C305.335 87.0429 309.031 80.2458 309.031 80.2458C309.031 80.2458 312.956 85.9808 324.678 87.0869C332.458 87.8221 337.152 86.9588 337.152 86.9588L339.949 107.792L338.693 84.3719L320.034 72.4907L303.988 74.2259L300.11 87.7657C300.11 87.7666 299.798 88.2446 299.941 90.1413Z" fill="#F29A86"/>
<path d="M307.227 73.4555C311.481 83.2937 326.486 86.33 338.692 84.3721C339.016 91.3967 340.044 99.9797 339.948 107.792C339.924 109.719 341.54 109.432 341.687 107.696C341.822 106.111 344.195 94.2361 349.035 93.9521C353.873 93.6673 351.603 104.967 351.603 104.967C351.603 104.967 359.379 87.7276 357.02 78.4707C354.662 69.2137 338.957 59.0037 320.628 60.495C308.454 61.4854 307.227 73.4555 307.227 73.4555Z" fill="#666666"/>
<path d="M311.481 65.7978L308.629 72.6657C308.629 72.6657 307.984 82.328 300.11 87.7657C300.11 87.7666 295.453 65.6247 311.481 65.7978Z" fill="#666666"/>
<path d="M353.937 103.731C353.025 108.463 348.957 114.355 345.521 112.302C342.767 110.642 344.981 96.3666 348.821 95.8312C352.951 95.2538 354.86 98.9994 353.937 103.731Z" fill="#F29A86"/>
<path d="M344.293 102.878C344.293 102.878 347.055 104.839 346.926 105.64C346.797 106.441 343.518 109.849 343.518 109.849" fill="#FFDACF"/>
<path d="M169.819 309.707C172.766 311.462 179.059 312.708 180.653 314.673C182.246 316.639 182.209 319.115 180.873 319.989C180.873 319.989 175.076 313.534 172.766 313.135" fill="#FFDACF"/>
<path d="M176.669 406.187C176.669 406.187 180.031 405.471 180.5 405.39C180.97 405.31 180.971 399.176 180.971 399.176C180.971 399.176 179.059 395.671 179.138 387.704C179.217 379.738 166.529 389.774 166.529 389.774L165.594 402.761L164.436 406.187C164.436 406.187 176.349 406.09 176.669 405.979" fill="#EDEDED"/>
<path d="M203.756 391.528L210.687 402.283L212.042 407.62C212.042 407.62 223.275 404.001 223.514 403.818C223.753 403.636 221.107 394.208 221.107 394.208L215.388 385.313L203.756 391.528Z" fill="#EDEDED"/>
<path d="M109.509 308.368C109.509 308.368 173.163 309.35 179.855 316.401C183.344 320.077 180.997 379.745 179.218 390.332C178.859 392.466 165.953 392.766 165.953 390.213C165.953 380.533 163.459 344.461 163.006 339.279C162.595 334.579 91.2693 338.248 91.2693 338.248L81.5975 312.579L109.509 308.368Z" fill="#101E35"/>
<path d="M215.924 384.836C215.924 384.836 191.163 331.389 180.501 322.456C169.839 313.522 109.509 308.369 109.509 308.369L92.7741 310.895L97.9748 337.601L165.834 337.064C165.834 337.064 199.364 387.605 202.986 392.033C206.452 396.27 217.987 388.673 215.924 384.836Z" fill="#101E35"/>
<path d="M113.631 308.698C120.735 308.4 98.0207 286.016 114.203 259.919C112.458 243.21 103.535 237.213 93.9529 237.731C90.7933 237.902 85.9005 238.313 82.6883 239.559C77.0307 241.755 73.3301 245.719 70.1953 249.378C58.0178 263.593 59.2654 301.384 65.4144 320.629C68.5529 330.457 83.3327 335.098 93.3009 329.662C94.1068 316.766 106.403 307.737 113.631 308.698Z" fill="#FFC215"/>
<path d="M164.118 345.015C164.118 338.542 160.95 332.618 148.553 332.825C136.157 333.031 106.375 332.82 99.3505 332.82C92.3239 332.82 88.3986 311.336 83.6463 290.056C78.894 268.773 59.274 271.674 54.1002 288.609C49.1137 304.932 55.473 322.794 59.5876 332.205V338.542C59.5876 338.542 95.8324 338.402 103.894 338.402C113.262 338.402 112.064 345.015 112.064 345.015H164.118Z" fill="#D6E7F2"/>
<path d="M160.675 345.015C160.675 345.015 161.362 336.522 153.373 336.522C145.384 336.522 102.93 336.522 102.93 336.522L103.758 338.541C103.758 338.541 112.58 337.69 112.063 345.014H160.675V345.015Z" fill="#799EBC"/>
<path d="M160.604 417.873H164.117L153.374 336.522H146.349L160.604 417.873Z" fill="#D6E7F2"/>
<path d="M81.1397 417.873H77.6273L88.3709 336.522H95.3965L81.1397 417.873Z" fill="#D6E7F2"/>
<path d="M132.091 417.873H135.604L124.86 336.522H117.836L132.091 417.873Z" fill="#799EBC"/>
<path d="M52.6269 417.873H49.1136L59.8562 336.522H66.8828L52.6269 417.873Z" fill="#799EBC"/>
<path d="M153.374 335.586H59.5876V338.541H153.374V335.586Z" fill="#D6E7F2"/>
<path d="M93.5638 332.686C93.5638 332.686 86.8297 329.911 79.3796 322.141C70.3368 312.708 52.2732 311.06 56.319 323.798L59.5876 332.204L93.5638 332.686Z" fill="#799EBC"/>
<path d="M70.9677 224.281C74.6493 228.269 77.6196 242.71 77.5163 244.658C78.6692 245.489 81.304 246.211 84.8632 242.159C87.9128 238.685 92.2502 237.903 92.2502 237.903C92.2502 237.903 90.212 233.017 89.7235 227.778L70.9677 224.281Z" fill="#FFDACF"/>
<path d="M90.0064 229.554L80.6644 226.322C80.6644 226.322 80.4063 231.314 90.7024 233.15L90.0064 229.554Z" fill="#F29A86"/>
<path d="M77.6024 225.795C86.0476 225.795 92.8937 218.949 92.8937 210.504C92.8937 202.059 86.0476 195.212 77.6024 195.212C69.1573 195.212 62.3112 202.059 62.3112 210.504C62.3112 218.949 69.1573 225.795 77.6024 225.795Z" fill="#FFDACF"/>
<path d="M91.8028 204.832C95.6689 212.911 98.2606 227.401 93.5991 228.996C89.7503 230.316 81.6424 229.411 78.3261 225.332C75.0088 221.252 68.9324 217.767 68.9324 217.767" fill="#FFDACF"/>
<path d="M93.1899 210.968C93.1899 210.968 97.9862 216.736 97.7118 217.615C97.4374 218.489 94.4719 219.504 94.4719 219.504" fill="#FFDACF"/>
<path d="M90.581 214.74C91.2349 214.537 91.5133 213.563 91.2028 212.565C90.8923 211.566 90.1105 210.922 89.4566 211.125C88.8027 211.329 88.5243 212.303 88.8348 213.301C89.1453 214.299 89.9271 214.944 90.581 214.74Z" fill="black"/>
<path d="M89.3508 208.003C89.3565 208.004 89.2485 208.021 89.1261 208.068C89.0009 208.096 88.8173 208.177 88.5926 208.256C88.4798 208.286 88.368 208.355 88.2456 208.405C88.1261 208.463 87.9932 208.505 87.8709 208.579C87.6328 208.739 87.347 208.841 87.1271 209.052C87.0095 209.145 86.8862 209.228 86.7657 209.313C86.6568 209.412 86.5602 209.523 86.4569 209.622C86.3575 209.723 86.2543 209.817 86.1529 209.905C86.0468 209.988 85.9923 210.109 85.9111 210.196C85.6137 210.567 85.3623 210.813 85.3623 210.813L85.3002 210.873C85.1444 211.025 84.8958 211.021 84.7438 210.865C84.6444 210.763 84.6109 210.62 84.6453 210.49C84.6453 210.49 84.7409 210.128 84.9656 209.588C85.0287 209.458 85.0679 209.298 85.1778 209.168C85.2763 209.032 85.3843 208.889 85.5038 208.747C85.6243 208.606 85.7352 208.445 85.8814 208.315C86.0392 208.195 86.1988 208.075 86.3585 207.954C86.5229 207.84 86.6816 207.717 86.868 207.646C87.0487 207.569 87.2265 207.494 87.3996 207.422C87.5697 207.346 87.7552 207.334 87.9187 207.292C88.085 207.257 88.2399 207.225 88.39 207.226C88.6825 207.208 88.9301 207.227 89.1127 207.251C89.2963 207.27 89.3632 207.309 89.3689 207.304L89.4406 207.338C89.6165 207.421 89.6921 207.63 89.6089 207.806C89.5582 207.913 89.4588 207.984 89.3508 208.003Z" fill="black"/>
<path d="M211.618 407.541C211.168 412.654 213.955 417.875 213.955 417.875L251.135 407.746C251.135 407.746 252.149 404.412 249.462 402.165C245.697 399.016 238.748 400.15 238.748 400.15L220.74 394.085C220.74 394.085 219.533 395.745 221.19 399.168C222.614 402.115 219.305 404.343 217.191 404.445C213.232 404.632 211.822 405.228 211.618 407.541Z" fill="#101E35"/>
<path d="M250.771 403.819C251.731 405.758 251.136 407.745 251.136 407.745L213.956 417.874C213.956 417.874 213.17 416.394 212.501 414.245L250.771 403.819Z" fill="#EDEDED" stroke="#EDEDED" stroke-miterlimit="10"/>
<path d="M164.131 406.854C162.353 411.668 163.669 417.438 163.669 417.438H202.205C202.205 417.438 204.058 414.487 202.058 411.614C199.253 407.585 192.25 406.854 192.25 406.854L181.042 396.269C181.042 396.269 180.25 397.49 180.139 401.291C180.017 405.469 174.52 406.853 171.018 405.435C167.343 403.947 164.935 404.676 164.131 406.854Z" fill="#101E35"/>
<path d="M202.885 413.554C203.302 415.679 202.204 417.439 202.204 417.439H163.668C163.668 417.439 163.299 415.804 163.218 413.554H202.885Z" fill="#EDEDED" stroke="#EDEDED" stroke-miterlimit="10"/>
<path d="M139.226 291.387L159.979 304.412C159.979 304.412 166.313 308.369 169.819 309.707C172.164 311.213 172.886 312.416 174.618 313.947C173.543 315.167 164.119 311.542 157.392 311.045C155.234 310.005 131.628 301.067 131.628 301.067L139.226 291.387Z" fill="#FFDACF"/>
<path d="M113.277 254.374C116.228 264.388 124.641 276.962 133.179 281.906C135.139 283.041 135.754 284.472 134.87 287.118C136.654 286.958 140.263 289.78 140.89 290.978C141.932 292.97 134.699 301.733 132.852 302.022C130.363 302.412 125.71 299.549 124.502 298.027C120.663 300.229 116.992 298.163 113.612 295.927C101.262 287.755 87.322 275.76 82.4933 260.228" fill="#FFC215"/>
<path d="M91.5868 204.323C91.5868 204.323 89.6155 199.908 87.3479 199.644C82.9522 203.603 75.4218 200.021 73.3549 204.168C71.6561 207.584 77.045 208.647 78.3481 215.269C78.8012 216.286 77.1158 216.887 76.6225 216.433C76.1321 215.978 75.9045 211.772 72.6866 213.278C70.7555 214.182 71.2584 219.417 75.7535 221.067C76.937 222.506 72.4257 224.533 73.6618 229.134C71.9821 228.258 68.6284 224.749 64.9201 222.014C58.6382 217.378 55.9079 208.739 59.4566 204.94C57.1201 199.008 59.034 193.986 70.7144 190.91C77.5374 189.113 83.7179 187.876 87.5945 182.505C90.1336 178.987 97.0599 195.115 91.5868 204.323Z" fill="#101E35"/>
<path d="M71.8932 218.392C72.9343 220.633 75.3855 222.162 77.3338 221.528C79.003 220.985 76.852 220.095 75.8128 217.854C74.7717 215.612 75.7478 213.485 73.6647 213.741C71.4219 214.018 70.855 216.152 71.8932 218.392Z" fill="#F29A86"/>
<path d="M135.256 284.834C134.883 285.71 127.833 290.251 126.04 293.418C124.248 296.585 120.892 296.468 119.438 296.227C115.853 295.629 99.2205 285.231 95.7922 281.424C95.7922 281.424 103.313 288.24 110.446 293.769C117.318 298.856 120.962 300.021 124.503 298.028C124.503 298.028 126.104 299.799 128.13 300.705C131.881 302.397 132.837 302.793 135.24 300.253C135.673 299.811 136.996 298.4 137.199 298.084C136.452 299.02 134.445 299.422 135.028 298.475C130.502 301.066 129.705 293.339 134.87 287.118C135.054 286.498 135.231 285.612 135.256 284.834Z" fill="#C1C1C1"/>
<path d="M138.738 296.08C137.567 297.629 136.996 300.468 143.129 303.178C149.263 305.887 157.31 310.006 157.31 310.006C157.31 310.006 162.166 310.041 170.135 313.62C170.135 313.62 162.335 311.54 157.391 311.046L133.51 301.704C133.51 301.703 135.381 300.773 138.738 296.08Z" fill="#F29A86"/>
<path d="M31.8663 417.874H271.026" stroke="#153556" stroke-miterlimit="10"/>
<path d="M102.767 174.795C102.266 173.947 101.967 173.146 101.87 172.394C101.774 171.641 101.794 170.981 101.932 170.414C102.069 169.847 102.3 169.181 102.621 168.419C102.959 167.645 103.17 166.998 103.248 166.478C103.326 165.959 103.214 165.441 102.908 164.923C102.088 163.539 100.784 163.377 98.9948 164.436C97.9422 165.057 97.3782 165.747 97.3017 166.502C97.2252 167.257 97.3724 167.949 97.7434 168.575C97.8629 168.778 97.9661 168.942 98.0522 169.066C98.1382 169.19 98.1917 169.269 98.2128 169.307L94.3649 171.582C94.3132 171.538 94.2196 171.432 94.0828 171.264C93.9461 171.095 93.8113 170.9 93.6813 170.679C93.059 169.626 92.7569 168.516 92.775 167.347C92.7932 166.178 93.1756 165.036 93.9251 163.921C94.6727 162.805 95.7941 161.807 97.2893 160.922C99.338 159.709 101.188 159.184 102.838 159.34C104.488 159.498 105.787 160.38 106.737 161.985C107.229 162.816 107.518 163.611 107.605 164.368C107.692 165.126 107.659 165.807 107.504 166.408C107.35 167.011 107.101 167.738 106.757 168.588C106.36 169.644 106.114 170.501 106.016 171.157C105.918 171.813 106.071 172.482 106.475 173.165L106.932 173.94L103.472 175.987L102.767 174.795ZM104.288 177.745L108.108 175.486L110.352 179.279L106.532 181.539L104.288 177.745Z" fill="#DDDDDD"/>
<path d="M117.408 162.265C117.409 161.072 117.592 160.054 117.956 159.211C118.319 158.368 118.748 157.693 119.243 157.188C119.735 156.683 120.384 156.132 121.19 155.536C122.021 154.939 122.638 154.395 123.041 153.903C123.444 153.41 123.645 152.801 123.645 152.074C123.647 150.127 122.389 149.153 119.873 149.151C118.394 149.149 117.381 149.518 116.836 150.257C116.29 150.996 116.016 151.808 116.016 152.689C116.016 152.975 116.021 153.209 116.035 153.389C116.048 153.571 116.055 153.689 116.055 153.739L110.644 153.734C110.618 153.657 110.585 153.488 110.546 153.23C110.508 152.97 110.488 152.684 110.489 152.373C110.49 150.893 110.861 149.55 111.602 148.345C112.342 147.138 113.446 146.187 114.913 145.487C116.38 144.788 118.164 144.439 120.266 144.441C123.147 144.444 125.398 145.037 127.018 146.219C128.638 147.401 129.448 149.121 129.446 151.378C129.445 152.546 129.256 153.552 128.879 154.394C128.502 155.237 128.048 155.926 127.515 156.455C126.983 156.987 126.275 157.591 125.392 158.263C124.327 159.12 123.542 159.858 123.034 160.48C122.529 161.102 122.274 161.894 122.273 162.854V163.944L117.407 163.939L117.408 162.265ZM117.17 166.274L122.542 166.28L122.537 171.613L117.165 171.608L117.17 166.274Z" fill="#DDDDDD"/>
<path d="M257.993 162.932C256.847 162.932 255.786 162.41 255.085 161.5L249.329 154.051H218.067C207.03 154.051 198.051 145.071 198.051 134.034V114.753C198.051 103.715 207.03 94.7349 218.067 94.7349H260.573C271.61 94.7349 280.59 103.716 280.59 114.753V134.034C280.59 143.532 273.911 151.689 264.636 153.617L261.353 160.782C260.742 162.108 259.455 162.932 257.993 162.932Z" fill="#C7DAEA"/>
<path d="M260.572 95.6889C271.053 95.6889 279.633 104.266 279.633 114.751V134.032C279.633 143.356 272.846 151.152 263.97 152.771L260.483 160.381C260.004 161.423 259.002 161.975 257.994 161.975C257.198 161.975 256.395 161.632 255.843 160.915L249.799 153.093H218.067C207.587 153.093 199.008 144.515 199.008 134.032V114.751C199.008 104.266 207.587 95.6889 218.067 95.6889H260.572ZM260.572 93.7769H218.066C206.502 93.7769 197.094 103.186 197.094 114.751V134.032C197.094 145.597 206.502 155.005 218.066 155.005H248.858L254.329 162.084C255.213 163.229 256.548 163.887 257.993 163.887C259.833 163.887 261.453 162.85 262.22 161.18L265.305 154.446C274.775 152.25 281.545 143.821 281.545 134.031V114.75C281.545 103.186 272.137 93.7769 260.572 93.7769Z" fill="white"/>
<path d="M113.655 201.626V215.802C113.655 222.656 118.644 228.388 125.17 229.578L127.734 235.174C128.364 236.545 130.224 236.76 131.146 235.566L135.59 229.815H158.919C166.624 229.815 172.932 223.508 172.932 215.802V201.626C172.932 193.918 166.624 187.611 158.919 187.611H127.668C119.963 187.612 113.655 193.918 113.655 201.626Z" fill="#C7DAEA"/>
<path d="M136.383 208.008C131.595 207.368 129.51 201.35 132.025 197.295C133.303 195.233 135.987 194.667 138.008 195.861C140.124 197.111 140.459 199.655 141.475 201.719C142.399 203.6 143.63 205.482 145.989 205.186C148.671 204.852 150.725 202.631 153.304 201.955C158.589 200.57 161.15 206.533 160.151 210.947C159.263 214.874 156.011 219.62 151.96 216.059C150.649 214.907 149.597 213.41 147.694 213.328C145.356 213.227 143.055 214.989 141.212 216.201C137.889 218.387 131.987 223.312 128.061 219.789C124.68 216.756 127.222 210.711 131.905 212.439C134.487 213.391 135.71 215.695 137.647 217.49C139.539 219.243 141.553 221.061 143.983 222.037C147.361 223.394 150.708 222.551 152.438 219.283C153.585 217.115 153.693 215.052 153.902 212.71C154.101 210.464 154.638 208.939 155.784 206.974C157.103 204.712 158.416 201.957 157.639 199.299C156.687 196.048 152.248 195.231 149.486 196.572C146.253 198.142 144.266 203.044 140.61 203.415C137.323 203.749 134.231 201.035 130.845 202.281C127.831 203.39 125.368 208.56 129.192 210.445C130.838 211.258 132.762 210.423 134.456 210.885C136.14 211.345 136.691 213.052 137.384 214.473C139.417 218.639 142.231 221.794 147.182 222.156C151.207 222.452 155.513 219.248 154.591 214.891C154.118 212.656 150.869 210.115 152.228 207.811C152.856 206.746 154.16 206.503 155.096 205.785C156.28 204.876 157.06 203.586 157.252 202.103C157.817 197.752 153.561 193.473 149.21 195.021C146.302 196.055 145.22 198.611 144.008 201.211C143.21 202.924 142.333 205.158 140.426 205.901C138.902 206.495 137.325 205.703 135.862 205.215C133.875 204.553 131.495 204.045 129.52 205.06C124.853 207.46 126.57 215.372 132.058 214.771C134.966 214.453 137.441 212.207 139.828 210.68C142.128 209.207 144.694 208.069 147.45 207.928C151.003 207.747 155.751 209.993 155.217 214.238C154.392 220.811 145.688 220.74 141.625 217.636C137.852 214.755 135.533 210.483 136.659 205.661C137.714 201.145 142.417 199.475 146.613 200.164C149.478 200.633 151.87 203.349 151.635 206.351C151.431 208.955 149.032 212.139 146.103 211.609C143.172 211.077 142.509 207.088 144.698 205.296C147.253 203.206 150.928 205.353 153.544 206.165C155.34 206.723 157.026 206.919 158.59 205.667C160.151 204.418 160.748 202.078 160.119 200.19C158.406 195.042 152.586 193.511 147.918 195.145C142.478 197.048 134.913 201.123 133.608 207.331C133.191 209.312 133.794 211.647 135.4 212.976C137.084 214.37 139.609 214.149 141.68 214.145C144.962 214.139 150.994 216.581 146.851 220.269C142.765 223.907 134.753 224.76 129.754 222.868C123.851 220.634 122.264 212.023 125.486 207.065C128.389 202.597 135.262 199.862 139.32 204.618C141.758 207.474 141.438 212.245 137.175 212.922C133.182 213.558 130.019 209.196 129.548 205.633C129.021 201.643 132.063 198.033 135.496 196.458C137.321 195.621 139.221 195.212 141.205 195.711C144.31 196.493 144.048 197.603 145.637 200.049" stroke="#773774" stroke-width="0.5" stroke-miterlimit="10"/>
<path d="M224.535 115.338C226.454 112.803 226.394 111.239 229.114 109.303C232.81 106.674 237.709 104.701 242.312 104.994C251.667 105.588 258.792 116.303 258.288 125.077C257.77 134.096 249.718 142.747 240.622 143.687C231.441 144.635 225.262 135.914 223.379 127.905C221.153 118.434 225.824 109.407 235.372 106.741C244.31 104.247 254.975 107.916 258.957 116.641C267.509 135.375 240.476 153.321 226.095 138.938C219.182 132.024 218.833 119.377 224.657 111.69C230.592 103.857 242.35 101.178 251.148 105.671C259.651 110.012 263.511 121.585 258.446 129.898C252.919 138.967 239.162 147.478 228.8 141.173C219.764 135.675 218.935 121.921 225.338 114.242C231.979 106.278 246.066 104.907 253.697 112.363C261.116 119.611 258.468 132.992 250.347 138.633C242.013 144.42 229.762 144.519 224.533 134.804C219.367 125.207 222.553 111.594 233.392 107.741C242.972 104.337 255.516 109.395 257.367 120.094C259.197 130.667 249.677 141.313 239.479 142.925C228.667 144.633 222.95 133.532 223.421 124.28C223.695 118.892 223.208 115.684 226.887 112.008" stroke="#773774" stroke-width="0.5" stroke-miterlimit="10"/>
<path d="M224.5 116.314C216.759 127.898 218.484 144.713 219.234 157.9C219.873 169.142 222.949 198.654 204.743 198.056C196.339 197.779 194.403 183.658 203.508 182.791C207.574 182.404 211.62 186.49 213.07 189.965C214.57 193.558 214.377 197.662 212.071 200.884C206.703 208.386 194.486 210.379 186.092 208.208C177.802 206.064 171.186 200.55 163.315 197.534C159.812 196.191 154.966 194.388 151.206 194.518" stroke="#773774" stroke-width="0.5" stroke-miterlimit="10"/>
<path d="M415.057 408.085C412.028 404.923 408.886 399.735 406.055 395.439C400.172 386.516 395.21 376.71 391.406 366.716C388.675 359.549 386.825 350.644 388.177 342.955C388.827 339.261 390.814 333.825 394.682 332.37C404.095 328.829 411.535 348.313 413.159 354.485C417.559 371.229 418.126 390.899 415.057 408.085Z" fill="#4FC9B8"/>
<path d="M405.033 337.215L404.855 336.881C404.795 336.914 399.268 339.931 396.684 344.478C395.439 337.169 394.885 332.49 394.869 332.346L394.493 332.39C394.511 332.532 395.059 337.169 396.29 344.421C392.689 340.09 389.454 338.887 389.312 338.837L389.185 339.192C389.218 339.204 392.723 340.503 396.418 345.171C397.296 350.275 398.501 356.586 400.081 363.499C394.196 355.08 387.988 351.075 387.924 351.034L387.721 351.352C387.785 351.395 394.305 355.595 400.296 364.475L400.311 364.495C401.527 369.741 402.96 375.311 404.627 380.945C397.82 372.447 392.761 369.668 392.71 369.641L392.531 369.973C392.583 370 397.86 372.896 404.91 381.909L404.915 381.914C406.228 386.287 407.683 390.689 409.293 395C403.858 388.331 400.599 386.068 400.567 386.044L400.354 386.357C400.388 386.38 403.884 388.809 409.715 396.125C411.292 400.27 413.013 404.32 414.885 408.165L415.223 408C413.353 404.158 411.635 400.113 410.06 395.972C410.385 389.613 417.018 383.034 417.085 382.968L416.821 382.698C416.755 382.762 410.553 388.915 409.758 395.164C408.103 390.75 406.606 386.238 405.26 381.757C407.162 372.942 415.764 367.841 415.851 367.791L415.661 367.464C415.574 367.514 407.248 372.453 405.046 381.037C403.346 375.309 401.889 369.645 400.655 364.316C401.689 357.951 412.105 351.348 412.211 351.279L412.012 350.961C411.592 351.222 402.162 357.205 400.457 363.458C398.872 356.525 397.664 350.194 396.784 345.079C399.199 340.399 404.974 337.247 405.033 337.215Z" fill="#9B9B9B"/>
<path d="M418.215 417.593C413.891 418.279 407.838 417.898 402.695 417.772C392.008 417.514 381.125 415.992 370.745 413.415C363.302 411.568 354.932 408.006 349.388 402.51C346.726 399.868 343.396 395.134 344.408 391.129C346.869 381.378 367.117 386.384 373.111 388.572C389.373 394.511 405.85 405.269 418.215 417.593Z" fill="#4FC9B8"/>
<path d="M354.294 385.391L353.917 385.348C353.91 385.413 353.235 391.676 355.494 396.394C348.782 393.244 344.622 391.03 344.496 390.961L344.317 391.294C344.443 391.361 348.564 393.556 355.221 396.682C349.61 397.17 346.777 399.14 346.654 399.228L346.873 399.536C346.904 399.514 349.968 397.376 355.91 397.004C360.602 399.196 366.474 401.807 373.051 404.453C362.781 404.483 355.949 407.299 355.88 407.325L356.025 407.674C356.095 407.644 363.267 404.689 373.976 404.833L374.001 404.834C379.003 406.827 384.395 408.829 389.973 410.674C379.111 411.415 373.941 413.985 373.889 414.01L374.06 414.348C374.114 414.321 379.502 411.64 390.927 410.99L390.933 410.989C395.275 412.405 399.719 413.72 404.178 414.859C395.602 415.519 391.886 416.902 391.846 416.917L391.98 417.27C392.02 417.254 396.009 415.769 405.344 415.154C409.648 416.224 413.956 417.122 418.183 417.778L418.242 417.407C414.018 416.749 409.716 415.851 405.416 414.783C400.378 410.887 398.759 401.688 398.744 401.596L398.373 401.659C398.387 401.749 399.903 410.353 404.58 414.572C400.011 413.412 395.451 412.067 391.003 410.615C384.849 404.023 385.567 394.047 385.575 393.948L385.198 393.917C385.19 394.017 384.496 403.673 390.287 410.38C384.614 408.507 379.133 406.472 374.051 404.445C369.415 399.965 369.933 387.642 369.939 387.517L369.562 387.499C369.538 387.994 369.072 399.151 373.234 404.118C366.637 401.465 360.747 398.844 356.045 396.65C353.581 391.999 354.286 385.457 354.294 385.391Z" fill="#9B9B9B"/>
<path opacity="0.5" d="M365.888 386.556C365.888 386.556 360.571 385.312 357.087 385.358C357.087 385.358 383.488 411.592 412.549 415.997L411.815 413.971L388.142 393.482L365.888 386.556Z" fill="#C1C1C1"/>
<path d="M418.94 418.023C417.168 415.678 409.157 413.095 406.08 411.485C395.975 406.188 386.291 400.667 376.752 394.357C361.418 384.211 343.615 369.09 336.622 351.563C334.038 345.087 331.7 333.267 339.454 329.24C345.248 326.232 352.861 330.609 357.665 333.895C370.292 342.533 379.981 354.884 389.035 367.027C399.443 380.982 408.606 396.007 417.791 410.864L418.94 418.023Z" fill="#4FC9B8"/>
<path d="M401.754 400.145C395.354 386.281 395.31 375.306 395.31 375.195L394.752 375.194C394.752 375.301 394.791 385.78 400.72 399.209C395.714 394.667 391.008 390.238 386.606 385.965C379.76 366.367 381.778 357.393 381.801 357.305L381.257 357.173C381.172 357.534 379.245 366.057 385.721 385.101C379.919 379.441 374.647 374.055 369.904 369.028C362.908 351.438 365.377 339.866 365.403 339.751L364.859 339.629C364.834 339.742 362.448 350.909 368.894 367.954C363.023 361.693 357.991 356.012 353.782 351.069C346.913 338.206 349.147 329.358 349.171 329.27L348.633 329.126C348.61 329.212 346.555 337.309 352.241 349.248C342.56 337.746 337.718 330.722 337.606 330.558L337.146 330.873C337.261 331.041 342.425 338.535 352.76 350.725C349.87 349.71 341.118 346.93 335.531 348.362L335.67 348.901C342.057 347.264 353.154 351.456 353.492 351.584C357.683 356.502 362.683 362.143 368.507 368.355C365.443 367.021 357.254 364.316 346.166 367.316L346.31 367.855C360.213 364.093 369.455 369.423 369.547 369.478L369.59 369.503C374.273 374.465 379.469 379.775 385.182 385.35C382.407 384.368 375.379 382.677 365.011 385.656L365.164 386.193C378.498 382.361 386.167 386.349 386.243 386.39L386.254 386.395C390.356 390.38 394.726 394.496 399.351 398.715C397.042 397.962 392.668 397.5 384.578 399.102L384.687 399.648C395.525 397.504 399.505 399.132 400.771 400.008C406.05 404.788 411.661 409.696 417.609 414.689L417.967 414.262C412.251 409.466 406.85 404.748 401.754 400.145Z" fill="#9B9B9B"/>
<path opacity="0.5" d="M392.738 370.094C392.738 370.094 405.245 381.875 412.719 396.67L417.791 410.866C417.791 410.866 399.053 380.893 395.326 375.789L392.738 370.094Z" fill="#C1C1C1"/>
<path opacity="0.5" d="M401.726 333.766C401.726 333.766 406.316 337.644 409.045 342.824L417.151 404.886L409.475 390.653C409.474 390.653 399.568 363.42 401.726 333.766Z" fill="#C1C1C1"/>
<path d="M418.649 418.057C416.043 412.14 414.308 403.345 412.549 395.95C408.896 380.587 406.973 364.462 406.744 348.663C406.58 337.332 408.517 324.035 414.285 314.044C417.055 309.244 422.565 302.705 428.671 302.64C443.53 302.485 444.001 333.3 443.13 342.688C440.767 368.161 431.604 395.755 418.649 418.057Z" fill="#4FC9B8"/>
<path d="M440.588 314.605L440.51 314.053C440.411 314.067 431.21 315.461 425.322 320.466C427.293 309.69 428.89 302.913 428.941 302.705L428.399 302.576C428.349 302.782 426.766 309.495 424.806 320.184C421.998 312.351 418.114 309.044 417.943 308.903L417.586 309.331C417.63 309.367 421.837 312.941 424.605 321.291C423.242 328.822 421.722 338.193 420.419 348.587C416.507 333.924 409.915 325.223 409.846 325.134L409.403 325.473C409.473 325.563 416.396 334.696 420.222 350.052L420.232 350.086C419.266 357.986 418.437 366.442 417.902 375.107C412.749 359.866 407.134 353.45 407.077 353.384L406.66 353.756C406.72 353.821 412.579 360.509 417.807 376.589L417.811 376.599C417.423 383.333 417.217 390.181 417.269 396.979C413.097 384.973 409.721 380.182 409.684 380.134L409.231 380.459C409.267 380.509 412.893 385.65 417.285 398.757C417.379 405.308 417.717 411.801 418.369 418.087L418.924 418.028C418.272 411.75 417.934 405.262 417.842 398.718C421.511 390.053 434.047 384.277 434.173 384.219L433.942 383.712C433.819 383.767 422.094 389.172 417.829 397.444C417.765 390.479 417.97 383.459 418.37 376.556C425.469 365.281 439.993 362.551 440.139 362.524L440.039 361.976C439.894 362.002 425.837 364.643 418.437 375.447C418.975 366.636 419.818 358.035 420.802 350.013C425.458 341.702 443.258 337.803 443.439 337.764L443.322 337.219C442.607 337.37 426.492 340.906 420.961 348.723C422.267 338.296 423.791 328.897 425.158 321.352C430.88 316.074 440.492 314.618 440.588 314.605Z" fill="#9B9B9B"/>
<path d="M446.752 417.874H356.307" stroke="#153556" stroke-miterlimit="10"/>
</svg>
