<svg width="208" height="158" viewBox="0 0 208 158" fill="none" xmlns="http://www.w3.org/2000/svg">
<path d="M104 157.42C153.56 157.42 193.736 122.18 193.736 78.7098C193.736 35.2396 153.56 0 104 0C54.4399 0 14.2637 35.2396 14.2637 78.7098C14.2637 122.18 54.4399 157.42 104 157.42Z" fill="#FFCC5B"/>
<path d="M61.7911 56.5064C61.2311 54.8016 59.0222 57.4973 58.9548 57.5797C58.789 58.3499 58.5735 59.1147 58.4574 59.8994C58.3562 60.5843 58.28 61.2494 58.1865 61.9034C61.4827 61.3795 62.3589 58.2342 61.7911 56.5064Z" fill="#FFB87F"/>
<path d="M41.1513 57.5807C41.0839 57.4983 38.8745 54.8026 38.315 56.5073C37.7472 58.2352 38.6234 61.381 41.9191 61.9044C41.8261 61.2503 41.7499 60.5852 41.6487 59.9004C41.5326 59.1152 41.3171 58.3508 41.1513 57.5807Z" fill="#FFB87F"/>
<path d="M54.9631 65.1768L50.0528 65.4611L45.143 65.1768C45.143 65.1768 45.9701 70.5516 44.0576 72.5672C44.0576 72.5672 46.6935 79.7379 50.0528 79.6348C53.4121 79.7379 56.048 72.5672 56.048 72.5672C54.1365 70.5521 54.9631 65.1768 54.9631 65.1768Z" fill="#F8A061"/>
<path d="M59.6154 47.7466C58.5541 46.4516 55.2247 45.2645 52.7922 44.5357C51.0031 43.9998 49.1032 43.9998 47.3142 44.5357C44.8817 45.2645 41.5523 46.4516 40.491 47.7466C38.7525 49.8673 41.0216 58.6516 41.3315 61.3911C41.6414 64.1301 47.3783 70.4496 50.0527 70.4496C52.7271 70.4496 58.4644 64.1301 58.7743 61.3911C59.0847 58.6516 61.3538 49.8673 59.6154 47.7466Z" fill="#FFB87F"/>
<path d="M57.2659 42.1123C52.3845 38.8566 47.6584 41.5826 46.2385 42.0868C44.8181 42.5904 42.2931 41.079 39.5517 45.5367C37.1587 49.4281 39.8438 57.112 40.9595 60.0983H41.6362C41.5263 58.7232 41.1287 55.9071 41.1518 54.8478C41.2048 52.4182 41.5456 51.5155 42.5881 49.9004C43.7675 48.0742 47.3576 46.2987 47.3576 46.2987C51.5531 44.9679 54.4758 48.0477 57.0389 49.1022C60.4777 50.5173 58.2679 59.6424 58.3247 60.0978H59.1436C59.3571 58.9242 60.4145 57.1858 61.1192 54.1923C62.566 48.0424 61.0237 44.6185 57.2659 42.1123Z" fill="#753512"/>
<path d="M43.6514 44.7802C43.6514 44.7802 46.7711 54.193 59.9828 54.193C59.9828 54.193 60.9322 44.9026 55.1718 43.3005C49.4113 41.6985 43.6514 44.7802 43.6514 44.7802Z" fill="#753512"/>
<path d="M46.1502 54.4506C44.6581 54.4313 43.4353 55.1615 43.4353 55.1615C43.337 55.4068 43.5341 55.6815 43.7274 55.7297C43.8604 55.763 44.6966 55.6136 45.22 55.6328C45.743 55.6521 47.2356 55.7297 47.6617 55.8266C48.0882 55.9235 48.2241 55.5552 48.2627 55.0516C48.3012 54.5479 47.6424 54.4698 46.1502 54.4506Z" fill="#753512"/>
<path d="M56.6718 55.1615C56.6718 55.1615 55.449 54.4313 53.9569 54.4506C52.4647 54.4698 51.8054 54.5474 51.8444 55.0516C51.8834 55.5557 52.0189 55.9239 52.4454 55.8266C52.872 55.7292 54.3641 55.6521 54.8875 55.6328C55.4109 55.6131 56.2467 55.763 56.3802 55.7297C56.5734 55.6815 56.7706 55.4068 56.6718 55.1615Z" fill="#753512"/>
<path d="M48.2643 58.3459C48.2643 58.3459 47.5085 57.261 46.0159 57.1829C44.5237 57.1054 43.6514 57.9194 43.6514 57.9194C43.6514 57.9194 44.7151 59.3696 45.9576 59.373C47.5278 59.3773 48.2643 58.3459 48.2643 58.3459Z" fill="white"/>
<path d="M46.0547 59.291C46.6728 59.291 47.1738 58.7899 47.1738 58.1719C47.1738 57.5538 46.6728 57.0527 46.0547 57.0527C45.4366 57.0527 44.9355 57.5538 44.9355 58.1719C44.9355 58.7899 45.4366 59.291 46.0547 59.291Z" fill="#4D2700"/>
<path d="M48.2648 58.3458C48.2648 58.3458 47.1991 57.4349 45.9585 57.4734C44.718 57.5125 43.6523 57.9193 43.6523 57.9193C43.6523 57.9193 44.0982 56.7886 45.9585 56.8271C47.8189 56.8667 48.2648 58.3458 48.2648 58.3458Z" fill="#CC7031"/>
<path d="M51.8438 58.3459C51.8438 58.3459 52.5995 57.261 54.0921 57.1829C55.5843 57.1054 56.4566 57.9194 56.4566 57.9194C56.4566 57.9194 55.3929 59.3696 54.1504 59.373C52.5802 59.3773 51.8438 58.3459 51.8438 58.3459Z" fill="white"/>
<path d="M54.0527 59.291C54.6708 59.291 55.1718 58.7899 55.1718 58.1719C55.1718 57.5538 54.6708 57.0527 54.0527 57.0527C53.4346 57.0527 52.9336 57.5538 52.9336 58.1719C52.9336 58.7899 53.4346 59.291 54.0527 59.291Z" fill="#4D2700"/>
<path d="M51.8438 58.3458C51.8438 58.3458 52.9094 57.4349 54.15 57.4734C55.39 57.5125 56.4562 57.9193 56.4562 57.9193C56.4562 57.9193 56.0103 56.7886 54.15 56.8271C52.2896 56.8667 51.8438 58.3458 51.8438 58.3458Z" fill="#CC7031"/>
<path d="M49.973 62.7544C49.8645 62.7544 49.7571 62.7404 49.653 62.7086C49.3671 62.6224 49.1633 62.4127 49.078 62.1192C48.8355 61.2849 49.6313 58.3092 49.7228 57.9724C49.7537 57.8591 49.8713 57.7921 49.9841 57.8229C50.0978 57.8538 50.1648 57.9709 50.1335 58.0842C49.7869 59.3594 49.3281 61.455 49.4867 62.0006C49.532 62.1573 49.6269 62.2556 49.7763 62.3009C50.0409 62.3814 50.4005 62.2676 50.5807 62.1163C50.6704 62.0411 50.8049 62.0522 50.881 62.1423C50.9567 62.2324 50.9451 62.3664 50.855 62.4426C50.6482 62.6171 50.3104 62.7544 49.973 62.7544Z" fill="#D6774F"/>
<path d="M52.7449 63.8711C52.7449 63.8711 50.4903 64.995 47.3633 63.9872C47.3633 63.9872 47.9836 65.6303 50.1606 65.6303C51.9849 65.6303 52.7449 63.8711 52.7449 63.8711Z" fill="white"/>
<path d="M68.6841 77.722C68.0937 74.6726 65.6342 73.7424 60.8536 73.3289C56.073 72.9154 55.5804 71.9336 55.5804 71.9336L49.9804 76.96L44.5675 71.9336C44.5675 71.9336 43.8884 72.9154 39.1073 73.3289C34.3262 73.7424 31.8672 74.6726 31.2768 77.722C30.8585 79.8846 28.5041 92.3704 27.1705 99.4471C26.6962 101.965 28.6646 104.279 31.2262 104.216L49.9438 103.752H50.0176L70.0032 103.93C72.6444 103.954 74.593 101.473 73.9399 98.9135C72.1509 91.9029 69.0976 79.8595 68.6841 77.722Z" fill="#F8F8F9"/>
<path opacity="0.32" d="M38.3303 81.1924C37.7138 82.7978 37.3572 102.369 36.4082 103.752H43.7379C43.5837 103.672 43.429 103.592 43.2849 103.508C40.2056 101.718 38.6595 83.6634 38.3303 81.1924Z" fill="#C8CDD1"/>
<path opacity="0.32" d="M61.6303 81.1934C61.3006 83.6644 59.7545 101.719 56.6757 103.509C56.5316 103.593 56.3769 103.673 56.2227 103.753H63.5524C62.6029 102.369 62.2467 82.7988 61.6303 81.1934Z" fill="#C8CDD1"/>
<path d="M46.6855 103.751H49.9436H50.0174H53.2755L50.655 79.5146C50.628 79.4308 50.6434 79.3387 50.6955 79.2679L52.4542 76.8903C52.5535 76.7563 52.5111 76.5655 52.3645 76.4859L51.2088 75.2415L48.7778 75.2275L47.596 76.4859C47.4495 76.566 47.4071 76.7563 47.5063 76.8903L49.2645 79.2679C49.3171 79.3387 49.3325 79.4308 49.305 79.5146L46.6855 103.751Z" fill="#34283B"/>
<path d="M58.4142 72.9567L55.1431 71.0693L49.9798 75.1632L44.817 71.0693L41.5459 72.9567L45.7703 78.7302L49.9798 75.354L54.1898 78.7302L58.4142 72.9567Z" fill="#E0E3E5"/>
<path d="M38.5214 103.752L38.2611 84.5967L37.6562 103.752H38.5214Z" fill="#818C95"/>
<path d="M62.3046 103.751L61.7002 84.5957L61.4395 103.751H62.3046Z" fill="#818C95"/>
<path d="M70.3118 78.8423L29.3689 78.2812C28.7688 78.2943 28.7437 78.8052 28.7736 79.0982L31.0803 101.609C31.0996 101.795 31.3126 101.94 31.5666 101.94L68.7999 101.953C69.2293 101.953 69.6154 101.733 69.6299 101.477L70.8839 79.2611C70.8974 79.0177 70.6637 78.8471 70.3118 78.8423Z" fill="#313131"/>
<path opacity="0.5" d="M68.3758 100.773L68.5907 96.9623C66.2614 96.3854 63.934 95.8008 61.6143 95.1935C55.126 93.4951 48.646 91.694 42.3091 89.5748C39.4173 88.6079 36.5463 87.5867 33.7195 86.4719C32.6949 86.0675 31.6596 85.5841 30.6123 85.1084L32.2173 100.774H68.3758V100.773Z" fill="#333339"/>
<path d="M70.2791 103.978H30.4505C30.1381 103.978 29.8629 103.756 29.836 103.483L29.7073 102.171C29.6798 101.893 29.914 101.667 30.2297 101.667H70.4994C70.8156 101.667 71.0493 101.893 71.0218 102.171L70.8932 103.483C70.8666 103.756 70.5914 103.978 70.2791 103.978Z" fill="#313131"/>
<path opacity="0.55" d="M69.8583 102.017H64.9533C64.2737 102.443 63.5831 102.862 62.8987 103.289C62.7199 103.4 62.5237 103.515 62.3203 103.632H69.6501C69.9455 103.632 70.2058 103.477 70.2313 103.285L70.3532 102.369C70.3783 102.174 70.1571 102.017 69.8583 102.017Z" fill="#DDDDE1"/>
<path opacity="0.55" d="M52.7901 103.574C52.7674 103.594 52.7419 103.612 52.7188 103.632H55.5402C56.0419 103.052 56.667 102.52 57.362 102.017H54.3372C53.8422 102.563 53.3458 103.102 52.7901 103.574Z" fill="#DDDDE1"/>
<path d="M49.5798 88.0303C50.5775 88.0303 51.3863 87.2632 51.3863 86.3169C51.3863 85.3706 50.5775 84.6035 49.5798 84.6035C48.5822 84.6035 47.7734 85.3706 47.7734 86.3169C47.7734 87.2632 48.5822 88.0303 49.5798 88.0303Z" fill="white"/>
<path d="M92.789 105.837H7.00195V143.494H92.789V105.837Z" fill="#484848"/>
<path opacity="0.5" d="M92.789 114.277V105.837H7.00195V143.493H18.4824L92.789 114.277Z" fill="#333339"/>
<path d="M98.7143 107.696H0.960075C0.429431 107.696 0 107.31 0 106.835V104.838C0 104.363 0.429913 103.978 0.960075 103.978H98.7143C99.2449 103.978 99.6748 104.363 99.6748 104.838V106.835C99.6748 107.31 99.2449 107.696 98.7143 107.696Z" fill="#00A8CB"/>
<path d="M170.117 56.5083C169.557 54.8036 167.348 57.4992 167.28 57.5816C167.115 58.3518 166.9 59.1167 166.784 59.9013C166.682 60.5862 166.606 61.2513 166.513 61.9053C169.808 61.3815 170.684 58.2362 170.117 56.5083Z" fill="#FFB87F"/>
<path d="M149.477 57.5826C149.41 57.5002 147.2 54.8046 146.64 56.5093C146.072 58.2371 146.949 61.3829 150.245 61.9063C150.152 61.2523 150.075 60.5872 149.974 59.9023C149.858 59.1172 149.642 58.3528 149.477 57.5826Z" fill="#FFB87F"/>
<path d="M163.288 65.1768L158.378 65.4611L153.468 65.1768C153.468 65.1768 154.295 70.5516 152.383 72.5672C152.383 72.5672 155.019 79.7379 158.378 79.6348C161.737 79.7379 164.373 72.5672 164.373 72.5672C162.461 70.5521 163.288 65.1768 163.288 65.1768Z" fill="#F8A061"/>
<path d="M167.941 47.7466C166.88 46.4516 163.55 45.2645 161.118 44.5357C159.329 43.9998 157.429 43.9998 155.64 44.5357C153.207 45.2645 149.878 46.4516 148.817 47.7466C147.079 49.8673 149.348 58.6516 149.658 61.3911C149.968 64.1306 155.704 70.4496 158.379 70.4496C161.054 70.4496 166.791 64.1301 167.101 61.3911C167.41 58.6516 169.679 49.8673 167.941 47.7466Z" fill="#FFB87F"/>
<path d="M165.745 41.5637C162.921 39.6797 156.894 39.832 153.345 40.6774C151.258 41.1743 149.078 42.5363 147.641 45.2407C145.498 49.2752 148.171 57.1129 149.286 60.0992H149.962C149.852 58.7241 149.574 55.9037 149.478 54.8487C149.204 51.8315 148.948 50.0396 150.245 48.6207C153.261 45.3187 156.345 48.4187 158.42 48.4187C159.725 48.4187 163.495 46.9208 165.471 47.7339C168.91 49.1484 166.594 59.6437 166.651 60.0997H167.47C167.683 58.9261 168.741 57.1876 169.445 54.1941C170.892 48.0433 169.503 44.07 165.745 41.5637Z" fill="#4E4454"/>
<path d="M154.39 54.4204C152.906 54.5795 151.779 55.4499 151.779 55.4499C151.71 55.7053 151.939 55.9545 152.137 55.9796C152.273 55.9969 153.085 55.7487 153.607 55.7053C154.129 55.662 155.62 55.5607 156.055 55.6061C156.49 55.6514 156.58 55.2696 156.559 54.7645C156.537 54.2599 155.874 54.2614 154.39 54.4204Z" fill="#34283B"/>
<path d="M164.984 55.4008C164.984 55.4008 163.84 54.554 162.352 54.4257C160.866 54.2975 160.202 54.3101 160.191 54.8152C160.18 55.3203 160.279 55.7001 160.713 55.6461C161.146 55.5921 162.639 55.662 163.162 55.6943C163.685 55.7266 164.501 55.9579 164.637 55.9382C164.835 55.9088 165.058 55.6553 164.984 55.4008Z" fill="#34283B"/>
<path d="M156.589 58.3489C156.589 58.3489 155.834 57.264 154.341 57.1859C152.848 57.1083 151.977 57.9223 151.977 57.9223C151.977 57.9223 153.04 59.3726 154.283 59.3759C155.853 59.3803 156.589 58.3489 156.589 58.3489Z" fill="white"/>
<path d="M154.38 59.2939C154.998 59.2939 155.499 58.7929 155.499 58.1748C155.499 57.5567 154.998 57.0557 154.38 57.0557C153.762 57.0557 153.261 57.5567 153.261 58.1748C153.261 58.7929 153.762 59.2939 154.38 59.2939Z" fill="#34283B"/>
<path d="M156.589 58.3487C156.589 58.3487 155.523 57.4378 154.283 57.4764C153.043 57.5154 151.977 57.9222 151.977 57.9222C151.977 57.9222 152.422 56.7915 154.283 56.8301C156.144 56.8696 156.589 58.3487 156.589 58.3487Z" fill="#B06643"/>
<path d="M160.169 58.3489C160.169 58.3489 160.925 57.264 162.417 57.1859C163.909 57.1083 164.781 57.9223 164.781 57.9223C164.781 57.9223 163.718 59.3726 162.475 59.3759C160.905 59.3803 160.169 58.3489 160.169 58.3489Z" fill="white"/>
<path d="M162.378 59.2939C162.996 59.2939 163.497 58.7929 163.497 58.1748C163.497 57.5567 162.996 57.0557 162.378 57.0557C161.76 57.0557 161.259 57.5567 161.259 58.1748C161.259 58.7929 161.76 59.2939 162.378 59.2939Z" fill="#34283B"/>
<path d="M160.169 58.3487C160.169 58.3487 161.235 57.4378 162.475 57.4764C163.715 57.5154 164.781 57.9222 164.781 57.9222C164.781 57.9222 164.336 56.7915 162.475 56.8301C160.615 56.8696 160.169 58.3487 160.169 58.3487Z" fill="#B06643"/>
<path d="M158.298 62.7573C158.19 62.7573 158.082 62.7434 157.978 62.7116C157.692 62.6253 157.488 62.4156 157.403 62.1221C157.161 61.2878 157.956 58.3122 158.048 57.9753C158.079 57.862 158.197 57.795 158.31 57.8259C158.423 57.8567 158.49 57.9738 158.46 58.0871C158.112 59.3624 157.654 61.458 157.813 62.0035C157.858 62.1602 157.952 62.2585 158.102 62.3038C158.367 62.3843 158.727 62.2706 158.907 62.1192C158.997 62.044 159.131 62.0551 159.207 62.1452C159.283 62.2354 159.271 62.3694 159.181 62.4455C158.973 62.62 158.635 62.7573 158.298 62.7573Z" fill="#D6774F"/>
<path d="M161.07 63.873C161.07 63.873 158.815 64.997 155.688 63.9892C155.688 63.9892 156.309 65.6322 158.486 65.6322C160.31 65.6322 161.07 63.873 161.07 63.873Z" fill="white"/>
<path d="M177.009 77.721C176.418 74.6716 173.959 73.7414 169.178 73.3279C164.398 72.9144 163.905 71.9326 163.905 71.9326L158.306 76.959L152.893 71.9326C152.893 71.9326 152.213 72.9144 147.433 73.3279C142.652 73.7414 140.192 74.6716 139.602 77.721C139.184 79.8836 136.829 92.3694 135.496 99.4461C135.021 101.964 136.989 104.278 139.551 104.215L158.269 103.751H158.342L178.328 103.929C180.969 103.953 182.918 101.472 182.265 98.9126C180.476 91.9019 177.423 79.8585 177.009 77.721Z" fill="#F8F8F9"/>
<path opacity="0.32" d="M146.655 81.1914C146.039 82.7968 145.682 102.368 144.733 103.751H152.063C151.909 103.671 151.754 103.591 151.61 103.507C148.531 101.717 146.985 83.6624 146.655 81.1914Z" fill="#9393A2"/>
<path opacity="0.32" d="M169.956 81.1904C169.626 83.6615 168.08 101.716 165.001 103.506C164.857 103.59 164.703 103.67 164.549 103.75H171.878C170.929 102.367 170.572 82.7959 169.956 81.1904Z" fill="#9393A2"/>
<path d="M155.011 103.75H158.269H158.343H161.601L158.98 79.5136C158.953 79.4298 158.969 79.3377 159.021 79.2669L160.779 76.8893C160.879 76.7554 160.836 76.5645 160.689 76.485L159.534 75.2405L157.103 75.2266L155.921 76.485C155.774 76.565 155.732 76.7554 155.831 76.8893L157.59 79.2669C157.642 79.3377 157.657 79.4298 157.63 79.5136L155.011 103.75Z" fill="#34283B"/>
<path d="M166.739 72.9557L163.468 71.0684L158.305 75.1622L153.142 71.0684L149.871 72.9557L154.095 78.7292L158.305 75.353L162.515 78.7292L166.739 72.9557Z" fill="#E0E3E5"/>
<path d="M146.847 103.751L146.586 84.5957L145.981 103.751H146.847Z" fill="#BFC4C9"/>
<path d="M170.629 103.75L170.024 84.5947L169.764 103.75H170.629Z" fill="#BFC4C9"/>
<path d="M178.637 78.8432L137.694 78.2822C137.094 78.2952 137.069 78.8061 137.099 79.0992L139.406 101.61C139.424 101.796 139.637 101.941 139.892 101.941L177.126 101.954C177.555 101.954 177.941 101.734 177.955 101.478L179.21 79.2621C179.223 79.0187 178.989 78.8481 178.637 78.8432Z" fill="#313131"/>
<path opacity="0.5" d="M176.701 100.774L176.916 96.9633C174.587 96.3864 172.26 95.8018 169.939 95.1945C163.451 93.4961 156.971 91.695 150.634 89.5758C147.742 88.6089 144.871 87.5876 142.045 86.4729C141.02 86.0685 139.985 85.5851 138.938 85.1094L140.542 100.775H176.701V100.774Z" fill="#333339"/>
<path d="M178.604 103.979H138.776C138.463 103.979 138.188 103.757 138.161 103.484L138.032 102.172C138.005 101.894 138.239 101.668 138.555 101.668H178.825C179.14 101.668 179.375 101.894 179.348 102.172L179.218 103.484C179.192 103.757 178.916 103.979 178.604 103.979Z" fill="#313131"/>
<path opacity="0.55" d="M178.183 102.018H173.278C172.598 102.444 171.907 102.863 171.223 103.29C171.044 103.401 170.848 103.516 170.645 103.633H177.974C178.269 103.633 178.529 103.478 178.555 103.286L178.677 102.37C178.703 102.175 178.481 102.018 178.183 102.018Z" fill="#DDDDE1"/>
<path opacity="0.55" d="M161.115 103.575C161.092 103.595 161.067 103.613 161.044 103.633H163.865C164.367 103.053 164.992 102.521 165.687 102.018H162.662C162.167 102.564 161.671 103.103 161.115 103.575Z" fill="#DDDDE1"/>
<path d="M157.905 88.0313C158.903 88.0313 159.711 87.2642 159.711 86.3179C159.711 85.3716 158.903 84.6045 157.905 84.6045C156.907 84.6045 156.099 85.3716 156.099 86.3179C156.099 87.2642 156.907 88.0313 157.905 88.0313Z" fill="white"/>
<path d="M201.114 105.838H115.327V143.495H201.114V105.838Z" fill="#484848"/>
<path opacity="0.5" d="M201.114 114.278V105.838H115.327V143.494H126.808L201.114 114.278Z" fill="#333339"/>
<path d="M207.039 107.697H109.286C108.755 107.697 108.325 107.311 108.325 106.836V104.839C108.325 104.364 108.756 103.979 109.286 103.979H207.039C207.57 103.979 208 104.364 208 104.839V106.836C208 107.311 207.57 107.697 207.039 107.697Z" fill="#00A8CB"/>
<path d="M107.911 44.9735C107.911 44.9735 94.9708 39.7601 90.3839 48.2099C85.7966 56.6597 91.2799 71.0199 89.5723 75.5258C87.8642 80.0321 85.8867 80.9305 85.8867 80.9305C85.8867 80.9305 90.5623 93.9653 103.147 93.2462C115.731 92.5271 125.44 86.5941 121.035 79.942C116.63 73.2899 122.653 56.9291 121.664 53.873C120.675 50.8168 116.99 41.0185 107.911 44.9735Z" fill="#361500"/>
<path d="M108.996 74.8398L104 75.1946L99.0037 74.8398C99.0037 74.8398 100.629 83.7172 93.5498 85.0238C93.5498 85.0238 99.8592 96.7288 104 96.5707C108.14 96.7288 114.45 85.0238 114.45 85.0238C107.371 83.7172 108.996 74.8398 108.996 74.8398Z" fill="#F8A061"/>
<path d="M136.576 121.383C133.488 109.689 127.36 87.3373 126.243 87.132C124.286 86.7725 113.225 84.7246 113.225 84.7246L113.141 84.8509C109.092 90.9439 99.9993 91.3092 95.4399 85.5618L94.7757 84.7246C94.7757 84.7246 83.7146 86.7725 81.7574 87.132C80.6402 87.3373 74.8291 109.689 71.8804 121.383C71.8414 121.536 71.8106 121.686 71.7865 121.833C71.3835 124.288 73.3731 126.49 75.8605 126.49H132.589C135.222 126.49 137.228 124.038 136.601 121.481C136.593 121.448 136.584 121.416 136.576 121.383Z" fill="#176DC4"/>
<path d="M104.225 47.715C104.225 47.715 90.2243 46.726 90.4041 53.9174C90.5838 61.1088 93.1908 68.225 94.4492 72.1954C95.7076 76.1659 102.495 80.3913 104.225 80.3913C105.956 80.3913 112.742 76.1659 114.001 72.1954C115.259 68.225 117.866 61.1093 118.046 53.9174C118.226 46.7264 104.225 47.715 104.225 47.715Z" fill="#FFB87F"/>
<path d="M101.471 63.6383C101.471 63.6383 100.335 62.0068 98.0921 61.8907C95.849 61.774 94.5381 62.9977 94.5381 62.9977C94.5381 62.9977 96.1363 65.1777 98.0044 65.1825C100.364 65.1883 101.471 63.6383 101.471 63.6383Z" fill="white"/>
<path d="M98.1508 65.0594C99.0798 65.0594 99.8329 64.3063 99.8329 63.3774C99.8329 62.4484 99.0798 61.6953 98.1508 61.6953C97.2218 61.6953 96.4688 62.4484 96.4688 63.3774C96.4688 64.3063 97.2218 65.0594 98.1508 65.0594Z" fill="#4D2700"/>
<path d="M101.472 63.6381C101.472 63.6381 99.8696 62.2693 98.0054 62.3271C96.1411 62.3854 94.5391 62.9971 94.5391 62.9971C94.5391 62.9971 95.209 61.2976 98.0054 61.356C100.802 61.4143 101.472 63.6381 101.472 63.6381Z" fill="#34283B"/>
<path d="M99.2454 64.8246C97.28 65.201 96.0972 64.2949 94.5472 62.9893C94.5463 62.9902 94.5381 62.997 94.5381 62.997C94.5381 62.997 96.1363 65.1769 98.0044 65.1817C99.7279 65.1861 100.776 64.3648 101.22 63.919C100.91 64.1147 99.6228 64.7523 99.2454 64.8246Z" fill="#34283B"/>
<path d="M106.978 63.6373C106.978 63.6373 108.114 62.0058 110.357 61.8897C112.6 61.773 113.911 62.9968 113.911 62.9968C113.911 62.9968 112.312 65.1767 110.444 65.1815C108.085 65.1873 106.978 63.6373 106.978 63.6373Z" fill="white"/>
<path d="M110.299 65.0594C111.228 65.0594 111.981 64.3061 111.981 63.3769C111.981 62.4476 111.228 61.6943 110.299 61.6943C109.37 61.6943 108.616 62.4476 108.616 63.3769C108.616 64.3061 109.37 65.0594 110.299 65.0594Z" fill="#4D2700"/>
<path d="M106.978 63.6371C106.978 63.6371 108.58 62.2683 110.444 62.3261C112.308 62.3845 113.911 62.9961 113.911 62.9961C113.911 62.9961 113.24 61.2967 110.444 61.355C107.647 61.4133 106.978 63.6371 106.978 63.6371Z" fill="#34283B"/>
<path d="M109.204 64.8236C111.169 65.2 112.352 64.2939 113.901 62.9883C113.902 62.9892 113.911 62.996 113.911 62.996C113.911 62.996 112.312 65.1759 110.444 65.1808C108.721 65.1851 107.673 64.3638 107.229 63.918C107.539 64.1137 108.826 64.7513 109.204 64.8236Z" fill="#34283B"/>
<path d="M103.651 69.694C103.02 69.695 102.29 69.5711 101.985 69.0578C101.841 68.8154 101.746 68.3995 102.11 67.7874C103.06 66.1935 103.723 63.4704 103.73 63.4429C103.779 63.2405 103.986 63.1162 104.185 63.1648C104.387 63.2135 104.513 63.4164 104.463 63.6198C104.436 63.7355 103.768 66.4808 102.759 68.1739C102.624 68.3995 102.578 68.5807 102.633 68.6713C102.723 68.8241 103.124 68.9557 103.836 68.9354C104.043 68.9325 104.221 69.0882 104.229 69.2969C104.238 69.5056 104.076 69.681 103.868 69.6897C103.798 69.6931 103.725 69.694 103.651 69.694Z" fill="#D6774F"/>
<path d="M96.1523 57.5581C95.3089 57.6256 93.6562 60.2547 93.6562 60.2547C94.0076 60.3897 95.9764 59.311 96.7148 59.4117C97.4532 59.5125 100.16 59.8836 100.688 59.9848C101.215 60.086 101.777 58.67 101.848 57.962C101.918 57.2545 96.9963 57.4906 96.1523 57.5581Z" fill="#753512"/>
<path d="M112.157 57.5581C111.295 57.4906 106.272 57.2544 106.344 57.9624C106.415 58.6704 106.989 60.0865 107.528 59.9852C108.066 59.884 110.829 59.5134 111.582 59.4122C112.335 59.311 114.345 60.3896 114.704 60.2551C114.704 60.2547 113.017 57.6251 112.157 57.5581Z" fill="#753512"/>
<path d="M100.075 71.7285C100.075 71.7285 104.097 73.5036 108.375 71.7285C108.375 71.7285 106.356 75.5259 104.305 75.5259C102.255 75.5264 100.075 71.7285 100.075 71.7285Z" fill="white"/>
<path d="M104.317 74.6791C102.692 74.6791 100.997 72.8684 100.103 71.7473C100.093 71.7401 100.075 71.7285 100.075 71.7285C100.075 71.7285 102.165 75.5259 104.305 75.5259C106.128 75.5259 107.979 72.6269 108.375 71.7285C107.514 72.8539 105.888 74.6791 104.317 74.6791Z" fill="#F14543"/>
<path d="M105.695 72.0649C105.118 72.0649 104.774 71.7762 104.225 72.0649C103.676 71.7762 103.332 72.0649 102.755 72.0649C102.179 72.0649 100.075 71.7285 100.075 71.7285C102.178 73.0987 104.225 73.0727 104.225 73.0727C104.225 73.0727 106.272 73.0987 108.375 71.7285C108.375 71.7285 106.272 72.0649 105.695 72.0649Z" fill="#F14543"/>
<path d="M110.821 42.0966C110.821 42.0966 108.357 49.3285 110.57 51.8256C112.782 54.3222 116.805 56.4703 115.816 64.6102C114.827 72.7501 111.344 83.5799 119.614 86.3001C127.885 89.0208 130.949 76.5731 125.188 74.8395C125.188 74.8395 125.997 78.0118 122.761 77.7178C119.524 77.4242 119.883 71.4797 122.131 65.6874C124.379 59.8952 127.527 52.3485 120.603 45.3326C114.749 39.4 111.022 41.4527 110.821 42.0966Z" fill="#753512"/>
<path d="M112.424 42.5281C112.424 42.5281 104.643 35.2644 93.7012 40.1187C82.7592 44.9731 82.669 53.0113 84.7367 61.3527C86.8043 69.6941 90.8061 76.0647 85.9054 77.7183C82.9361 78.7203 82.978 75.0251 83.7573 74.387C83.7573 74.387 77.86 74.9745 80.5566 82.3013C82.9308 88.7515 93.6969 86.9533 94.5394 81.2227C96.2879 69.3239 87.5682 58.9742 95.7939 55.9402C104.019 52.9058 108.94 56.2771 112.424 42.5281Z" fill="#753512"/>
<path opacity="0.32" d="M89.4705 96.2275C88.7018 98.2301 88.2569 102.616 87.0732 104.34H96.2147C96.0224 104.24 95.8296 104.14 95.6498 104.036C91.81 101.804 89.8817 99.3102 89.4705 96.2275Z" fill="#3B6F9C"/>
<path opacity="0.32" d="M118.53 96.2275C118.118 99.3102 116.19 101.804 112.351 104.036C112.17 104.14 111.978 104.24 111.785 104.34H120.927C119.743 102.616 119.299 98.2301 118.53 96.2275Z" fill="#3B6F9C"/>
<path d="M90.3575 104.339L89.9893 99.957L89.1348 104.339H90.3575Z" fill="#173D63"/>
<path d="M118.865 104.339L118.011 99.957L117.643 104.339H118.865Z" fill="#173D63"/>
<path d="M131.905 92.2302L76.1005 91.4658C75.2826 91.4837 75.2483 92.1796 75.2893 92.5792L78.4327 123.262C78.4587 123.515 78.7493 123.713 79.0954 123.713L129.844 123.73C130.43 123.731 130.956 123.43 130.976 123.082L132.685 92.8018C132.704 92.4698 132.386 92.237 131.905 92.2302Z" fill="#313131"/>
<path opacity="0.5" d="M129.268 122.122L129.561 116.927C126.386 116.141 123.214 115.345 120.052 114.517C111.208 112.201 102.377 109.747 93.7393 106.858C89.7973 105.541 85.8843 104.149 82.0319 102.629C80.6347 102.078 79.224 101.419 77.7969 100.771L79.9845 122.123H129.268V122.122Z" fill="#333339"/>
<path d="M131.862 126.489H77.5756C77.1495 126.489 76.7746 126.187 76.7379 125.814L76.5625 124.027C76.5254 123.648 76.844 123.34 77.2749 123.34H132.162C132.593 123.34 132.912 123.648 132.875 124.027L132.699 125.814C132.662 126.187 132.287 126.489 131.862 126.489Z" fill="#313131"/>
<path opacity="0.55" d="M131.287 123.815H124.602C123.676 124.397 122.734 124.968 121.801 125.55C121.557 125.701 121.29 125.858 121.013 126.017H131.002C131.405 126.017 131.76 125.805 131.795 125.545L131.961 124.295C131.996 124.031 131.695 123.815 131.287 123.815Z" fill="#DDDDE1"/>
<path opacity="0.55" d="M108.023 125.938C107.992 125.965 107.957 125.99 107.926 126.016H111.771C112.455 125.226 113.307 124.501 114.254 123.815H110.131C109.457 124.558 108.781 125.295 108.023 125.938Z" fill="#DDDDE1"/>
<path d="M103.647 104.75C105.007 104.75 106.109 103.705 106.109 102.415C106.109 101.125 105.007 100.079 103.647 100.079C102.288 100.079 101.186 101.125 101.186 102.415C101.186 103.705 102.288 104.75 103.647 104.75Z" fill="white"/>
<path d="M162.542 129.023H45.6143V157.962H162.542V129.023Z" fill="#484848"/>
<path opacity="0.5" d="M162.542 140.528V129.023H45.6143V157.962H61.2622L162.542 140.528Z" fill="#333339"/>
<path d="M170.619 131.558H37.3803C36.6574 131.558 36.0713 131.032 36.0713 130.384V127.663C36.0713 127.015 36.6574 126.489 37.3803 126.489H170.619C171.342 126.489 171.928 127.015 171.928 127.663V130.384C171.927 131.032 171.342 131.558 170.619 131.558Z" fill="#00A8CB"/>
</svg>
