<svg width="150" height="150" viewBox="0 0 150 150" fill="none" xmlns="http://www.w3.org/2000/svg">
<path d="M77.5417 20.3359L24.6391 73.2386C11.7334 86.1455 11.7334 107.072 24.6391 119.979L26.6936 122.032H6.35434C3.54627 122.032 1.26953 124.309 1.26953 127.117C1.26953 129.926 3.54627 132.202 6.35434 132.202H97.8809C100.689 132.202 102.966 129.926 102.966 127.117C102.966 124.309 100.689 122.032 97.8809 122.032H77.5417L97.8809 101.693V106.778C97.8809 109.587 100.158 111.863 102.966 111.863C105.774 111.863 108.051 109.587 108.051 106.778V91.5233L118.22 81.3537V101.693C118.22 104.502 120.497 106.778 123.305 106.778C126.113 106.778 128.39 104.502 128.39 101.693V71.184L77.5417 20.3359Z" fill="#F98C96"/>
<path d="M108.051 137.287H123.305C126.113 137.287 128.39 139.564 128.39 142.372C128.39 145.181 126.113 147.457 123.305 147.457H108.051C105.243 147.457 102.966 145.181 102.966 142.372C102.966 139.564 105.243 137.287 108.051 137.287Z" fill="#F98C96"/>
<path d="M80.084 139.828H85.1688V144.913H80.084V139.828Z" fill="#F98C96"/>
<path d="M59.7451 144.914H69.9147V149.999H59.7451V144.914Z" fill="#F98C96"/>
<path d="M72.4563 104.236C68.2442 104.236 64.8291 100.822 64.8291 96.6085V86.4389C64.8291 85.0349 65.9675 83.8965 67.3715 83.8965C68.7755 83.8965 69.9139 85.0349 69.9139 86.4389V96.6085C69.9139 98.0138 71.0523 99.1509 72.4563 99.1509C73.8604 99.1509 74.9987 98.0138 74.9987 96.6085V86.4389C74.9987 85.0349 76.1371 83.8965 77.5411 83.8965C78.9452 83.8965 80.0835 85.0349 80.0835 86.4389V96.6085C80.0835 100.822 76.6684 104.236 72.4563 104.236Z" fill="#E9686A"/>
<path d="M58.8725 55.9309C57.8446 55.9309 56.9173 55.3114 56.5237 54.3617C56.1302 53.412 56.3475 52.3184 57.0749 51.5921L75.7432 32.9226C76.7413 31.9592 78.3266 31.9729 79.3073 32.9536C80.288 33.9343 80.3017 35.5196 79.3384 36.5177L60.6701 55.186C60.1933 55.664 59.5466 55.9309 58.8725 55.9309Z" fill="#E9686A"/>
<path d="M48.7006 66.1006C47.6727 66.1006 46.7454 65.4812 46.3519 64.5315C45.9583 63.5818 46.1756 62.4881 46.9031 61.7619L51.9879 56.6771C52.9847 55.7125 54.5712 55.7274 55.552 56.7069C56.5327 57.6876 56.5463 59.2741 55.583 60.271L50.4982 65.3558C50.0215 65.8337 49.3747 66.1006 48.7006 66.1006Z" fill="#E9686A"/>
<path d="M31.8313 115.331C31.156 115.331 30.5092 115.063 30.0313 114.587C20.1211 104.65 20.1211 88.5678 30.0313 78.6316L39.276 69.388C40.2729 68.4235 41.8594 68.4384 42.8401 69.4178C43.8208 70.3986 43.8345 71.9851 42.8711 72.9819L33.6289 82.2267C25.7 90.1754 25.7 103.043 33.6289 110.991C34.3563 111.719 34.5736 112.811 34.18 113.762C33.7865 114.712 32.8592 115.331 31.8313 115.331Z" fill="#E9686A"/>
<path d="M97.8799 40.6772L138.557 0L148.728 10.1696L108.05 50.8481L97.8799 40.6772Z" fill="#F6BF9B"/>
</svg>
