<svg width="18" height="18" viewBox="0 0 18 18" fill="none" xmlns="http://www.w3.org/2000/svg">
<g clip-path="url(#clip0)">
<path d="M1.12283 1.22521C-0.29167 2.69446 -0.00216989 4.25521 -0.00216989 8.99671C-0.00216989 12.9342 -0.68917 16.8815 2.90633 17.8107C4.02908 18.0995 13.9771 18.0995 15.0983 17.8092C16.5953 17.423 17.8133 16.2087 17.9798 14.0915C18.0031 13.796 18.0031 4.20271 17.9791 3.90121C17.8021 1.64596 16.4138 0.346212 14.5846 0.082962C14.1653 0.022212 14.0813 0.00421204 11.9303 0.00046204C4.30058 0.00421204 2.62808 -0.335538 1.12283 1.22521Z" fill="url(#paint0_linear)"/>
<path d="M8.99641 2.35505C6.27316 2.35505 3.68716 2.1128 2.69941 4.6478C2.29141 5.6948 2.35066 7.05455 2.35066 9.00155C2.35066 10.71 2.29591 12.3158 2.69941 13.3546C3.68491 15.8911 6.29191 15.6481 8.99491 15.6481C11.6027 15.6481 14.2914 15.9196 15.2912 13.3546C15.6999 12.297 15.6399 10.9576 15.6399 9.00155C15.6399 6.40505 15.7832 4.7288 14.5239 3.4703C13.2489 2.1953 11.5247 2.35505 8.99341 2.35505H8.99641ZM8.40091 3.5528C14.0814 3.5438 14.8044 2.9123 14.4054 11.6851C14.2637 14.7878 11.9012 14.4473 8.99716 14.4473C3.70216 14.4473 3.54991 14.2958 3.54991 8.99855C3.54991 3.6398 3.96991 3.5558 8.40091 3.5513V3.5528ZM12.5439 4.65605C12.1037 4.65605 11.7467 5.01305 11.7467 5.4533C11.7467 5.89355 12.1037 6.25055 12.5439 6.25055C12.9842 6.25055 13.3412 5.89355 13.3412 5.4533C13.3412 5.01305 12.9842 4.65605 12.5439 4.65605ZM8.99641 5.5883C7.11166 5.5883 5.58391 7.1168 5.58391 9.00155C5.58391 10.8863 7.11166 12.4141 8.99641 12.4141C10.8812 12.4141 12.4082 10.8863 12.4082 9.00155C12.4082 7.1168 10.8812 5.5883 8.99641 5.5883ZM8.99641 6.78605C11.9252 6.78605 11.9289 11.217 8.99641 11.217C6.06841 11.217 6.06391 6.78605 8.99641 6.78605Z" fill="white"/>
</g>
<defs>
<linearGradient id="paint0_linear" x1="1.15735" y1="16.8508" x2="17.8864" y2="2.37194" gradientUnits="userSpaceOnUse">
<stop stop-color="#FFDD55"/>
<stop offset="0.5" stop-color="#FF543E"/>
<stop offset="1" stop-color="#C837AB"/>
</linearGradient>
<clipPath id="clip0">
<rect width="18" height="18" fill="white"/>
</clipPath>
</defs>
</svg>
