<svg width="67" height="67" viewBox="0 0 67 67" fill="none" xmlns="http://www.w3.org/2000/svg">
<path d="M-3.96405e-06 31.4374L16.2505 31.4374C15.9727 43.2808 12.6136 44.6252 8.39462 45.0089L6.76767 45.2106L6.76767 58.2337L8.64299 58.1332C14.1522 57.8232 20.2431 56.83 24.3068 51.8135C27.8689 47.4159 29.4394 40.2313 29.4394 29.2024L29.4394 8.76566L0 8.76566L-3.96405e-06 31.4374Z" fill="#D7F4FC"/>
<path d="M37.5606 8.76566L37.5606 31.4374L53.5942 31.4374C53.3164 43.2808 50.0659 44.6252 45.8469 45.0089L44.3283 45.2106L44.3283 58.2337L46.0953 58.1332C51.6045 57.8232 57.7499 56.83 61.8136 51.8135C65.3754 47.4159 67 40.2313 67 29.2024L67 8.76566L37.5606 8.76566Z" fill="#D7F4FC"/>
</svg>
