<svg width="25" height="25" viewBox="0 0 25 25" fill="none" xmlns="http://www.w3.org/2000/svg">
<path d="M18.9655 7.92828V17.0408C18.9655 18.2141 18.0142 19.1653 16.8409 19.1653L9.48276 19.196L5.17241 23.9373V19.196H2.12457C0.951293 19.196 0 18.2447 0 17.0714V7.95888C0 6.78561 0.951293 5.83431 2.12457 5.83431L16.8405 5.80371C18.0142 5.80371 18.9655 6.755 18.9655 7.92828Z" fill="#EBBA16"/>
<path d="M9.4837 10.5457H3.88025C3.64189 10.5457 3.44922 10.3526 3.44922 10.1146C3.44922 9.8767 3.64189 9.68359 3.88025 9.68359H9.4837C9.72206 9.68359 9.91474 9.8767 9.91474 10.1146C9.91474 10.3526 9.72206 10.5457 9.4837 10.5457Z" fill="white"/>
<path d="M15.0872 13.1316H3.88025C3.64189 13.1316 3.44922 12.9385 3.44922 12.7006C3.44922 12.4626 3.64189 12.2695 3.88025 12.2695H15.0872C15.3255 12.2695 15.5182 12.4626 15.5182 12.7006C15.5182 12.9385 15.3255 13.1316 15.0872 13.1316Z" fill="white"/>
<path d="M15.0872 15.7175H3.88025C3.64189 15.7175 3.44922 15.5244 3.44922 15.2865C3.44922 15.0486 3.64189 14.8555 3.88025 14.8555H15.0872C15.3255 14.8555 15.5182 15.0486 15.5182 15.2865C15.5182 15.5244 15.3255 15.7175 15.0872 15.7175Z" fill="white"/>
<path d="M22.8761 1.09267L8.16016 1.0625C6.98645 1.0625 6.03516 2.01379 6.03516 3.18707V5.82586L16.8416 5.80345C18.0149 5.80345 18.9662 6.75474 18.9662 7.92845V15.8772L21.9834 19.1961V14.4547H22.8761C24.0494 14.4547 25.0007 13.5035 25.0007 12.3302V3.21767C25.0007 2.04397 24.0494 1.09267 22.8761 1.09267Z" fill="#FC852E"/>
</svg>
