<svg width="59" height="59" viewBox="0 0 59 59" fill="none" xmlns="http://www.w3.org/2000/svg">
<g clip-path="url(#clip0)">
<path d="M29.5 59C45.7924 59 59 45.7924 59 29.5C59 13.2076 45.7924 0 29.5 0C13.2076 0 0 13.2076 0 29.5C0 45.7924 13.2076 59 29.5 59Z" fill="#FABE2C"/>
<path d="M59 29.498C59 27.7676 58.8495 26.0722 58.5637 24.4236L43.7026 9.5625L10.6182 45.8997L22.9954 58.2769C25.0883 58.748 27.2648 58.998 29.5 58.998C45.7924 58.998 59 45.7905 59 29.498Z" fill="#FFB600"/>
<path d="M48.3816 20.625H10.6182V45.9028H48.3816V20.625Z" fill="#32529D"/>
<path d="M48.3809 20.625H29.4502V45.9028H48.3809V20.625Z" fill="#32529D"/>
<path d="M48.3818 45.9003L34.2859 32.7138C31.5927 30.1943 27.4072 30.1943 24.714 32.7138L10.6182 45.9003H48.3818Z" fill="#284486"/>
<path d="M34.2855 32.7168C32.926 31.4449 31.1863 30.8161 29.4502 30.8283V45.9033H48.3815L34.2855 32.7168Z" fill="#284486"/>
<path d="M48.3818 20.6227V20.6224H48.3816L34.7418 7.86252C31.792 5.10312 27.208 5.10312 24.2582 7.86252L10.6183 20.6224H10.6182L10.6183 20.6225L10.6182 20.6227H10.6184L24.2583 33.3826C27.2081 36.142 31.7921 36.142 34.7419 33.3826L48.3818 20.6227Z" fill="#284486"/>
<path d="M48.3814 20.6216H48.3811L34.7413 7.86159C33.2535 6.46978 31.3501 5.78091 29.4502 5.79313V35.4501C31.3501 35.4622 33.2535 34.7734 34.7413 33.3816L48.3814 20.6216L48.3815 20.6217V20.6216H48.3814Z" fill="#3C589A"/>
<path d="M15.2969 9.5625V24.9998L24.2577 33.3825C27.2075 36.142 31.7915 36.142 34.7413 33.3825L43.7021 24.9998V9.5625H15.2969Z" fill="white"/>
<path d="M15.2969 9.5625V24.9998L24.2577 33.3825C25.7197 34.7502 27.5832 35.439 29.4501 35.4509V9.5625H15.2969Z" fill="white"/>
<path d="M29.4502 9.5625V35.4509C31.3501 35.463 33.2535 34.7743 34.7413 33.3825L43.7022 24.9998V9.5625H29.4502Z" fill="white"/>
<path d="M40.8494 19.082H22.2402V21.4733H40.8494V19.082Z" fill="#D2D2D7"/>
<path d="M40.8492 19.082H29.4502V21.4733H40.8492V19.082Z" fill="#C8BEB9"/>
<path d="M40.8494 12.6289H17.0166V15.0201H40.8494V12.6289Z" fill="#FA5D0F"/>
<path d="M40.8492 12.6289H29.4502V15.0201H40.8492V12.6289Z" fill="#D84C0F"/>
<path d="M40.8494 23.8047H22.2402V26.1959H40.8494V23.8047Z" fill="#D2D2D7"/>
<path d="M40.8492 23.8047H29.4502V26.1959H40.8492V23.8047Z" fill="#C8BEB9"/>
<path d="M39.9309 28.5312H22.2402V30.9225H37.3747L39.9309 28.5312Z" fill="#D2D2D7"/>
<path d="M39.9305 28.5312H29.4502V30.9225H37.3743L39.9305 28.5312Z" fill="#C8BEB9"/>
<path d="M20.2815 18.207H17.0166V21.472H20.2815V18.207Z" fill="#FA5D0F"/>
<path d="M20.2815 22.9297H17.0166V26.1946H20.2815V22.9297Z" fill="#FA5D0F"/>
<path d="M20.2809 29.6639V27.6562H18.1348L20.2809 29.6639Z" fill="#FA5D0F"/>
</g>
<defs>
<clipPath id="clip0">
<rect width="59" height="59" fill="white"/>
</clipPath>
</defs>
</svg>
