<svg width="52" height="52" viewBox="0 0 52 52" fill="none" xmlns="http://www.w3.org/2000/svg">
<circle cx="26" cy="26" r="26" fill="#46C5EC"/>
<path fill-rule="evenodd" clip-rule="evenodd" d="M17.3196 40.1901C17.0114 40.195 16.6612 39.7662 16.7794 39.3125C16.8207 39.1541 16.9083 39.0043 16.993 38.8615C22.2624 29.9801 27.5335 21.0994 32.8053 12.2194C32.8723 12.1064 32.9385 11.9894 33.0249 11.8919C33.2586 11.6282 33.6454 11.5784 33.9426 11.7614C34.2214 11.9329 34.3432 12.2864 34.223 12.6109C34.1776 12.7331 34.1092 12.848 34.0424 12.9608C28.7717 21.8416 23.4998 30.7218 18.2305 39.6034C18.0529 39.9026 17.8669 40.1728 17.3196 40.1901Z" fill="white"/>
<path fill-rule="evenodd" clip-rule="evenodd" d="M31.3981 28.0448C30.8495 30.757 28.3927 32.7286 25.6341 32.7734C25.1416 32.7814 24.7941 32.481 24.7891 32.0428C24.7844 31.6427 25.0953 31.3646 25.5791 31.3361C27.9383 31.1968 29.5925 29.7991 30.0685 27.5156C30.1434 27.1563 30.1426 26.7774 30.1453 26.4074C30.1547 25.233 30.1459 24.0585 30.1522 22.8842C30.1532 22.7077 30.167 22.5198 30.2283 22.3573C30.3374 22.0679 30.6979 21.8959 30.9967 21.9519C31.3335 22.0152 31.5707 22.2821 31.581 22.6711C31.5992 23.3537 31.5925 24.037 31.5961 24.72C31.5966 24.804 31.5961 24.8878 31.5961 24.9716C31.6248 24.974 31.6005 27.0445 31.3981 28.0448Z" fill="white"/>
<path fill-rule="evenodd" clip-rule="evenodd" d="M22.8532 15.5176C23.1113 14.3548 24.1498 13.5357 25.3298 13.4743C25.7999 13.4498 26.1237 13.6977 26.1676 14.1156C26.212 14.5359 25.9542 14.8234 25.4661 14.8984C24.5523 15.0387 24.1998 15.4441 24.197 16.3637C24.1949 17.0579 24.1973 17.7523 24.1954 18.4466C24.1951 18.5659 24.1965 18.6876 24.1742 18.8039C24.104 19.1708 23.7994 19.4104 23.4313 19.4005C23.0744 19.391 22.7778 19.1206 22.7605 18.7366C22.7391 18.2589 22.7554 17.7795 22.7554 17.301C22.7305 17.2994 22.7251 16.0949 22.8532 15.5176Z" fill="white"/>
<path fill-rule="evenodd" clip-rule="evenodd" d="M16.7165 26.0978C17.1195 26.0894 17.4321 26.4222 17.4345 26.919C17.4393 27.9141 17.6163 28.8773 18.0044 29.7876C18.2421 30.3453 18.5583 30.8716 18.8625 31.3986C19.1164 31.8382 19.0671 32.2518 18.6913 32.5014C18.3638 32.7191 17.9395 32.6051 17.6702 32.209C16.577 30.6009 16.0197 28.8224 16.0001 26.8778C15.9954 26.4282 16.2998 26.1067 16.7165 26.0978Z" fill="white"/>
<path fill-rule="evenodd" clip-rule="evenodd" d="M20.8755 26.3431C20.8665 25.0765 20.8632 23.81 20.8617 22.5435V22.2395C20.8617 21.8505 20.5388 21.5352 20.1403 21.5352C19.7419 21.5352 19.419 21.8505 19.419 22.2395V22.8473C19.419 22.8732 19.4205 22.8987 19.4233 22.9238C19.4176 24.1461 19.4124 25.3683 19.4427 26.5897C19.4593 27.2635 19.6049 27.9409 19.7542 28.6025C19.8589 29.0656 20.2743 29.2822 20.6484 29.1639C21.0597 29.0339 21.2109 28.657 21.1214 28.1827C21.0068 27.5751 20.8799 26.9574 20.8755 26.3431Z" fill="white"/>
<path fill-rule="evenodd" clip-rule="evenodd" d="M30.1647 12.208C30.0229 12.0308 29.8688 11.8598 29.7004 11.708C27.7685 9.96619 25.5473 9.53534 23.1646 10.5134C20.8215 11.4751 19.583 13.3549 19.4579 15.8714C19.4253 16.5286 19.4147 17.1869 19.4136 17.8458C19.4132 17.8546 19.4121 17.8633 19.4121 17.8721V18.4799C19.4121 18.8689 19.738 19.1843 20.1398 19.1843C20.5418 19.1843 20.8676 18.8689 20.8676 18.4799V17.8721C20.8676 17.8615 20.8663 17.8512 20.8659 17.8406C20.867 17.3413 20.8681 16.8419 20.8695 16.3426C20.8704 15.9376 20.895 15.5245 20.9763 15.1291C21.4897 12.6346 24.0321 10.9965 26.4836 11.5598C27.5238 11.7988 28.3805 12.3296 29.0782 13.1353C29.383 13.4873 29.8195 13.5187 30.1261 13.2443C30.4182 12.9827 30.4406 12.5522 30.1647 12.208Z" fill="white"/>
<path d="M20.1081 21.0638C20.4957 21.0638 20.8099 20.7496 20.8099 20.362C20.8099 19.9744 20.4957 19.6602 20.1081 19.6602C19.7205 19.6602 19.4062 19.9744 19.4062 20.362C19.4062 20.7496 19.7205 21.0638 20.1081 21.0638Z" fill="white"/>
<path fill-rule="evenodd" clip-rule="evenodd" d="M35.0131 26.9117C35.0118 26.7941 35.0002 26.6694 34.9595 26.5607C34.837 26.2346 34.5043 26.05 34.1865 26.1142C33.8049 26.1913 33.5821 26.4714 33.5807 26.9315C33.5771 28.0606 33.3442 29.1316 32.8736 30.1322C32.8681 30.1422 32.862 30.1519 32.857 30.1622L32.7392 30.4046C32.7345 30.4137 32.7301 30.4228 32.7252 30.4319L32.7256 30.4322L32.5973 30.6964C32.4324 31.036 32.5868 31.4513 32.9425 31.6241C33.2978 31.7969 33.7199 31.6615 33.8849 31.3218L33.9847 31.1162C34.6535 29.8235 35.0292 28.3837 35.0131 26.9117Z" fill="white"/>
<path fill-rule="evenodd" clip-rule="evenodd" d="M31.7079 33.1032C31.4448 32.8122 31.0046 32.7817 30.7243 33.035L30.2878 33.4297C28.9643 34.5811 27.7543 34.7856 25.7919 34.8702C25.0136 34.9037 24.2261 34.7202 23.4431 34.634C23.3603 34.6247 23.2804 34.5922 23.1977 34.5822C22.7875 34.5325 22.4577 34.7382 22.3643 35.0972C22.2691 35.464 22.4748 35.8615 22.8741 35.9622C23.4967 36.1192 24.1309 36.2295 24.7659 36.3609C24.7659 37.6518 24.7659 38.9533 24.7659 40.2868C24.6047 40.2868 24.4632 40.2868 24.3219 40.2868C23.0748 40.287 21.8276 40.283 20.5805 40.2895C20.1827 40.2916 19.8895 40.5032 19.8164 40.8215C19.7416 41.1468 19.8378 41.4334 20.121 41.6019C20.2739 41.6929 20.4836 41.7213 20.6679 41.7216C24.2534 41.7283 27.8388 41.7265 31.4242 41.7262C31.508 41.7261 31.5928 41.7283 31.6756 41.7179C32.0016 41.6769 32.2592 41.4223 32.2941 41.112C32.3324 40.7737 32.1463 40.4491 31.8275 40.3466C31.683 40.2999 31.5218 40.2896 31.3682 40.2892C29.7854 40.2853 28.2022 40.2868 26.6194 40.2868C26.4942 40.2867 26.3689 40.2868 26.2375 40.2868C26.2375 38.9352 26.2375 37.6426 26.2375 36.3227C26.6005 36.2689 26.933 36.2259 27.2634 36.1698C28.8809 35.8959 29.9411 35.5855 31.1757 34.5355C31.1966 34.5206 31.2171 34.5047 31.2368 34.4869L31.4628 34.2825C31.4637 34.2817 31.4646 34.281 31.4654 34.2802L31.6771 34.0886C31.9574 33.8353 31.9711 33.3942 31.7079 33.1032Z" fill="white"/>
<path fill-rule="evenodd" clip-rule="evenodd" d="M33.0451 32.4039C33.0451 32.7607 32.756 33.05 32.399 33.05C32.042 33.05 31.7529 32.7607 31.7529 32.4039C31.7529 32.047 32.042 31.7578 32.399 31.7578C32.756 31.7577 33.0451 32.0469 33.0451 32.4039Z" fill="white"/>
</svg>
