<svg width="523" height="348" viewBox="0 0 523 348" fill="none" xmlns="http://www.w3.org/2000/svg">
<path d="M410.953 173.162V157.643H352.853V122.339H313.365V154.898H298.67V135.8H254.416V165.968H163.82V145.004H104.283V171.473H80.4039V239.429H127.769V237.362H147.828V243.635H265.741V222.852H298.67V203.864H313.365V217.203H350.731V228.118H402.13V260.511H442.596V173.162H410.953Z" fill="#D3E3F2"/>
<path d="M265.162 144.328H270.345V149.501H265.162V144.328ZM282.38 144.328V149.501H287.564V144.328H282.38ZM265.162 165.012H270.345V159.838H265.162V165.012ZM282.38 165.012H287.564V159.838H282.38V165.012ZM265.162 180.523H270.345V175.349H265.162V180.523ZM282.38 180.523H287.564V175.349H282.38V180.523Z" fill="#EBF6FF"/>
<path d="M321.971 129.788H327.155V134.961H321.971V129.788ZM339.19 129.788V134.961H344.374V129.788H339.19ZM321.971 150.472H327.155V145.298H321.971V150.472ZM339.19 150.472H344.374V145.298H339.19V150.472ZM321.971 165.983H327.155V160.809H321.971V165.983ZM339.19 165.983H344.374V160.809H339.19V165.983Z" fill="#EBF6FF"/>
<path d="M380.264 165.983H385.448V171.156H380.264V165.983ZM397.483 165.983V171.156H402.666V165.983H397.483ZM380.264 186.666H385.448V181.493H380.264V186.666ZM397.483 186.666H402.666V181.493H397.483V186.666ZM380.264 202.177H385.448V197.003H380.264V202.177ZM397.483 202.177H402.666V197.003H397.483V202.177Z" fill="#EBF6FF"/>
<path d="M413.809 184.08H418.993V189.253H413.809V184.08ZM431.029 184.08V189.253H436.212V184.08H431.029ZM413.809 204.764H418.993V199.59H413.809V204.764ZM431.029 204.764H436.212V199.59H431.029V204.764ZM413.809 220.274H418.993V215.101H413.809V220.274ZM431.029 220.274H436.212V215.101H431.029V220.274Z" fill="#EBF6FF"/>
<path d="M224.287 178.906H229.471V184.079H224.287V178.906ZM241.506 178.906V184.079H246.689V178.906H241.506ZM224.287 199.59H229.471V194.416H224.287V199.59ZM241.506 199.59H246.689V194.416H241.506V199.59ZM224.287 215.101H229.471V209.927H224.287V215.101ZM241.506 215.101H246.689V209.927H241.506V215.101Z" fill="#EBF6FF"/>
<path d="M86.3459 177.801H91.5291V182.974H86.3459V177.801ZM103.564 177.801V182.974H108.748V177.801H103.564ZM86.3459 198.485H91.5291V193.311H86.3459V198.485ZM103.564 198.485H108.748V193.311H103.564V198.485ZM86.3459 213.995H91.5291V208.822H86.3459V213.995ZM103.564 213.995H108.748V208.822H103.564V213.995Z" fill="#EBF6FF"/>
<path d="M338.327 176.135C335.198 176.135 332.277 177.027 329.804 178.568C326.254 173.575 320.42 170.315 313.819 170.315C304.409 170.315 296.551 176.938 294.662 185.768C294.066 185.705 293.461 185.672 292.849 185.672C285.903 185.672 279.929 189.805 277.249 195.739C275.898 195.017 274.359 194.599 272.719 194.599C267.399 194.599 263.086 198.904 263.086 204.213C263.086 204.631 263.122 205.039 263.174 205.441C263.144 205.441 263.116 205.439 263.086 205.439C260.891 205.439 258.779 205.792 256.799 206.436C252.209 199.569 244.379 195.043 235.487 195.043C221.347 195.043 209.885 206.484 209.885 220.596C209.885 234.708 221.348 246.149 235.487 246.149C241.03 246.149 246.157 244.385 250.347 241.397C253.829 244.209 258.259 245.896 263.086 245.896C270.696 245.896 277.323 241.707 280.788 235.516C284.741 238.5 289.575 240.379 294.83 240.704C297.793 248.774 305.558 254.533 314.67 254.533C326.337 254.533 335.795 245.093 335.795 233.449C335.795 224.543 330.259 216.932 322.437 213.842C322.362 211.777 322.04 209.776 321.508 207.861C323.687 206.933 325.66 205.618 327.348 204.009C330.226 206.683 334.084 208.32 338.327 208.32C347.232 208.32 354.451 201.115 354.451 192.227C354.451 183.34 347.233 176.135 338.327 176.135Z" fill="#60C0E1"/>
<path d="M446.352 277.455H76.6474C64.5138 277.455 54.6772 267.638 54.6772 255.527C54.6772 243.416 64.5131 233.598 76.6474 233.598H446.352C458.485 233.598 468.322 243.415 468.322 255.527C468.322 267.638 458.486 277.455 446.352 277.455Z" fill="#D2F3FF"/>
<path d="M257.084 260.511H111.341C107.852 260.511 105.023 257.688 105.023 254.205C105.023 250.722 107.852 247.898 111.341 247.898H257.084C260.573 247.898 263.402 250.722 263.402 254.205C263.402 257.688 260.573 260.511 257.084 260.511Z" fill="#60C0E1"/>
<path d="M414.538 260.511H304.412C300.922 260.511 298.093 257.688 298.093 254.205C298.093 250.722 300.922 247.898 304.412 247.898H414.538C418.028 247.898 420.857 250.722 420.857 254.205C420.856 257.688 418.027 260.511 414.538 260.511Z" fill="#60C0E1"/>
<path d="M116.85 247.899C116.85 247.899 67.0618 222.919 94.7006 180.024C94.7006 180.024 145.052 204.448 116.85 247.899Z" fill="#8FBC75"/>
<path d="M94.7006 180.024C67.0618 222.92 116.85 247.899 116.85 247.899C117.091 247.527 117.313 247.159 117.543 246.79L94.7006 180.024Z" fill="#79A55D"/>
<path d="M118.784 247.747C118.784 247.747 76.3824 262.91 66.6315 222.852C66.6315 222.852 109.022 207.049 118.784 247.747Z" fill="#8FBC75"/>
<path d="M66.6315 222.852C76.3824 262.91 118.784 247.747 118.784 247.747C118.701 247.398 118.609 247.064 118.521 246.723L66.6315 222.852Z" fill="#79A55D"/>
<path d="M390.652 247.975C390.652 247.975 362.18 200.166 408.614 178.878C408.614 178.878 437.862 226.522 390.652 247.975Z" fill="#8FBC75"/>
<path d="M408.614 178.877C362.18 200.165 390.652 247.974 390.652 247.974C391.057 247.791 391.442 247.601 391.835 247.413L408.614 178.877Z" fill="#79A55D"/>
<path d="M397.352 248.805C397.352 248.805 396.652 203.855 437.786 207.568C437.786 207.568 439.095 252.713 397.352 248.805Z" fill="#8FBC75"/>
<path d="M437.786 207.568C396.652 203.855 397.352 248.805 397.352 248.805C397.709 248.839 398.056 248.86 398.407 248.885L437.786 207.568Z" fill="#79A55D"/>
<path d="M221.808 252.648H120.167C118.632 252.648 117.245 252.027 116.239 251.024C115.234 250.021 114.612 248.635 114.612 247.104V76.0881C114.612 74.3418 115.421 72.7835 116.686 71.768C117.638 71.0031 118.849 70.5452 120.167 70.5452H221.808C223.093 70.5452 224.276 70.9809 225.218 71.7124C226.522 72.7271 227.362 74.3098 227.362 76.0881V247.104C227.362 249.401 225.963 251.371 223.97 252.212C223.305 252.493 222.574 252.648 221.808 252.648Z" fill="#3F196B"/>
<path d="M172.81 247.899C175.17 247.899 177.083 245.99 177.083 243.635C177.083 241.28 175.17 239.37 172.81 239.37C170.451 239.37 168.538 241.28 168.538 243.635C168.538 245.99 170.451 247.899 172.81 247.899Z" fill="#562699"/>
<path d="M221.783 80.0873H120.192V235.197H221.783V80.0873Z" fill="#7DD5F4"/>
<path d="M149.4 80.0873H120.192V235.197H149.4V80.0873Z" fill="#60C0E1"/>
<path d="M210.125 201.301V235.197H138.282L137.995 213.469L125.843 171.558C125.401 170.036 125.318 168.453 125.574 166.926C125.814 165.505 126.346 164.132 127.16 162.902L135.368 150.484L210.125 201.301Z" fill="#B23D6A"/>
<path d="M151.805 203.944V235.197H210.125L209.981 204.36L154.402 199.209L151.805 203.944Z" fill="#D34F81"/>
<path d="M210.005 204.36H151.805V209.55H210.005V204.36Z" fill="#B23D6A"/>
<path d="M149.621 200.129L149.493 201.008L134.515 156.118C133.835 154.094 134.25 152.036 135.369 150.484C136.488 148.932 138.311 147.886 140.45 147.886H176.312C176.926 147.886 177.526 147.976 178.095 148.145C179.805 148.652 181.25 149.877 182.011 151.55L203.289 198.303L149.621 200.129Z" fill="#D34F81"/>
<path d="M153.645 147.885H148.309C148.309 147.885 149.715 156.385 155.807 159.673C155.807 159.673 157.448 163.047 155.807 168.032C154.167 173.017 147.018 184.636 153.639 195.898H170.986L169.293 151.774L153.645 147.885Z" fill="#B23D6A"/>
<path d="M209.981 204.36H153.639C152.129 204.36 150.804 203.572 150.053 202.386C149.639 201.733 149.4 200.959 149.4 200.129C149.4 198.792 150.022 197.599 150.994 196.824C151.719 196.245 152.639 195.898 153.639 195.898H209.981C211.666 195.898 213.12 196.879 213.804 198.3C214.071 198.853 214.22 199.474 214.22 200.129C214.22 201.473 213.592 202.67 212.614 203.446C211.891 204.018 210.976 204.36 209.981 204.36Z" fill="#EA639A"/>
<path d="M234.113 243.911L238.322 251.455C238.322 251.455 238.816 252.358 237.982 253.221C236.957 254.283 234.974 253.24 234.113 252.442C233.252 251.645 220.366 242.744 220.304 241.088C220.243 239.43 224.055 233.599 224.055 233.599L228.391 234.827L234.113 243.911Z" fill="#D34F81"/>
<path d="M237.766 253.403C233.764 249.561 228.676 244.658 227.726 243.635C226.119 241.905 227.726 237.362 227.726 237.362C227.726 237.362 227.984 236.375 228.391 234.826V234.826L224.055 233.598C224.055 233.598 220.243 239.429 220.304 241.086C220.366 242.743 233.252 251.643 234.113 252.441C234.917 253.187 236.699 254.145 237.766 253.403Z" fill="#B23D6A"/>
<path d="M231.803 221.692L231.311 234.765L234.113 243.911L224.055 233.599L222.67 221.692H231.803Z" fill="#FFC98F"/>
<path d="M226.407 221.692H222.67L224.055 233.599L227.726 237.363L226.407 221.692Z" fill="#EDA769"/>
<path d="M164.954 176.979L166.387 192.228C166.387 192.228 165.094 196.143 170.987 196.489C176.88 196.834 219.206 195.898 219.206 195.898L216.058 225.819L234.112 224.262L232.379 198.313L216.338 176.979H164.954Z" fill="#33155E"/>
<path d="M255.642 211.99L262.865 217.827C263.434 218.288 263.589 219.133 263.142 219.714C262.83 220.12 262.243 220.393 261.146 220.141C258.512 219.534 241.942 214.698 241.299 212.948C240.312 210.262 242.816 207.601 242.816 207.601L245.565 203.442L255.642 211.99Z" fill="#D34F81"/>
<path d="M263.087 219.776C258.763 218.03 251.021 214.837 249.906 213.933C248.346 212.668 247.368 209.846 247.368 209.846C247.368 209.846 247.854 208.215 248.518 205.947L245.565 203.442L242.817 207.601C242.817 207.601 240.313 210.261 241.3 212.947C241.942 214.698 258.513 219.534 261.146 220.141C262.185 220.38 262.763 220.145 263.087 219.776Z" fill="#B23D6A"/>
<path d="M242.817 195.898C242.817 195.898 247.187 201.711 249.385 204.454C251.584 207.196 255.642 211.99 255.642 211.99L242.817 207.601L235.489 200.835L242.817 195.898Z" fill="#FFC98F"/>
<path d="M239.249 198.302L235.489 200.836L242.817 207.602L248.149 209.427C245.182 205.704 241.737 201.39 239.249 198.302Z" fill="#EDA769"/>
<path d="M159.209 187.075L159.744 192.228C159.744 192.228 163.553 198.552 172.625 195.874C181.696 193.196 214.021 182.102 214.021 182.102L235.058 209.55L247.369 197.405L219.388 169.988C219.388 169.988 216.193 167.225 213.255 168.032C210.316 168.84 198.306 173.704 198.306 173.704L181.696 166.927L162.787 179.424L159.209 187.075Z" fill="#4B1E77"/>
<path d="M235.057 209.55L240.097 204.578L216.059 177.853C216.059 177.853 191.916 184.905 185.364 185.974C178.812 187.043 174.572 182.982 178.932 176.979C183.292 170.976 194.242 173.704 194.242 173.704C194.242 173.704 186.492 170.721 179.94 168.088L162.786 179.424L159.209 187.075L159.744 192.228C159.744 192.228 163.553 198.552 172.625 195.874C181.696 193.196 214.021 182.102 214.021 182.102L235.057 209.55Z" fill="#3F196B"/>
<path d="M184.102 122.193C182.591 120.987 181.172 119.08 181.172 119.08L184.072 115.738C184.072 115.738 191.303 110.509 186.808 103.877C186.808 103.877 187.217 100.539 185.147 97.5856C183.095 94.6596 179.822 93.4409 176.028 94.1605C176.028 94.1605 168.611 89.6686 162.803 99.9972C158.528 107.602 162.433 112.19 159.908 115.737C157.382 119.285 155.066 121.982 155.533 127.117C156.001 132.251 156.199 132.709 154.515 136.442C152.832 140.176 151.673 145.025 155.098 151.134C160.374 160.546 173.827 157.026 173.827 157.026L173.162 146.968C179.297 142.789 188.457 141.434 188.457 141.434C188.457 141.434 190.303 133.908 187.694 131.507C185.083 129.109 187.409 124.835 184.102 122.193Z" fill="#4B1E77"/>
<path d="M175.97 137.228C175.97 137.228 182.061 133.492 183.178 131.126C184.295 128.759 183.263 125.825 180.481 123.301C177.699 120.778 180.481 117.076 180.481 117.076L175.929 119.431C175.929 119.431 170.535 131.378 167.741 128.35C164.948 125.322 169.607 121.778 167.415 120.348C165.223 118.918 163.304 122.144 161.9 120.287C160.583 118.544 163.615 115.578 161.774 108.915C160.808 105.42 161.465 102.997 161.701 102.328C159.291 108.567 162.163 112.569 159.907 115.738C157.381 119.285 155.065 121.983 155.532 127.117C156 132.251 156.198 132.709 154.514 136.442C152.831 140.176 151.672 145.026 155.097 151.135C160.373 160.547 173.826 157.027 173.826 157.027L173.161 146.969C173.959 146.425 174.81 145.93 175.683 145.479L175.97 137.228Z" fill="#3F196B"/>
<path d="M171.9 127.118L168.699 138.978L176.273 166.549L179.832 173.704L189.166 172.34C189.166 172.34 184.25 133.171 184.169 133.412C184.089 133.654 179.611 128.229 179.611 128.229L171.9 127.118Z" fill="#F97A53"/>
<path d="M178.423 170.869L179.833 173.704L189.166 172.339C189.166 172.339 184.251 133.171 184.17 133.411C184.118 133.565 182.283 131.42 180.957 129.842V131.509C180.957 131.509 184.317 142.12 184.758 148.645C185.365 157.643 181.696 166.927 181.696 166.927L178.423 170.869Z" fill="#E55D3E"/>
<path d="M181.87 103.674C180.323 103.78 178.79 103.674 177.716 102.28C176.816 101.112 173.899 101.12 173.899 101.12C174.647 103.123 173.295 104.789 172.423 105.604C172.224 106.937 172.77 108.364 172.77 109.394C172.77 110.675 171.923 111.649 172.308 112.751C172.308 112.751 171.126 111.726 171.28 110.727C171.385 110.047 171.554 109.298 171.421 108.638C170.244 107.321 168.054 108.291 168.186 110.253C168.331 112.428 171.091 114.071 171.091 114.071C171.091 114.071 172.062 120.489 169.977 127.118L168.186 128.084C168.186 128.084 173.318 130.404 175.69 130.356C178.063 130.307 179.612 128.23 179.612 128.23L178.256 127.553V122.673C178.256 122.673 182.807 122.395 184.067 119.194C185.049 116.694 185.306 111.065 185.365 107.477C183.444 107.309 184.484 103.495 181.87 103.674Z" fill="#FFC98F"/>
<path d="M195.767 169.015L200.98 171.066C200.98 171.066 206.544 166.113 207.998 166.113C209.452 166.113 215.165 165.462 216.067 166.913C216.97 168.365 215.466 172.266 213.912 173.267C212.358 174.267 209.551 173.617 207.847 174.517C206.143 175.417 201.882 177.119 200.93 176.969C199.978 176.818 193.913 174.718 193.913 174.718L195.767 169.015Z" fill="#FFC98F"/>
<path d="M213.911 173.267C214.398 172.954 214.88 172.355 215.284 171.638C213.297 172.144 210.233 171.865 209.196 171.659C207.86 171.394 202.669 174.279 201.882 174.515C201.095 174.75 195.533 172.785 195.533 172.785L194.731 172.202L193.913 174.718C193.913 174.718 199.978 176.819 200.93 176.969C201.883 177.119 206.143 175.418 207.847 174.518C209.551 173.617 212.357 174.268 213.911 173.267Z" fill="#EDA769"/>
<path d="M216.059 135.149L220.225 129.671C220.225 129.671 223.135 126.7 225.186 125.643C227.236 124.588 228.943 123.724 229.472 124.582C230.001 125.44 228.823 126.7 227.368 127.69C227.368 127.69 230.344 127.294 232.064 126.238C233.784 125.182 234.908 123.333 236.164 124.324C237.421 125.314 239.203 130.916 231.419 134.024C229.139 134.934 223.797 134.357 223.797 134.357L220.357 138.978L216.059 135.149Z" fill="#FFC98F"/>
<path d="M237.208 126.504C236.159 128.188 233.859 131.334 230.937 132.077C226.898 133.105 223.73 131.919 223.73 131.919L219.935 136.697L220.153 138.795L220.358 138.977L223.797 134.357C223.797 134.357 229.141 134.934 231.42 134.023C236.676 131.925 237.568 128.69 237.208 126.504Z" fill="#EDA769"/>
<path d="M215.313 133.073L204.017 148.805L185.381 131.106C185.381 131.106 182.577 128.063 178.256 127.552C178.256 127.552 184.838 135.039 186.02 146.97C186.744 154.272 186.581 160.52 186.346 164.273L179.639 161.534C179.038 149.546 176.941 132.298 169.976 127.117L168.186 128.083C168.186 128.083 162.365 131.418 161.329 134.434C160.346 137.294 160.609 144.1 162.55 148.693H162.548C162.548 148.693 164.7 154.859 164.179 161.239C163.656 167.619 157.525 175.691 157.395 181.42C157.264 187.149 159.743 192.227 159.743 192.227C159.743 192.227 167.831 176.533 179.832 173.703C179.832 173.703 179.86 172.809 179.866 171.27C186.376 173.585 194.234 176.242 194.234 176.242L197.084 168.656L190.147 165.823C189.8 163.408 189.51 160.546 189.567 157.982C189.698 152.082 189.304 149.453 189.304 149.453L200.076 157.457C200.076 157.457 204.542 161.26 208.351 157.196C212.161 153.131 222.67 138.84 222.67 138.84L215.313 133.073Z" fill="#FAFFFF"/>
<path d="M195.533 172.784L174.987 165.968C174.987 165.968 164.797 140.172 163.063 137.304C162.167 135.823 162.198 134.022 162.437 132.623C161.934 133.22 161.536 133.834 161.329 134.435C160.346 137.295 160.609 144.101 162.55 148.694H162.548C162.548 148.694 164.7 154.859 164.179 161.24C163.656 167.62 157.525 175.692 157.395 181.421C157.264 187.15 159.743 192.228 159.743 192.228C159.743 192.228 162.923 186.06 168.252 180.76C165.788 172.668 167.49 159.122 167.49 159.122C167.49 159.122 169.64 167.599 170.986 168.031C172.916 168.651 179.866 171.271 179.866 171.271C186.376 173.586 194.234 176.243 194.234 176.243L195.533 172.784Z" fill="#D3E9EF"/>
<path d="M219.935 136.697C215.523 143.145 207.037 154.979 204.207 154.979C200.316 154.979 189.09 143.329 189.09 143.329L189.305 149.455L200.077 157.459C200.077 157.459 204.543 161.261 208.352 157.197C212.161 153.133 222.67 138.842 222.67 138.842L219.935 136.697Z" fill="#D3E9EF"/>
<path d="M178.256 127.552V122.672C178.256 122.672 180.09 122.557 181.752 121.656C179.631 122.044 176.86 122.366 175.042 118.802C173.872 116.508 173.374 109.503 173.167 104.787C172.917 105.112 172.653 105.389 172.423 105.605C172.224 106.938 172.77 108.364 172.77 109.394C172.77 110.676 171.923 111.65 172.308 112.752C172.308 112.752 171.126 111.727 171.28 110.727C171.385 110.047 171.554 109.299 171.421 108.639C170.244 107.322 168.054 108.292 168.186 110.254C168.331 112.428 171.091 114.072 171.091 114.072C171.091 114.072 172.062 120.49 169.977 127.119L168.186 128.085C168.186 128.085 173.318 130.405 175.69 130.357C178.063 130.308 179.612 128.23 179.612 128.23L178.256 127.552Z" fill="#EDA769"/>
<path d="M401.071 203.944V252.648H344.541L344.686 204.36L398.473 199.209L401.071 203.944Z" fill="#378BBF"/>
<path d="M344.686 204.36H399.237C400.747 204.36 402.073 203.572 402.824 202.386C403.237 201.733 403.477 200.959 403.477 200.129C403.477 198.791 402.854 197.599 401.884 196.824C401.159 196.245 400.239 195.898 399.238 195.898H344.686C343.002 195.898 341.547 196.879 340.864 198.3C340.597 198.853 340.447 199.474 340.447 200.129C340.447 201.473 341.075 202.67 342.054 203.446C342.776 204.018 343.691 204.36 344.686 204.36Z" fill="#59A8E2"/>
<path d="M391.465 203.944V252.648H334.935L335.08 204.36L388.868 199.209L391.465 203.944Z" fill="#59A8E2"/>
<path d="M391.465 204.36H329.516V209.55H391.465V204.36Z" fill="#3693C1"/>
<path d="M335.08 204.36H389.631C391.141 204.36 392.466 203.572 393.218 202.386C393.631 201.733 393.871 200.959 393.871 200.129C393.871 198.791 393.248 197.599 392.278 196.824C391.553 196.245 390.633 195.898 389.631 195.898H335.08C333.396 195.898 331.94 196.879 331.257 198.3C330.991 198.853 330.841 199.474 330.841 200.129C330.841 201.473 331.468 202.67 332.447 203.446C333.17 204.018 334.085 204.36 335.08 204.36Z" fill="#71B5FF"/>
<path d="M354.713 118.058C354.713 118.058 349.518 115.184 351.363 108.507C351.363 108.507 349.077 102.51 352.01 98.7416C356.807 92.575 365.157 93.4039 369.311 96.0286C372.868 98.2773 373.87 101.485 373.87 101.485C373.87 101.485 376.94 103.039 377.268 109.634C377.658 117.447 369.656 122.39 372.644 126.863C372.644 126.863 369.442 129.207 365.885 124.165L354.713 118.058Z" fill="#4B1E77"/>
<path d="M365.884 124.164C369.442 129.206 372.644 126.863 372.644 126.863C370.762 124.044 373.24 121.039 375.236 117.248C375.212 117.275 372.79 120.108 371.32 118.352C369.843 116.588 373.019 112.176 371.32 108.758C369.621 105.339 370.477 103.354 370.477 103.354C370.477 103.354 358.875 102.251 358.212 97.6196C358.028 96.3376 358.235 95.2936 358.631 94.4493C356.194 95.0535 353.843 96.3856 352.01 98.7416C349.078 102.511 351.364 108.507 351.364 108.507C349.519 115.184 354.714 118.058 354.714 118.058L365.884 124.164Z" fill="#3F196B"/>
<path d="M319.946 240.781L308.016 247.96C308.016 247.96 306.154 248.554 306.239 250.283C306.323 252.013 309.2 252.351 315.546 252.013C321.893 251.675 329.516 248.897 329.516 248.897L326.987 243.652L323.922 239.43L319.354 240.781" fill="#F97A53"/>
<path d="M324.523 242.648C324.523 242.648 323.987 241.503 323.124 239.666L319.353 240.781H319.946L308.016 247.96C308.016 247.96 306.154 248.553 306.239 250.283C306.288 251.306 307.325 251.839 309.467 252.038L324.523 242.648Z" fill="#E55D3E"/>
<path d="M319.353 230.947L319.945 240.781L326.987 243.653L328.492 229.212L319.353 230.947Z" fill="#FFC98F"/>
<path d="M325.572 229.766L319.353 230.947L319.946 240.781L324.524 242.648L325.572 229.766Z" fill="#EDA769"/>
<path d="M327.79 231.616L328.559 245.039L321.937 248.781L335.499 246.871L337.094 230.947L327.79 231.616Z" fill="#FFC98F"/>
<path d="M333.132 247.204L333.811 231.183L327.79 231.616L328.559 245.039L321.937 248.781L333.132 247.204Z" fill="#EDA769"/>
<path d="M368.305 172.647L362.421 179.812L323.286 188.173C323.286 188.173 315.849 190.517 314.935 196.509C314.021 202.499 315.588 232.846 315.588 232.846L330.463 232.585L340.772 195.076L382.137 188.927L380.049 172.647H368.305Z" fill="#33155E"/>
<path d="M349.993 187.909L331.754 191.847C331.754 191.847 324.503 194.494 324.736 203.899C325.031 215.839 324.736 234.313 324.736 234.313L339.543 233.972L339.75 205.179L380.231 200.177C380.231 200.177 389.77 199.957 388.799 186.707C388.733 185.817 380.256 168.287 380.256 168.287L361.797 187.874L349.993 187.909Z" fill="#4B1E77"/>
<path d="M380.255 168.287L361.796 187.874L349.992 187.909L331.753 191.847C331.753 191.847 324.503 194.494 324.735 203.899C325.03 215.839 324.735 234.313 324.735 234.313L335.841 234.057L334.829 201.301C334.829 201.301 367.808 196.353 375.236 193.981C382.663 191.61 384.24 183.432 384.24 183.432V177.744L384.636 177.445C382.464 172.855 380.255 168.287 380.255 168.287Z" fill="#3F196B"/>
<path d="M360.27 129.665C360.27 129.665 352.874 134.303 351.869 140.446C350.865 146.589 348.98 153.725 348.98 153.725L350.114 154.56L352.839 160.129L356.768 163.138L359.114 161.118C359.114 161.118 362.168 174.17 362.419 179.812C362.419 179.812 377.744 177.68 382.266 179.812C386.788 181.943 388.797 186.707 388.797 186.707C388.797 186.707 389.694 179.184 389.097 173.852C387.937 163.495 385.945 149.064 385.945 149.064C385.945 149.064 384.947 138.507 379.556 132.104C376.756 128.777 371.319 127.406 371.319 127.406L360.27 129.665Z" fill="#D34F81"/>
<path d="M384.949 153.725C384.949 153.725 382.354 142.257 379.443 137.107C376.532 131.957 370.181 131.429 370.181 131.429L362.875 135.03L365.465 128.604L360.27 129.666C360.27 129.666 352.874 134.304 351.869 140.447C350.865 146.59 348.98 153.726 348.98 153.726L350.114 154.561L352.839 160.13L356.768 163.138L359.114 161.119C359.114 161.119 362.168 174.171 362.419 179.812C362.419 179.812 377.744 177.681 382.266 179.812C383.088 180.2 383.824 180.675 384.483 181.192C384.294 174.351 382.137 166.821 382.137 166.821L381.031 164.312L382.963 153.726H384.949V153.725Z" fill="#B23D6A"/>
<path d="M352.84 108.569C352.84 108.569 353.589 119.605 355.202 121.905C356.815 124.205 360.04 124.664 360.04 124.664C360.04 124.664 362.044 126.83 360.27 129.665L361.797 135.799C361.797 135.799 369.593 130.396 371.32 127.406C371.32 127.406 370.176 127.884 369.773 125.182C369.37 122.48 369.485 115.525 369.485 115.525C369.485 115.525 368.679 117.077 367.009 117.537C367.009 117.537 367.642 116.618 367.815 114.95C367.815 114.95 369.543 114.031 370.234 112.536C370.925 111.041 370.522 108.971 369.313 108.569C368.103 108.167 367.297 110.351 367.297 110.351C367.297 110.351 366.573 108.163 367.437 105.979C367.437 105.979 357.447 105.407 354.971 102.073C354.972 102.073 353.301 105.867 352.84 108.569Z" fill="#FFC98F"/>
<path d="M373.156 155.203L382.963 153.725L384.855 164.299C384.855 164.299 385.52 168.282 383.302 170.422C381.085 172.561 362.902 190.193 362.902 190.193C362.902 190.193 359.797 191.816 358.171 191.964C356.545 192.111 355.436 191.964 353.515 191.964C351.593 191.964 347.454 194.251 346.493 193.956C345.532 193.661 344.571 193.217 344.719 190.783C344.867 188.349 346.641 185.767 348.858 185.028C351.076 184.29 355.067 184.586 358.763 185.545L376.133 165.921L373.156 155.203Z" fill="#FFC98F"/>
<path d="M378.347 154.42L373.156 155.202L376.134 165.922L358.763 185.545C355.067 184.586 351.077 184.291 348.859 185.029C346.642 185.767 344.868 188.349 344.72 190.784C344.573 193.206 345.523 193.656 346.48 193.952C347.877 192.135 349.87 189.842 351.604 188.977C354.65 187.457 360.664 187.879 360.664 187.879L381.305 165.414L378.347 154.42Z" fill="#EDA769"/>
<path d="M350.115 154.56L349.45 159.282L337.55 143.642C337.55 143.642 334.742 140.838 333.115 138.773C331.489 136.707 330.535 134.274 329.621 134.578C328.243 135.036 328.521 136.69 330.073 139.494C330.073 139.494 325.748 137.694 324.763 135.25C323.818 132.906 320.919 132.871 320.476 134.863C320.032 136.855 321.197 143.034 324.449 144.879C327.701 146.723 332.45 147.257 332.45 147.257L347.466 170.981C348.564 172.538 350.825 174.953 353.701 173.653C357.255 172.046 358.373 163.87 359.115 161.119L350.115 154.56Z" fill="#FFC98F"/>
<path d="M328.559 245.039L314.983 251.664C314.983 251.664 313.913 252.464 313.824 253.888C313.734 255.311 315.428 255.311 317.478 255.488C319.527 255.667 336.284 255.222 336.64 254.332C336.997 253.443 335.498 246.87 335.498 246.87L328.559 245.039Z" fill="#F97A53"/>
<path d="M333.173 246.257L328.559 245.039L314.983 251.664C314.983 251.664 313.913 252.464 313.824 253.888C313.754 254.997 314.77 255.241 316.192 255.38L333.173 246.257Z" fill="#E55D3E"/>
<path d="M367.273 124.308L368.488 122.543C368.488 122.543 366.499 123.756 363.898 123.756C361.298 123.756 358.212 121.992 356.798 115.926C356.065 112.784 356.455 107.778 357 103.65C356.142 103.209 355.428 102.689 354.971 102.074C354.971 102.074 353.3 105.868 352.839 108.57C352.839 108.57 353.588 119.606 355.201 121.906C356.814 124.205 360.039 124.665 360.039 124.665C360.039 124.665 362.044 126.831 360.27 129.666L361.796 135.8C361.796 135.8 365.032 133.556 367.796 131.161C366.797 128.428 367.273 124.308 367.273 124.308Z" fill="#EDA769"/>
<path d="M324.448 144.878C327.701 146.722 332.449 147.256 332.449 147.256L347.465 170.98C347.953 171.672 348.672 172.532 349.572 173.162C351.247 172.35 353.019 170.897 353.888 168.288C354.466 166.551 355.34 163.072 356.27 159.047L350.114 154.561L349.449 159.282L337.549 143.643C337.549 143.643 334.741 140.839 333.115 138.773C331.489 136.708 330.534 134.274 329.62 134.579C328.242 135.037 328.521 136.691 330.072 139.494C330.072 139.494 325.747 137.695 324.762 135.251C323.817 132.907 320.918 132.872 320.475 134.864C320.031 136.854 321.196 143.034 324.448 144.878Z" fill="#EDA769"/>
<path d="M345.508 113.167C345.442 113.167 345.377 113.149 345.318 113.11L333.58 105.456C332.318 105.78 331.055 105.944 329.821 105.944H307.985C299.639 105.944 292.849 99.1674 292.849 90.837C292.849 82.5066 299.639 75.7303 307.985 75.7303H329.821C338.166 75.7303 344.956 82.5073 344.956 90.837C344.956 95.2044 343.072 99.3317 339.777 102.207L345.81 112.645C345.891 112.785 345.865 112.961 345.748 113.071C345.681 113.135 345.595 113.167 345.508 113.167ZM333.641 104.733C333.709 104.733 333.774 104.753 333.832 104.79L344.477 111.732L339.029 102.306C338.944 102.16 338.976 101.974 339.106 101.866C342.38 99.1166 344.259 95.0972 344.259 90.8384C344.259 82.8922 337.782 76.4277 329.821 76.4277H307.985C300.023 76.4277 293.547 82.8922 293.547 90.8384C293.547 98.7846 300.023 105.25 307.985 105.25H329.821C331.043 105.25 332.298 105.08 333.551 104.746C333.581 104.737 333.611 104.733 333.641 104.733Z" fill="#4B1E77"/>
<path d="M308.666 90.6345C308.666 91.6986 307.802 92.5624 306.734 92.5624C305.668 92.5624 304.802 91.6993 304.802 90.6345C304.802 89.5696 305.667 88.7065 306.734 88.7065C307.802 88.7065 308.666 89.5696 308.666 90.6345ZM319.353 88.7065C318.287 88.7065 317.421 89.5696 317.421 90.6345C317.421 91.6986 318.286 92.5624 319.353 92.5624C320.42 92.5624 321.285 91.6993 321.285 90.6345C321.285 89.5696 320.42 88.7065 319.353 88.7065ZM331.972 88.7065C330.906 88.7065 330.04 89.5696 330.04 90.6345C330.04 91.6986 330.905 92.5624 331.972 92.5624C333.039 92.5624 333.904 91.6993 333.904 90.6345C333.904 89.5696 333.039 88.7065 331.972 88.7065Z" fill="#4B1E77"/>
</svg>
