<svg width="33" height="33" viewBox="0 0 33 33" fill="none" xmlns="http://www.w3.org/2000/svg">
<path d="M16.5 33C7.40154 33 0 25.5985 0 16.5C0 7.40154 7.40154 0 16.5 0C25.5985 0 33 7.40154 33 16.5C33 25.5985 25.5985 33 16.5 33ZM16.5 2.0625C8.53878 2.0625 2.0625 8.53878 2.0625 16.5C2.0625 24.4612 8.53878 30.9375 16.5 30.9375C24.4612 30.9375 30.9375 24.4612 30.9375 16.5C30.9375 8.53878 24.4612 2.0625 16.5 2.0625Z" fill="white"/>
<path d="M15.0762 19.2383C15.0762 18.459 15.1729 17.8379 15.3662 17.375C15.5596 16.9121 15.9404 16.4053 16.5088 15.8545C17.083 15.2979 17.4463 14.9023 17.5986 14.668C17.833 14.3105 17.9502 13.9238 17.9502 13.5078C17.9502 12.957 17.8125 12.5381 17.5371 12.251C17.2676 11.958 16.8691 11.8115 16.3418 11.8115C15.8379 11.8115 15.4307 11.9551 15.1201 12.2422C14.8154 12.5234 14.6631 12.9072 14.6631 13.3936H12.5273C12.5391 12.3564 12.8906 11.5361 13.582 10.9326C14.2793 10.3291 15.1992 10.0273 16.3418 10.0273C17.5195 10.0273 18.4365 10.3262 19.0928 10.9238C19.7549 11.5215 20.0859 12.3564 20.0859 13.4287C20.0859 14.3838 19.6406 15.3242 18.75 16.25L17.6689 17.3135C17.2822 17.7529 17.083 18.3945 17.0713 19.2383H15.0762ZM14.9268 21.9717C14.9268 21.626 15.0352 21.3477 15.252 21.1367C15.4688 20.9199 15.7617 20.8115 16.1309 20.8115C16.5059 20.8115 16.8018 20.9229 17.0186 21.1455C17.2354 21.3623 17.3438 21.6377 17.3438 21.9717C17.3438 22.2939 17.2383 22.5635 17.0273 22.7803C16.8164 22.9971 16.5176 23.1055 16.1309 23.1055C15.7441 23.1055 15.4453 22.9971 15.2344 22.7803C15.0293 22.5635 14.9268 22.2939 14.9268 21.9717Z" fill="white"/>
</svg>
