<svg width="136" height="136" viewBox="0 0 136 136" fill="none" xmlns="http://www.w3.org/2000/svg">
<g clip-path="url(#clip0)">
<path d="M111.041 83.0202V26.7282C111.041 19.0989 104.856 12.9141 97.227 12.9141H13.8141C6.18481 12.9141 0 19.0989 0 26.7282V83.0202C0 90.6495 6.18481 96.8343 13.8141 96.8343H15.121C16.316 96.8343 17.2199 97.9156 17.0082 99.0918L16.3681 102.646C16.3681 102.645 16.3681 102.645 16.3683 102.645H30.6648L33.9875 99.4908C35.7842 97.7852 38.1671 96.8343 40.6443 96.8343H41.5985H97.227C104.856 96.8343 111.041 90.6495 111.041 83.0202Z" fill="#E28086"/>
<path d="M112.822 12.9141H95.5C103.129 12.9141 109.314 19.0989 109.314 26.7282V83.0202C109.314 90.6495 103.129 96.8343 95.5 96.8343H112.822C120.452 96.8343 126.637 90.6495 126.637 83.0202V26.7282C126.637 19.0989 120.452 12.9141 112.822 12.9141Z" fill="#DD636E"/>
<path d="M21.1928 98.066L16.3675 102.646L13.6039 117.992C13.3479 119.413 15.0564 120.335 16.1037 119.341L38.5153 98.066C39.3472 97.2763 40.4507 96.8359 41.5979 96.8359H24.2757C23.1285 96.8359 22.025 97.2763 21.1928 98.066Z" fill="#DD636E"/>
<path d="M109.889 36.2216H16.7475C15.6141 36.2216 14.6953 35.3028 14.6953 34.1694C14.6953 33.036 15.6141 32.1172 16.7475 32.1172H109.889C111.022 32.1172 111.941 33.036 111.941 34.1694C111.941 35.3028 111.023 36.2216 109.889 36.2216Z" fill="#F0F7FF"/>
<path d="M109.889 54.5771H16.7475C15.6141 54.5771 14.6953 53.6583 14.6953 52.5249C14.6953 51.3915 15.6141 50.4727 16.7475 50.4727H109.889C111.022 50.4727 111.941 51.3915 111.941 52.5249C111.941 53.6583 111.023 54.5771 109.889 54.5771Z" fill="#F0F7FF"/>
<path d="M62.5099 72.9326H16.7475C15.6141 72.9326 14.6953 72.0138 14.6953 70.8803C14.6953 69.7469 15.6141 68.8281 16.7475 68.8281H62.5099C63.6434 68.8281 64.5622 69.7469 64.5622 70.8803C64.5622 72.0138 63.6434 72.9326 62.5099 72.9326Z" fill="#F0F7FF"/>
<path d="M117.487 117.566L117.93 116.457L113.297 105.962C112.9 105.062 112.875 104.044 113.219 103.121C114.306 100.204 114.877 97.0341 114.818 93.7236C114.628 83.0033 107.755 73.8546 98.2291 70.2461C87.7367 73.3961 80.109 83.1682 80.203 94.708C80.3164 108.613 91.7978 119.913 105.703 119.814C109.151 119.79 112.435 119.075 115.424 117.803C116.078 117.525 116.794 117.448 117.487 117.566Z" fill="#FFE07D"/>
<path d="M135.867 120.956L129.329 106.146C128.936 105.255 128.911 104.248 129.251 103.335C130.327 100.449 130.892 97.3131 130.834 94.038C130.591 80.379 119.388 69.2897 105.727 69.1805C102.685 69.1561 99.7654 69.6701 97.0576 70.63C106.732 74.0699 113.759 83.2517 113.95 94.0377C114.008 97.3129 113.443 100.448 112.367 103.335C112.027 104.247 112.052 105.255 112.445 106.145L117.487 117.566C117.673 117.598 117.858 117.641 118.039 117.701L134.004 123.005C135.251 123.419 136.398 122.158 135.867 120.956Z" fill="#FFD064"/>
<path d="M105.616 104.098C104.483 104.098 103.564 103.18 103.564 102.046V94.2724C103.564 93.139 104.483 92.2202 105.616 92.2202C107.106 92.2202 108.492 91.6244 109.519 90.5423C110.546 89.4612 111.068 88.043 110.991 86.5491C110.846 83.7505 108.534 81.5139 105.729 81.4574C103.004 81.4 100.662 83.3919 100.286 86.0851C100.252 86.3324 100.234 86.5858 100.234 86.8384C100.234 87.9718 99.3155 88.8906 98.1821 88.8906C97.0487 88.8906 96.1299 87.9718 96.1299 86.8384C96.1299 86.3975 96.1607 85.9533 96.2213 85.5185C96.8845 80.767 101.005 77.2517 105.811 77.3537C110.758 77.4533 114.834 81.3992 115.09 86.3364C115.227 88.9655 114.306 91.4629 112.496 93.3685C111.191 94.7437 109.498 95.6893 107.669 96.0978V102.046C107.669 103.18 106.75 104.098 105.616 104.098Z" fill="#E28086"/>
<path d="M105.616 111.134C106.747 111.134 107.664 110.218 107.664 109.087C107.664 107.956 106.747 107.039 105.616 107.039C104.485 107.039 103.568 107.956 103.568 109.087C103.568 110.218 104.485 111.134 105.616 111.134Z" fill="#E28086"/>
</g>
<defs>
<clipPath id="clip0">
<rect width="136" height="136" fill="white"/>
</clipPath>
</defs>
</svg>
