<svg width="18" height="18" viewBox="0 0 18 18" fill="none" xmlns="http://www.w3.org/2000/svg">
<g clip-path="url(#clip0)">
<path d="M15.1172 11.6719C15.3114 11.6719 15.4688 11.5145 15.4688 11.3203C15.4688 11.1261 15.3114 10.9688 15.1172 10.9688C14.923 10.9688 14.7656 11.1261 14.7656 11.3203C14.7656 11.5145 14.923 11.6719 15.1172 11.6719Z" fill="white"/>
<path d="M16.4176 12.3363C16.3072 12.1766 16.0883 12.1365 15.9285 12.2468C15.7687 12.3572 15.7287 12.5761 15.839 12.7359C16.4424 13.6095 16.8656 14.5812 17.0952 15.6064C16.2435 14.6842 14.8321 13.9 13.0399 13.403C12.5734 11.6206 11.8591 10.2337 11.0092 9.3841C11.9688 9.62158 12.8787 10.0301 13.7015 10.5985C13.8613 10.7088 14.0803 10.6687 14.1906 10.509C14.3009 10.3492 14.2609 10.1303 14.1011 10.0199C12.6981 9.05085 11.0627 8.50952 9.35154 8.44427V5.97655H12.8672V7.73436C12.8672 7.92853 13.0246 8.08592 13.2187 8.08592H17.6484C17.7906 8.08592 17.9188 8.00025 17.9732 7.8689C18.0276 7.73756 17.9975 7.58632 17.897 7.48577L16.0362 5.62499L17.897 3.76421C17.9975 3.66366 18.0277 3.51245 17.9732 3.38108C17.9188 3.2497 17.7906 3.16406 17.6484 3.16406H13.5703V1.40625C13.5703 1.21208 13.4129 1.05469 13.2187 1.05469H9.35154V0.351562C9.35154 0.157394 9.19411 0 8.99998 0C8.80585 0 8.64842 0.157394 8.64842 0.351562V8.44487C3.83941 8.62838 0 12.5788 0 17.4375V17.6484C0 17.8426 0.157429 18 0.351562 18H17.6484C17.8425 18 18 17.8426 18 17.6484V17.4375C18 15.5991 17.4528 13.8352 16.4176 12.3363ZM17.2601 17.2968H13.5663C13.5449 16.2429 13.4279 15.1849 13.2232 14.1896C15.4676 14.8877 17.008 16.0754 17.2601 17.2968ZM9.35154 9.18037C10.8396 9.51365 11.8259 11.7369 12.2567 13.21C11.3191 13.0066 10.3457 12.8931 9.35154 12.8715V9.18037ZM8.64842 9.18037V12.8715C7.65427 12.8931 6.6808 13.0066 5.74329 13.21C6.17279 11.7413 7.15889 9.51397 8.64842 9.18037ZM5.54244 13.9775C6.53775 13.734 7.58009 13.5991 8.64842 13.5748V17.2968H5.13695C5.16086 16.1638 5.29944 15.0273 5.54244 13.9775ZM4.43369 17.2968H0.739827C0.992002 16.0754 2.53233 14.8877 4.77677 14.1896C4.5721 15.1849 4.45506 16.2429 4.43369 17.2968ZM9.35154 13.5748C10.4199 13.5991 11.4622 13.734 12.4575 13.9775C12.7006 15.0273 12.8391 16.1639 12.863 17.2969H9.35154V13.5748ZM15.2904 5.3764C15.1532 5.51368 15.1532 5.73629 15.2904 5.87361L16.7996 7.3828H13.5703V3.86718H16.7996L15.2904 5.3764ZM12.8672 1.75781V5.27343H9.35154V1.75781H12.8672ZM6.99035 9.38445C6.14066 10.234 5.4265 11.6208 4.96004 13.4029C3.16845 13.8998 1.75728 14.6837 0.905518 15.6055C1.59043 12.5518 3.97311 10.1316 6.99035 9.38445Z" fill="white"/>
</g>
<defs>
<clipPath id="clip0">
<rect width="18" height="18" fill="white"/>
</clipPath>
</defs>
</svg>
