<svg width="177" height="117" viewBox="0 0 177 117" fill="none" xmlns="http://www.w3.org/2000/svg">
<g opacity="0.03" clip-path="url(#clip0)">
<path d="M46.1652 60.0792C53.4237 54.3129 54.6334 43.7541 48.8671 36.4955C43.1007 29.237 32.542 28.0272 25.2834 33.7935C18.0249 39.5599 16.8152 50.1186 22.5815 57.3772C28.3478 64.6358 38.9066 65.8455 46.1652 60.0792Z" fill="#2F80ED"/>
<path d="M59.6421 77.0456C41.1846 91.7085 23.3309 102.347 7.97538 107.799C-1.97415 111.347 -11.4527 113.069 -19.4152 112.776C-27.8529 112.476 -34.2463 109.911 -37.8444 105.381C-44.7495 96.6893 -41.9792 80.6099 -30.3919 62.3516C-20.9204 47.3969 -5.86795 31.2968 11.9874 17.1122C29.5286 3.17719 48.318 -7.73524 64.9072 -13.569C74.6057 -17.0033 83.7238 -18.6954 91.2743 -18.5443C99.5086 -18.3386 105.725 -15.8891 109.24 -11.4646C116.415 -2.43218 113.018 15.1699 100.357 34.495C91.412 48.1774 76.9477 63.2978 59.6421 77.0456ZM17.0052 23.3748C0.0661976 36.8314 -14.7345 52.6035 -23.597 66.6046C-34.2342 83.4248 -35.2577 95.6825 -31.5348 100.369C-27.6663 105.239 -14.4773 107.273 5.29622 100.234C19.8101 95.0664 36.8999 84.8636 54.6505 70.7622C71.3016 57.5343 85.1629 43.1064 93.6513 30.0856C105.541 11.8859 106.83 -1.65029 102.983 -6.49375C101.007 -8.98094 96.7922 -10.4157 91.0955 -10.5448C84.5216 -10.703 76.37 -9.13816 67.5917 -6.05062C51.8388 -0.454239 33.8657 9.98056 17.0052 23.3748Z" fill="#2F80ED"/>
<path d="M57.9414 136.132C55.271 138.253 52.4571 139.549 49.5523 139.978C38.5858 141.601 26.026 131.167 15.9868 112.025C7.74272 96.3257 1.34981 75.2698 -2.01443 52.7046C-5.30697 30.5522 -5.38949 8.83893 -2.17116 -8.45048C-0.298498 -18.5643 2.77584 -27.3267 6.7039 -33.7781C10.9838 -40.8079 16.22 -44.9676 21.7895 -45.805C33.1949 -47.5206 46.7684 -35.7562 57.1629 -15.1461C64.5543 -0.520223 70.4179 19.547 73.6958 41.4121C77.1672 64.7035 77.4513 85.488 74.5192 101.525C72.6143 111.921 69.3613 120.996 65.1399 127.723C62.9503 131.256 60.5072 134.094 57.9414 136.132ZM1.93012 52.1332L5.90084 51.541C9.09158 72.9202 15.3343 93.6258 23.0753 108.316C32.3363 125.94 42.4588 132.93 48.3417 132.057C49.7941 131.843 51.3528 131.117 52.9498 129.849C58.1598 125.71 63.7338 115.901 66.6389 100.099C69.4218 84.9488 69.1085 65.0416 65.7751 42.6227C62.6407 21.5831 57.0352 2.3784 50.0328 -11.489C40.2139 -30.8908 29.144 -38.7511 22.9946 -37.8374C19.8703 -37.3624 16.513 -34.4391 13.5512 -29.5667C10.122 -23.9387 7.41643 -16.1097 5.72457 -6.95093C2.67629 9.47744 2.74632 30.2611 5.92164 51.5672L1.93012 52.1332Z" fill="#2F80ED"/>
<path d="M117.643 88.8304C110.522 94.4876 98.0789 97.3694 82.2062 96.7408C64.4852 96.0432 43.066 91.0666 21.8202 82.7068C0.960333 74.5102 -17.8646 63.7147 -31.2617 52.2799C-39.0875 45.6003 -45.1367 38.577 -48.7799 31.9483C-52.7343 24.7129 -53.7405 18.1245 -51.6598 12.8418C-47.4561 2.11451 -30.4802 -3.77013 -7.42437 -2.48512C8.91734 -1.58858 29.2453 3.35815 49.8079 11.4493C71.7368 20.0778 89.9008 30.2026 102.304 40.762C110.348 47.6094 116.6 54.9415 120.341 61.9621C124.315 69.4379 125.274 76.235 123.156 81.6325C122.108 84.3443 120.235 86.7714 117.643 88.8304ZM24.77 75.239C44.8998 83.1616 65.9694 88.0743 82.5313 88.7105C102.409 89.4886 113.529 84.2419 115.715 78.6619C117.996 72.8785 113.161 60.4493 97.1547 46.8593C85.3975 36.8974 68.0153 27.2192 46.9051 18.9225C27.0934 11.1316 7.64731 6.38103 -7.8434 5.5344C-29.5523 4.33232 -41.885 9.98738 -44.1658 15.7708C-45.3351 18.7067 -44.4572 23.091 -41.7223 28.0925C-38.5513 33.858 -33.1315 40.1428 -26.0397 46.1671C-13.3143 57.0253 4.70805 67.348 24.77 75.239Z" fill="#2F80ED"/>
</g>
<defs>
<clipPath id="clip0">
<rect width="200.62" height="200.62" fill="white" transform="translate(-105 30.791) rotate(-38.4642)"/>
</clipPath>
</defs>
</svg>
