<svg width="21" height="21" viewBox="0 0 21 21" fill="none" xmlns="http://www.w3.org/2000/svg">
<g clip-path="url(#clip0)">
<path d="M10.4069 21.0012C10.2923 21.0012 10.1803 20.9557 10.0972 20.8734C9.99391 20.7702 9.94841 20.6214 9.97728 20.4788L10.5959 17.3857C10.6134 17.2999 10.6537 17.222 10.7158 17.1617L17.5215 10.3559C18.0325 9.84491 18.8664 9.84491 19.3774 10.3559L20.6147 11.5932C21.1265 12.105 21.1265 12.9372 20.6147 13.449L13.8089 20.2548C13.7485 20.316 13.6707 20.3572 13.5849 20.3747L10.4918 20.9933C10.4638 20.9985 10.4349 21.0012 10.4069 21.0012ZM11.4289 17.6858L10.9652 20.0054L13.2848 19.5417L19.9969 12.8295C20.1675 12.6589 20.1675 12.3815 19.9969 12.2109L18.7597 10.9737C18.589 10.803 18.3117 10.803 18.141 10.9737L11.4289 17.6858ZM13.5 19.945H13.5088H13.5Z" fill="#575B67"/>
<path d="M8.3125 18.375H2.1875C0.980875 18.375 0 17.3941 0 16.1875V4.8125C0 3.60588 0.980875 2.625 2.1875 2.625H3.9375C4.179 2.625 4.375 2.821 4.375 3.0625C4.375 3.304 4.179 3.5 3.9375 3.5H2.1875C1.46387 3.5 0.875 4.08887 0.875 4.8125V16.1875C0.875 16.9111 1.46387 17.5 2.1875 17.5H8.3125C8.554 17.5 8.75 17.696 8.75 17.9375C8.75 18.179 8.554 18.375 8.3125 18.375Z" fill="#575B67"/>
<path d="M14.4375 10.5C14.196 10.5 14 10.304 14 10.0625V4.8125C14 4.08887 13.4111 3.5 12.6875 3.5H10.9375C10.696 3.5 10.5 3.304 10.5 3.0625C10.5 2.821 10.696 2.625 10.9375 2.625H12.6875C13.8941 2.625 14.875 3.60588 14.875 4.8125V10.0625C14.875 10.304 14.679 10.5 14.4375 10.5Z" fill="#575B67"/>
<path d="M10.063 5.25H4.81299C4.08936 5.25 3.50049 4.66113 3.50049 3.9375V2.1875C3.50049 1.946 3.69649 1.75 3.93799 1.75H5.29424C5.49724 0.7525 6.38186 0 7.43799 0C8.49411 0 9.37874 0.7525 9.58174 1.75H10.938C11.1795 1.75 11.3755 1.946 11.3755 2.1875V3.9375C11.3755 4.66113 10.7866 5.25 10.063 5.25ZM4.37549 2.625V3.9375C4.37549 4.17812 4.57236 4.375 4.81299 4.375H10.063C10.3036 4.375 10.5005 4.17812 10.5005 3.9375V2.625H9.18799C8.94649 2.625 8.75049 2.429 8.75049 2.1875C8.75049 1.46387 8.16161 0.875 7.43799 0.875C6.71436 0.875 6.12549 1.46387 6.12549 2.1875C6.12549 2.429 5.92949 2.625 5.68799 2.625H4.37549Z" fill="#575B67"/>
<path d="M11.8125 7.875H3.0625C2.821 7.875 2.625 7.679 2.625 7.4375C2.625 7.196 2.821 7 3.0625 7H11.8125C12.054 7 12.25 7.196 12.25 7.4375C12.25 7.679 12.054 7.875 11.8125 7.875Z" fill="#575B67"/>
<path d="M11.8125 10.5H3.0625C2.821 10.5 2.625 10.304 2.625 10.0625C2.625 9.821 2.821 9.625 3.0625 9.625H11.8125C12.054 9.625 12.25 9.821 12.25 10.0625C12.25 10.304 12.054 10.5 11.8125 10.5Z" fill="#575B67"/>
<path d="M11.8125 13.125H3.0625C2.821 13.125 2.625 12.929 2.625 12.6875C2.625 12.446 2.821 12.25 3.0625 12.25H11.8125C12.054 12.25 12.25 12.446 12.25 12.6875C12.25 12.929 12.054 13.125 11.8125 13.125Z" fill="#575B67"/>
</g>
<defs>
<clipPath id="clip0">
<rect width="21" height="21" fill="white"/>
</clipPath>
</defs>
</svg>
