<svg width="17" height="17" viewBox="0 0 17 17" fill="none" xmlns="http://www.w3.org/2000/svg">
<path d="M14.025 10.2001C12.9133 10.2001 11.9534 10.8205 11.4428 11.7264L5.87093 9.5834C5.9193 9.37092 5.94998 9.15201 5.94998 8.9251C5.94998 8.63074 5.8938 8.35195 5.8138 8.08321L11.5345 5.44256C12.0658 6.25769 12.9816 6.80012 14.0249 6.80012C15.6652 6.80012 17 5.46535 17 3.82511C17 2.18486 15.6652 0.850098 14.0249 0.850098C12.3847 0.850098 11.05 2.18486 11.05 3.82511C11.05 4.11947 11.1062 4.39826 11.1862 4.66701L5.46544 7.30765C4.93421 6.49253 4.01832 5.95009 2.97501 5.95009C1.33476 5.95009 0 7.28486 0 8.9251C0 10.5654 1.33476 11.9001 2.97501 11.9001C4.08673 11.9001 5.04665 11.2797 5.55716 10.3738L11.1291 12.5168C11.0807 12.7293 11.05 12.9482 11.05 13.1751C11.05 14.8154 12.3848 16.1501 14.025 16.1501C15.6653 16.1501 17 14.8154 17 13.1751C17 11.5349 15.6652 10.2001 14.025 10.2001ZM14.025 1.70012C15.1966 1.70012 16.15 2.65346 16.15 3.82511C16.15 4.99675 15.1966 5.95009 14.025 5.95009C12.8533 5.95009 11.9 4.99675 11.9 3.82511C11.9 2.65346 12.8533 1.70012 14.025 1.70012ZM2.97501 11.0501C1.80337 11.0501 0.850026 10.0967 0.850026 8.9251C0.850026 7.75346 1.80337 6.80012 2.97501 6.80012C4.14666 6.80012 5.1 7.75346 5.1 8.9251C5.1 10.0967 4.14666 11.0501 2.97501 11.0501ZM14.025 15.3001C12.8533 15.3001 11.9 14.3468 11.9 13.1751C11.9 12.0035 12.8533 11.0501 14.025 11.0501C15.1966 11.0501 16.15 12.0035 16.15 13.1751C16.15 14.3468 15.1966 15.3001 14.025 15.3001Z" fill="#3EB2DD"/>
</svg>
