<svg width="101" height="101" viewBox="0 0 101 101" fill="none" xmlns="http://www.w3.org/2000/svg">
<path d="M50.5 101C37.0114 101 24.3298 95.7477 14.7918 86.2082C5.25301 76.6702 0 63.9894 0 50.5C0 37.0114 5.25298 24.3305 14.791 14.7918C24.3298 5.25301 37.0107 0 50.5 0C63.5079 0 75.8624 4.93402 85.2873 13.8921C95.4199 23.5235 101 36.5248 101 50.4993C101 63.9871 95.7477 76.668 86.209 86.2075C76.6702 95.7477 63.9886 101 50.5 101ZM50.5 9.61888C39.5802 9.61888 29.3138 13.8716 21.5927 21.5927C13.8715 29.3145 9.61885 39.5802 9.61885 50.5C9.61885 61.4198 13.8715 71.6855 21.5927 79.4073C29.3138 87.1292 39.5802 91.3804 50.5 91.3804C61.4198 91.3804 71.6862 87.1292 79.4066 79.4073C87.1277 71.6855 91.3811 61.4183 91.3811 50.5C91.3811 39.187 86.8631 28.6626 78.6598 20.8643C71.0313 13.6136 61.0295 9.61888 50.5 9.61888Z" fill="#DCDCDC"/>
<path d="M50.5 101V91.3804C61.4198 91.3804 71.6862 87.1292 79.4066 79.4073C87.1277 71.6855 91.3811 61.4183 91.3811 50.5C91.3811 39.187 86.8631 28.6626 78.6598 20.8643C71.0313 13.6128 61.0303 9.61888 50.5 9.61888V0C63.5079 0 75.8624 4.93402 85.2873 13.8921C95.4199 23.5235 101 36.5248 101 50.4993C101 63.9871 95.7477 76.668 86.209 86.2075C76.6702 95.7477 63.9886 101 50.5 101Z" fill="#FABE2C"/>
<path d="M31.8867 52.7373L32.79 43.875H41.8965V45.9624H34.7065L34.1694 50.8086C35.0402 50.2959 36.029 50.0396 37.1357 50.0396C38.7552 50.0396 40.041 50.5767 40.9932 51.6509C41.9453 52.717 42.4214 54.1615 42.4214 55.9844C42.4214 57.8154 41.925 59.2599 40.9321 60.3179C39.9474 61.3677 38.568 61.8926 36.7939 61.8926C35.2233 61.8926 33.9416 61.4572 32.9487 60.5864C31.9559 59.7157 31.3903 58.5112 31.252 56.9731H33.3882C33.5265 57.9904 33.8887 58.7594 34.4746 59.2803C35.0605 59.793 35.8337 60.0493 36.7939 60.0493C37.8438 60.0493 38.6657 59.6912 39.2598 58.9751C39.862 58.259 40.1631 57.2702 40.1631 56.0088C40.1631 54.8206 39.8376 53.8685 39.1865 53.1523C38.5436 52.4281 37.6851 52.0659 36.6108 52.0659C35.6261 52.0659 34.853 52.2816 34.2915 52.7129L33.6934 53.2012L31.8867 52.7373ZM56.0322 54.0679C56.0322 56.7127 55.5806 58.6781 54.6772 59.9639C53.7739 61.2497 52.362 61.8926 50.4414 61.8926C48.5452 61.8926 47.1414 61.266 46.23 60.0127C45.3185 58.7513 44.8465 56.8714 44.814 54.373V51.3579C44.814 48.7456 45.2656 46.8047 46.1689 45.5352C47.0723 44.2656 48.4883 43.6309 50.417 43.6309C52.3294 43.6309 53.7373 44.2453 54.6406 45.4741C55.5439 46.6948 56.0078 48.5828 56.0322 51.1382V54.0679ZM53.7739 50.9795C53.7739 49.0671 53.5054 47.6755 52.9683 46.8047C52.4312 45.9258 51.5807 45.4863 50.417 45.4863C49.2614 45.4863 48.4191 45.9217 47.8901 46.7925C47.3612 47.6632 47.0885 49.002 47.0723 50.8086V54.4219C47.0723 56.3424 47.349 57.7625 47.9023 58.6821C48.4639 59.5936 49.3102 60.0493 50.4414 60.0493C51.5563 60.0493 52.3823 59.618 52.9194 58.7554C53.4647 57.8927 53.7495 56.5337 53.7739 54.6782V50.9795ZM58.73 47.293C58.73 46.2269 59.0677 45.348 59.7432 44.6562C60.4268 43.9645 61.3016 43.6187 62.3677 43.6187C63.45 43.6187 64.3249 43.9686 64.9922 44.6685C65.6676 45.3602 66.0054 46.2594 66.0054 47.3662V48.2329C66.0054 49.3071 65.6636 50.186 64.98 50.8696C64.3045 51.5451 63.4419 51.8828 62.3921 51.8828C61.3341 51.8828 60.4593 51.5451 59.7676 50.8696C59.0758 50.186 58.73 49.2786 58.73 48.1475V47.293ZM60.4146 48.2329C60.4146 48.8677 60.5936 49.3926 60.9517 49.8076C61.3097 50.2145 61.7899 50.418 62.3921 50.418C62.9699 50.418 63.4338 50.2186 63.7837 49.8198C64.1418 49.4211 64.3208 48.8758 64.3208 48.1841V47.293C64.3208 46.6582 64.1458 46.1333 63.7959 45.7183C63.446 45.3032 62.9699 45.0957 62.3677 45.0957C61.7655 45.0957 61.2894 45.3032 60.9395 45.7183C60.5895 46.1333 60.4146 46.6745 60.4146 47.3418V48.2329ZM67.3848 57.2905C67.3848 56.2244 67.7225 55.3496 68.3979 54.666C69.0815 53.9743 69.9564 53.6284 71.0225 53.6284C72.0885 53.6284 72.9634 53.9702 73.647 54.6538C74.3306 55.3374 74.6724 56.2448 74.6724 57.376V58.2427C74.6724 59.3088 74.3306 60.1877 73.647 60.8794C72.9715 61.563 72.1048 61.9048 71.0469 61.9048C69.9889 61.9048 69.1141 61.5671 68.4224 60.8916C67.7306 60.208 67.3848 59.3006 67.3848 58.1694V57.2905ZM69.0693 58.2427C69.0693 58.8856 69.2484 59.4146 69.6064 59.8296C69.9645 60.2365 70.4447 60.4399 71.0469 60.4399C71.6328 60.4399 72.1007 60.2406 72.4507 59.8418C72.8006 59.4349 72.9756 58.8856 72.9756 58.1938V57.2905C72.9756 56.6476 72.7965 56.1227 72.4385 55.7158C72.0885 55.3089 71.6165 55.1055 71.0225 55.1055C70.4447 55.1055 69.9727 55.3089 69.6064 55.7158C69.2484 56.1146 69.0693 56.6558 69.0693 57.3394V58.2427ZM62.9048 60.3057L61.623 59.5L70.3022 45.6084L71.584 46.4141L62.9048 60.3057Z" fill="#9C9C9C"/>
</svg>
