<svg width="35" height="35" viewBox="0 0 35 35" fill="none" xmlns="http://www.w3.org/2000/svg">
<g clip-path="url(#clip0)">
<path d="M17.0303 34.5C26.4191 34.5 34.0303 26.8888 34.0303 17.5C34.0303 8.11116 26.4191 0.5 17.0303 0.5C7.64143 0.5 0.0302734 8.11116 0.0302734 17.5C0.0302734 26.8888 7.64143 34.5 17.0303 34.5Z" fill="#FFD93B"/>
<path d="M34.0303 17.4991C34.0303 26.8916 26.4175 34.4991 17.0303 34.4991C11.6859 34.4991 6.91531 32.0341 3.79688 28.1719C6.71344 30.5306 10.4269 31.9384 14.4697 31.9384C23.8569 31.9384 31.4697 24.3309 31.4697 14.9384C31.4697 10.8956 30.0619 7.18219 27.7031 4.26562C31.56 7.38406 34.0303 12.1547 34.0303 17.4991Z" fill="#F4C534"/>
<path d="M22.1059 26.053C22.1059 26.5492 21.7096 26.9381 21.2208 26.9381H12.8409C12.3521 26.9381 11.9558 26.5482 11.9558 26.053C11.9558 25.5643 12.3521 25.168 12.8409 25.168H21.2208C21.7085 25.168 22.1059 25.5643 22.1059 26.053Z" fill="#3E4347"/>
<path d="M7.45537 17.8778C7.87081 17.6335 9.10012 18.951 11.0307 19.0232C13.0292 19.0976 14.1906 17.6335 14.606 17.8778C15.1234 18.0553 14.4179 21.434 11.0307 21.4468C7.6445 21.434 6.93794 18.0553 7.45537 17.8778Z" fill="#3E4347"/>
<path d="M6.65847 16.3934C6.27278 16.3317 6.00928 15.9684 6.07197 15.5816C6.13466 15.1959 6.49166 14.9314 6.88372 14.9951C10.866 15.6347 12.0762 12.7904 12.0878 12.7617C12.2345 12.3994 12.6467 12.2252 13.0112 12.3729C13.3735 12.5206 13.5477 12.9339 13.4 13.2962C12.601 15.2533 10.0914 16.9448 6.65847 16.3934Z" fill="#E9B02C"/>
<path d="M26.6054 17.8778C26.1899 17.6335 24.9606 18.951 23.03 19.0232C21.0315 19.0976 19.8702 17.6335 19.4547 17.8778C18.9373 18.0553 19.6428 21.434 23.03 21.4468C26.4162 21.434 27.1228 18.0553 26.6054 17.8778Z" fill="#3E4347"/>
<path d="M20.6607 13.2925C20.513 12.9302 20.6873 12.5168 21.0496 12.3691C21.4108 12.2215 21.8231 12.3946 21.9718 12.7548C22.025 12.8823 23.2415 15.6247 27.177 14.9925C27.567 14.9287 27.9271 15.1933 27.9888 15.579C28.0504 15.9657 27.788 16.3291 27.4023 16.3907C23.9938 16.939 21.4661 15.2677 20.6607 13.2925Z" fill="#E9B02C"/>
</g>
<defs>
<clipPath id="clip0">
<rect width="34" height="34" fill="white" transform="translate(0.0302734 0.5)"/>
</clipPath>
</defs>
</svg>
