<svg width="35" height="35" viewBox="0 0 35 35" fill="none" xmlns="http://www.w3.org/2000/svg">
<g clip-path="url(#clip0)">
<path d="M17.0304 33.2542C26.0753 33.2542 33.4076 25.922 33.4076 16.8771C33.4076 7.83229 26.0753 0.5 17.0304 0.5C7.98561 0.5 0.65332 7.83229 0.65332 16.8771C0.65332 25.922 7.98561 33.2542 17.0304 33.2542Z" fill="#FFD93B"/>
<path d="M33.4073 16.8776C33.4073 25.9258 26.074 33.2548 17.0301 33.2548C11.8814 33.2548 7.28611 30.8801 4.28247 27.1593C7.09168 29.4319 10.6691 30.7877 14.5641 30.7877C23.6069 30.7877 30.9412 23.4587 30.9412 14.4106C30.9412 10.5166 29.5855 6.93811 27.3129 4.12891C31.0273 7.13361 33.4073 11.7288 33.4073 16.8776Z" fill="#F4C534"/>
<path d="M24.0428 31.8748C23.6688 33.6279 21.8933 34.9443 19.9586 34.3621C18.0238 33.799 16.038 33.8096 14.0735 34.3621C12.2386 34.8933 10.4153 33.7172 10.0201 31.8642C8.63781 25.2056 11.7116 17.5547 17.0208 17.5547C22.448 17.5547 25.4017 25.314 24.0428 31.8748Z" fill="#FFD93B"/>
<path d="M22.6306 31.5791C22.415 32.6023 21.3822 33.2759 20.3761 32.9794C18.1395 32.3334 15.9126 32.3334 13.6845 32.9794C12.6784 33.2759 11.6456 32.6023 11.4299 31.5695C10.1996 25.6239 12.8845 18.9961 17.025 18.9961C21.2027 18.9961 23.8525 25.6504 22.6306 31.5791Z" fill="black"/>
<path d="M21.0995 31.9182C21.5829 30.6432 21.4969 29.1515 20.5906 27.8818C19.9786 27.0116 18.8566 26.6865 17.8685 27.0679C17.2023 27.325 16.4628 27.4058 15.752 27.3484C13.0108 27.1253 12.1098 29.7294 12.9163 31.9182C15.6128 31.1001 18.3413 31.1404 21.0995 31.9182Z" fill="#E24B4B"/>
<path d="M17.0301 30.2148C14.5895 30.2148 12.489 30.8863 11.52 31.8553C11.8494 32.7223 12.7748 33.2525 13.6843 32.9837C15.9113 32.3377 18.1393 32.3377 20.3758 32.9837C21.2874 33.2525 22.2139 32.7212 22.5422 31.8574C21.5754 30.8863 19.4727 30.2148 17.0301 30.2148Z" fill="white"/>
<path d="M9.14328 16.3265C6.23632 16.03 4.4556 13.9731 5.19296 11.0661C5.93989 8.15915 8.90847 5.80469 11.8356 5.80469C14.7532 5.80469 15.9124 8.0869 16.1174 11.0852C16.3629 14.7604 12.5103 16.675 9.14328 16.3265Z" fill="white"/>
<path d="M14.0828 11.0792C14.0828 12.5306 12.9087 13.7216 11.4574 13.7216C9.99753 13.7131 8.82349 12.5306 8.82349 11.0792C8.82349 9.62786 9.99753 8.44531 11.4574 8.44531C12.9087 8.44531 14.0828 9.62786 14.0828 11.0792Z" fill="black"/>
<path d="M12.7335 9.78863C12.4289 9.48408 12.0317 9.38754 11.8462 9.57301C11.6607 9.75848 11.7573 10.1557 12.0618 10.4603C12.3664 10.7648 12.7636 10.8614 12.9491 10.6759C13.1346 10.4904 13.038 10.0932 12.7335 9.78863Z" fill="white"/>
<path d="M24.3443 16.42C27.2905 16.1183 29.3454 14.0231 28.9958 11.0641C28.6356 8.10506 25.9815 5.70703 23.0544 5.70703C20.1368 5.70703 18.6738 8.03068 18.0692 11.0843C17.3329 14.8253 20.9294 16.7749 24.3443 16.42Z" fill="white"/>
<path d="M25.3623 11.0792C25.3623 12.5306 24.1883 13.7216 22.7369 13.7216C21.2771 13.7131 20.103 12.5306 20.103 11.0792C20.103 9.62786 21.2771 8.44531 22.7369 8.44531C24.1883 8.44531 25.3623 9.62786 25.3623 11.0792Z" fill="black"/>
<path d="M24.0118 9.79253C23.7073 9.48798 23.31 9.39144 23.1245 9.57691C22.9391 9.76239 23.0356 10.1596 23.3402 10.4642C23.6447 10.7687 24.042 10.8653 24.2274 10.6798C24.4129 10.4943 24.3164 10.0971 24.0118 9.79253Z" fill="white"/>
</g>
<defs>
<clipPath id="clip0">
<rect width="34" height="34" fill="white" transform="translate(0.0302734 0.5)"/>
</clipPath>
</defs>
</svg>
