<svg width="34" height="35" viewBox="0 0 34 35" fill="none" xmlns="http://www.w3.org/2000/svg">
<g clip-path="url(#clip0)">
<path d="M17 34.5C26.3888 34.5 34 26.8888 34 17.5C34 8.11116 26.3888 0.5 17 0.5C7.61116 0.5 0 8.11116 0 17.5C0 26.8888 7.61116 34.5 17 34.5Z" fill="#FFD93B"/>
<path d="M16.9997 28.4266C12.0282 28.4266 7.6964 25.0595 6.46602 20.24C6.36934 19.8607 6.59777 19.475 6.97709 19.3784C7.35427 19.2795 7.74102 19.5101 7.83771 19.8894C8.90871 24.082 12.6753 27.0103 16.9986 27.0103C21.3219 27.0103 25.0895 24.082 26.1595 19.8894C26.2551 19.5101 26.6408 19.2795 27.0212 19.3784C27.4005 19.475 27.6289 19.8607 27.5322 20.24C26.3029 25.0595 21.9711 28.4266 16.9997 28.4266Z" fill="black"/>
<path d="M34.0003 17.4991C34.0003 26.8916 26.3875 34.4991 17.0003 34.4991C11.6559 34.4991 6.88528 32.0341 3.76685 28.1719C6.68341 30.5306 10.3968 31.9384 14.4397 31.9384C23.8268 31.9384 31.4397 24.3309 31.4397 14.9384C31.4397 10.8956 30.0318 7.18219 27.6731 4.26562C31.53 7.38406 34.0003 12.1547 34.0003 17.4991Z" fill="#F4C534"/>
<path d="M11.51 18.2274C12.9489 18.2274 14.1153 16.8412 14.1153 15.1313C14.1153 13.4213 12.9489 12.0352 11.51 12.0352C10.0712 12.0352 8.90479 13.4213 8.90479 15.1313C8.90479 16.8412 10.0712 18.2274 11.51 18.2274Z" fill="black"/>
<path d="M12.6857 14.462C12.4828 14.6214 12.1492 14.5428 11.9356 14.2835C11.722 14.0243 11.7114 13.6768 11.9143 13.5175C12.1162 13.3506 12.4509 13.4293 12.6634 13.6885C12.878 13.9552 12.8802 14.2963 12.6857 14.462Z" fill="#5A5F63"/>
<path d="M22.4929 18.2274C23.9318 18.2274 25.0982 16.8412 25.0982 15.1313C25.0982 13.4213 23.9318 12.0352 22.4929 12.0352C21.0541 12.0352 19.8877 13.4213 19.8877 15.1313C19.8877 16.8412 21.0541 18.2274 22.4929 18.2274Z" fill="black"/>
<path d="M23.6659 14.462C23.463 14.6214 23.1294 14.5428 22.9158 14.2835C22.7023 14.0243 22.6916 13.6768 22.8946 13.5175C23.0964 13.3506 23.4301 13.4293 23.6436 13.6885C23.8583 13.9552 23.8604 14.2963 23.6659 14.462Z" fill="#5A5F63"/>
</g>
<defs>
<clipPath id="clip0">
<rect width="34" height="34" fill="white" transform="translate(0 0.5)"/>
</clipPath>
</defs>
</svg>
