<svg width="35" height="35" viewBox="0 0 35 35" fill="none" xmlns="http://www.w3.org/2000/svg">
<g clip-path="url(#clip0)">
<path d="M17.0303 34.5C26.4191 34.5 34.0303 26.8888 34.0303 17.5C34.0303 8.11116 26.4191 0.5 17.0303 0.5C7.64143 0.5 0.0302734 8.11116 0.0302734 17.5C0.0302734 26.8888 7.64143 34.5 17.0303 34.5Z" fill="#FFD54F"/>
<path d="M27.7079 11.4418C27.3735 11.3908 27.0364 11.5027 26.7969 11.7407L11.2703 27.2674C11.0323 27.5054 10.9203 27.844 10.9713 28.1783C11.0223 28.5112 11.2278 28.8016 11.5267 28.9589C16.4312 31.5401 22.3557 30.6476 26.2657 26.7361C30.1757 22.8247 31.0696 16.9016 28.4884 11.9971C28.3312 11.6982 28.0422 11.4928 27.7079 11.4418Z" fill="#E53935"/>
<path d="M9.39431 22.6543C8.66047 23.7154 6.27056 27.3166 6.27197 29.1271C6.27197 31.33 8.06547 33.1235 10.2684 33.1235C11.3706 33.1235 12.3693 32.6758 13.0932 31.9519C13.8157 31.2294 14.2648 30.2292 14.2648 29.1271C14.2648 27.3151 11.8749 23.7154 11.1425 22.6543C10.9456 22.3667 10.6183 22.1953 10.2684 22.1953C9.91847 22.1953 9.58981 22.3681 9.39431 22.6543Z" fill="#00BCD4"/>
<path d="M28.6586 6.74219C26.8481 6.74219 23.2469 9.1321 22.1858 9.86452C21.8968 10.0629 21.7268 10.3901 21.7268 10.7386C21.7268 11.0871 21.8982 11.4144 22.1858 11.6127C23.2455 12.3465 26.8466 14.7364 28.6586 14.735C29.7607 14.735 30.7595 14.2859 31.482 13.5634C32.2059 12.8395 32.655 11.8408 32.655 10.7386C32.655 8.53569 30.8615 6.74219 28.6586 6.74219Z" fill="#00BCD4"/>
<path d="M10.7698 21.7559C10.5332 21.9925 10.1876 22.1144 9.83342 22.052C9.25542 21.95 8.86867 21.3989 8.97208 20.8209L9.45942 18.0584L6.69692 18.5458C6.11892 18.6492 5.56783 18.2624 5.46583 17.6844C5.361 17.1064 5.74917 16.5568 6.32717 16.4548L10.5842 15.7039C10.9257 15.643 11.2756 15.7535 11.5207 15.9986C11.7657 16.2437 11.8762 16.5922 11.8153 16.935L11.0645 21.1921C11.0248 21.4131 10.9186 21.6072 10.7698 21.7559Z" fill="black"/>
<path d="M21.2873 11.2387C21.1386 11.3875 20.9445 11.4937 20.7221 11.532L16.4636 12.2842C16.1222 12.3451 15.7723 12.2346 15.5272 11.9895C15.2821 11.7445 15.1716 11.396 15.2325 11.0531L15.9833 6.79604C16.0853 6.21804 16.6364 5.83129 17.213 5.9347C17.791 6.0367 18.1778 6.58779 18.0743 7.16579L17.587 9.92829L20.3495 9.44095C20.9275 9.33754 21.4786 9.72429 21.5806 10.3023C21.6458 10.6565 21.5239 11.0021 21.2873 11.2387Z" fill="black"/>
</g>
<defs>
<clipPath id="clip0">
<rect width="34" height="34" fill="white" transform="translate(0.0302734 0.5)"/>
</clipPath>
</defs>
</svg>
