<svg width="35" height="35" viewBox="0 0 35 35" fill="none" xmlns="http://www.w3.org/2000/svg">
<g clip-path="url(#clip0)">
<path d="M17.0303 34.5C26.4191 34.5 34.0303 26.8888 34.0303 17.5C34.0303 8.11116 26.4191 0.5 17.0303 0.5C7.64143 0.5 0.0302734 8.11116 0.0302734 17.5C0.0302734 26.8888 7.64143 34.5 17.0303 34.5Z" fill="#FFD54F"/>
<path d="M30.5668 1.86719C29.7466 1.86719 28.9731 2.14344 28.3639 2.61944C27.7548 2.14344 26.9813 1.86719 26.161 1.86719C24.2513 1.86719 22.6973 3.35185 22.6973 5.17652C22.6973 8.01977 26.9118 11.1053 27.7548 11.6946C27.9389 11.8221 28.1514 11.8859 28.3639 11.8859C28.5764 11.8859 28.7889 11.8221 28.9731 11.6946C29.816 11.1039 34.0306 8.01977 34.0306 5.17652C34.0306 3.35185 32.4765 1.86719 30.5668 1.86719Z" fill="#E53935"/>
<path d="M7.89986 24.5312C7.07961 24.5312 6.30611 24.8075 5.69694 25.2835C5.08777 24.8075 4.31427 24.5312 3.49402 24.5312C1.58436 24.5312 0.0302734 26.0159 0.0302734 27.8406C0.0302734 30.6838 4.24486 33.7693 5.08777 34.3587C5.27194 34.4862 5.48444 34.5499 5.69694 34.5499C5.90944 34.5499 6.12194 34.4862 6.30611 34.3587C7.14902 33.7679 11.3636 30.6838 11.3636 27.8406C11.3636 26.0159 9.80952 24.5312 7.89986 24.5312Z" fill="#E53935"/>
<path d="M13.1344 16.4362C12.5479 16.4362 12.0719 15.9602 12.0719 15.3737C12.0719 14.5931 11.4372 13.957 10.6552 13.957C9.87319 13.957 9.23853 14.5931 9.23853 15.3737C9.23853 15.9602 8.76253 16.4362 8.17603 16.4362C7.58953 16.4362 7.11353 15.9602 7.11353 15.3737C7.11353 13.4215 8.70161 11.832 10.6552 11.832C12.6088 11.832 14.1969 13.4215 14.1969 15.3737C14.1969 15.9602 13.7209 16.4362 13.1344 16.4362Z" fill="black"/>
<path d="M25.8844 16.4362C25.2979 16.4362 24.8219 15.9602 24.8219 15.3737C24.8219 14.5931 24.1872 13.957 23.4052 13.957C22.6232 13.957 21.9885 14.5931 21.9885 15.3737C21.9885 15.9602 21.5125 16.4362 20.926 16.4362C20.3395 16.4362 19.8635 15.9602 19.8635 15.3737C19.8635 13.4215 21.4516 11.832 23.4052 11.832C25.3588 11.832 26.9468 13.4215 26.9468 15.3737C26.9468 15.9602 26.4708 16.4362 25.8844 16.4362Z" fill="black"/>
<path d="M17.0304 26.0003C13.9364 26.0003 11.0294 24.7961 8.84207 22.6074C8.42699 22.1923 8.42699 21.5194 8.84207 21.1043C9.25716 20.6892 9.93007 20.6892 10.3452 21.1043C12.1302 22.8921 14.5045 23.8753 17.0304 23.8753C19.5563 23.8753 21.9307 22.8921 23.7171 21.1057C24.1322 20.6906 24.8051 20.6906 25.2202 21.1057C25.6352 21.5208 25.6352 22.1937 25.2202 22.6088C23.0314 24.7961 20.1244 26.0003 17.0304 26.0003Z" fill="black"/>
</g>
<defs>
<clipPath id="clip0">
<rect width="34" height="34" fill="white" transform="translate(0.0302734 0.5)"/>
</clipPath>
</defs>
</svg>
