<svg width="36" height="35" viewBox="0 0 36 35" fill="none" xmlns="http://www.w3.org/2000/svg">
<g clip-path="url(#clip0)">
<path d="M17.5152 34.5C27.1885 34.5 35.0303 26.8888 35.0303 17.5C35.0303 8.11116 27.1885 0.5 17.5152 0.5C7.8418 0.5 0 8.11116 0 17.5C0 26.8888 7.8418 34.5 17.5152 34.5Z" fill="#FFD93B"/>
<path d="M35.0305 17.4991C35.0305 26.8916 27.187 34.4991 17.5153 34.4991C12.009 34.4991 7.0938 32.0341 3.88086 28.1719C6.8858 30.5306 10.7118 31.9384 14.8771 31.9384C24.5487 31.9384 32.3922 24.3309 32.3922 14.9384C32.3922 10.8956 30.9418 7.18219 28.5115 4.26562C32.4853 7.38406 35.0305 12.1547 35.0305 17.4991Z" fill="#F4C534"/>
<path d="M23.0281 27.3378C23.882 27.5524 24.7271 26.9287 24.6932 26.0734C24.5487 22.4269 21.4496 19.3828 17.5152 19.3828C13.5732 19.3828 10.4752 22.4354 10.3373 26.0851C10.3056 26.9361 11.143 27.5619 11.9925 27.3505C15.7648 26.4155 19.4408 26.4346 23.0281 27.3378Z" fill="black"/>
<path d="M21.5434 27.0201C21.5828 26.8437 21.6069 26.662 21.6069 26.4729C21.6069 25.0502 20.4203 23.8984 18.96 23.8984C18.2353 23.8984 17.585 24.1747 17.1132 24.6273C16.7914 24.4966 16.4421 24.4244 16.071 24.4244C14.6107 24.4244 13.4241 25.5761 13.4241 26.9935C13.4241 27.0094 13.4285 27.0243 13.4295 27.0403C16.1838 26.5324 18.8877 26.5356 21.5434 27.0201Z" fill="#E24B4B"/>
<path d="M30.784 23.7428C30.784 22.5316 28.5246 18.8086 28.5246 18.8086C28.5246 18.8086 26.2651 22.5316 26.2651 23.7428C26.2651 24.9541 27.2766 25.9358 28.5246 25.9358C29.7725 25.9358 30.784 24.9541 30.784 23.7428Z" fill="#65B1EF"/>
<path d="M28.765 18.5183L26.8088 16.4475C24.5592 14.0739 20.5132 14.0048 20.4683 14.0048L19.3572 13.9963L20.1749 13.2621C21.2149 12.3133 22.3183 11.9414 23.4295 12.1571C25.8925 12.6235 27.4755 15.8334 27.5379 15.9715L28.765 18.5183Z" fill="black"/>
<path d="M18.8853 3.62891C23.3714 8.52597 24.7408 8.76822 26.2855 10.1102C24.7923 10.108 22.8766 9.45247 21.3922 8.15197C19.5607 6.47747 18.8689 4.71691 18.8853 3.62891Z" fill="black"/>
<path d="M6.14868 18.5183L8.1049 16.4475C10.3545 14.0739 14.4005 14.0048 14.4454 14.0048L15.5565 13.9963L14.7388 13.2621C13.6988 12.3133 12.5954 11.9414 11.4842 12.1571C9.02117 12.6235 7.43823 15.8334 7.37584 15.9715L6.14868 18.5183Z" fill="black"/>
<path d="M16.0283 3.62891C11.5423 8.52597 10.1728 8.76822 8.62817 10.1102C10.1213 10.108 12.0371 9.45247 13.5215 8.15197C15.354 6.47747 16.0447 4.71691 16.0283 3.62891Z" fill="black"/>
<g opacity="0.2">
<path opacity="0.2" d="M29.7441 24.7224C29.4277 25.0879 28.9668 25.2377 28.7391 25.0369C28.5005 24.8467 28.5749 24.3898 28.9012 24.0233C29.2186 23.6482 29.6686 23.508 29.9061 23.7088C30.1447 23.9 30.0703 24.3569 29.7441 24.7224Z" fill="white"/>
</g>
</g>
<defs>
<clipPath id="clip0">
<rect width="35.0303" height="34" fill="white" transform="translate(0 0.5)"/>
</clipPath>
</defs>
</svg>
