<svg width="35" height="35" viewBox="0 0 35 35" fill="none" xmlns="http://www.w3.org/2000/svg">
<g clip-path="url(#clip0)">
<path d="M17.0303 34.0129C26.4191 34.0129 34.0303 26.6192 34.0303 17.4987C34.0303 8.37807 26.4191 0.984375 17.0303 0.984375C7.64143 0.984375 0.0302734 8.37807 0.0302734 17.4987C0.0302734 26.6192 7.64143 34.0129 17.0303 34.0129Z" fill="#FFD93B"/>
<path d="M34.0303 17.4999C34.0303 26.624 26.4175 34.0142 17.0303 34.0142C11.6859 34.0142 6.91531 31.6196 3.79688 27.8677C6.71344 30.1591 10.4269 31.5267 14.4697 31.5267C23.8569 31.5267 31.4697 24.1365 31.4697 15.0124C31.4697 11.0851 30.0619 7.47776 27.7031 4.64453C31.56 7.67387 34.0303 12.3082 34.0303 17.4999Z" fill="#F4C534"/>
<path d="M15.3796 18.0811C13.3003 16.3749 8.61042 16.9591 7.31629 19.1184C6.50985 17.1098 8.14398 14.3953 10.6791 14.066C13.5542 13.6986 15.5071 16.0168 15.3796 18.0811Z" fill="black"/>
<path d="M18.6817 18.0811C20.761 16.3749 25.4509 16.9591 26.745 19.1184C27.5514 17.1098 25.9173 14.3953 23.3822 14.066C20.507 13.6986 18.5542 16.0168 18.6817 18.0811Z" fill="black"/>
<path d="M28.6044 21.9718C26.8226 27.309 21.9914 31.325 17.0359 31.3426C12.0708 31.325 7.23965 27.3038 5.45784 21.9718C5.24215 21.3009 6.1134 20.6775 6.95703 20.921C13.9738 22.9791 20.1002 22.9699 27.1169 20.921C27.9488 20.6795 28.8201 21.2957 28.6044 21.9718Z" fill="black"/>
<path d="M24.1842 24.3542C24.3308 23.4305 24.4764 22.4933 24.6209 21.5664C19.4996 22.74 14.7609 22.7523 9.64917 21.6108C9.81067 22.5242 9.97323 23.4366 10.1347 24.348C10.1868 24.635 10.4758 24.8362 10.8296 24.8961C15.0541 25.6021 19.2584 25.5979 23.485 24.9136C23.8452 24.8558 24.1374 24.6525 24.1842 24.3542Z" fill="white"/>
<path d="M16.2697 26.3855C16.8923 26.6167 17.6095 26.5434 18.2193 26.2854C19.5262 25.7342 21.2039 25.9314 21.5736 27.6581C21.5768 27.6705 21.579 27.684 21.5822 27.7005C21.9243 29.5893 20.1255 31.2727 18.0079 31.3367C17.9155 31.345 17.822 31.3398 17.7285 31.3408C17.1898 31.3439 16.6628 31.2892 16.1443 31.2036C15.1094 31.0209 14.1872 30.4119 13.7112 29.5666C13.4338 29.0732 13.2341 28.5241 13.1608 27.9275C12.9334 26.1564 14.5792 25.758 16.2697 26.3855Z" fill="#E24B4B"/>
<path opacity="0.2" d="M20.5652 27.7469C20.425 27.912 20.2348 27.9358 20.0329 27.7644C19.949 27.7005 19.8788 27.622 19.8278 27.5332C19.7269 27.3609 19.5431 27.237 19.3263 27.1792C19.2307 27.1513 19.1457 27.0946 19.1138 26.9862C19.0883 26.8943 19.1553 26.7622 19.3497 26.659C20.1763 26.2276 21.055 27.1379 20.5652 27.7469Z" fill="white"/>
<path d="M26.5086 10.5324C25.8499 9.17613 22.9482 5.9579 20.2505 7.42252C22.4924 4.13927 26.0592 5.61007 26.5086 10.5324Z" fill="black"/>
<path d="M7.55151 10.5324C8.21026 9.17613 11.112 5.9579 13.8096 7.42252C11.5678 4.13927 8.00095 5.61007 7.55151 10.5324Z" fill="black"/>
<path d="M32.9797 27.4658C32.6461 26.3387 29.3598 22.9141 29.3598 22.9141C29.3598 22.9141 28.4428 27.5092 28.7764 28.6373C29.1101 29.7644 30.3203 30.4167 31.4816 30.0926C32.6429 29.7685 33.3133 28.5939 32.9797 27.4658Z" fill="#65B1EF"/>
<path d="M1.08118 27.4658C1.41375 26.3387 4.70112 22.9141 4.70112 22.9141C4.70112 22.9141 5.61806 27.5092 5.28443 28.6373C4.95187 29.7644 3.74062 30.4167 2.57931 30.0926C1.41906 29.7696 0.74756 28.5939 1.08118 27.4658Z" fill="#65B1EF"/>
</g>
<defs>
<clipPath id="clip0">
<rect width="34" height="33.0286" fill="white" transform="translate(0.0302734 0.984375)"/>
</clipPath>
</defs>
</svg>
