<svg width="35" height="35" viewBox="0 0 35 35" fill="none" xmlns="http://www.w3.org/2000/svg">
<g clip-path="url(#clip0)">
<path d="M17.0303 34.5C7.64143 34.5 0.0302734 26.8888 0.0302734 17.5C0.0302734 8.11116 7.64143 0.5 17.0303 0.5C26.4191 0.5 34.0303 8.11116 34.0303 17.5C34.0303 26.8888 26.4191 34.5 17.0303 34.5Z" fill="#FFD93B"/>
<path d="M34.0302 17.6313C34.0302 26.9512 26.5503 34.5 17.3271 34.5C12.076 34.5 7.38869 32.054 4.32471 28.2217C7.19034 30.5622 10.8389 31.9591 14.8111 31.9591C24.0344 31.9591 31.5143 24.4104 31.5143 15.0904C31.5143 11.0788 30.131 7.39404 27.8135 4.5C31.603 7.59436 34.0302 12.3281 34.0302 17.6313Z" fill="#F4C534"/>
<path d="M4.03068 15.7972C4.03068 18.8125 6.76164 21.2585 10.1399 21.2585C13.5087 21.2585 16.249 18.8125 16.249 15.7972C16.249 12.7819 13.5087 10.3359 10.1399 10.3359C6.76164 10.3359 4.03068 12.7819 4.03068 15.7972Z" fill="#F4C534"/>
<path d="M9.94894 20.225C7.24144 20.225 5.04657 18.2832 5.04657 15.8879C5.04657 13.4926 7.24144 11.5508 9.94894 11.5508C12.6565 11.5508 14.8513 13.4926 14.8513 15.8879C14.8513 18.2832 12.6565 20.225 9.94894 20.225Z" fill="white"/>
<path d="M9.22902 15.9971C9.22902 17.2667 10.2533 18.291 11.523 18.291C12.7926 18.291 13.8169 17.2667 13.8169 15.9971C13.8169 14.7359 12.7926 13.7031 11.523 13.7031C10.2533 13.7031 9.22902 14.7359 9.22902 15.9971Z" fill="#3E4347"/>
<path d="M10.4298 14.9051C10.6908 14.6441 11.0443 14.5744 11.2194 14.7495C11.3945 14.9246 11.3249 15.2782 11.0639 15.5392C10.8029 15.8001 10.4494 15.8698 10.2743 15.6947C10.0992 15.5196 10.1688 15.1661 10.4298 14.9051Z" fill="white"/>
<path d="M8.82128 9.72693C11.4446 11.1262 14.052 12.9729 16.5457 15.2211C14.7012 11.9869 12.7323 9.23712 10.551 7.26937C10.228 6.97187 9.81684 6.84968 9.41096 6.88474C9.04121 6.91662 8.67571 7.08874 8.40371 7.39156C7.75134 8.11831 7.95428 9.27218 8.82128 9.72693Z" fill="#3E4347"/>
<path d="M30.3293 15.8866C30.3293 18.9253 27.5498 21.3903 24.1116 21.3903C20.6829 21.3903 17.8938 18.9253 17.8938 15.8866C17.8938 12.8478 20.6829 10.3828 24.1116 10.3828C27.5498 10.3828 30.3293 12.8478 30.3293 15.8866Z" fill="#F4C534"/>
<path d="M24.112 20.225C21.4045 20.225 19.2097 18.2832 19.2097 15.8879C19.2097 13.4926 21.4045 11.5508 24.112 11.5508C26.8195 11.5508 29.0144 13.4926 29.0144 15.8879C29.0144 18.2832 26.8195 20.225 24.112 20.225Z" fill="white"/>
<path d="M20.2437 15.9971C20.2437 17.2667 21.2679 18.291 22.5376 18.291C23.8073 18.291 24.8315 17.2667 24.8315 15.9971C24.8315 14.7359 23.8073 13.7031 22.5376 13.7031C21.2679 13.7031 20.2437 14.7359 20.2437 15.9971Z" fill="#3E4347"/>
<path d="M21.4425 14.9051C21.7035 14.6441 22.057 14.5744 22.2321 14.7495C22.4072 14.9246 22.3376 15.2782 22.0766 15.5392C21.8156 15.8001 21.4621 15.8698 21.287 15.6947C21.1119 15.5196 21.1815 15.1661 21.4425 14.9051Z" fill="white"/>
<path d="M25.2394 9.72693C22.615 11.1262 20.0087 12.9729 17.515 15.2211C19.3595 11.9869 21.3283 9.23712 23.5096 7.26937C23.8326 6.97187 24.2428 6.84968 24.6497 6.88474C25.0195 6.91662 25.385 7.08874 25.657 7.39156C26.3093 8.11831 26.1064 9.27218 25.2394 9.72693Z" fill="#3E4347"/>
<path d="M12.0008 26.2015C14.7336 23.8257 20.1034 26.5107 23.5597 28.7122C23.9943 28.9927 24.448 28.4125 24.091 28.046C14.9652 18.6885 12.1644 22.8896 11.3144 25.7478C11.1986 26.143 11.6821 26.4724 12.0008 26.2015Z" fill="#3E4347"/>
</g>
<defs>
<clipPath id="clip0">
<rect width="34" height="34" fill="white" transform="matrix(-1 0 0 1 34.0303 0.5)"/>
</clipPath>
</defs>
</svg>
