<svg width="33" height="33" viewBox="0 0 33 33" fill="none" xmlns="http://www.w3.org/2000/svg">
<path d="M16.5 33C7.40154 33 0 25.5985 0 16.5C0 7.40154 7.40154 0 16.5 0C25.5985 0 33 7.40154 33 16.5C33 25.5985 25.5985 33 16.5 33ZM16.5 2.0625C8.53878 2.0625 2.0625 8.53878 2.0625 16.5C2.0625 24.4612 8.53878 30.9375 16.5 30.9375C24.4612 30.9375 30.9375 24.4612 30.9375 16.5C30.9375 8.53878 24.4612 2.0625 16.5 2.0625Z" fill="white"/>
<g clip-path="url(#clip0)">
<path d="M16.2685 9.41526L11.3449 12.4122H8.24804C7.94548 12.4122 7.7002 12.6575 7.7002 12.9601V21.1412C7.7002 21.4437 7.94548 21.689 8.24804 21.689H11.3449L16.2685 24.686C17.364 25.3529 18.7666 24.5651 18.7666 23.2821V10.8192C18.7666 9.53663 17.3643 8.74821 16.2685 9.41526ZM8.79588 13.5079H10.9507V20.5933H8.79588V13.5079ZM17.6709 23.2821C17.6709 23.7093 17.2039 23.9727 16.8382 23.7501L12.0464 20.8333V13.268L16.8382 10.3512C17.2032 10.129 17.6709 10.3911 17.6709 10.8192V23.2821Z" fill="white"/>
<path d="M20.3255 15.6302C20.1116 15.8441 20.1116 16.191 20.3255 16.4049C20.6823 16.7618 20.6824 17.3393 20.3255 17.6962C20.1116 17.9102 20.1116 18.257 20.3255 18.471C20.5394 18.6849 20.8863 18.6849 21.1003 18.471C21.8835 17.6878 21.8835 16.4134 21.1003 15.6302C20.8863 15.4162 20.5394 15.4162 20.3255 15.6302Z" fill="white"/>
<path d="M22.7536 13.9769C22.5397 13.7629 22.1928 13.7629 21.9788 13.9769C21.7649 14.1908 21.7649 14.5377 21.9788 14.7516C23.2462 16.019 23.2462 18.0812 21.9788 19.3486C21.7649 19.5625 21.7649 19.9094 21.9788 20.1233C22.1927 20.3373 22.5396 20.3373 22.7536 20.1233C24.4482 18.4287 24.4482 15.6715 22.7536 13.9769Z" fill="white"/>
<path d="M24.4049 12.3245C24.191 12.1106 23.8441 12.1106 23.6302 12.3245C23.4162 12.5385 23.4162 12.8853 23.6302 13.0993C25.8459 15.315 25.8459 18.7862 23.6302 21.0019C23.4162 21.2158 23.4162 21.5627 23.6302 21.7766C23.8441 21.9906 24.191 21.9906 24.4049 21.7766C27.0628 19.1187 27.0657 14.9852 24.4049 12.3245Z" fill="white"/>
</g>
<defs>
<clipPath id="clip0">
<rect width="18.7" height="18.7" fill="white" transform="translate(7.7002 7.7002)"/>
</clipPath>
</defs>
</svg>
