<svg width="43" height="43" viewBox="0 0 43 43" fill="none" xmlns="http://www.w3.org/2000/svg">
<rect width="43" height="43" rx="21.5" fill="white" fill-opacity="0.3"/>
<g clip-path="url(#clip0)">
<path d="M22.9206 31.0804L21.5125 32.4885C21.1233 32.8777 20.4935 32.8777 20.1044 32.4885C19.7152 32.0993 19.7152 31.4695 20.1044 31.0804L21.5125 29.6723C21.9009 29.2838 21.9009 28.6526 21.5125 28.2642L20.2178 26.9695C19.8286 26.5803 19.8286 25.9505 20.2178 25.5614C20.607 25.1722 21.2368 25.1722 21.6259 25.5614L22.9206 26.8561C24.0854 28.0207 24.0854 29.9156 22.9206 31.0804Z" fill="#A0DCEF"/>
<path d="M25.0327 37.4155C24.255 38.1932 22.9941 38.1932 22.2164 37.4155L15.1758 30.3749L17.992 27.5586L25.0327 34.5993C25.8104 35.377 25.8104 36.6378 25.0327 37.4155Z" fill="#A0DCEF"/>
<path d="M15.1168 21.8711L19.4821 26.2364L19.3976 28.9682L14.4691 33.8966C13.3004 35.0654 11.3853 35.0373 10.2165 33.8684L7.40025 31.0521C6.24557 29.8974 6.25962 28.0246 7.42848 26.8559L12.357 21.9274L15.1168 21.8711Z" fill="white"/>
<path d="M17.2887 24.0391L19.4854 26.2358L19.4009 28.9675L14.4724 33.896C13.3037 35.0647 11.3886 35.0366 10.2198 33.8678L8.83984 32.4878L17.2887 24.0391Z" fill="white"/>
<path d="M27.4923 8.98307C26.9429 8.98372 26.4967 8.53751 26.4967 7.98753L26.4961 5.99567C26.496 5.44557 26.9415 5 27.4916 5C28.041 4.99936 28.4872 5.44557 28.4872 5.99554L28.4878 7.9874C28.4879 8.53751 28.0424 8.98307 27.4923 8.98307Z" fill="#AEBCDD"/>
<path d="M35.4562 14.9566L33.4643 14.9559C32.9142 14.9559 32.468 14.5097 32.4688 13.9604C32.4688 13.4103 32.9143 12.9648 33.4643 12.9648L35.4562 12.9655C36.0062 12.9655 36.4525 13.4117 36.4517 13.961C36.4517 14.511 36.0062 14.9566 35.4562 14.9566Z" fill="#AEBCDD"/>
<path d="M34.1832 7.14145C34.5775 7.53571 34.5776 8.15529 34.1832 8.54955L32.071 10.6617C31.6767 11.0561 31.0571 11.056 30.6629 10.6617C30.2686 10.2674 30.2686 9.6479 30.6629 9.25364L32.7751 7.14145C33.1694 6.74712 33.7889 6.74712 34.1832 7.14145Z" fill="#AEBCDD"/>
<path d="M22.2164 9.25429L32.0733 19.1112C32.355 19.3929 32.707 22.364 33.0731 22.4204L30.2991 22.9978C26.1873 23.8144 22.2868 26.0816 19.6395 28.7289L19.4002 28.9682L12.3594 21.9275L12.5988 21.6881C15.3869 18.9 17.4427 15.2106 18.2876 10.9863L18.8649 8.09961L22.2164 9.25429Z" fill="#AEBCDD"/>
<path d="M14.4713 26.8562C14.8656 27.2505 14.8657 27.8701 14.4713 28.2643L13.0632 29.6725C12.6689 30.0668 12.0493 30.0668 11.6551 29.6725C11.2608 29.2782 11.2608 28.6587 11.6551 28.2644L13.0632 26.8563C13.4575 26.462 14.0771 26.462 14.4713 26.8562Z" fill="#AEBCDD"/>
<path d="M27.144 14.1816L32.0724 19.1101C32.3541 19.3918 32.7061 22.3629 33.0722 22.4193L30.2982 22.9966C26.1864 23.8133 22.2859 26.0805 19.6386 28.7277L19.3993 28.9671L15.8789 25.4468L27.144 14.1816Z" fill="#AEBCDD"/>
<path d="M14.4725 26.8555C14.8667 27.2497 14.8668 27.8693 14.4725 28.2636L13.0644 29.6717C12.67 30.0661 12.0504 30.066 11.6562 29.6717L14.4725 26.8555Z" fill="#AEBCDD"/>
<path d="M22.2161 6.43828L34.8894 19.1115C35.6638 19.886 35.6638 21.1533 34.8894 21.9278C34.8049 22.0123 34.6922 22.0686 34.5795 22.1249C34.1289 22.4348 33.5938 22.5474 33.0727 22.4206C32.7067 22.3643 32.3547 22.2094 32.073 21.9278L19.3998 9.2545C19.0758 8.93055 18.921 8.52224 18.8646 8.09982C18.8084 7.67739 18.8929 7.25484 19.1041 6.87476C19.2026 6.71981 19.273 6.565 19.3998 6.43822C20.1743 5.66381 21.4417 5.66381 22.2161 6.43828Z" fill="white"/>
<path d="M28.5507 12.7754L34.8873 19.112C35.6618 19.8864 35.6618 21.1538 34.8873 21.9283C34.8028 22.0127 34.6901 22.069 34.5774 22.1253C34.1268 22.4352 33.5918 22.5478 33.0707 22.4211C32.7047 22.3648 32.3526 22.2099 32.071 21.9283L25.7344 15.5917L28.5507 12.7754Z" fill="white"/>
</g>
<defs>
<clipPath id="clip0">
<rect width="33" height="33" fill="white" transform="translate(5 5)"/>
</clipPath>
</defs>
</svg>
