<svg width="23" height="22" viewBox="0 0 23 22" fill="none" xmlns="http://www.w3.org/2000/svg">
<path d="M22.0576 8.48236C21.9119 8.03455 21.5148 7.71751 21.0467 7.67515L14.6626 7.09557L12.1396 1.18867C11.9533 0.754701 11.5295 0.474609 11.0577 0.474609C10.586 0.474609 10.1619 0.754701 9.97684 1.18867L7.45382 7.09557L1.06875 7.67515C0.600691 7.71835 0.204345 8.03539 0.0578877 8.48236C-0.0877261 8.93017 0.0467515 9.42134 0.400747 9.7318L5.22659 13.9634L3.80369 20.2303C3.69958 20.6911 3.87844 21.1676 4.26078 21.444C4.46629 21.5933 4.70774 21.6679 4.95004 21.6679C5.15825 21.6679 5.36663 21.6126 5.55274 21.5012L11.0577 18.2096L16.5617 21.5012C16.9655 21.7425 17.4732 21.7204 17.8547 21.444C18.237 21.1676 18.4159 20.6911 18.3118 20.2303L16.8889 13.9634L21.7147 9.7318C22.0685 9.42134 22.2032 8.93118 22.0576 8.48236Z" fill="#FABE2C"/>
</svg>
