<svg width="28" height="28" viewBox="0 0 28 28" fill="none" xmlns="http://www.w3.org/2000/svg">
<path d="M27.8731 10.6439C27.5367 9.61273 26.6185 8.94645 25.5339 8.94645H18.5393L16.3367 2.25744C15.9981 1.22918 15.0818 0.566406 14.0003 0.566406C13.9996 0.566406 10.7188 11.6868 10.7188 11.6868L13.9996 22.8072L19.6768 26.9532C20.555 27.5945 21.6914 27.5966 22.5718 26.9585C23.4524 26.3204 23.8042 25.2399 23.4682 24.2057L21.2978 17.526H21.3271L26.985 13.3942C27.8609 12.7546 28.2096 11.675 27.8731 10.6439Z" fill="#FF9A27"/>
<path d="M13.9903 0.566461C12.9044 0.570726 11.9884 1.2417 11.6569 2.27587L9.51848 8.94645H2.46568C1.37832 8.94645 0.459365 9.61497 0.124614 10.6495C-0.210192 11.6841 0.142932 12.7642 1.02426 13.4012L6.7071 17.5088L4.53117 24.2057C4.19516 25.2398 4.54697 26.3204 5.42748 26.9584C6.30794 27.5965 7.44436 27.5945 8.32252 26.9532L13.9999 22.8071C14.0001 22.8072 14.0001 0.566406 14.0001 0.566406C13.9968 0.566406 13.9935 0.566406 13.9903 0.566461Z" fill="#FFB820"/>
</svg>
