<svg width="23" height="22" viewBox="0 0 23 22" fill="none" xmlns="http://www.w3.org/2000/svg">
<path d="M5.10419 21.553C4.86189 21.553 4.62128 21.4775 4.41593 21.329C4.03342 21.0517 3.85473 20.5752 3.95884 20.1155L5.38158 13.8483L0.556543 9.61682C0.20187 9.3072 0.0663788 8.81686 0.211994 8.36821C0.357609 7.92039 0.75379 7.60335 1.22286 7.55998L7.60698 6.98039L10.131 1.07361C10.3171 0.639638 10.741 0.359375 11.2119 0.359375C11.6829 0.359375 12.1067 0.639638 12.2928 1.0726L14.8169 6.98039L21.2 7.55998C21.6701 7.60234 22.0662 7.92039 22.2119 8.36821C22.3575 8.81602 22.2228 9.3072 21.8682 9.61682L17.0431 13.8474L18.4659 20.1144C18.5701 20.5752 18.3913 21.0517 18.0089 21.3281C17.6274 21.6045 17.1187 21.6258 16.717 21.3843L11.2119 18.0946L5.7069 21.3862C5.52079 21.4967 5.31342 21.553 5.10419 21.553ZM11.2119 16.6774C11.4212 16.6774 11.6284 16.7336 11.8146 16.8441L17.01 19.9514L15.6673 14.0362C15.5714 13.6152 15.7144 13.1757 16.0397 12.8909L20.5956 8.89532L14.568 8.34796C14.134 8.30831 13.7608 8.03547 13.5912 7.63558L11.2119 2.06137L8.82978 7.63642C8.66206 8.03361 8.28882 8.30645 7.85586 8.3461L1.82743 8.89347L6.38317 12.889C6.7095 13.1747 6.85225 13.6134 6.75556 14.0354L5.41381 19.9504L10.6092 16.8441C10.7953 16.7336 11.0027 16.6774 11.2119 16.6774ZM7.55822 7.09462C7.55822 7.09462 7.55822 7.09564 7.55721 7.09648L7.55822 7.09462ZM14.8638 7.09192L14.8648 7.09378C14.8648 7.09277 14.8648 7.09277 14.8638 7.09192Z" fill="#FABE2C"/>
</svg>
