<svg width="32" height="32" viewBox="0 0 32 32" fill="none" xmlns="http://www.w3.org/2000/svg">
<path d="M31.6476 12.1729C31.4387 11.5304 30.8688 11.0755 30.1972 11.0147L21.0376 10.1832L17.4176 1.70811C17.1503 1.08546 16.5422 0.683594 15.8653 0.683594C15.1884 0.683594 14.5801 1.08546 14.3145 1.70811L10.6945 10.1832L1.53341 11.0147C0.861856 11.0767 0.293189 11.5316 0.0830557 12.1729C-0.125867 12.8154 0.0670778 13.5201 0.574981 13.9656L7.49897 20.0369L5.45743 29.0286C5.30806 29.6897 5.56468 30.3734 6.11325 30.7699C6.40812 30.9842 6.75454 31.0912 7.10218 31.0912C7.40092 31.0912 7.6999 31.0118 7.96693 30.852L15.8653 26.1293L23.7623 30.852C24.3416 31.1982 25.07 31.1665 25.6174 30.7699C26.166 30.3734 26.4226 29.6897 26.2732 29.0286L24.2317 20.0369L31.1557 13.9656C31.6633 13.5201 31.8565 12.8169 31.6476 12.1729Z" fill="#FABE2C"/>
</svg>
