<svg width="55" height="55" viewBox="0 0 55 55" fill="none" xmlns="http://www.w3.org/2000/svg">
<circle cx="27.5" cy="27.5" r="27.5" fill="#FF6699"/>
<g clip-path="url(#clip0)">
<path d="M41.6678 14.026L10.8924 27.5543C10.6379 27.6654 10.4772 27.9266 10.4917 28.2045L10.4968 28.2613C10.537 28.5572 10.7719 28.7923 11.0688 28.8339L25.7048 30.897L28.9651 44.0559C29.0358 44.3384 29.2766 44.5421 29.5639 44.5637C29.8523 44.5863 30.1214 44.4228 30.2344 44.1565L42.6166 14.976L42.6208 14.9725L42.6196 14.9704L42.6683 14.8528C42.7758 14.603 42.7138 14.3007 42.5232 14.1127C42.3303 13.9205 42.0337 13.8649 41.7824 13.9759L41.6762 14.0224L41.6739 14.0192L41.6678 14.026ZM29.7846 41.781L26.9903 30.5029L40.0933 17.4807L29.7846 41.781ZM26.0087 29.5859L13.5933 27.8352L39.0197 16.6566L26.0087 29.5859Z" fill="white"/>
</g>
<defs>
<clipPath id="clip0">
<rect width="32.8947" height="32.8947" fill="white" transform="translate(42.6082 12.4193) rotate(87.0159)"/>
</clipPath>
</defs>
</svg>
