<svg width="55" height="55" viewBox="0 0 55 55" fill="none" xmlns="http://www.w3.org/2000/svg">
<circle cx="27.5" cy="27.5" r="27.5" fill="#FABE2C"/>
<path d="M38.1955 13.7438H15.8853C13.5527 13.7438 11.6548 15.6412 11.6548 17.9742V31.6276C11.6548 33.9554 13.5444 35.8498 15.8703 35.8581V42.0539L24.7743 35.8581H38.1955C40.5282 35.8581 42.426 33.9603 42.426 31.6276V17.9742C42.426 15.6412 40.5282 13.7438 38.1955 13.7438ZM40.623 31.6276C40.623 32.966 39.5341 34.0551 38.1955 34.0551H24.2086L17.6733 38.6028V34.0551H15.8853C14.5468 34.0551 13.4578 32.966 13.4578 31.6276V17.9742C13.4578 16.6355 14.5468 15.5468 15.8853 15.5468H38.1955C39.5341 15.5468 40.623 16.6355 40.623 17.9742V31.6276Z" fill="white"/>
<path d="M19.8906 20.1145H34.1903V21.9175H19.8906V20.1145Z" fill="white"/>
<path d="M19.8906 23.9609H34.1903V25.7639H19.8906V23.9609Z" fill="white"/>
<path d="M19.8906 27.8073H34.1903V29.6102H19.8906V27.8073Z" fill="white"/>
</svg>
