<svg width="55" height="56" viewBox="0 0 55 56" fill="none" xmlns="http://www.w3.org/2000/svg">
<circle cx="27.5" cy="27.8477" r="27.5" fill="#4793FF"/>
<g clip-path="url(#clip0)">
<path d="M39.0322 27.0416C39.9934 26.3662 40.6298 25.2427 40.6298 23.9763C40.6298 21.9046 38.9543 20.229 36.8826 20.229C34.8109 20.229 33.1353 21.9046 33.1353 23.9763C33.1353 25.2427 33.7653 26.3662 34.7329 27.0416C33.9082 27.3274 33.1548 27.769 32.5184 28.3405C31.6416 27.5937 30.609 27.0222 29.479 26.6845C30.8493 25.8532 31.7715 24.34 31.7715 22.619C31.7715 19.9952 29.6478 17.8716 27.0241 17.8716C24.4004 17.8716 22.2767 20.0017 22.2767 22.619C22.2767 24.34 23.1924 25.8532 24.5692 26.6845C23.4522 27.0222 22.4326 27.5872 21.5623 28.321C20.9259 27.7625 20.1855 27.3274 19.3737 27.0481C20.3349 26.3727 20.9714 25.2492 20.9714 23.9828C20.9714 21.9111 19.2958 20.2355 17.2241 20.2355C15.1524 20.2355 13.4768 21.9111 13.4768 23.9828C13.4768 25.2492 14.1068 26.3727 15.0745 27.0481C12.4962 27.9379 10.6453 30.3862 10.6453 33.2633V33.6919C10.6453 33.7049 10.6583 33.7179 10.6713 33.7179H18.6139C18.5684 34.0751 18.5425 34.4452 18.5425 34.8154V35.257C18.5425 37.1664 20.0881 38.712 21.9975 38.712H32.0638C33.9731 38.712 35.5188 37.1664 35.5188 35.257V34.8154C35.5188 34.4452 35.4928 34.0751 35.4473 33.7179H43.4419C43.4549 33.7179 43.4679 33.7049 43.4679 33.6919V33.2633C43.4549 30.3798 41.6105 27.9314 39.0322 27.0416ZM34.1744 23.9698C34.1744 22.4761 35.3889 21.2616 36.8826 21.2616C38.3763 21.2616 39.5907 22.4761 39.5907 23.9698C39.5907 25.444 38.4023 26.6455 36.9345 26.678C36.9151 26.678 36.9021 26.678 36.8826 26.678C36.8631 26.678 36.8501 26.678 36.8306 26.678C35.3564 26.652 34.1744 25.4505 34.1744 23.9698ZM23.3028 22.619C23.3028 20.5732 24.9654 18.9107 27.0111 18.9107C29.0569 18.9107 30.7194 20.5732 30.7194 22.619C30.7194 24.5933 29.1673 26.2104 27.2254 26.3208C27.154 26.3208 27.0826 26.3208 27.0111 26.3208C26.9397 26.3208 26.8682 26.3208 26.7968 26.3208C24.855 26.2104 23.3028 24.5933 23.3028 22.619ZM14.4965 23.9698C14.4965 22.4761 15.7109 21.2616 17.2046 21.2616C18.6983 21.2616 19.9128 22.4761 19.9128 23.9698C19.9128 25.444 18.7243 26.6455 17.2566 26.678C17.2371 26.678 17.2241 26.678 17.2046 26.678C17.1851 26.678 17.1721 26.678 17.1527 26.678C15.6849 26.652 14.4965 25.4505 14.4965 23.9698ZM18.7957 32.6723H11.6974C11.9896 29.9057 14.3276 27.7365 17.1656 27.7171C17.1786 27.7171 17.1916 27.7171 17.2046 27.7171C17.2176 27.7171 17.2306 27.7171 17.2436 27.7171C18.5944 27.7236 19.8283 28.2236 20.783 29.0354C19.8478 30.0485 19.1529 31.2955 18.7957 32.6723ZM34.4667 35.257C34.4667 36.5884 33.3821 37.6729 32.0508 37.6729H21.9845C20.6531 37.6729 19.5686 36.5884 19.5686 35.257V34.8154C19.5686 30.7824 22.7898 27.4833 26.7968 27.3664C26.8682 27.3729 26.9462 27.3729 27.0176 27.3729C27.0891 27.3729 27.167 27.3729 27.2384 27.3664C31.2455 27.4833 34.4667 30.7824 34.4667 34.8154V35.257ZM35.2395 32.6723C34.8823 31.302 34.2004 30.0745 33.2717 29.0614C34.2329 28.2301 35.4798 27.73 36.8436 27.7171C36.8566 27.7171 36.8696 27.7171 36.8826 27.7171C36.8956 27.7171 36.9086 27.7171 36.9215 27.7171C39.7596 27.7365 42.0976 29.9057 42.3898 32.6723H35.2395Z" fill="white"/>
</g>
<defs>
<clipPath id="clip0">
<rect width="32.8226" height="32.8226" fill="white" transform="translate(10.6453 11.8806)"/>
</clipPath>
</defs>
</svg>
