<svg width="13" height="14" viewBox="0 0 13 14" fill="none" xmlns="http://www.w3.org/2000/svg">
<path d="M6.5 0.5C2.9159 0.5 0 3.4159 0 7C0 8.56975 0.559433 10.0112 1.48937 11.1357C1.49175 11.139 1.49197 11.1431 1.49457 11.1461C2.16602 11.9558 3.00928 12.5766 3.94897 12.9776C3.9598 12.9822 3.97042 12.9872 3.98125 12.9917C4.0573 13.0238 4.13422 13.0535 4.21135 13.0825C4.24168 13.094 4.27202 13.1057 4.30278 13.1167C4.3693 13.1405 4.43625 13.1631 4.50363 13.1847C4.54675 13.1986 4.58987 13.2123 4.63342 13.2253C4.693 13.243 4.7528 13.2601 4.81303 13.2764C4.8659 13.2907 4.9192 13.3039 4.9725 13.3167C5.02645 13.3297 5.08062 13.3427 5.135 13.3542C5.19567 13.3672 5.25698 13.3787 5.31852 13.3899C5.36792 13.399 5.4171 13.4086 5.46693 13.4166C5.53518 13.4276 5.60387 13.4363 5.67277 13.4452C5.71718 13.4508 5.76138 13.4573 5.80602 13.4621C5.88402 13.4703 5.96267 13.4762 6.04153 13.4816C6.07815 13.4842 6.11455 13.4881 6.15138 13.49C6.26643 13.4965 6.38278 13.5 6.5 13.5C6.61722 13.5 6.73357 13.4965 6.84905 13.4905C6.88588 13.4885 6.92228 13.4846 6.9589 13.482C7.03777 13.4764 7.11642 13.4707 7.19442 13.4625C7.23905 13.4578 7.28325 13.4513 7.32767 13.4456C7.39657 13.4367 7.46525 13.4281 7.5335 13.417C7.58312 13.409 7.63252 13.3995 7.68192 13.3904C7.74323 13.3791 7.80455 13.3676 7.86543 13.3546C7.91982 13.3429 7.97377 13.3301 8.02793 13.3171C8.08123 13.3041 8.13453 13.2909 8.1874 13.2768C8.24763 13.2608 8.30743 13.2435 8.36702 13.2257C8.41057 13.2127 8.45368 13.199 8.4968 13.1852C8.56418 13.1635 8.63113 13.141 8.69765 13.1172C8.7282 13.1061 8.75853 13.0944 8.78908 13.0829C8.86643 13.0539 8.94313 13.024 9.01918 12.9921C9.03002 12.9876 9.04063 12.9826 9.05147 12.9781C9.99093 12.577 10.8344 11.9563 11.5059 11.1466C11.5085 11.1435 11.5087 11.1392 11.5111 11.1362C12.4406 10.0112 13 8.56975 13 7C13 3.4159 10.0841 0.5 6.5 0.5ZM9.13402 12.4643C9.13077 12.4659 9.12773 12.4676 9.12448 12.4691C9.04713 12.5064 8.96848 12.5415 8.88918 12.5757C8.8712 12.5833 8.85343 12.5911 8.83545 12.5987C8.76612 12.6277 8.69592 12.6552 8.62528 12.6817C8.59582 12.6927 8.56635 12.7035 8.53667 12.7139C8.47405 12.7363 8.41122 12.7577 8.34773 12.7781C8.3083 12.7906 8.26865 12.8026 8.229 12.8142C8.17267 12.8312 8.11612 12.8474 8.05892 12.8626C8.01082 12.8753 7.96228 12.887 7.91375 12.8985C7.86283 12.9107 7.81213 12.923 7.76078 12.9339C7.70467 12.9458 7.64812 12.9559 7.59178 12.9661C7.54607 12.9746 7.50057 12.9835 7.45442 12.9908C7.39093 13.0008 7.3268 13.0088 7.26288 13.0168C7.22237 13.022 7.18207 13.0281 7.14112 13.0324C7.0681 13.0402 6.99443 13.0452 6.92098 13.0504C6.88827 13.0526 6.85577 13.0563 6.82262 13.058C6.71537 13.0636 6.6079 13.0667 6.5 13.0667C6.3921 13.0667 6.28463 13.0636 6.1776 13.058C6.14467 13.0563 6.11217 13.0528 6.07923 13.0504C6.00557 13.0454 5.93212 13.0402 5.8591 13.0324C5.81815 13.0281 5.77785 13.022 5.73733 13.0168C5.67342 13.0088 5.60928 13.0008 5.5458 12.9908C5.49965 12.9835 5.45415 12.9746 5.40843 12.9661C5.35188 12.9559 5.29533 12.9455 5.23943 12.9339C5.18808 12.923 5.13717 12.9107 5.08647 12.8985C5.03793 12.8868 4.9894 12.8753 4.9413 12.8626C4.88432 12.8474 4.82755 12.8309 4.77122 12.8142C4.73157 12.8026 4.69192 12.7906 4.65248 12.7781C4.589 12.7577 4.52595 12.7363 4.46355 12.7139C4.43387 12.7033 4.4044 12.6925 4.37493 12.6817C4.3043 12.6552 4.2341 12.6277 4.16477 12.5987C4.14678 12.5913 4.12923 12.5835 4.11125 12.5759C4.03195 12.5419 3.9533 12.5066 3.87573 12.4693C3.87248 12.4678 3.86945 12.4663 3.8662 12.4646C3.11025 12.0988 2.44248 11.5797 1.9006 10.9492C2.31942 9.40695 3.50502 8.16372 5.03035 7.66907C5.06047 7.68748 5.09188 7.70395 5.12287 7.72128C5.14107 7.73147 5.15905 7.7423 5.17747 7.75205C5.24203 7.78628 5.30747 7.81835 5.37442 7.84717C5.42577 7.8697 5.47885 7.88877 5.53172 7.90827C5.54212 7.91195 5.55252 7.91607 5.56292 7.91975C5.85672 8.02375 6.1711 8.08333 6.5 8.08333C6.8289 8.08333 7.14328 8.02375 7.43687 7.91975C7.44727 7.91607 7.45767 7.91195 7.46807 7.90827C7.52093 7.88877 7.57402 7.8697 7.62537 7.84717C7.69232 7.81835 7.75775 7.78628 7.82232 7.75205C7.84073 7.74208 7.85872 7.73147 7.87692 7.72128C7.9079 7.70395 7.93953 7.68748 7.96987 7.66885C9.4952 8.16372 10.6806 9.40695 11.0996 10.949C10.5577 11.5793 9.88997 12.0984 9.13402 12.4643ZM4.11667 5.26667C4.11667 3.95258 5.18592 2.88333 6.5 2.88333C7.81408 2.88333 8.88333 3.95258 8.88333 5.26667C8.88333 6.10257 8.44978 6.83815 7.79653 7.26368C7.71117 7.31915 7.62233 7.36877 7.53112 7.4121C7.52028 7.4173 7.50967 7.42272 7.49883 7.4277C6.87137 7.71305 6.12863 7.71305 5.50117 7.4277C5.49033 7.42272 5.4795 7.4173 5.46888 7.4121C5.37745 7.36877 5.28883 7.31915 5.20347 7.26368C4.55022 6.83815 4.11667 6.10257 4.11667 5.26667ZM11.4246 10.5367C10.9334 9.08628 9.81283 7.91412 8.3811 7.35728C8.95375 6.8414 9.31667 6.0965 9.31667 5.26667C9.31667 3.7136 8.05307 2.45 6.5 2.45C4.94693 2.45 3.68333 3.7136 3.68333 5.26667C3.68333 6.0965 4.04625 6.8414 4.61912 7.35728C3.18738 7.91433 2.06678 9.08628 1.5756 10.5367C0.857783 9.5402 0.433333 8.31907 0.433333 7C0.433333 3.65488 3.15488 0.933333 6.5 0.933333C9.84512 0.933333 12.5667 3.65488 12.5667 7C12.5667 8.31907 12.1422 9.5402 11.4246 10.5367Z" fill="#284486"/>
</svg>
