<svg width="11" height="12" viewBox="0 0 11 12" fill="none" xmlns="http://www.w3.org/2000/svg">
<g clip-path="url(#clip0)">
<path d="M10.2826 4.80435H9.3873C9.31222 4.55924 9.21393 4.3225 9.09461 4.097L9.72711 3.4645C9.86246 3.32915 9.93707 3.14885 9.93707 2.95683C9.93707 2.76504 9.86246 2.58474 9.72711 2.44939L9.05037 1.77265C8.77991 1.5022 8.30643 1.50148 8.0355 1.77265L7.403 2.40515C7.17774 2.28583 6.94076 2.18778 6.69565 2.11246V1.21739C6.69565 0.82187 6.37378 0.5 5.97826 0.5H5.02174C4.62622 0.5 4.30435 0.82187 4.30435 1.21739V2.1127C4.05924 2.18802 3.8225 2.28607 3.597 2.40539L2.96426 1.77289C2.68448 1.49311 2.22917 1.49311 1.94939 1.77289L1.27241 2.44963C0.99287 2.72941 0.99287 3.18472 1.27241 3.4645L1.90491 4.09724C1.78559 4.3225 1.68754 4.55948 1.61222 4.80459H0.717391C0.32187 4.80459 0 5.12646 0 5.52198V6.4785C0 6.87378 0.32187 7.19565 0.717391 7.19565H1.6127C1.68802 7.44076 1.78607 7.6775 1.90539 7.903L1.27289 8.53574C0.993109 8.81552 0.993109 9.27083 1.27289 9.55061L1.94963 10.2276C2.22941 10.5071 2.68472 10.5071 2.9645 10.2276L3.59724 9.59509C3.8225 9.71441 4.05948 9.81246 4.30459 9.88778V10.7826C4.30459 11.1781 4.62646 11.5 5.02198 11.5H5.9785C6.37402 11.5 6.69589 11.1781 6.69589 10.7826V9.8873C6.941 9.81198 7.17798 9.71393 7.40324 9.59461L8.03574 10.2273C8.30691 10.4983 8.78039 10.4978 9.05061 10.2273L9.72735 9.55061C9.8627 9.41526 9.9373 9.23496 9.9373 9.04317C9.9373 8.85115 9.8627 8.67109 9.72735 8.53574L9.09485 7.903C9.21417 7.67774 9.31222 7.44076 9.38754 7.19565H10.2826C10.6781 7.19565 11 6.87378 11 6.47826V5.52174C11 5.12622 10.6781 4.80435 10.2826 4.80435ZM10.5217 6.47826C10.5217 6.61002 10.4146 6.71739 10.2826 6.71739H9.20652C9.09748 6.71739 9.00231 6.79128 8.97504 6.89674C8.89039 7.22315 8.7615 7.53474 8.59148 7.82265C8.53624 7.91663 8.5513 8.0362 8.6283 8.1132L9.38874 8.87387C9.4337 8.91883 9.45857 8.97885 9.45857 9.04317C9.45857 9.1075 9.4337 9.16752 9.38874 9.21248L8.712 9.88922C8.62209 9.97913 8.46354 9.97913 8.37339 9.88922L7.61296 9.12878C7.53596 9.05154 7.41639 9.03672 7.32217 9.09196C7.03474 9.26174 6.72315 9.39087 6.3965 9.47528C6.29128 9.50231 6.21739 9.59748 6.21739 9.70652V10.7826C6.21739 10.9144 6.11026 11.0217 5.97826 11.0217H5.02174C4.88998 11.0217 4.78261 10.9144 4.78261 10.7826V9.70652C4.78261 9.59748 4.70872 9.50231 4.60326 9.47504C4.27685 9.39063 3.96526 9.26174 3.67735 9.09172C3.63957 9.06924 3.59772 9.05848 3.55587 9.05848C3.49393 9.05848 3.43272 9.08239 3.38657 9.12854L2.62613 9.88898C2.53263 9.98224 2.38102 9.98224 2.28752 9.88898L1.61078 9.21224C1.51728 9.11874 1.51728 8.96689 1.61078 8.87363L2.37122 8.1132C2.44846 8.03596 2.46352 7.91639 2.40804 7.82265C2.23826 7.53474 2.10913 7.22339 2.02472 6.89674C1.9977 6.79128 1.90252 6.71739 1.79348 6.71739H0.717391C0.58563 6.71739 0.478261 6.61002 0.478261 6.47826V5.52174C0.478261 5.38998 0.58563 5.28261 0.717391 5.28261H1.79348C1.90252 5.28261 1.9977 5.20872 2.02496 5.10326C2.10937 4.77685 2.23826 4.46526 2.40828 4.17735C2.46376 4.08337 2.4487 3.9638 2.37146 3.8868L1.61102 3.12637C1.51776 3.03311 1.51776 2.88126 1.61102 2.78776L2.28776 2.11102C2.38126 2.01752 2.53287 2.01776 2.62637 2.11102L3.3868 2.87146C3.46404 2.9487 3.58337 2.964 3.67735 2.90828C3.96526 2.7385 4.27661 2.60937 4.60326 2.52496C4.70872 2.4977 4.78261 2.40252 4.78261 2.29348V1.21739C4.78261 1.08563 4.88998 0.978261 5.02174 0.978261H5.97826C6.11026 0.978261 6.21739 1.08563 6.21739 1.21739V2.29348C6.21739 2.40252 6.29128 2.4977 6.39674 2.52496C6.72339 2.60937 7.03498 2.7385 7.32241 2.90828C7.41663 2.96376 7.5362 2.94893 7.6132 2.87146L8.37363 2.11102C8.46378 2.02063 8.62233 2.02087 8.71224 2.11102L9.38898 2.78776C9.43394 2.83272 9.4588 2.89298 9.4588 2.95707C9.4588 3.02115 9.43394 3.08141 9.38898 3.12637L8.62854 3.8868C8.55154 3.96404 8.53624 4.08361 8.59172 4.17735C8.76174 4.46526 8.89063 4.77661 8.97528 5.10326C9.00231 5.20872 9.09748 5.28261 9.20652 5.28261H10.2826C10.4146 5.28261 10.5217 5.38998 10.5217 5.52174V6.47826Z" fill="#284486"/>
<path d="M5.49983 3.84766C4.31326 3.84766 3.34766 4.81327 3.34766 5.99983C3.34766 7.1864 4.31326 8.15201 5.49983 8.15201C6.68663 8.15201 7.652 7.1864 7.652 5.99983C7.652 4.81327 6.68663 3.84766 5.49983 3.84766ZM5.49983 7.67375C4.57679 7.67375 3.82592 6.92288 3.82592 5.99983C3.82592 5.07679 4.57679 4.32592 5.49983 4.32592C6.42263 4.32592 7.17374 5.07679 7.17374 5.99983C7.17374 6.92288 6.42263 7.67375 5.49983 7.67375Z" fill="#284486"/>
</g>
<defs>
<clipPath id="clip0">
<rect width="11" height="11" fill="white" transform="translate(0 0.5)"/>
</clipPath>
</defs>
</svg>
