<svg width="13" height="14" viewBox="0 0 13 14" fill="none" xmlns="http://www.w3.org/2000/svg">
<g clip-path="url(#clip0)">
<path d="M9.20964 10.7923C7.11934 10.7923 5.41797 9.09094 5.41797 7.00065C5.41797 4.91036 7.11934 3.20898 9.20964 3.20898C11.2999 3.20898 13.0013 4.91036 13.0013 7.00065C13.0013 9.09094 11.2999 10.7923 9.20964 10.7923ZM9.20964 3.75065C7.41726 3.75065 5.95964 5.20828 5.95964 7.00065C5.95964 8.79303 7.41726 10.2507 9.20964 10.2507C11.002 10.2507 12.4596 8.79303 12.4596 7.00065C12.4596 5.20828 11.002 3.75065 9.20964 3.75065Z" fill="#284486"/>
<path d="M9.20703 8.625C8.31111 8.625 7.58203 7.89592 7.58203 7C7.58203 6.10408 8.31111 5.375 9.20703 5.375C10.1029 5.375 10.832 6.10408 10.832 7C10.832 7.89592 10.1029 8.625 9.20703 8.625ZM9.20703 5.91667C8.60957 5.91667 8.1237 6.40254 8.1237 7C8.1237 7.59746 8.60957 8.08333 9.20703 8.08333C9.80449 8.08333 10.2904 7.59746 10.2904 7C10.2904 6.40254 9.80449 5.91667 9.20703 5.91667Z" fill="#284486"/>
<path d="M6.24 9.16732H2.16667C1.58492 9.16732 1.04108 8.94036 0.635917 8.52815C0.226958 8.12623 0 7.5824 0 7.00065C0 5.80573 0.97175 4.83398 2.16667 4.83398H6.24C6.3895 4.83398 6.51083 4.95532 6.51083 5.10482C6.51083 5.25432 6.3895 5.37565 6.24 5.37565H2.16667C1.27075 5.37565 0.541667 6.10473 0.541667 7.00065C0.541667 7.43669 0.710667 7.84294 1.01888 8.14519C1.32438 8.45665 1.73063 8.62565 2.16667 8.62565H6.24C6.3895 8.62565 6.51083 8.74698 6.51083 8.89648C6.51083 9.04598 6.3895 9.16732 6.24 9.16732Z" fill="#284486"/>
</g>
<defs>
<clipPath id="clip0">
<rect width="13" height="13" fill="white" transform="translate(0 0.5)"/>
</clipPath>
</defs>
</svg>
