<svg width="33" height="33" viewBox="0 0 33 33" fill="none" xmlns="http://www.w3.org/2000/svg">
<circle cx="16.5" cy="16.5" r="15.5" stroke="white" stroke-width="2"/>
<path d="M25.25 20.4V12.6L21.4 15.525C21.225 15.6875 20.7 15.6875 20.525 15.6875C20.175 15.525 20 15.2 20 14.875V12.4375C20 11.95 19.65 11.625 19.125 11.625H8.625C8.1 11.625 7.75 11.95 7.75 12.4375V20.5625C7.75 21.05 8.1 21.375 8.625 21.375H19.125C19.65 21.375 20 21.05 20 20.5625V18.125C20 17.8 20.175 17.475 20.525 17.475C20.875 17.3125 21.225 17.3125 21.4 17.6375L25.25 20.4ZM21.75 20.5625C21.75 21.8625 20.525 23 19.125 23H12.125H8.625C7.225 23 6 21.8625 6 20.5625V12.4375C6 11.1375 7.225 10 8.625 10H12.125H19.125C20.525 10 21.75 11.1375 21.75 12.4375V13.0875L25.6 10.1625C25.775 10 26.125 10 26.475 10.1625C26.825 10.1625 27 10.4875 27 10.8125V22.1875C27 22.5125 26.825 22.8375 26.475 22.8375C26.3 22.8375 26.3 23 26.125 23C25.95 23 25.775 23 25.6 22.8375L21.75 19.9125V20.5625Z" fill="white"/>
</svg>
