<svg width="52" height="52" viewBox="0 0 52 52" fill="none" xmlns="http://www.w3.org/2000/svg">
<circle cx="26" cy="26" r="26" fill="#284486"/>
<path fill-rule="evenodd" clip-rule="evenodd" d="M38.6763 23.5136H18.0194L37.8606 17.7659C38.0148 17.7212 38.1449 17.6169 38.2225 17.4764C38.3 17.3357 38.3185 17.1701 38.2738 17.0159L37.2355 13.4316C36.8207 12 35.4877 11 33.9939 11C33.6791 11 33.3655 11.0447 33.0613 11.1327L14.4325 16.5292C13.5709 16.7787 12.8569 17.3515 12.4215 18.1417C11.9863 18.9319 11.8841 19.8417 12.1336 20.7031L13.148 24.2049V38.6304C13.148 40.4885 14.6596 42 16.5174 42H23.7929C24.1273 42 24.3984 41.729 24.3984 41.3945C24.3984 41.0601 24.1273 40.7891 23.7929 40.7891H16.5176C15.3272 40.7891 14.359 39.8208 14.359 38.6304V30.3908H17.4608H17.4622H17.4634H22.205H22.2064H22.2078H26.9494H26.9508H26.9522H31.6938H31.6952H31.6964H38.0709V38.6304C38.0709 39.8208 37.1026 40.7891 35.9122 40.7891H28.6367C28.3025 40.7891 28.0312 41.0601 28.0312 41.3945C28.0312 41.729 28.3025 42 28.6367 42H35.9122C37.7703 42 39.2818 40.4885 39.2818 38.6304V24.119C39.2818 23.7846 39.0108 23.5136 38.6763 23.5136ZM28 29.1799L30.5725 24.7245H33.9184L31.3461 29.1799H28ZM23.2556 29.1799L25.8281 24.7245H29.174L26.6017 29.1799H23.2556ZM18.5114 29.1799L21.0837 24.7245H24.4298L21.8573 29.1799H18.5114ZM20.7625 21.3417L16.4547 17.2042L19.6823 16.2692C19.7051 16.3023 19.7315 16.3336 19.7618 16.3627L24.0696 20.5002L20.842 21.4351C20.8193 21.402 20.7925 21.3705 20.7625 21.3417ZM28.8758 13.7225L33.1836 17.86L29.9559 18.7949C29.9332 18.7618 29.9067 18.7304 29.8765 18.7015L25.5686 14.564L28.7963 13.6291C28.819 13.6622 28.8455 13.6934 28.8758 13.7225ZM24.3187 15.0427L28.6265 19.18L25.3988 20.1151C25.3761 20.082 25.3496 20.0506 25.3194 20.0217L21.0115 15.8842L24.2392 14.9493C24.2622 14.9821 24.2886 15.0136 24.3187 15.0427ZM33.3983 12.2958C33.5928 12.2396 33.7931 12.2109 33.9939 12.2109C34.952 12.2109 35.8065 12.8514 36.0723 13.7686L36.9422 16.7711L34.513 17.4747C34.4901 17.4416 34.4636 17.4104 34.4333 17.3813L30.1257 13.244L33.3983 12.2958ZM13.4822 18.7259C13.7613 18.219 14.2185 17.852 14.7695 17.6923L15.1252 17.5892C15.1482 17.6223 15.1747 17.6538 15.2047 17.6826L19.5125 21.8202L14.1667 23.3688L13.2968 20.3663C13.1371 19.8155 13.2031 19.233 13.4822 18.7259ZM14.359 24.7245H19.6854L17.1131 29.1799H14.359V24.7245ZM32.7444 29.1799L35.3167 24.7245H38.0709V29.1799H32.7444Z" fill="white"/>
<path fill-rule="evenodd" clip-rule="evenodd" d="M30.4014 35.5281C30.4014 35.3117 30.286 35.1118 30.0987 35.0037L24.7793 31.9326C24.592 31.8245 24.3611 31.8245 24.1738 31.9326C23.9865 32.0407 23.8711 32.2406 23.8711 32.457V38.5992C23.8711 38.8153 23.9865 39.0152 24.1738 39.1233C24.2675 39.1774 24.372 39.2046 24.4766 39.2046C24.5811 39.2046 24.6856 39.1774 24.7793 39.1233L30.0987 36.0524C30.286 35.9443 30.4014 35.7445 30.4014 35.5281ZM25.082 37.5505V33.5057L28.585 35.5281L25.082 37.5505Z" fill="white"/>
<path fill-rule="evenodd" clip-rule="evenodd" d="M26.2148 40.7891C25.8814 40.7891 25.6094 41.0611 25.6094 41.3945C25.6094 41.728 25.8814 42 26.2148 42C26.5486 42 26.8203 41.728 26.8203 41.3945C26.8203 41.0611 26.5486 40.7891 26.2148 40.7891Z" fill="white"/>
</svg>
