<svg width="12" height="12" viewBox="0 0 12 12" fill="none" xmlns="http://www.w3.org/2000/svg">
<path d="M6.0015 0H5.9985C2.69025 0 0 2.691 0 6C0 7.3125 0.423 8.529 1.14225 9.51675L0.3945 11.7458L2.70075 11.0085C3.6495 11.637 4.78125 12 6.0015 12C9.30975 12 12 9.30825 12 6C12 2.69175 9.30975 0 6.0015 0Z" fill="#4CAF50"/>
<path d="M9.49047 8.47264C9.34572 8.88139 8.77122 9.22039 8.31297 9.31939C7.99947 9.38614 7.58997 9.43939 6.21147 8.86789C4.44822 8.13739 3.31272 6.34564 3.22422 6.22939C3.13947 6.11314 2.51172 5.28064 2.51172 4.41964C2.51172 3.55864 2.94897 3.13939 3.12522 2.95939C3.26997 2.81164 3.50922 2.74414 3.73872 2.74414C3.81297 2.74414 3.87972 2.74789 3.93972 2.75089C4.11597 2.75839 4.20447 2.76889 4.32072 3.04714C4.46547 3.39589 4.81797 4.25689 4.85997 4.34539C4.90272 4.43389 4.94547 4.55389 4.88547 4.67014C4.82922 4.79014 4.77972 4.84339 4.69122 4.94539C4.60272 5.04739 4.51872 5.12539 4.43022 5.23489C4.34922 5.33014 4.25772 5.43214 4.35972 5.60839C4.46172 5.78089 4.81422 6.35614 5.33322 6.81814C6.00297 7.41439 6.54597 7.60489 6.74022 7.68589C6.88497 7.74589 7.05747 7.73164 7.16322 7.61914C7.29747 7.47439 7.46322 7.23439 7.63197 6.99814C7.75197 6.82864 7.90347 6.80764 8.06247 6.86764C8.22447 6.92389 9.08172 7.34764 9.25797 7.43539C9.43422 7.52389 9.55047 7.56589 9.59322 7.64014C9.63522 7.71439 9.63522 8.06314 9.49047 8.47264Z" fill="#FAFAFA"/>
</svg>
