<svg width="95" height="86" viewBox="0 0 95 86" fill="none" xmlns="http://www.w3.org/2000/svg">
<path d="M84.6269 68.6551C84.6269 49.9234 94.3299 37.0601 94.3299 28.0342C94.3299 19.0082 89.1413 0.0517578 47.6185 0.0517578C6.09584 0.0517578 0 25.5536 0 35.4813C0 81.9706 84.6269 101.829 84.6269 68.6551Z" fill="#E5FBFC"/>
<path d="M79.5247 77.9152H59.5393L58.0642 76.6367L56.589 77.9152H50.8852C50.0706 77.9152 49.4101 77.2547 49.4101 76.4401V74.0491C49.4101 65.3899 56.4549 58.3451 65.1141 58.3451H65.296C73.9552 58.3451 81 65.3899 81 74.0491V76.4401C80.9998 77.2547 80.3394 77.9152 79.5247 77.9152Z" fill="#42C1EE"/>
<path d="M65.2959 58.153H65.2049V78.3354H79.5247C80.3394 78.3354 80.9999 77.6542 80.9999 76.8141V74.3483C80.9999 65.4181 73.9551 58.153 65.2959 58.153Z" fill="#4273B8"/>
<path d="M65.2051 60.8529C60.3248 60.8529 56.3543 56.8824 56.3543 52.0021C56.3543 47.1218 74.0558 47.1218 74.0558 52.0021C74.0558 56.8824 70.0854 60.8529 65.2051 60.8529Z" fill="#FFDECF"/>
<path d="M65.205 43.2357C60.3665 43.2357 56.4301 47.0752 56.4301 51.7946C56.4301 52.114 56.4487 52.4292 56.4839 52.7397C57.0753 52.8379 57.6756 52.8882 58.2748 52.8882C60.8146 52.8882 63.2849 51.9891 65.2051 50.3924C67.1252 51.9891 69.5954 52.8882 72.1354 52.8882C72.7347 52.8882 73.3349 52.8379 73.9262 52.7397C73.9613 52.4292 73.9801 52.114 73.9801 51.7946C73.9799 47.0752 70.0435 43.2357 65.205 43.2357Z" fill="#FDBF00"/>
<path d="M59.9401 77.8964V69.4835C59.9401 68.5566 59.1543 67.8052 58.1851 67.8052C57.2159 67.8052 56.4301 68.5566 56.4301 69.4835V77.8964H58.1851H59.9401Z" fill="#4069A3"/>
<path d="M65.2049 48.5006V60.7856C70.0434 60.7856 73.9799 56.8869 73.9799 52.0947C73.98 49.6987 69.5924 48.5006 65.2049 48.5006Z" fill="#FFCDBE"/>
<path d="M65.205 43.2357C65.2049 43.2357 65.2049 43.2357 65.205 43.2357V50.3925C67.1251 51.9892 69.5954 52.8882 72.1352 52.8882C72.7345 52.8882 73.3347 52.8379 73.9261 52.7397C73.9612 52.4292 73.9799 52.114 73.9799 51.7946C73.9799 47.0752 70.0435 43.2357 65.205 43.2357Z" fill="#FF8856"/>
<path d="M53.2351 78.4826H25.7313L23.7012 76.7232L21.6712 78.4826H13.8216C12.7004 78.4826 11.7915 77.5737 11.7915 76.4526V73.1621C11.7915 61.2453 21.4866 51.5503 33.4033 51.5503H33.6537C45.5704 51.5503 55.2655 61.2453 55.2655 73.1621V76.4526C55.2652 77.5737 54.3564 78.4826 53.2351 78.4826Z" fill="#7DD5F4"/>
<path d="M33.6534 51.5503H33.5282V78.4825H53.235C54.3561 78.4825 55.265 77.5736 55.265 76.4524V73.162C55.265 61.2452 45.5701 51.5503 33.6534 51.5503Z" fill="#4793FF"/>
<path d="M33.5285 55.0018C26.8123 55.0018 21.3481 49.5376 21.3481 42.8214C21.3481 36.1051 45.7089 36.1051 45.7089 42.8214C45.7089 49.5376 40.2448 55.0018 33.5285 55.0018Z" fill="#FFDECF"/>
<path d="M33.5285 30.6406C26.8123 30.6406 21.3481 36.1047 21.3481 42.821C21.3481 43.2756 21.374 43.7242 21.4229 44.1661C22.2437 44.3058 23.0769 44.3774 23.9087 44.3774C27.4343 44.3774 30.8633 43.0979 33.5287 40.8256C36.194 43.0979 39.6229 44.3774 43.1486 44.3774C43.9805 44.3774 44.8137 44.3058 45.6345 44.1661C45.6832 43.7242 45.7092 43.2756 45.7092 42.821C45.7089 36.1047 40.2448 30.6406 33.5285 30.6406Z" fill="#FDBF00"/>
<path d="M25.7312 78.4825V67.7758C25.7312 66.6547 24.8223 65.7457 23.7011 65.7457C22.58 65.7457 21.6711 66.6547 21.6711 67.7758V78.4825H25.7312Z" fill="#4793FF"/>
<path d="M33.5282 37.7842V55.0018C40.2444 55.0018 45.7086 49.5377 45.7086 42.8214C45.7087 39.4633 39.6184 37.7842 33.5282 37.7842Z" fill="#FFCDBE"/>
<path d="M33.5285 30.6406C33.5284 30.6406 33.5284 30.6406 33.5285 30.6406V40.8257C36.1939 43.098 39.6228 44.3774 43.1483 44.3774C43.9802 44.3774 44.8134 44.3058 45.6342 44.1661C45.6829 43.7242 45.7089 43.2756 45.7089 42.821C45.7089 36.1047 40.2448 30.6406 33.5285 30.6406Z" fill="#FF8856"/>
</svg>
