<svg width="33" height="33" viewBox="0 0 33 33" fill="none" xmlns="http://www.w3.org/2000/svg">
<path d="M16.5 33C7.40154 33 0 25.5985 0 16.5C0 7.40154 7.40154 0 16.5 0C25.5985 0 33 7.40154 33 16.5C33 25.5985 25.5985 33 16.5 33ZM16.5 2.0625C8.53878 2.0625 2.0625 8.53878 2.0625 16.5C2.0625 24.4612 8.53878 30.9375 16.5 30.9375C24.4612 30.9375 30.9375 24.4612 30.9375 16.5C30.9375 8.53878 24.4612 2.0625 16.5 2.0625Z" fill="white"/>
<g clip-path="url(#clip0)">
<path d="M19.6684 14.8263L18.5726 14.7861L18.335 21.2744L19.4308 21.3144L19.6684 14.8263Z" fill="white"/>
<path d="M17.5487 14.8066H16.4521V21.2949H17.5487V14.8066Z" fill="white"/>
<path d="M15.6655 21.2744L15.4279 14.7861L14.332 14.8264L14.5696 21.3146L15.6655 21.2744Z" fill="white"/>
<path d="M10.4756 12.1016V13.1982H11.6183L12.5248 23.4995C12.5496 23.7826 12.7867 23.9997 13.0709 23.9997H20.9114C21.1956 23.9997 21.4329 23.7824 21.4575 23.4993L22.364 13.1982H23.5252V12.1016H10.4756ZM20.4092 22.9031H13.5729L12.7191 13.1982H21.2633L20.4092 22.9031Z" fill="white"/>
<path d="M18.791 10H15.2087C14.7049 10 14.2949 10.4099 14.2949 10.9138V12.6501H15.3915V11.0966H18.6082V12.6501H19.7048V10.9138C19.7048 10.4099 19.2949 10 18.791 10Z" fill="white"/>
</g>
<defs>
<clipPath id="clip0">
<rect width="14" height="14" fill="white" transform="translate(10 10)"/>
</clipPath>
</defs>
</svg>
