<svg width="28" height="28" viewBox="0 0 28 28" fill="none" xmlns="http://www.w3.org/2000/svg">
<path d="M20.5172 1.20605C17.8154 1.20629 15.3236 2.66423 14 5.0198C12.6764 2.66423 10.1846 1.20629 7.48276 1.20605C3.35032 1.20605 0 5.03913 0 9.17157C0 19.5509 14 26.7923 14 26.7923C14 26.7923 28 19.5509 28 9.17157C28 5.03913 24.6497 1.20605 20.5172 1.20605Z" fill="#FF340C"/>
<path d="M1.93103 9.17157C1.93103 5.34816 4.80048 1.78782 8.50226 1.27559C8.16447 1.22916 7.82385 1.20582 7.48276 1.20606C3.35032 1.20606 0 5.03913 0 9.17157C0 19.5509 14 26.7923 14 26.7923C14 26.7923 14.3621 26.6044 14.9655 26.2496C11.8026 24.3895 1.93103 17.8883 1.93103 9.17157Z" fill="#FF5023"/>
</svg>
