<svg width="67" height="67" viewBox="0 0 67 67" fill="none" xmlns="http://www.w3.org/2000/svg">
<path d="M67 35.5626H50.7495C51.0273 23.7192 54.3864 22.3748 58.6054 21.9911L60.2323 21.7894V8.76635L58.357 8.86684C52.8478 9.1768 46.7569 10.17 42.6932 15.1865C39.131 19.5841 37.5606 26.7687 37.5606 37.7976V58.2343H67V35.5626Z" fill="#D7F4FC"/>
<path d="M29.4394 58.2343V35.5626H13.4058C13.6836 23.7192 16.9341 22.3748 21.153 21.9911L22.6717 21.7894V8.76635L20.9047 8.86684C15.3954 9.1768 9.25006 10.17 5.18641 15.1865C1.62458 19.5841 0 26.7687 0 37.7976V58.2343H29.4394Z" fill="#D7F4FC"/>
</svg>
