<svg width="30" height="30" viewBox="0 0 30 30" fill="none" xmlns="http://www.w3.org/2000/svg">
<path d="M0 15C0 6.71573 6.71573 0 15 0C23.2843 0 30 6.71573 30 15V27C30 28.6569 28.6569 30 27 30H15C6.71573 30 0 23.2843 0 15Z" fill="#0E76A8"/>
<g clip-path="url(#clip0)">
<path d="M24.9958 23.5137V23.513H25V17.5657C25 14.6563 24.3562 12.415 20.8604 12.415C19.1798 12.415 18.0521 13.3123 17.5916 14.163H17.543V12.6867H14.2285V23.513H17.6798V18.1522C17.6798 16.7407 17.9548 15.3758 19.7514 15.3758C21.5215 15.3758 21.5479 16.9867 21.5479 18.2427V23.5137H24.9958Z" fill="white"/>
<path d="M8.60846 12.6869H12.064V23.5132H8.60846V12.6869Z" fill="white"/>
<path d="M10.3349 7.29724C9.23002 7.29724 8.3335 8.16954 8.3335 9.24454C8.3335 10.3195 9.23002 11.2101 10.3349 11.2101C11.4397 11.2101 12.3363 10.3195 12.3363 9.24454C12.3356 8.16954 11.4391 7.29724 10.3349 7.29724V7.29724Z" fill="white"/>
</g>
<defs>
<clipPath id="clip0">
<rect width="16.6667" height="16.2162" fill="white" transform="translate(8.3335 7.29724)"/>
</clipPath>
</defs>
</svg>
