<svg width="33" height="33" viewBox="0 0 33 33" fill="none" xmlns="http://www.w3.org/2000/svg">
<path d="M16.4999 32.9998C18.5471 32.9998 20.2068 31.3401 20.2068 29.2928C20.2068 27.2456 18.5471 25.5859 16.4999 25.5859C14.4526 25.5859 12.793 27.2456 12.793 29.2928C12.793 31.3401 14.4526 32.9998 16.4999 32.9998Z" fill="url(#paint0_linear)"/>
<path d="M16.4998 25.5869C14.569 25.5869 12.9837 27.0633 12.8096 28.9487L16.8449 32.9841C18.7302 32.8099 20.2067 31.2246 20.2067 29.2938C20.2067 27.2465 18.5471 25.5869 16.4998 25.5869Z" fill="url(#paint1_linear)"/>
<path d="M28.647 22.8291H4.35287C2.69365 22.8291 1.34863 24.1741 1.34863 25.8334C1.34863 27.4926 2.69365 28.8377 4.35287 28.8377H28.647C30.3063 28.8377 31.6513 27.4926 31.6513 25.8334C31.6513 24.1741 30.3063 22.8291 28.647 22.8291Z" fill="url(#paint2_linear)"/>
<path d="M26.9084 20.5622V14.5399C26.9084 9.66942 23.5632 5.58198 19.0454 4.44638C19.3031 4.0079 19.4523 3.49705 19.4523 2.9519C19.4522 1.32181 18.1304 0 16.5003 0C14.8702 0 13.5484 1.32181 13.5484 2.9519C13.5484 3.49711 13.6976 4.0079 13.9553 4.44638C9.43739 5.58198 6.09303 9.66949 6.09303 14.5399V20.5622C6.09303 21.8659 5.03612 22.9229 3.73242 22.9229H29.2682C27.9644 22.9229 26.9084 21.8659 26.9084 20.5622ZM16.5003 4.13185C15.8484 4.13185 15.3195 3.60385 15.3195 2.95196C15.3195 2.29918 15.8484 1.77118 16.5003 1.77118C17.1522 1.77118 17.6811 2.29918 17.6811 2.95196C17.6811 3.60385 17.1522 4.13185 16.5003 4.13185Z" fill="url(#paint3_linear)"/>
<path d="M1.38574 26.4307C1.61255 27.8652 2.85438 28.9622 4.35266 28.8265H28.6468C30.1452 28.9622 31.3869 27.8652 31.6137 26.4307H1.38574Z" fill="url(#paint4_linear)"/>
<path d="M26.908 16.249V19.72L22.2861 15.0981L22.303 15.0972C22.5405 15.0841 22.7728 15.1586 22.9653 15.2984C23.8431 15.9357 24.9229 16.3114 26.0906 16.3114C26.3691 16.3115 26.6412 16.2898 26.908 16.249Z" fill="url(#paint5_linear)"/>
<path d="M26.0908 16.5449C29.1618 16.5449 31.6513 14.0553 31.6513 10.9843C31.6513 7.91336 29.1618 5.42383 26.0908 5.42383C23.0198 5.42383 20.5303 7.91336 20.5303 10.9843C20.5303 14.0553 23.0198 16.5449 26.0908 16.5449Z" fill="url(#paint6_linear)"/>
<path d="M24.8369 8.75759C24.8369 8.57725 24.9097 8.43494 25.0555 8.33091L26.1378 7.29025C26.2141 7.214 26.3078 7.17578 26.4188 7.17578C26.5437 7.17578 26.6563 7.20878 26.757 7.27465C26.8575 7.34065 26.9079 7.42915 26.9079 7.54001V14.4295C26.9079 14.5405 26.8523 14.629 26.7414 14.6948C26.6304 14.7608 26.5021 14.7937 26.3564 14.7937C26.2037 14.7937 26.0736 14.7608 25.9661 14.6948C25.8585 14.629 25.8049 14.5405 25.8049 14.4295V8.64319L25.4406 9.10113C25.3712 9.17055 25.295 9.20516 25.2117 9.20516C25.1076 9.20516 25.0191 9.15837 24.9464 9.06471C24.8733 8.97094 24.8369 8.86865 24.8369 8.75759Z" fill="white"/>
<defs>
<linearGradient id="paint0_linear" x1="15.9125" y1="28.3129" x2="22.2914" y2="38.9441" gradientUnits="userSpaceOnUse">
<stop stop-color="#FFC200"/>
<stop offset="0.268" stop-color="#FFBB00"/>
<stop offset="0.659" stop-color="#FFA801"/>
<stop offset="1" stop-color="#FF9102"/>
</linearGradient>
<linearGradient id="paint1_linear" x1="22.2413" y1="34.086" x2="13.7614" y2="25.6061" gradientUnits="userSpaceOnUse">
<stop stop-color="#FFC200" stop-opacity="0"/>
<stop offset="0.203" stop-color="#FFBB00" stop-opacity="0.203"/>
<stop offset="0.499" stop-color="#FFA700" stop-opacity="0.499"/>
<stop offset="0.852" stop-color="#FF8800" stop-opacity="0.852"/>
<stop offset="1" stop-color="#FF7800"/>
</linearGradient>
<linearGradient id="paint2_linear" x1="12.783" y1="19.6375" x2="28.7047" y2="46.1732" gradientUnits="userSpaceOnUse">
<stop stop-color="#FFC200"/>
<stop offset="0.268" stop-color="#FFBB00"/>
<stop offset="0.659" stop-color="#FFA801"/>
<stop offset="1" stop-color="#FF9102"/>
</linearGradient>
<linearGradient id="paint3_linear" x1="12.7337" y1="13.3741" x2="27.2597" y2="27.0566" gradientUnits="userSpaceOnUse">
<stop stop-color="#FFC200"/>
<stop offset="0.268" stop-color="#FFBB00"/>
<stop offset="0.659" stop-color="#FFA801"/>
<stop offset="1" stop-color="#FF9102"/>
</linearGradient>
<linearGradient id="paint4_linear" x1="30.0353" y1="26.1043" x2="0.00832787" y2="29.2029" gradientUnits="userSpaceOnUse">
<stop stop-color="#FFC200" stop-opacity="0"/>
<stop offset="0.203" stop-color="#FFBB00" stop-opacity="0.203"/>
<stop offset="0.499" stop-color="#FFA700" stop-opacity="0.499"/>
<stop offset="0.852" stop-color="#FF8800" stop-opacity="0.852"/>
<stop offset="1" stop-color="#FF7800"/>
</linearGradient>
<linearGradient id="paint5_linear" x1="30.0267" y1="21.1018" x2="24.6908" y2="15.7659" gradientUnits="userSpaceOnUse">
<stop stop-color="#FFC200" stop-opacity="0"/>
<stop offset="0.203" stop-color="#FFBB00" stop-opacity="0.203"/>
<stop offset="0.499" stop-color="#FFA700" stop-opacity="0.499"/>
<stop offset="0.852" stop-color="#FF8800" stop-opacity="0.852"/>
<stop offset="1" stop-color="#FF7800"/>
</linearGradient>
<linearGradient id="paint6_linear" x1="23.7737" y1="5.46191" x2="28.3849" y2="16.4465" gradientUnits="userSpaceOnUse">
<stop stop-color="#D63305"/>
<stop offset="0.366" stop-color="#CF3004"/>
<stop offset="0.899" stop-color="#BC2602"/>
<stop offset="1" stop-color="#B72401"/>
</linearGradient>
</defs>
</svg>
