<svg width="33" height="33" viewBox="0 0 33 33" fill="none" xmlns="http://www.w3.org/2000/svg">
<circle cx="16.5" cy="15.5" r="15.5" fill="#FF5A45"/>
<path d="M17.8748 8.24992C17.8748 9.00925 17.2593 9.62483 16.4999 9.62483C15.7406 9.62483 15.125 9.00925 15.125 8.24992C15.125 7.49058 15.7406 6.875 16.4999 6.875C17.2593 6.875 17.8748 7.49058 17.8748 8.24992Z" fill="white"/>
<path d="M16.4999 26.1249C15.9307 26.1249 15.4687 25.6629 15.4687 25.0937V14.4375H14.0938C13.5245 14.4375 13.0625 13.9755 13.0625 13.4062C13.0625 12.837 13.5245 12.375 14.0938 12.375H16.4999C17.0692 12.375 17.5312 12.837 17.5312 13.4062V25.0937C17.5312 25.6629 17.0692 26.1249 16.4999 26.1249Z" fill="white"/>
<path d="M16.5 33C7.40154 33 0 25.5985 0 16.5C0 7.40154 7.40154 0 16.5 0C25.5985 0 33 7.40154 33 16.5C33 25.5985 25.5985 33 16.5 33ZM16.5 2.0625C8.53878 2.0625 2.0625 8.53878 2.0625 16.5C2.0625 24.4612 8.53878 30.9375 16.5 30.9375C24.4612 30.9375 30.9375 24.4612 30.9375 16.5C30.9375 8.53878 24.4612 2.0625 16.5 2.0625Z" fill="white"/>
<path d="M19.5938 26.125H13.4062C12.837 26.125 12.375 25.663 12.375 25.0938C12.375 24.5245 12.837 24.0625 13.4062 24.0625H19.5938C20.163 24.0625 20.625 24.5245 20.625 25.0938C20.625 25.663 20.163 26.125 19.5938 26.125Z" fill="white"/>
</svg>
