<svg width="101" height="101" viewBox="0 0 101 101" fill="none" xmlns="http://www.w3.org/2000/svg">
<path d="M50.5 101C37.0114 101 24.3305 95.7477 14.7918 86.2082C5.25301 76.6702 0 63.9894 0 50.5C0 37.0114 5.253 24.3305 14.791 14.7918C24.3298 5.25301 37.0106 0 50.5 0C63.5086 0 75.8624 4.93402 85.2873 13.8921C95.4192 23.5235 101 36.5248 101 50.4993C101 63.9871 95.747 76.668 86.209 86.2075C76.6702 95.7477 63.9893 101 50.5 101ZM50.5 9.61888C39.5802 9.61888 29.3138 13.8716 21.5934 21.5927C13.8715 29.3145 9.61959 39.5802 9.61959 50.5C9.61959 61.4198 13.8715 71.6855 21.5934 79.4073C29.3145 87.1292 39.5809 91.3804 50.5 91.3804C61.4198 91.3804 71.6862 87.1292 79.4073 79.4073C87.1284 71.6855 91.3811 61.4183 91.3811 50.5C91.3811 39.187 86.8638 28.6626 78.6606 20.8643C71.0313 13.6136 61.0302 9.61888 50.5 9.61888Z" fill="#DCDCDC"/>
<path d="M101 50.5H91.3814C91.3814 39.187 86.8641 28.6626 78.6608 20.8643C71.0323 13.6128 61.0312 9.61888 50.501 9.61888V0C63.5096 0 75.8634 4.93402 85.2883 13.8921C95.4194 23.5242 101 36.5256 101 50.5Z" fill="#FABE2C"/>
<path d="M41.8882 61.6484H30.2427V60.0249L36.395 53.189C37.3065 52.1554 37.9331 51.3172 38.2749 50.6743C38.6248 50.0233 38.7998 49.3519 38.7998 48.6602C38.7998 47.7324 38.519 46.9715 37.9575 46.3774C37.396 45.7834 36.6473 45.4863 35.7114 45.4863C34.5884 45.4863 33.7135 45.8078 33.0869 46.4507C32.4684 47.0854 32.1592 47.9725 32.1592 49.1118H29.9009C29.9009 47.4761 30.4258 46.1536 31.4756 45.1445C32.5335 44.1354 33.9455 43.6309 35.7114 43.6309C37.3634 43.6309 38.6696 44.0662 39.6299 44.937C40.5902 45.7996 41.0703 46.9512 41.0703 48.3916C41.0703 50.1413 39.9554 52.2246 37.7256 54.6416L32.9648 59.8052H41.8882V61.6484ZM45.3184 52.7373L46.2217 43.875H55.3281V45.9624H48.1382L47.6011 50.8086C48.4718 50.2959 49.4606 50.0396 50.5674 50.0396C52.1868 50.0396 53.4727 50.5767 54.4248 51.6509C55.377 52.717 55.853 54.1615 55.853 55.9844C55.853 57.8154 55.3566 59.2599 54.3638 60.3179C53.3791 61.3677 51.9997 61.8926 50.2256 61.8926C48.6549 61.8926 47.3732 61.4572 46.3804 60.5864C45.3875 59.7157 44.8219 58.5112 44.6836 56.9731H46.8198C46.9582 57.9904 47.3203 58.7594 47.9062 59.2803C48.4922 59.793 49.2653 60.0493 50.2256 60.0493C51.2754 60.0493 52.0973 59.6912 52.6914 58.9751C53.2936 58.259 53.5947 57.2702 53.5947 56.0088C53.5947 54.8206 53.2692 53.8685 52.6182 53.1523C51.9753 52.4281 51.1167 52.0659 50.0425 52.0659C49.0578 52.0659 48.2847 52.2816 47.7231 52.7129L47.125 53.2012L45.3184 52.7373ZM58.1235 47.293C58.1235 46.2269 58.4613 45.348 59.1367 44.6562C59.8203 43.9645 60.6951 43.6187 61.7612 43.6187C62.8436 43.6187 63.7184 43.9686 64.3857 44.6685C65.0612 45.3602 65.3989 46.2594 65.3989 47.3662V48.2329C65.3989 49.3071 65.0571 50.186 64.3735 50.8696C63.6981 51.5451 62.8354 51.8828 61.7856 51.8828C60.7277 51.8828 59.8529 51.5451 59.1611 50.8696C58.4694 50.186 58.1235 49.2786 58.1235 48.1475V47.293ZM59.8081 48.2329C59.8081 48.8677 59.9871 49.3926 60.3452 49.8076C60.7033 50.2145 61.1834 50.418 61.7856 50.418C62.3634 50.418 62.8273 50.2186 63.1772 49.8198C63.5353 49.4211 63.7144 48.8758 63.7144 48.1841V47.293C63.7144 46.6582 63.5394 46.1333 63.1895 45.7183C62.8395 45.3032 62.3634 45.0957 61.7612 45.0957C61.159 45.0957 60.6829 45.3032 60.333 45.7183C59.9831 46.1333 59.8081 46.6745 59.8081 47.3418V48.2329ZM66.7783 57.2905C66.7783 56.2244 67.116 55.3496 67.7915 54.666C68.4751 53.9743 69.3499 53.6284 70.416 53.6284C71.4821 53.6284 72.3569 53.9702 73.0405 54.6538C73.7241 55.3374 74.0659 56.2448 74.0659 57.376V58.2427C74.0659 59.3088 73.7241 60.1877 73.0405 60.8794C72.3651 61.563 71.4984 61.9048 70.4404 61.9048C69.3825 61.9048 68.5076 61.5671 67.8159 60.8916C67.1242 60.208 66.7783 59.3006 66.7783 58.1694V57.2905ZM68.4629 58.2427C68.4629 58.8856 68.6419 59.4146 69 59.8296C69.3581 60.2365 69.8382 60.4399 70.4404 60.4399C71.0264 60.4399 71.4943 60.2406 71.8442 59.8418C72.1942 59.4349 72.3691 58.8856 72.3691 58.1938V57.2905C72.3691 56.6476 72.1901 56.1227 71.832 55.7158C71.4821 55.3089 71.0101 55.1055 70.416 55.1055C69.8382 55.1055 69.3662 55.3089 69 55.7158C68.6419 56.1146 68.4629 56.6558 68.4629 57.3394V58.2427ZM62.2983 60.3057L61.0166 59.5L69.6958 45.6084L70.9775 46.4141L62.2983 60.3057Z" fill="#9C9C9C"/>
</svg>
