<svg width="95" height="85" viewBox="0 0 95 85" fill="none" xmlns="http://www.w3.org/2000/svg">
<path d="M84.5402 68.533C84.5402 49.8206 94.2333 36.9705 94.2333 27.9537C94.2333 18.937 89.0499 0 47.5698 0C6.0896 0 0 25.4757 0 35.3933C0 81.8349 84.5402 101.673 84.5402 68.533Z" fill="#FFEAF1"/>
<g clip-path="url(#clip0)">
<path d="M72.3373 53.0469H58.8316V43.0013H55.4831V37.9786C55.4831 37.0548 54.731 36.3043 53.8088 36.3043H47.1118C46.1896 36.3043 45.4376 37.0548 45.4376 37.9786V43.0013H42.0891V53.0469H28.5834V48.0241C28.5834 47.1004 27.8313 46.3498 26.9091 46.3498H25.2349V31.2816C25.2349 28.5119 27.488 26.2588 30.2577 26.2588H46.932L47.3211 27.3869C47.779 28.7146 49.0411 29.6073 50.4603 29.6073C51.8795 29.6073 53.1417 28.7146 53.5996 27.3869L53.9887 26.2588H70.663C73.4327 26.2588 75.6858 28.5119 75.6858 31.2816V46.3498H74.0115C73.0893 46.3498 72.3373 47.1004 72.3373 48.0241V53.0469Z" fill="#E62E6B"/>
<path d="M53.8089 36.3043C54.7311 36.3043 55.4831 37.0548 55.4831 37.9786V43.0013H58.8316V53.0469H72.3373V48.0241C72.3373 47.1004 73.0894 46.3498 74.0116 46.3498H75.6858V31.2816C75.6858 28.5119 73.4327 26.2588 70.6631 26.2588H53.9887L53.5996 27.3869C53.1417 28.7146 51.8796 29.6073 50.4604 29.6073V36.3043H53.8089Z" fill="#B32453"/>
<path d="M31.9319 66.4408H21.8864V48.024C21.8864 45.2543 24.1395 43.0012 26.9092 43.0012C29.6788 43.0012 31.9319 45.2543 31.9319 48.024V49.6982H47.1118V53.0468C46.1897 53.0468 45.4376 53.7973 45.4376 54.721V59.7438H31.9319V66.4408Z" fill="#FF6699"/>
<path d="M79.0343 66.4408H68.9888V59.7438H55.4831V54.721C55.4831 53.7973 54.731 53.0468 53.8089 53.0468V49.6982H68.9888V48.024C68.9888 45.2543 71.2419 43.0012 74.0115 43.0012C76.7812 43.0012 79.0343 45.2543 79.0343 48.024V66.4408Z" fill="#E62E6B"/>
<path d="M50.4603 32.9557C46.7685 32.9557 43.7633 29.9522 43.7633 26.2587C43.7633 22.5651 46.7685 19.5616 50.4603 19.5616C54.1522 19.5616 57.1574 22.5651 57.1574 26.2587C57.1574 29.9522 54.1522 32.9557 50.4603 32.9557Z" fill="#FFE6CC"/>
<path d="M57.1574 26.2587C57.1574 22.5651 54.1522 19.5616 50.4604 19.5616V32.9557C54.1522 32.9557 57.1574 29.9522 57.1574 26.2587Z" fill="#FFCC99"/>
<path d="M58.8316 43.0012H42.0891V37.9785C42.0891 35.2088 44.3422 32.9557 47.1119 32.9557H53.8089C56.5785 32.9557 58.8316 35.2088 58.8316 37.9785V43.0012Z" fill="#80D4FF"/>
<path d="M53.8089 32.9557H50.4604V43.0012H58.8316V37.9785C58.8316 35.2088 56.5785 32.9557 53.8089 32.9557Z" fill="#66B3FF"/>
<path d="M62.1801 53.0467H38.7406V39.6527H62.1801V53.0467Z" fill="#F0F7FF"/>
<path d="M50.4603 39.6527H62.1801V53.0467H50.4603V39.6527Z" fill="#DFE7F4"/>
<path d="M50.4604 66.4408H42.0891V53.8839C42.0891 51.5722 43.963 49.6982 46.2747 49.6982C48.5864 49.6982 50.4604 51.5722 50.4604 53.8839V66.4408Z" fill="#575F64"/>
<path d="M58.8316 66.4408H50.4604V53.8839C50.4604 51.5722 52.3343 49.6982 54.646 49.6982C56.9577 49.6982 58.8316 51.5722 58.8316 53.8839V66.4408Z" fill="#474F54"/>
</g>
<defs>
<clipPath id="clip0">
<rect width="57.1479" height="57.1479" fill="white" transform="translate(21.8864 14.4272)"/>
</clipPath>
</defs>
</svg>
