<svg width="31" height="31" viewBox="0 0 31 31" fill="none" xmlns="http://www.w3.org/2000/svg">
<g clip-path="url(#clip0)">
<path d="M6.66309 28.2314H24.3396L24.3405 28.2305H6.66211L6.66309 28.2314Z" fill="#C42126"/>
<path d="M15.5 0C15.1956 0 14.8936 0.0109948 14.5938 0.0281415H16.4065C16.1065 0.0109948 15.8045 0 15.5 0Z" fill="#C42126"/>
<path d="M20.0818 5.66731H27.4831C26.604 4.59708 25.5823 3.64969 24.4503 2.84766H18.8926C19.3525 3.65676 19.748 4.61148 20.0818 5.66731Z" fill="#E7E7E7"/>
<path d="M18.8925 2.84967H24.4502C22.1526 1.22145 19.3942 0.201811 16.4069 0.0292969H15.9297C17.3357 0.206261 17.9815 1.24684 18.8925 2.84967Z" fill="#DC3027"/>
<path d="M30.4229 11.3079C30.1473 10.3251 29.7778 9.38207 29.3236 8.48828H20.8086C20.9811 9.39359 21.1172 10.3392 21.218 11.3079H30.4229Z" fill="#E7E7E7"/>
<path d="M20.3296 8.48808H29.3232C28.8107 7.48002 28.195 6.53407 27.4833 5.66797H19.627C19.904 6.54487 20.1392 7.49082 20.3296 8.48808Z" fill="#DC3027"/>
<path d="M21.543 16.9488H30.9299C30.9745 16.4718 30.9996 15.9884 30.9996 15.4999C30.9996 15.0376 30.9754 14.5812 30.9358 14.1289H21.5452C21.5758 15.0667 21.5752 16.0114 21.543 16.9488Z" fill="#E7E7E7"/>
<path d="M30.9368 14.1282C30.8519 13.1598 30.6774 12.2176 30.4226 11.3086H20.8223C20.9187 12.232 20.9823 13.1767 21.0134 14.1282H30.9368Z" fill="#DC3027"/>
<path d="M20.6465 22.5896H29.2828C29.7434 21.6968 30.1188 20.7531 30.4003 19.7695H21.064C20.9612 20.7397 20.8217 21.6851 20.6465 22.5896Z" fill="#E7E7E7"/>
<path d="M30.4008 19.7689C30.6609 18.8602 30.8415 17.9179 30.9313 16.9492H21.2517C21.2186 17.9015 21.1531 18.846 21.0547 19.7689H30.4008Z" fill="#DC3027"/>
<path d="M24.3382 28.2298C25.4865 27.431 26.5227 26.4826 27.4157 25.4102H20.1434C19.8034 26.4704 19.3998 27.4236 18.9316 28.2298H24.3382Z" fill="#E7E7E7"/>
<path d="M19.8711 25.41H27.4171C28.1371 24.5448 28.7622 23.5989 29.2822 22.5898H20.5826C20.3895 23.5878 20.1519 24.5342 19.8711 25.41Z" fill="#DC3027"/>
<path d="M14.9377 30.9897C14.9064 30.9887 14.8751 30.9873 14.8438 30.9863C14.8751 30.9872 14.9064 30.9887 14.9377 30.9897Z" fill="#DC3027"/>
<path d="M15.5 30.9999C18.7861 30.9999 21.8309 29.9742 24.3385 28.2305H18.7288C17.7332 29.9458 17.0763 30.9999 15.5 30.9999Z" fill="#DC3027"/>
<path d="M15.4992 31.0012C15.3109 31.0012 15.124 30.9968 14.9375 30.9902C15.1259 30.9966 15.3131 31.0012 15.4992 31.0012Z" fill="#C42126"/>
<path d="M19.4052 2.84766H6.55065C5.41851 3.64969 4.39697 4.59701 3.51758 5.66731H20.5942C20.2604 4.61148 19.8651 3.65676 19.4052 2.84766Z" fill="#F3F4F5"/>
<path d="M6.55078 2.84967H19.4054C18.4942 1.24684 17.3354 0.206261 15.9294 0.0292969H14.5938C11.6066 0.201811 8.84811 1.22145 6.55078 2.84967Z" fill="#E73625"/>
<path d="M0.578125 11.3079H21.7059C21.605 10.339 21.469 9.39359 21.2964 8.48828H1.67748C1.22322 9.38214 0.853716 10.3251 0.578125 11.3079Z" fill="#F3F4F5"/>
<path d="M3.51741 5.66797C2.80621 6.53407 2.18998 7.47996 1.67773 8.48808H21.2964C21.1063 7.49102 20.8711 6.54513 20.594 5.66797C20.594 5.66797 3.51741 5.66797 3.51741 5.66797Z" fill="#E73625"/>
<path d="M0 15.5017C0 15.9902 0.0254583 16.4735 0.0697648 16.9505H21.8952C21.9276 16.0131 21.928 15.0687 21.8974 14.1309H0.0638747C0.0242148 14.583 0 15.0394 0 15.5017Z" fill="#F3F4F5"/>
<path d="M0.0644531 14.1282H21.8978C21.8667 13.1765 21.8028 12.232 21.7066 11.3086H0.578396C0.323617 12.2178 0.14914 13.1598 0.0644531 14.1282Z" fill="#E73625"/>
<path d="M21.6975 19.7695H0.599609C0.88109 20.7534 1.25675 21.6968 1.71709 22.5896H21.28C21.4552 21.6853 21.5944 20.7399 21.6975 19.7695Z" fill="#F3F4F5"/>
<path d="M0.600879 19.7689H21.6988C21.797 18.846 21.8627 17.9013 21.8958 16.9492H0.0703125C0.160104 17.9181 0.340995 18.8602 0.600879 19.7689Z" fill="#E73625"/>
<path d="M6.66156 28.2298H19.3586C19.8268 27.4234 20.2306 26.4704 20.5703 25.4102H3.58398C4.47705 26.4826 5.51299 27.431 6.66156 28.2298Z" fill="#F3F4F5"/>
<path d="M1.71875 22.5898C2.23884 23.5989 2.86385 24.5448 3.58388 25.41H20.5702C20.8507 24.5343 21.0883 23.5879 21.2814 22.5898H1.71875Z" fill="#E73625"/>
<path d="M14.8444 30.9855C14.8758 30.9865 14.9071 30.9879 14.9384 30.9889C15.1249 30.9955 15.3119 30.9999 15.5001 30.9999C17.0764 30.9999 18.3618 29.9459 19.3576 28.2305H6.66211C9.00159 29.8576 11.8097 30.859 14.8444 30.9855Z" fill="#E73625"/>
<path d="M15.1799 0.0078125C7.237 0.169397 0.763138 6.30222 0.0664062 14.1033H15.1802V0.0078125H15.1799Z" fill="#283991"/>
<path d="M3.10086 8.78125L3.33699 9.50835H4.10204L3.48312 9.95796L3.71951 10.6856L3.10086 10.2357L2.4824 10.6856L2.71833 9.95796L2.09961 9.50835H2.86467L3.10086 8.78125Z" fill="#EFEFEF"/>
<path d="M3.10086 11.3496L3.33699 12.0772H4.10204L3.48312 12.5268L3.71951 13.2544L3.10086 12.8045L2.4824 13.2544L2.71833 12.5268L2.09961 12.0772H2.86467L3.10086 11.3496Z" fill="#EFEFEF"/>
<path d="M5.67143 4.92773L5.90763 5.6551H6.67242L6.0537 6.10497L6.28989 6.83207L5.67143 6.38272L5.05271 6.83207L5.28891 6.10497L4.66992 5.6551H5.43498L5.67143 4.92773Z" fill="#EFEFEF"/>
<path d="M5.67143 7.49805L5.90763 8.22541H6.67242L6.0537 8.67475L6.28989 9.40238L5.67143 8.95303L5.05271 9.40238L5.28891 8.67475L4.66992 8.22541H5.43498L5.67143 7.49805Z" fill="#EFEFEF"/>
<path d="M5.67143 10.0664L5.90763 10.794H6.67242L6.0537 11.2431L6.28989 11.9707L5.67143 11.5209L5.05271 11.9707L5.28891 11.2431L4.66992 10.794H5.43498L5.67143 10.0664Z" fill="#EFEFEF"/>
<path d="M1.15068 11.9703L0.914288 11.2427L1.53301 10.7933H0.76841L0.751263 10.7402C0.667297 10.9999 0.591446 11.2627 0.521484 11.5285L0.532283 11.5205L1.15068 11.9703Z" fill="#EFEFEF"/>
<path d="M2.48348 8.11742L3.10194 7.66761L3.72066 8.11742L3.48427 7.3898L4.103 6.93999H3.33794L3.10175 6.21289L2.86555 6.93999H2.58362C2.53126 7.01931 2.4806 7.09909 2.42969 7.17959L2.71948 7.3898L2.48348 8.11742Z" fill="#EFEFEF"/>
<path d="M5.67003 3.81349L6.28849 4.26284L6.05229 3.53574L6.67075 3.08594H6.229C5.8538 3.36644 5.49182 3.6633 5.14404 3.97652L5.05078 4.26284L5.67003 3.81349Z" fill="#EFEFEF"/>
<path d="M7.62109 2.97996L8.23981 2.53015L8.85827 2.97996L8.62208 2.25233L9.24054 1.80298H8.47574L8.44368 1.70508C8.18451 1.83747 7.92803 1.97524 7.67738 2.12183L7.85702 2.25227L7.62109 2.97996Z" fill="#EFEFEF"/>
<path d="M8.23973 3.64453L8.47592 4.37143H9.24071L8.62199 4.82124L8.85819 5.54886L8.23973 5.09899L7.62101 5.54886L7.8572 4.82124L7.23828 4.37143H8.00327L8.23973 3.64453Z" fill="#EFEFEF"/>
<path d="M8.23973 6.21289L8.47592 6.93979H9.24071L8.62199 7.3896L8.85819 8.11722L8.23973 7.66735L7.62101 8.11722L7.8572 7.3896L7.23828 6.93979H8.00327L8.23973 6.21289Z" fill="#EFEFEF"/>
<path d="M8.23973 8.78125L8.47592 9.50835H9.24071L8.62199 9.95796L8.85819 10.6856L8.23973 10.2357L7.62101 10.6856L7.8572 9.95796L7.23828 9.50835H8.00327L8.23973 8.78125Z" fill="#EFEFEF"/>
<path d="M8.23973 11.3496L8.47592 12.0772H9.24071L8.62199 12.5268L8.85819 13.2544L8.23973 12.8045L7.62101 13.2544L7.8572 12.5268L7.23828 12.0772H8.00327L8.23973 11.3496Z" fill="#EFEFEF"/>
<path d="M10.8081 2.35742L11.0443 3.08478H11.8091L11.1906 3.53465L11.4265 4.26175L10.8081 3.8124L10.1892 4.26175L10.4256 3.53465L9.80664 3.08478H10.5716L10.8081 2.35742Z" fill="#EFEFEF"/>
<path d="M10.8081 4.92773L11.0443 5.6551H11.8091L11.1906 6.10497L11.4265 6.83207L10.8081 6.38272L10.1892 6.83207L10.4256 6.10497L9.80664 5.6551H10.5716L10.8081 4.92773Z" fill="#EFEFEF"/>
<path d="M10.8081 7.49805L11.0443 8.22541H11.8091L11.1906 8.67475L11.4265 9.40238L10.8081 8.95303L10.1892 9.40238L10.4256 8.67475L9.80664 8.22541H10.5716L10.8081 7.49805Z" fill="#EFEFEF"/>
<path d="M10.8081 10.0664L11.0443 10.794H11.8091L11.1906 11.2431L11.4265 11.9707L10.8081 11.5209L10.1892 11.9707L10.4256 11.2431L9.80664 10.794H10.5716L10.8081 10.0664Z" fill="#EFEFEF"/>
<path d="M13.3784 1.07422L13.6146 1.80158H14.3794L13.7607 2.25093L13.9969 2.97855L13.3784 2.52868L12.7595 2.97855L12.9959 2.25093L12.377 1.80158H13.1417L13.3784 1.07422Z" fill="#EFEFEF"/>
<path d="M13.3784 3.64453L13.6146 4.37143H14.3794L13.7607 4.82124L13.9969 5.54886L13.3784 5.09899L12.7595 5.54886L12.9959 4.82124L12.377 4.37143H13.1417L13.3784 3.64453Z" fill="#EFEFEF"/>
<path d="M13.3784 6.21289L13.6146 6.93979H14.3794L13.7607 7.3896L13.9969 8.11722L13.3784 7.66735L12.7595 8.11722L12.9959 7.3896L12.377 6.93979H13.1417L13.3784 6.21289Z" fill="#EFEFEF"/>
<path d="M13.3784 8.78125L13.6146 9.50835H14.3794L13.7607 9.95796L13.9969 10.6856L13.3784 10.2357L12.7595 10.6856L12.9959 9.95796L12.377 9.50835H13.1417L13.3784 8.78125Z" fill="#EFEFEF"/>
<path d="M13.3784 11.3496L13.6146 12.0772H14.3794L13.7607 12.5268L13.9969 13.2544L13.3784 12.8045L12.7595 13.2544L12.9959 12.5268L12.377 12.0772H13.1417L13.3784 11.3496Z" fill="#EFEFEF"/>
</g>
<defs>
<clipPath id="clip0">
<rect width="31" height="31" fill="white"/>
</clipPath>
</defs>
</svg>
