<svg width="28" height="28" viewBox="0 0 28 28" fill="none" xmlns="http://www.w3.org/2000/svg">
<path d="M24.9916 13.9992L26.3739 13.4404C27.689 12.9081 28.3349 11.4202 27.8257 10.0961L24.5899 1.6843C24.0721 0.342806 22.5648 -0.324868 21.2233 0.192974C21.2043 0.200327 21.1854 0.20786 21.1666 0.215635L4.99921 6.91769C3.70539 7.4556 3.06936 8.92101 3.55996 10.2335L4.21088 11.9693L5.30346 14.9635H21.697L24.9916 13.9992Z" fill="#9DBB68"/>
<path d="M7.78781 11.9709L6.76562 9.41546L10.8544 7.37109L11.8765 9.92655L7.78781 11.9709Z" fill="#AAC16B"/>
<path d="M19.8555 9.48674L24.455 7.44141L24.8468 8.32256L20.2473 10.3679L19.8555 9.48674Z" fill="#5D7B34"/>
<path d="M16.7812 8.46676L23.425 5.40039L23.829 6.27552L17.1851 9.34189L16.7812 8.46676Z" fill="#5D7B34"/>
<path d="M26.3718 13.4406C26.4147 13.4232 26.4509 13.3967 26.4924 13.3774C26.3632 12.0892 25.2798 11.1079 23.9851 11.1064H3.88281L4.20683 11.971L5.30133 14.9637H21.6948L24.9895 13.9994L26.3718 13.4406Z" fill="#5D7B34"/>
<path d="M2.53135 12.0713H23.0232C24.4213 12.0713 25.5546 13.2046 25.5546 14.6026V25.4513C25.5546 26.8493 24.4213 27.9826 23.0232 27.9826H2.53135C1.13332 27.9826 0 26.8493 0 25.4513V14.6026C0 13.2046 1.13332 12.0713 2.53135 12.0713Z" fill="#FFD389"/>
<path d="M18.3227 26.5359C16.7249 26.5359 15.4297 25.2407 15.4297 23.643C15.4297 22.0452 16.7249 20.75 18.3227 20.75C19.9204 20.75 21.2156 22.0452 21.2156 23.643C21.2141 25.2401 19.9198 26.5344 18.3227 26.5359ZM18.3227 21.7143C17.2575 21.7143 16.394 22.5778 16.394 23.643C16.394 24.7081 17.2575 25.5716 18.3227 25.5716C19.3878 25.5716 20.2513 24.7081 20.2513 23.643C20.2513 22.5778 19.3878 21.7143 18.3227 21.7143Z" fill="#FAB441"/>
<path d="M21.2133 26.5359C19.6155 26.5359 18.3203 25.2407 18.3203 23.643C18.3203 22.0452 19.6155 20.75 21.2133 20.75C22.811 20.75 24.1063 22.0452 24.1063 23.643C24.1047 25.2401 22.8104 26.5344 21.2133 26.5359ZM21.2133 21.7143C20.1481 21.7143 19.2846 22.5778 19.2846 23.643C19.2846 24.7081 20.1481 25.5716 21.2133 25.5716C22.2784 25.5716 23.1419 24.7081 23.1419 23.643C23.1419 22.5778 22.2784 21.7143 21.2133 21.7143Z" fill="#FAB441"/>
<path d="M0 14.9639H25.5546V18.8212H0V14.9639Z" fill="#FAB441"/>
</svg>
