<svg width="22" height="22" viewBox="0 0 22 22" fill="none" xmlns="http://www.w3.org/2000/svg">
<path d="M11 22C17.0751 22 22 17.0751 22 11C22 4.92487 17.0751 0 11 0C4.92487 0 0 4.92487 0 11C0 17.0751 4.92487 22 11 22Z" fill="#FFCC4D"/>
<path d="M6.42724 14.4342C6.45474 14.5436 7.14101 17.1102 11.0014 17.1102C14.8624 17.1102 15.5481 14.5436 15.5756 14.4342C15.6092 14.3016 15.5493 14.1641 15.4307 14.0956C15.3116 14.0278 15.1625 14.048 15.0641 14.1427C15.0525 14.1543 13.87 15.2769 11.0014 15.2769C8.13285 15.2769 6.94974 14.1543 6.93874 14.1433C6.88007 14.0852 6.80185 14.0547 6.72362 14.0547C6.67229 14.0547 6.62035 14.0675 6.57329 14.0938C6.45351 14.1622 6.39362 14.301 6.42724 14.4342Z" fill="#664500"/>
<path d="M7.33247 10.3891C8.17623 10.3891 8.86024 9.43149 8.86024 8.25022C8.86024 7.06894 8.17623 6.11133 7.33247 6.11133C6.4887 6.11133 5.80469 7.06894 5.80469 8.25022C5.80469 9.43149 6.4887 10.3891 7.33247 10.3891Z" fill="#664500"/>
<path d="M14.6684 10.3891C15.5122 10.3891 16.1962 9.43149 16.1962 8.25022C16.1962 7.06894 15.5122 6.11133 14.6684 6.11133C13.8246 6.11133 13.1406 7.06894 13.1406 8.25022C13.1406 9.43149 13.8246 10.3891 14.6684 10.3891Z" fill="#664500"/>
</svg>
