<svg width="22" height="22" viewBox="0 0 22 22" fill="none" xmlns="http://www.w3.org/2000/svg">
<path d="M11 22C17.0751 22 22 17.0751 22 11C22 4.92487 17.0751 0 11 0C4.92487 0 0 4.92487 0 11C0 17.0751 4.92487 22 11 22Z" fill="#FFCC4D"/>
<path d="M10.9996 12.8327C8.78551 12.8327 7.3164 12.5748 5.49957 12.2216C5.08462 12.1415 4.27734 12.2216 4.27734 13.4438C4.27734 15.8882 7.0854 18.9438 10.9996 18.9438C14.9131 18.9438 17.7218 15.8882 17.7218 13.4438C17.7218 12.2216 16.9145 12.1409 16.4996 12.2216C14.6827 12.5748 13.2136 12.8327 10.9996 12.8327Z" fill="#664500"/>
<path d="M5.5 13.4453C5.5 13.4453 7.33333 14.0564 11 14.0564C14.6667 14.0564 16.5 13.4453 16.5 13.4453C16.5 13.4453 15.2778 15.8898 11 15.8898C6.72222 15.8898 5.5 13.4453 5.5 13.4453Z" fill="white"/>
<path d="M7.33247 10.3891C8.17623 10.3891 8.86024 9.43149 8.86024 8.25022C8.86024 7.06894 8.17623 6.11133 7.33247 6.11133C6.4887 6.11133 5.80469 7.06894 5.80469 8.25022C5.80469 9.43149 6.4887 10.3891 7.33247 10.3891Z" fill="#664500"/>
<path d="M14.6684 10.3891C15.5122 10.3891 16.1962 9.43149 16.1962 8.25022C16.1962 7.06894 15.5122 6.11133 14.6684 6.11133C13.8246 6.11133 13.1406 7.06894 13.1406 8.25022C13.1406 9.43149 13.8246 10.3891 14.6684 10.3891Z" fill="#664500"/>
</svg>
