<svg width="31" height="31" viewBox="0 0 31 31" fill="none" xmlns="http://www.w3.org/2000/svg">
<path d="M30.1035 20.6985C27.9672 26.7026 22.2337 31.0008 15.4967 31.0008C8.75964 31.0008 3.02621 26.7026 0.889879 20.6985C0.884248 20.6829 0.878617 20.6679 0.873047 20.6523C0.873047 20.6523 30.1091 20.6829 30.1035 20.6985Z" fill="#0AB69F"/>
<path d="M27.314 20.6523C25.3044 26.2569 20.2657 30.3836 14.0938 30.9374C21.2392 31.5826 27.7691 27.1823 30.104 20.6985C30.1096 20.6829 30.1152 20.6679 30.1208 20.6523H27.314Z" fill="#01998D"/>
<path d="M30.1203 10.3485H0.873047C2.99691 4.32069 8.7422 0 15.4967 0C22.2512 0 27.9965 4.32069 30.1203 10.3485Z" fill="#FE7D43"/>
<path d="M15.4972 0C15.0241 0 14.5561 0.0219785 14.0938 0.0634531C20.2317 0.61443 25.3389 4.74288 27.314 10.3485H30.1208C27.9969 4.32069 22.2517 0 15.4972 0Z" fill="#FD6930"/>
<path d="M29.893 21.2547H1.10107C-0.355024 17.6361 -0.349333 13.4068 1.08236 9.78906H29.9118C31.3477 13.3902 31.3457 17.6478 29.893 21.2547Z" fill="#F5F8F9"/>
<path d="M29.9125 9.78906H27.1056C28.5365 13.3821 28.537 17.6541 27.0869 21.2547H29.8938C31.3595 17.5971 31.3517 13.4259 29.9125 9.78906Z" fill="#E8EDF2"/>
<path d="M15.4965 11.2617C13.1808 11.2617 11.2588 13.2148 11.2588 15.4995C11.2588 17.7801 13.1853 19.7372 15.4965 19.7372C17.7927 19.7372 19.7343 17.7892 19.7343 15.4995C19.7343 13.174 17.8364 11.2617 15.4965 11.2617ZM18.1342 15.9672H18.7652C18.7349 16.1816 18.6842 16.3921 18.6124 16.5961C18.6117 16.5978 18.6091 16.6051 18.6085 16.6068C18.4951 16.9255 18.3352 17.2185 18.1387 17.48L17.2332 16.5745C17.0505 16.3919 16.7543 16.3919 16.5716 16.5745C16.3889 16.7572 16.3889 17.0534 16.5716 17.2361L17.4762 18.1408C17.038 18.4688 16.5194 18.688 15.9643 18.7677V18.0562C15.9643 17.7979 15.7549 17.5884 15.4965 17.5884C15.2382 17.5884 15.0287 17.7979 15.0287 18.0562V18.7677C14.4738 18.688 13.9552 18.4688 13.517 18.1406L14.4215 17.2361C14.6042 17.0535 14.6042 16.7573 14.4215 16.5745C14.2388 16.3919 13.9426 16.3919 13.7599 16.5745L12.8547 17.4797C12.6577 17.2176 12.4973 16.9238 12.3836 16.604L12.381 16.597C12.3089 16.3925 12.2582 16.1818 12.2278 15.9672H12.8308C13.0891 15.9672 13.2986 15.7578 13.2986 15.4995C13.2986 15.2411 13.0891 15.0317 12.8308 15.0317H12.2278C12.2582 14.8172 12.3089 14.6065 12.3809 14.402C12.4946 14.0794 12.6556 13.7829 12.8542 13.5187L13.7599 14.4244C13.8512 14.5157 13.9709 14.5614 14.0906 14.5614C14.2103 14.5614 14.3301 14.5157 14.4214 14.4244C14.6041 14.2417 14.6041 13.9455 14.4214 13.7628L13.5166 12.858C13.9547 12.5299 14.4733 12.3108 15.0287 12.2312V12.9906C15.0287 13.2489 15.2381 13.4584 15.4965 13.4584C15.7548 13.4584 15.9642 13.2489 15.9642 12.9906V12.2312C16.5196 12.3108 17.0382 12.5299 17.4763 12.858L16.5715 13.7628C16.3887 13.9455 16.3887 14.2417 16.5715 14.4244C16.6628 14.5158 16.7825 14.5615 16.9022 14.5615C17.0219 14.5615 17.1417 14.5157 17.233 14.4244L18.1387 13.5187C18.3373 13.7829 18.4983 14.0793 18.612 14.4019C18.684 14.6065 18.7347 14.8172 18.7651 15.0317H18.1341C17.8758 15.0317 17.6663 15.2411 17.6663 15.4995C17.6665 15.7578 17.8759 15.9672 18.1342 15.9672Z" fill="#314DC9"/>
<path d="M15.4958 14.9531C15.2572 14.9531 15.0542 15.1058 14.9792 15.3187C14.9591 15.3756 14.9482 15.4369 14.9482 15.5007C14.9482 15.5645 14.9591 15.6257 14.9792 15.6827C14.9794 15.6833 14.9796 15.6838 14.9798 15.6843C15.0552 15.8964 15.2578 16.0483 15.4958 16.0483C15.7338 16.0483 15.9364 15.8964 16.0119 15.6843C16.012 15.6838 16.0123 15.6833 16.0125 15.6827C16.0325 15.6258 16.0434 15.5645 16.0434 15.5007C16.0434 15.4369 16.0325 15.3757 16.0125 15.3187C15.9374 15.1058 15.7344 14.9531 15.4958 14.9531Z" fill="#314DC9"/>
</svg>
