<svg width="32" height="32" viewBox="0 0 32 32" fill="none" xmlns="http://www.w3.org/2000/svg">
<g clip-path="url(#clip0)">
<path d="M9.46386 13.835L2.47559 27.0011L8.82156 26.4149L11.893 31.9995L18.8813 18.8333L9.46386 13.835Z" fill="#89D5ED"/>
<path d="M10.2645 28.1661C10.4605 27.7449 10.2554 27.2417 9.84526 27.0236L9.44307 26.8095C9.04088 26.5804 8.88781 26.0712 9.10691 25.659C9.32901 25.2398 9.85126 25.0797 10.2705 25.3018L11.407 25.9051C11.7582 26.0912 12.1984 25.9561 12.3794 25.6029L12.4075 25.5489C12.6156 25.2158 12.4925 24.7755 12.1463 24.5925L8.74674 22.7886C8.33255 22.5685 8.12945 22.0673 8.32254 21.6451C8.53564 21.1959 9.07389 21.0188 9.5071 21.2489L12.6606 22.9227C13.0117 23.1088 13.4519 22.9737 13.638 22.6225L13.656 22.5765L13.661 22.5665C13.8621 22.1983 13.7211 21.7361 13.3499 21.539L11.5811 20.6006C11.1669 20.3805 10.9638 19.8792 11.1599 19.452C11.371 19.0078 11.9112 18.8258 12.3444 19.0559L14.2983 20.0934C14.6635 20.2874 15.0997 20.1254 15.2888 19.7572C15.2918 19.7522 15.2918 19.7522 15.2938 19.7472C15.2968 19.7422 15.2968 19.7422 15.2988 19.7372C15.4979 19.374 15.3879 18.9218 15.0217 18.7287L12.9137 17.6102C12.5045 17.3931 12.3014 16.8919 12.4945 16.4697C12.7076 16.0204 13.2458 15.8434 13.6791 16.0735L18.8795 18.8338L11.8912 31.9999L9.96531 28.4993C10.0894 28.4153 10.1974 28.3112 10.2645 28.1661Z" fill="#8AD1E7"/>
<path d="M22.5366 13.835L29.5248 27.0011L23.1789 26.4149L20.1074 31.9995L13.1191 18.8333L22.5366 13.835Z" fill="#8AD1E7"/>
<path d="M21.7362 28.1661C21.5401 27.7449 21.7452 27.2417 22.1554 27.0236L22.5575 26.8095C22.9597 26.5804 23.1128 26.0711 22.8937 25.6589C22.6716 25.2397 22.1494 25.0797 21.7302 25.3018L20.5936 25.9051C20.2425 26.0911 19.8023 25.9561 19.6212 25.6029L19.5932 25.5489C19.3851 25.2157 19.5081 24.7755 19.8543 24.5924L23.2549 22.7876C23.6691 22.5675 23.8722 22.0663 23.6791 21.6441C23.466 21.1948 22.9277 21.0178 22.4945 21.2479L19.341 22.9217C18.9899 23.1077 18.5497 22.9727 18.3636 22.6215L18.3456 22.5755L18.3406 22.5655C18.1395 22.1973 18.2805 21.7351 18.6517 21.538L20.4205 20.5996C20.8347 20.3795 21.0378 19.8782 20.8417 19.451C20.6306 19.0068 20.0904 18.8247 19.6572 19.0548L17.7013 20.0943C17.3361 20.2884 16.8999 20.1263 16.7108 19.7582C16.7078 19.7532 16.7078 19.7532 16.7058 19.7482C16.7028 19.7432 16.7028 19.7432 16.7008 19.7382C16.5017 19.375 16.6118 18.9228 16.9779 18.7297L19.0859 17.6112C19.4951 17.3941 19.6982 16.8928 19.5051 16.4706C19.292 16.0214 18.7538 15.8443 18.3206 16.0744L13.1201 18.8347L20.1084 32.0009L22.0343 28.5003C21.9112 28.4152 21.8032 28.3112 21.7362 28.1661Z" fill="#89D5ED"/>
<path d="M15.9997 23.3529C22.4485 23.3529 27.6762 18.1252 27.6762 11.6765C27.6762 5.22773 22.4485 0 15.9997 0C9.55098 0 4.32324 5.22773 4.32324 11.6765C4.32324 18.1252 9.55098 23.3529 15.9997 23.3529Z" fill="#FFCC5B"/>
<path d="M17.5836 10.3374H10.1842C9.60888 10.3374 9.13666 9.86516 9.13666 9.2899L9.14467 9.21786V9.20185C9.13666 8.59457 9.63189 8.09834 10.2402 8.09834H15.3686C16.0479 8.09834 16.6482 7.5951 16.6882 6.91478C16.7202 6.20345 16.153 5.60317 15.4406 5.60317H10.0081C9.40879 5.60317 8.96058 5.09993 8.96858 4.49965C8.96858 4.49165 8.96858 4.49165 8.96858 4.48364C8.96858 4.47564 8.96858 4.47564 8.96858 4.46764C8.96058 3.86836 9.40779 3.36412 10.0081 3.36412H15.6927C16.364 3.36412 16.9643 2.86088 17.0043 2.18857C17.0364 1.46923 16.4691 0.876953 15.7568 0.876953H11.5938C7.34882 2.62677 4.35742 6.80073 4.35742 11.677C4.35742 16.5533 7.34882 20.7263 11.5948 22.4741H16.8803C17.5516 22.4741 18.1519 21.9708 18.1919 21.2985C18.2239 20.5792 17.6567 19.9879 16.9443 19.9879L10.9315 19.9869C10.2222 19.9869 9.6509 19.3936 9.68892 18.6753C9.72394 18.003 10.3282 17.4977 11.0015 17.4977H13.3326C14.0029 17.4787 14.5442 16.9295 14.5442 16.2542C14.5442 15.5668 13.9849 15.0066 13.2966 15.0066H9.76296C9.18769 15.0066 8.71546 14.5354 8.72347 13.9591V13.871C8.68345 13.3038 9.13966 12.8236 9.70693 12.8236H17.5116C18.1909 12.8236 18.7912 12.3203 18.8312 11.648C18.8632 10.9297 18.295 10.3374 17.5836 10.3374Z" fill="#FDBC4B"/>
<path d="M15.9999 20.0106C11.4038 20.0106 7.66504 16.2709 7.66504 11.6757C7.66504 7.08055 11.4038 3.3418 15.9999 3.3418C20.5961 3.3418 24.3349 7.08155 24.3349 11.6767C24.3349 16.2719 20.5961 20.0106 15.9999 20.0106Z" fill="#FFDB70"/>
<path opacity="0.2" d="M24.3346 11.6761C24.3346 7.24205 20.851 3.61535 16.4779 3.36523H15.7016C15.1893 3.36523 14.7321 3.74941 14.7011 4.26165C14.6771 4.80991 15.1093 5.26212 15.6525 5.26212L20.2387 5.26312C20.7799 5.26312 21.2151 5.71534 21.1861 6.26359C21.1591 6.77683 20.6989 7.16201 20.1847 7.16201H18.4068C17.8956 7.17702 17.4824 7.59522 17.4824 8.11046C17.4824 8.6347 17.9096 9.0619 18.4338 9.0619H21.1291C21.5683 9.0619 21.9275 9.42207 21.9215 9.86028V9.92631C21.9515 10.3595 21.6043 10.7247 21.1711 10.7247H15.2193C14.7011 10.7247 14.2439 11.1089 14.2129 11.6211C14.1889 12.1694 14.6211 12.6216 15.1643 12.6216H20.8069C21.2462 12.6216 21.6053 12.9817 21.6053 13.4199L21.5993 13.475V13.487C21.6053 13.9502 21.2271 14.3284 20.7639 14.3284H16.8521C16.3339 14.3284 15.8766 14.7126 15.8456 15.2308C15.8216 15.773 16.2538 16.2313 16.7971 16.2313H20.94C21.3972 16.2313 21.7384 16.6154 21.7324 17.0727C21.7324 17.0787 21.7324 17.0787 21.7324 17.0847C21.7324 17.0907 21.7324 17.0907 21.7324 17.0967C21.7384 17.5539 21.3972 17.9381 20.94 17.9381H16.605C16.0927 17.9381 15.6355 18.3222 15.6045 18.8345C15.5805 19.3837 16.0127 19.835 16.556 19.835H17.6995C21.4843 19.0466 24.3346 15.688 24.3346 11.6761Z" fill="white"/>
<path d="M21.8183 9.83173H17.7644L16.5108 5.97592C16.3497 5.48068 15.6484 5.48068 15.4873 5.97592L14.2347 9.83173H10.1808C9.6596 9.83173 9.4425 10.499 9.86469 10.8052L13.1442 13.1883L11.8916 17.0441C11.7306 17.5394 12.2978 17.9515 12.72 17.6454L15.9996 15.2623L19.2791 17.6454C19.7013 17.9515 20.2686 17.5394 20.1075 17.0441L18.8549 13.1883L22.1344 10.8052C22.5556 10.499 22.3395 9.83173 21.8183 9.83173Z" fill="#EC9922"/>
</g>
<defs>
<clipPath id="clip0">
<rect width="32" height="32" fill="white"/>
</clipPath>
</defs>
</svg>
