<svg width="33" height="33" viewBox="0 0 33 33" fill="none" xmlns="http://www.w3.org/2000/svg">
<g clip-path="url(#clip0)">
<path d="M16.8058 5.65714C16.7066 5.62408 16.6032 5.65688 16.4999 5.65669C16.3969 5.65643 16.294 5.62317 16.195 5.65624L4.59277 9.52423V11.3577L16.194 15.2248C16.2932 15.2578 16.397 15.2748 16.4999 15.2748C16.6029 15.2748 16.7067 15.2578 16.8058 15.2248L28.4071 11.3577V9.52423L16.8058 5.65714Z" fill="#FFC473"/>
<path d="M28.4072 11.3579V9.52444L16.8059 5.65735C16.7066 5.62428 16.6033 5.65709 16.5 5.6569V15.2751C16.6029 15.2751 16.7068 15.258 16.8059 15.225L28.4072 11.3579Z" fill="#FF9F00"/>
<path d="M16.4997 13.6631H3.93164V27.9072C3.93164 28.3235 4.19789 28.6927 4.59253 28.8239L16.1938 32.691C16.2929 32.7241 16.3968 32.7411 16.4997 32.7411C16.6026 32.7411 16.7064 32.724 16.8056 32.691L28.4068 28.8239C28.8015 28.6927 29.0677 28.3235 29.0677 27.9072V13.6631H16.4997Z" fill="#FFC473"/>
<path d="M28.4072 28.8239C28.8018 28.6927 29.068 28.3235 29.068 27.9071V13.6631H16.5V32.7411C16.6029 32.7411 16.7068 32.724 16.8059 32.691L28.4072 28.8239Z" fill="#FF9F00"/>
<path d="M18.9168 0.257812C17.978 0.257812 17.1494 0.620932 16.4999 1.31237C15.8503 0.620932 15.0217 0.257812 14.0829 0.257812C12.1855 0.257812 10.6992 1.74626 10.6992 3.64641C10.6992 5.65582 12.357 6.94736 14.6513 8.73492C15.0489 9.04474 15.4601 9.36507 15.8959 9.71375C16.0725 9.85496 16.2862 9.9256 16.4999 9.9256C16.7135 9.9256 16.9272 9.85496 17.1038 9.71375C17.5396 9.36507 17.9508 9.04474 18.3484 8.73492C20.6428 6.94736 22.3005 5.65582 22.3005 3.64641C22.3005 1.74626 20.8142 0.257812 18.9168 0.257812Z" fill="#FF5E95"/>
<path d="M17.1039 9.71375C17.5398 9.36506 17.9509 9.04474 18.3486 8.73492C20.6429 6.94736 22.3006 5.65588 22.3006 3.64641C22.3006 1.74626 20.8143 0.257812 18.9169 0.257812C17.9782 0.257812 17.1495 0.620932 16.5 1.31237V9.92554C16.7137 9.9256 16.9274 9.85502 17.1039 9.71375Z" fill="#E63950"/>
<path d="M32.8373 15.7056L28.9057 9.90495C28.6631 9.54144 28.2071 9.38192 27.7954 9.52449L16.5 13.2896L5.20471 9.52449C4.79022 9.38289 4.3352 9.5415 4.0944 9.90495L0.162864 15.7056C-0.193746 16.2415 0.0632864 16.9612 0.661332 17.1586L12.3271 21.0257C12.7376 21.1637 13.1943 21.0096 13.4374 20.6452L16.5001 16.0512L19.5628 20.6452C19.8061 21.01 20.263 21.1636 20.6731 21.0257L32.3388 17.1586C32.9379 16.9608 33.1931 16.2403 32.8373 15.7056Z" fill="#FFE470"/>
<path d="M20.673 21.0257L32.3388 17.1586C32.9379 16.9608 33.1931 16.2403 32.8372 15.7056L28.9057 9.90495C28.663 9.54144 28.207 9.38192 27.7954 9.52449L16.5 13.2896V16.0512L19.5627 20.6452C19.806 21.01 20.2629 21.1636 20.673 21.0257Z" fill="#FFC473"/>
<path d="M26.0908 16.5449C29.1618 16.5449 31.6513 14.0553 31.6513 10.9843C31.6513 7.91336 29.1618 5.42383 26.0908 5.42383C23.0198 5.42383 20.5303 7.91336 20.5303 10.9843C20.5303 14.0553 23.0198 16.5449 26.0908 16.5449Z" fill="url(#paint0_linear)"/>
<path d="M24.8369 8.75759C24.8369 8.57725 24.9097 8.43494 25.0555 8.33091L26.1378 7.29025C26.2141 7.214 26.3078 7.17578 26.4188 7.17578C26.5437 7.17578 26.6563 7.20878 26.757 7.27465C26.8575 7.34065 26.9079 7.42915 26.9079 7.54001V14.4295C26.9079 14.5405 26.8523 14.629 26.7414 14.6948C26.6304 14.7608 26.5021 14.7937 26.3564 14.7937C26.2037 14.7937 26.0736 14.7608 25.9661 14.6948C25.8585 14.629 25.8049 14.5405 25.8049 14.4295V8.64319L25.4406 9.10113C25.3712 9.17055 25.295 9.20516 25.2117 9.20516C25.1076 9.20516 25.0191 9.15837 24.9464 9.06471C24.8733 8.97094 24.8369 8.86865 24.8369 8.75759Z" fill="white"/>
</g>
<defs>
<linearGradient id="paint0_linear" x1="23.7737" y1="5.46191" x2="28.3849" y2="16.4465" gradientUnits="userSpaceOnUse">
<stop stop-color="#D63305"/>
<stop offset="0.366" stop-color="#CF3004"/>
<stop offset="0.899" stop-color="#BC2602"/>
<stop offset="1" stop-color="#B72401"/>
</linearGradient>
<clipPath id="clip0">
<rect width="33" height="33" fill="white"/>
</clipPath>
</defs>
</svg>
