<svg width="60" height="60" viewBox="0 0 60 60" fill="none" xmlns="http://www.w3.org/2000/svg">
<path d="M26.4722 38.8243C25.537 38.8208 24.6422 38.4466 23.984 37.7831L18.6899 32.4891C17.3117 31.1108 17.3117 28.8731 18.6899 27.495C20.0682 26.1169 22.3059 26.1168 23.684 27.495L26.6663 30.4773L36.531 22.0243C38.1493 20.9373 40.3428 21.3696 41.4281 22.9879C42.3298 24.3326 42.2028 26.1166 41.1193 27.3184L28.7663 37.9066C28.1364 38.4785 27.3229 38.8049 26.4722 38.8243Z" fill="#46C5EC"/>
<path d="M30 60C13.4312 60 0 46.5688 0 30C0 13.4312 13.4312 0 30 0C46.5688 0 60 13.4312 60 30C60 46.5688 46.5688 60 30 60ZM30 7.05879C17.3295 7.05879 7.05879 17.3295 7.05879 30C7.05879 42.6705 17.3295 52.9412 30 52.9412C42.6705 52.9412 52.9412 42.6705 52.9412 30C52.9412 17.3295 42.6705 7.05879 30 7.05879Z" fill="#284486"/>
</svg>
