<svg width="28" height="28" viewBox="0 0 28 28" fill="none" xmlns="http://www.w3.org/2000/svg">
<g clip-path="url(#clip0)">
<path d="M22.1289 20.3447V24.6807C19.6592 24.7897 20.3718 25.2261 16.0747 27.1581C15.5274 27.3734 14.2641 27.7261 12.9111 27.1043C12.9103 27.104 12.9091 27.1035 12.9084 27.1032L4.46654 24.0806C4.19184 23.9543 2.80617 23.2014 3.35272 21.7993C3.99169 20.304 5.63597 20.9277 5.77379 20.9726L10.181 22.1911" fill="#EAC092"/>
<path d="M17.1427 22.1582L12.2346 23.7135C11.378 23.9571 10.4862 23.4602 10.2426 22.6036C9.99906 21.747 10.496 20.8552 11.4775 20.491L15.8316 19.0132C15.8318 19.0129 16.7612 17.4951 18.9746 17.4951C20.3722 17.4951 21.5771 18.6247 22.1289 19.6135V21.588" fill="#FEDBAB"/>
<path d="M19.0977 22.0857C19.1332 22.0857 19.1693 22.0819 19.2043 22.0748C19.2393 22.0682 19.2738 22.0573 19.3071 22.0436C19.3399 22.0299 19.3716 22.013 19.4012 21.9932C19.4313 21.9736 19.4591 21.9506 19.4843 21.9254C19.5095 21.9003 19.5324 21.8724 19.5521 21.8423C19.5723 21.8128 19.5887 21.7811 19.6024 21.7477C19.6161 21.7149 19.627 21.6804 19.6336 21.6454C19.6407 21.6104 19.6445 21.5743 19.6445 21.5388C19.6445 21.5032 19.6407 21.4671 19.6336 21.4321C19.627 21.3971 19.6161 21.3627 19.6024 21.3293C19.5887 21.2965 19.5723 21.2648 19.5521 21.2353C19.5324 21.2052 19.5095 21.1773 19.4843 21.1521C19.4591 21.127 19.4313 21.104 19.4012 21.0843C19.3716 21.0646 19.3399 21.0477 19.3071 21.034C19.2738 21.0204 19.2393 21.0094 19.2043 21.0029C19.1343 20.9886 19.0616 20.9886 18.991 21.0029C18.956 21.0094 18.9216 21.0204 18.8887 21.034C18.8554 21.0477 18.8237 21.0646 18.7941 21.0843C18.7641 21.104 18.7362 21.127 18.711 21.1521C18.6859 21.1773 18.6629 21.2052 18.6432 21.2353C18.6235 21.2648 18.6066 21.2965 18.5929 21.3293C18.5792 21.3627 18.5688 21.3971 18.5617 21.4321C18.5546 21.4671 18.5508 21.5032 18.5508 21.5388C18.5508 21.5743 18.5546 21.6104 18.5617 21.6454C18.5688 21.6804 18.5792 21.7149 18.5929 21.7477C18.6066 21.7811 18.6235 21.8128 18.6432 21.8423C18.6629 21.8724 18.6859 21.9003 18.711 21.9254C18.7362 21.9506 18.7641 21.9736 18.7941 21.9932C18.8237 22.0129 18.8554 22.0299 18.8887 22.0436C18.9216 22.0573 18.956 22.0682 18.991 22.0748C19.026 22.0819 19.0621 22.0857 19.0977 22.0857Z" fill="black"/>
<path d="M22.1314 19.5439H24.2031V25.4196H22.1314V19.5439Z" fill="#EAECF0"/>
<path d="M24.2014 19.5439H27.4531V26.4389H24.2014V19.5439Z" fill="#3688C8"/>
<path d="M14.8772 5.40508L19.7344 0.547852L25.8242 6.63769L15.4179 17.044L9.67123 11.2973" fill="#26CFAD"/>
<path d="M17.7551 6.2357C17.7548 6.23461 17.7544 6.23352 17.7542 6.23242C18.3521 6.27327 18.9385 6.52216 19.3956 6.97923C20.3994 7.98308 20.3994 9.61058 19.3956 10.6144C18.3917 11.6183 16.7642 11.6183 15.7604 10.6144C15.2749 10.1289 15.0242 9.49754 15.0083 8.86141" fill="#FFD36C"/>
<path d="M5.86923 8.49448V4.15847C8.33897 4.04954 7.62634 3.61313 11.9234 1.68108C12.4707 1.46577 13.7341 1.11315 15.0871 1.73489C15.0878 1.73522 15.089 1.73571 15.0898 1.73598L17.6367 2.6479L15.0088 5.27585" fill="#EAC092"/>
<path d="M25.8242 6.63781L23.7597 4.57324C22.6211 5.71178 22.6211 7.56383 23.7597 8.70237L25.8242 6.63781Z" fill="#00B192"/>
<path d="M17.4844 14.9789C16.3458 13.8404 14.4938 13.8404 13.3552 14.9789L15.4198 17.0435L17.4844 14.9789Z" fill="#00B192"/>
<path d="M21.8008 2.61241L19.7362 0.547852L17.6717 2.61241C18.8101 3.75095 20.6622 3.75095 21.8008 2.61241Z" fill="#00B192"/>
<path d="M12.0712 9.95508C12.4454 10.9881 12.2191 12.1914 11.3922 13.0183L9.67081 11.2969" fill="#00B192"/>
<path d="M10.8551 6.67977L15.7632 5.1244C16.6198 4.88082 17.5116 5.37777 17.7551 6.23434C17.9987 7.09091 17.5018 7.9827 16.5203 8.34692L12.1644 9.82528L12.1662 9.82468C12.1662 9.82468 11.2368 11.3428 9.02318 11.3428C7.62558 11.3428 6.42071 10.2132 5.86886 9.22438V7.24994" fill="#FEDBAB"/>
<path d="M8.90234 7.84641C8.93789 7.84641 8.97399 7.84258 9.00899 7.83547C9.04399 7.82836 9.07844 7.81797 9.11125 7.8043C9.14461 7.79063 9.17633 7.77367 9.20586 7.75398C9.23594 7.7343 9.26383 7.71133 9.28898 7.68617C9.31414 7.66102 9.33711 7.63312 9.3568 7.60305C9.37648 7.57352 9.39344 7.5418 9.40711 7.50844C9.42078 7.47563 9.43172 7.44117 9.43828 7.40617C9.44539 7.37117 9.44922 7.33508 9.44922 7.29953C9.44922 7.26398 9.44539 7.22789 9.43828 7.19289C9.43172 7.15789 9.42078 7.12344 9.40711 7.09008C9.39344 7.05727 9.37648 7.02555 9.3568 6.99602C9.33711 6.96594 9.31414 6.93805 9.28898 6.91289C9.26383 6.88773 9.23594 6.86477 9.20586 6.84508C9.17633 6.82539 9.14461 6.80844 9.11125 6.79477C9.07844 6.78109 9.04399 6.77016 9.00899 6.76359C8.93844 6.74938 8.8657 6.74938 8.79516 6.76359C8.7607 6.77016 8.72625 6.78109 8.69289 6.79477C8.66008 6.80844 8.62836 6.82539 8.59883 6.84508C8.56875 6.86477 8.54086 6.88773 8.5157 6.91289C8.49055 6.93805 8.46758 6.96594 8.44789 6.99602C8.42766 7.02555 8.41125 7.05727 8.39758 7.09008C8.38336 7.12344 8.37297 7.15789 8.36586 7.19289C8.35875 7.22789 8.35547 7.26398 8.35547 7.29953C8.35547 7.33508 8.35875 7.37117 8.36586 7.40617C8.37297 7.44117 8.38336 7.47563 8.39758 7.50844C8.41125 7.5418 8.42766 7.57352 8.44789 7.60305C8.46758 7.63312 8.49055 7.66102 8.5157 7.68617C8.54086 7.71133 8.56875 7.7343 8.59883 7.75398C8.62836 7.77367 8.66008 7.79063 8.69289 7.8043C8.72625 7.81797 8.7607 7.82836 8.79516 7.83547C8.8307 7.84258 8.8668 7.84641 8.90234 7.84641Z" fill="black"/>
<path d="M3.79937 3.41992H5.87109V9.29554H3.79937V3.41992Z" fill="#EAECF0"/>
<path d="M0.545158 2.39941H3.79688V9.29441H0.545158V2.39941Z" fill="#3688C8"/>
</g>
<defs>
<clipPath id="clip0">
<rect width="28" height="28" fill="white" transform="matrix(-1 0 0 1 28 0)"/>
</clipPath>
</defs>
</svg>
