<svg width="52" height="52" viewBox="0 0 52 52" fill="none" xmlns="http://www.w3.org/2000/svg">
<circle cx="26" cy="26" r="26" fill="#75E605"/>
<g clip-path="url(#clip0)">
<path d="M31.9674 39C31.1604 39 30.3602 38.8573 29.5778 38.5731C26.1308 37.3209 22.9312 35.2814 20.3249 32.6751C17.7185 30.0688 15.6791 26.8692 14.4269 23.4222C14.0245 22.3144 13.9058 21.1709 14.0741 20.0233C14.2318 18.9483 14.6481 17.9048 15.2783 17.0054C15.9112 16.1021 16.755 15.3507 17.7185 14.8326C18.7459 14.2802 19.8673 14 21.0516 14C21.4199 14 21.7383 14.2574 21.8155 14.6175L23.0417 20.3399C23.0972 20.599 23.0176 20.8686 22.8302 21.056L20.735 23.1512C22.7115 27.0811 25.9188 30.2883 29.8486 32.2649L31.9439 30.1696C32.1313 29.9823 32.4009 29.9028 32.66 29.9582L38.3824 31.1844C38.7426 31.2616 38.9999 31.5799 38.9999 31.9483C38.9999 33.1326 38.7197 34.2541 38.1672 35.2815C37.6491 36.2449 36.8978 37.0887 35.9944 37.7216C35.0951 38.3518 34.0515 38.7682 32.9765 38.9258C32.6397 38.9753 32.3029 39 31.9674 39ZM20.4274 15.5966C18.8652 15.7691 17.4786 16.5879 16.5579 17.902C15.5225 19.3798 15.281 21.1973 15.8955 22.8887C18.3028 29.5157 23.4843 34.6972 30.1112 37.1045C31.8026 37.719 33.6202 37.4776 35.0979 36.4421C36.4121 35.5213 37.2309 34.1348 37.4034 32.5726L32.7482 31.5751L30.56 33.7633C30.3272 33.9961 29.9734 34.058 29.6755 33.9179C25.0277 31.7344 21.2655 27.9723 19.082 23.3245C18.9421 23.0265 19.0039 22.6727 19.2367 22.4399L21.4249 20.2517L20.4274 15.5966Z" fill="white"/>
</g>
<defs>
<clipPath id="clip0">
<rect width="25" height="25" fill="white" transform="translate(14 14)"/>
</clipPath>
</defs>
</svg>
