<svg width="13" height="13" viewBox="0 0 13 13" fill="none" xmlns="http://www.w3.org/2000/svg">
<path d="M12.8456 12.1003L7.24532 6.49995L12.8456 0.899677C13.0514 0.693886 13.0514 0.360178 12.8456 0.154362C12.6398 -0.051454 12.3061 -0.051454 12.1003 0.154362L6.5 5.75463L0.899677 0.154362C0.693886 -0.051454 0.360178 -0.051454 0.154362 0.154362C-0.051454 0.360153 -0.051454 0.693861 0.154362 0.899677L5.75466 6.49995L0.154362 12.1003C-0.051454 12.3061 -0.051454 12.6398 0.154362 12.8456C0.360153 13.0514 0.693861 13.0514 0.899677 12.8456L6.5 7.24526L12.1003 12.8456C12.3061 13.0514 12.6398 13.0514 12.8456 12.8456C13.0515 12.6398 13.0515 12.3061 12.8456 12.1003Z" fill="#BCE6F3"/>
</svg>
