<svg width="144" height="144" viewBox="0 0 144 144" fill="none" xmlns="http://www.w3.org/2000/svg">
<path d="M55.496 61.392H39.416V69.936C40.152 69.072 41.16 68.384 42.44 67.872C43.752 67.328 45.192 67.056 46.76 67.056C49.096 67.056 51.032 67.568 52.568 68.592C54.136 69.584 55.288 70.928 56.024 72.624C56.792 74.288 57.176 76.144 57.176 78.192C57.176 81.808 56.152 84.704 54.104 86.88C52.088 89.056 49.192 90.144 45.416 90.144C42.952 90.144 40.808 89.712 38.984 88.848C37.16 87.952 35.736 86.72 34.712 85.152C33.688 83.552 33.128 81.696 33.032 79.584H39.608C39.864 81.024 40.456 82.176 41.384 83.04C42.312 83.872 43.544 84.288 45.08 84.288C46.936 84.288 48.312 83.728 49.208 82.608C50.136 81.456 50.6 79.936 50.6 78.048C50.6 76.256 50.12 74.864 49.16 73.872C48.2 72.88 46.84 72.384 45.08 72.384C43.8 72.384 42.712 72.672 41.816 73.248C40.92 73.792 40.264 74.528 39.848 75.456H33.272V55.44H55.496V61.392ZM61.631 72.768C61.631 84.256 65.951 90 74.591 90C79.167 90 82.463 88.464 84.479 85.392C86.495 82.32 87.503 78.112 87.503 72.768C87.503 67.456 86.495 63.264 84.479 60.192C82.463 57.12 79.167 55.584 74.591 55.584C65.951 55.584 61.631 61.312 61.631 72.768ZM80.831 72.768C80.831 76.256 80.399 78.944 79.535 80.832C78.703 82.688 77.055 83.616 74.591 83.616C72.095 83.616 70.415 82.688 69.551 80.832C68.719 78.944 68.303 76.256 68.303 72.768C68.303 69.312 68.719 66.656 69.551 64.8C70.415 62.912 72.095 61.968 74.591 61.968C77.055 61.968 78.703 62.912 79.535 64.8C80.399 66.656 80.831 69.312 80.831 72.768ZM98.6791 55.584C100.919 55.584 102.743 56.272 104.151 57.648C105.591 58.992 106.311 60.864 106.311 63.264C106.311 65.664 105.591 67.552 104.151 68.928C102.743 70.272 100.919 70.944 98.6791 70.944C96.4391 70.944 94.5991 70.272 93.1591 68.928C91.7511 67.552 91.0471 65.664 91.0471 63.264C91.0471 60.864 91.7511 58.992 93.1591 57.648C94.5991 56.272 96.4391 55.584 98.6791 55.584ZM120.375 56.016L101.511 90H94.9831L113.847 56.016H120.375ZM95.6071 63.264C95.6071 64.352 95.8791 65.232 96.4231 65.904C96.9671 66.544 97.7031 66.864 98.6311 66.864C99.5591 66.864 100.311 66.544 100.887 65.904C101.463 65.232 101.751 64.352 101.751 63.264C101.751 62.176 101.463 61.312 100.887 60.672C100.311 60 99.5591 59.664 98.6311 59.664C97.7031 59.664 96.9671 60 96.4231 60.672C95.8791 61.312 95.6071 62.176 95.6071 63.264ZM116.727 75.072C118.967 75.072 120.791 75.76 122.199 77.136C123.607 78.48 124.311 80.352 124.311 82.752C124.311 85.152 123.607 87.04 122.199 88.416C120.791 89.76 118.967 90.432 116.727 90.432C114.487 90.432 112.647 89.76 111.207 88.416C109.799 87.04 109.095 85.152 109.095 82.752C109.095 80.352 109.799 78.48 111.207 77.136C112.647 75.76 114.487 75.072 116.727 75.072ZM113.655 82.752C113.655 83.872 113.927 84.768 114.471 85.44C115.015 86.08 115.751 86.4 116.679 86.4C117.607 86.4 118.359 86.08 118.935 85.44C119.511 84.768 119.799 83.872 119.799 82.752C119.799 81.664 119.511 80.784 118.935 80.112C118.359 79.44 117.607 79.104 116.679 79.104C115.751 79.104 115.015 79.44 114.471 80.112C113.927 80.752 113.655 81.632 113.655 82.752Z" fill="#595454"/>
<path d="M72 144C52.7687 144 34.688 136.512 21.0892 122.911C7.48943 109.312 0 91.2323 0 72C0 52.7687 7.48939 34.6891 21.0882 21.0892C34.688 7.48943 52.7677 0 72 0C90.546 0 108.16 7.03464 121.598 19.8066C136.044 33.5385 144 52.075 144 71.9989C144 91.2292 136.512 109.309 122.912 122.91C109.312 136.512 91.2313 144 72 144ZM72 13.714C56.4312 13.714 41.7939 19.7773 30.7856 30.7856C19.7772 41.795 13.714 56.4312 13.714 72C13.714 87.5688 19.7772 102.205 30.7856 113.214C41.7939 124.224 56.4312 130.285 72 130.285C87.5688 130.285 102.206 124.224 113.213 113.214C124.222 102.205 130.286 87.5667 130.286 72C130.286 55.8705 123.844 40.8655 112.149 29.7471C101.272 19.4095 87.0124 13.714 72 13.714Z" fill="#DCDCDC"/>
<path d="M72 144V130.285C87.5688 130.285 102.206 124.224 113.213 113.214C124.222 102.205 130.286 87.5667 130.286 72C130.286 55.8705 123.844 40.8655 112.149 29.7471C101.272 19.4084 87.0134 13.714 72 13.714V0C90.546 0 108.16 7.03464 121.598 19.8066C136.044 33.5385 144 52.075 144 71.9989C144 91.2292 136.512 109.309 122.912 122.91C109.312 136.512 91.2313 144 72 144Z" fill="#8AD1E7"/>
</svg>
